<?xml version="1.0" encoding="utf-8"?>
<!-- Generator: Adobe Illustrator 19.1.0, SVG Export Plug-In . SVG Version: 6.00 Build 0)  -->
<svg version="1.1" id="Layer_1" xmlns="http://www.w3.org/2000/svg" xmlns:xlink="http://www.w3.org/1999/xlink" x="0px" y="0px"
	 viewBox="0 0 52 47" style="enable-background:new 0 0 52 47;" xml:space="preserve">
<style type="text/css">
	.st0{fill:#F4EE9A;}
	.st1{fill:#CEC76A;}
	.st2{fill:#F5F0A3;}
	.st3{fill:#B3B348;}
	.st4{fill:#F2EB8E;}
	.st5{fill:#F2EEA7;}
	.st6{fill:#C4C25F;}
	.st7{fill:#F6F1A7;}
	.st8{fill:#F3EB96;}
	.st9{fill:#F5EF9B;}
	.st10{fill:#F3EDA7;}
	.st11{fill:#F2EECA;}
	.st12{fill:#F3E981;}
	.st13{fill:#F4F2B6;}
	.st14{fill:#E1DD7D;}
	.st15{fill:#F4EC8F;}
	.st16{fill:#AEB14C;}
	.st17{fill:#F1EA8D;}
	.st18{fill:#DFD782;}
	.st19{fill:#D8CE76;}
	.st20{fill:#EFEBBD;}
	.st21{fill:#C8CA77;}
	.st22{fill:#C0C15C;}
	.st23{fill:#C3C05F;}
	.st24{fill:#B5A75F;}
	.st25{fill:#F5ED98;}
	.st26{fill:#B2A551;}
	.st27{fill:#F5F1A7;}
	.st28{fill:#F0E686;}
	.st29{fill:#A0A054;}
	.st30{fill:#BBAF4B;}
	.st31{fill:#F4ED8D;}
	.st32{fill:#B99E4C;}
	.st33{fill:#AA9D58;}
	.st34{fill:#E4E3AE;}
	.st35{fill:#B4B85E;}
	.st36{fill:#E7E292;}
	.st37{fill:#DEDC98;}
	.st38{fill:#A6A04F;}
	.st39{fill:#CCCA7A;}
	.st40{fill:#A7A949;}
	.st41{fill:#ADB062;}
	.st42{fill:#EAE7AE;}
	.st43{fill:#F1E883;}
	.st44{fill:#DCD674;}
	.st45{fill:#D9D472;}
	.st46{fill:#B6AB62;}
	.st47{fill:#9C9857;}
	.st48{fill:#B9AE59;}
	.st49{fill:#D6BB75;}
	.st50{fill:#AE894D;}
	.st51{fill:#AFB461;}
	.st52{fill:#AAA45E;}
	.st53{fill:#AEA25E;}
	.st54{fill:#B1B36D;}
	.st55{fill:#A89C5A;}
	.st56{fill:#C4C47E;}
	.st57{fill:#D3D277;}
	.st58{fill:#A7A559;}
	.st59{fill:#AC9C50;}
	.st60{fill:#DBDAA7;}
	.st61{fill:#827F43;}
	.st62{fill:#EBE58B;}
	.st63{fill:#C8C15E;}
	.st64{fill:#C3BE54;}
	.st65{fill:#D3CC72;}
	.st66{fill:#F6F2A7;}
	.st67{fill:#BDBA67;}
	.st68{fill:#91914C;}
	.st69{fill:#E7DE8D;}
	.st70{fill:#E8DF8D;}
	.st71{fill:#DED480;}
	.st72{fill:#DAD176;}
	.st73{fill:#BEB24D;}
	.st74{fill:#D8D076;}
	.st75{fill:#BDB14A;}
	.st76{fill:#C4BB59;}
	.st77{fill:#C2B651;}
</style>
<g>
	<path class="st0" d="M38.6,16.4c-0.7,0.6-1.6,0.8-2.3,1.3c-0.4,0.7-1,1.2-1.9,1.4c-1.2,0.3-2.4,0.9-2.8,2.3
		c-0.2,0.1-0.6,0.1-0.5,0.5c0.4,1,0.1,1.8-0.5,2.6c-0.1,0.1-0.2,0.2-0.3,0.3c-0.1,0.1-0.2,0.1-0.3,0.1c-0.8,0.3-1.7-0.5-2.5,0.1
		c-0.2,0.2-0.6-0.1-0.6-0.4c0.2-1.6-0.9-2.1-2-2.6c-0.1-0.1-0.1-0.3-0.1-0.4c0.1-0.1,0.1-0.3,0.2-0.4c0.2-0.2,0.5-0.4,0.7-0.6
		c0.2-0.1,0.4-0.2,0.6-0.3c0.7-0.1,1.3-0.2,1.3-1.1c0.1-0.1,0.1-0.3,0.2-0.4c0-0.1,0.1-0.1,0.1-0.2c0.6-0.5,0.6-1.2,0.6-2
		c-0.8-0.1-1.7,0.7-2-0.6c-0.1-0.9-0.9-0.3-1.2-0.6c-0.5-0.7-0.5-2.5,0.2-2.9c0.5-0.3,1.2-0.4,1.4,0.3c0.2,0.6,0.6,0.7,1.1,0.8
		c0.3,1,0.7,0.8,1.2,0.1c0.4,0,0.5,0.2,0.7,0.5c0.6,0.9,1.5,0.3,2.3,0.6c0.7,0.3,1.2,0.5,1.2,1.5c0.8-0.8,1.6-1.7,2.7-1.3
		C37,15.4,38,15.5,38.6,16.4z"/>
	<path class="st1" d="M15.5,15.4c-0.3,0.7-0.3,1.5-0.2,2.3c0.1,1.1-0.2,2.2-0.6,3.2c-0.4,0.9-0.9,1.9-1.5,2.7
		c-0.4,0-0.8-0.1-1.1-0.2c-0.5-0.2-1-0.2-1-1c0-0.6,0.2-1,0.8-1.2c0.2-0.1,0.4-0.1,0.4-0.5c-1.1,0.6-2.2,0.2-3.3,0
		C8.4,20.7,8,21.4,7.3,21c0-1-0.1-2,0.6-2.8c0.6-0.7,1.2-0.9,2.2-0.6c0.8,0.3,1.6-0.1,2.3-0.6c-0.3-0.1-0.5,0.2-0.8,0.3
		c-0.4,0.1-0.8,0.2-1-0.2c-0.2-0.4,0-0.8,0.4-1c1-0.4,1.8-0.9,2.4-1.9c0.3-0.5,0.9-0.4,1.1,0.4c0.3-1.3-1.8-0.1-1.3-1.5
		c0-0.1,0.1-0.3,0.2-0.4c0.3-0.5,0.4-1.1,0.8-1.6c0.1-0.1,0.3-0.1,0.4-0.1c0.1,0.1,0.2,0.2,0.2,0.4c-0.2,0.6-0.3,1.2,0.3,1.6
		c0.2,0.2,0.3,0.5,0.4,0.7C15.3,14.3,15.4,14.9,15.5,15.4z"/>
	<path class="st2" d="M29.3,3.2c-0.2,1.6-1.2,2.7-2.4,3.6c-0.8,0.6-1.7,1.1-2.5,1.6c-1.2,0.7-2.3,1.5-2.9,2.8
		c-0.1,0.2-0.3,0.4-0.5,0.6c-0.3-0.1-0.4-0.4-0.4-0.7c0.4-0.7,0.8-1.4,1.4-2c0.6-0.6,0.8-1.4,0.8-2.3c0-0.9,0-1.8,0.3-2.6
		c0.2-0.6,0.4-1.2,1-1.5c0.7,0.1,0.9-0.5,1.3-0.8c1.9-1.9,3.1-1.6,3.9,1C29.2,2.9,29.2,3.1,29.3,3.2z"/>
	<path class="st3" d="M10.5,27.5c-0.1,0.3-0.3,0.6-0.6,0.7c-0.3,0.2-0.6,0.6-1,0.3c-0.3-0.2-0.5-0.7-1.1-0.8
		c0.1,0.8,0.9,0.4,1.2,0.9c0.1,1.2-0.6,2.4,0,3.6l0.1,0c0.1,0.2,0.1,0.3,0,0.4c-0.9,0.3-0.9-0.4-1.2-1c-0.2-0.5-0.2-1.1-0.8-1.2
		c0.8,0.7,0.9,1.5,0,2.2c-0.1,0-0.2-0.1-0.3-0.1c-0.1-0.1-0.2-0.2-0.3-0.4c-0.5-0.4-1-0.8-1.5-1.3c-0.1-0.1-0.2-0.2-0.4-0.2
		c-0.2,0-0.2-0.2-0.2-0.3c-0.6-1.5-1.9-2.7-1.9-4.5c0.2-0.4,0.6-0.2,0.9-0.1c1,0.5,1.8,0.5,2.1-0.8c0.2-0.7,0.8-0.7,1.4-0.5
		C7.4,24.7,8.3,24.8,9,25c1-0.1,1.9,0,2,1.2c0,0.2-0.1,0.4-0.2,0.6l0,0C10.6,27,10.7,27.4,10.5,27.5z"/>
	<path class="st4" d="M28.2,13.9c-0.2,0-0.4,0-0.7,0c-0.3,0-0.7,0.3-0.9,0c-0.1-0.2,0.1-0.5,0.1-0.8c0-0.3-0.1-0.4-0.4-0.4
		c-0.3,0-0.6,0-0.7,0.3c-0.1,0.2-0.1,0.5-0.1,0.8c0,0.3,0,0.6-0.2,0.8c-0.4,0.4,0.2,0.5,0.2,0.8c-1.1,0.6-1.5,0.2-1.7-0.9
		c-0.1-0.7,0.4-1.4,0.3-2.1c0.7-1.6,1.5-3,2.9-4c0.8,0.2,1,1.3,2,1.1c0.3-0.1,0.4,0.4,0.2,0.7c-0.2,0.3-0.7,0.3-0.7,0.8
		c0.7,0.5,1.2-0.4,1.8-0.2c0.1,0.9,0.7,1.4,1.4,1.9c0.1,0.1,0.1,0.3,0.1,0.5c0,0.1-0.1,0.3-0.2,0.4c-0.1,0.1-0.2,0.2-0.3,0.3
		c-0.6,0.2-1,1.2-1.9,0.7c0-0.3-0.1-0.5-0.3-0.7C28.9,13.9,28.6,13.9,28.2,13.9z"/>
	<path class="st5" d="M29.6,14.5c0.4,0,0.7-0.2,1-0.5c0.3-0.3,0.6-0.5,1-0.5c0.4,0,0.9,0,1.3,0.1c0.7,0.2,1.2,1.2,1.8,0.8
		c0.8-0.4,1.4-1.2,1.8-2c-0.6-0.6-1.5,0.8-2-0.3c0.5-0.9,1.5-1,2.4-1.3c0.2-0.1,0.5,0.1,0.8,0.2c0.4,0.1,0.8,0.3,1.2,0.5
		c0.1,0.1,0.1,0.2,0.1,0.3c0.1,1.1,0.6,2.1,0.6,3.2c-0.2,0.6-0.4,1.1-0.9,1.4c-0.2-0.4-0.5-0.3-0.8-0.1c-0.3,0.2-0.5,0.1-0.8-0.3
		c-0.5-0.7-1.4-0.7-2.2-0.3c-0.6,0.3-0.9,1-1.4,1.3c-0.1,0.1-0.3,0-0.5,0c0,0-0.1-0.2-0.1-0.3c0.1-0.2,0.2-0.4,0.2-0.6
		c0-0.1,0-0.3-0.1-0.5c-0.1-0.2-0.2-0.4-0.5-0.2c-0.2,0.1-0.4,0.4-0.6,0.1c-0.4-0.7-1-0.5-1.6-0.3C29.9,15.4,29.9,15.4,29.6,14.5z"
		/>
	<path class="st6" d="M10.8,26.2c-0.5-1-0.7-1-1.7-0.6c-1-0.8-1-2.3-2.2-3.1c-0.3-0.2-0.3-0.7,0-1.1c0.4-0.6,0.9,0.2,1.4,0.1
		c0.2-0.5,0.1-1.1,0.4-1.6C9,20,9.3,20.3,9.6,20.3c0.6,0.1,1.3,0.5,2,0c0.4-0.3,0.9-0.2,1.3-0.1c0.2,0,0.3,0.2,0.2,0.3
		c-0.3,0.4-0.4,1-1,0.9c-0.9-0.1-0.5,0.5-0.6,0.8c-0.1,0.3-0.1,0.5,0.3,0.5c0.6,0,1.1,0.2,1.4,0.7c-0.1,0.4-0.3,0.7-0.5,1
		C11.8,24.8,11.9,26.1,10.8,26.2z"/>
	<path class="st7" d="M18.7,1c0.6,0.3,0.9,0.8,1.2,1.3c0.4,0.8,0.8,1.7,0.9,2.7c-0.1,1.2,0.2,2.4-0.5,3.5c-0.5,0.7-0.7,0.8-1.6,0.3
		c-2.4-1.2-1.4-3.4-1.9-5.1c-0.1-0.4,0.1-0.9,0.8-1.1c0.4-0.1-0.4-0.2-0.2-0.5c0.2-0.5,0.6-0.8,1.1-1C18.5,1.1,18.6,1.1,18.7,1z"/>
	<path class="st8" d="M18.7,1c-0.1,0.6-0.9,0.6-1.1,1.2c0.4,0.4,0.8-0.4,1.2,0.1c-0.4,0.4-0.8,0.6-1.3,0.7C17,3,17.1,3.3,17,3.6
		c-0.1,0.4,0.2,0.4,0.4,0.5c0.2,0.1,0.3,0.3,0.2,0.4c-0.6,0.6-0.3,1.2-0.2,1.8c0,0,0,0.1,0,0.2c-0.2,0.5-0.1,0.8,0.3,1.2
		c0.4,0.3,0.7,0.4,1.2,0.2c0.4-0.1,0.4-0.1,0.3,0.4c0,0.1-0.1,0.1-0.1,0.1c-0.1,0.2-0.1,0.4,0.1,0.5c0.2,0.1,0.5,0,0.6-0.2
		c0.4-0.8,0.7-1.6,0.7-2.5c0-0.4-0.1-0.9,0.3-1.2C20.8,5.5,21,6,21,6.5c0.1,0.5,0.1,1-0.2,1.4c-0.6,1-0.7,2-0.7,3.1
		c0.2,0.2,0.2,0.3,0.1,0.5c0.1-0.1,0.1-0.4,0.3-0.5l0,0c0.3,0.2,0.3,0.4,0.4,0.7c-0.1,0.4-0.3,0.8-0.6,1c-0.4,0-0.8-0.1-1-0.4
		c-0.1-0.5-0.1-1-0.2-1.5c-0.1-0.6-0.4-1.1-0.9-1.5c-1.2-0.9-1.7-2.1-1.8-3.6c-0.1-1.2-0.1-2.4,0.4-3.6C17,1.7,17.2,1.3,17.6,1
		C18,0.7,18.4,0.7,18.7,1z"/>
	<path class="st9" d="M50.4,6.1c0.6,0.4,0.9,1,1,1.6C51.1,8.1,50.2,8,50.9,9c0.5,0.7,0.4,1.8-1.1,1.7c-0.6,0-0.9,0.4-1.3,0.9
		c-0.7,1.1-1.3,1-2.2-0.1c0.3-1.3,0.3-1.3,1.7-2.3c-1,0.4-1.5,0-1.3-1.1c0.1-0.7,0.5-1.4-0.4-1.9c-0.1-0.9,0.5-0.9,1.2-0.9
		C48.5,5.4,49.4,6,50.4,6.1z"/>
	<path class="st10" d="M25,21.6c0.2,0.4,0.4,0.7,0.9,0.5c0.2-0.1,0.4-0.2,0.6-0.2c0.3,0,0.6,0.2,0.6,0.6c-0.1,0.4-0.1,0.7,0.2,1
		c0.3,0.3-0.2,0.7-0.1,1.1c0.1,0,0.2,0.1,0.3,0.1c0.4-0.1,0.5-0.6,0.9-0.6c0.3,0,0.5,0.4,0.8,0.4c0.3,0,0.5,0.2,0.8,0.3
		c-1.4,1.2-2.9,1.8-4.7,1.1c-1-0.9-2.3-1.8-1.5-3.5C24.1,22,24.3,21.4,25,21.6z"/>
	<path class="st11" d="M16.4,20.4C16.1,20.3,16,20,16,19.8c1-0.6,2.1-1,3-1.6c0.4-0.4,0.7,0.1,1,0.2c0.3,0.3,0.3,0.6,0.3,1
		c0,0.4,0,0.7,0.3,1c0.3,0.5,0,0.9-0.4,1.1c-0.9,0.6-2.6,0.5-2,2.4c-0.8,1.5-0.9,1.6-2,1.3c-0.3-1,0.6-2,0.2-3.1
		C16.1,21.5,16.7,21,16.4,20.4z"/>
	<path class="st12" d="M30.5,10.8c-0.3,0.2-0.6,0.5-0.9,0.7c-0.7,0.4-0.7,0.4-1.3-0.2c-0.6-0.6-0.6-0.8,0.3-1.1
		c0.2-0.1,0.3-0.1,0.4-0.2c0.1,0,0.1-0.2,0.1-0.3c0-0.1-0.2-0.2-0.2-0.2c-0.4,0.1-0.8,0.1-1.3,0c-0.4-0.1-0.4-0.3-0.2-0.6
		c0.3-0.4-0.3-0.5-0.4-0.8l0,0c0.1-0.1,0.2-0.2,0.3-0.3C28.2,7.3,29,6.8,30,6.8c0.9,0,1.6,0.3,1.8,1.3c0.2,0.3,0.2,0.8-0.2,0.7
		c-0.7-0.1-1.7,0.1-2-0.9c0-0.1,0.1-0.2,0.2-0.4c-0.2-0.1-0.1,0.2-0.2,0.2C29.4,8,29.1,8.2,29,8.5c0.2-0.2,0.5-0.2,0.7-0.1
		c0,0.3,0.2,0.5,0.5,0.4c0.6,0.4,0.7,1,0.5,1.6C30.7,10.6,30.6,10.7,30.5,10.8z"/>
	<path class="st13" d="M34.5,12.1c0.3,0.3,0.5,0.1,0.7,0c0.6-0.3,1.3-0.4,2.1-0.2c-0.1,0.6-0.7,0.9-0.8,1.5c0,0.3-0.3,0.4-0.6,0.5
		c-0.3,0.1-0.5,0.4-0.5,0.8c0.1,0.3-0.1,0.5-0.4,0.5c-0.3,0-0.7,0.1-0.9-0.2c-0.7-0.8-1.7-1-2.5-1.4h0c0.1-0.1,0.2-0.2,0.3-0.3l0,0
		c0.2-0.5-0.1-0.8-0.2-1.3c-0.1-0.5,0-1.1,0.8-0.7c0,0.6,0.1,1.1,0.7,1.3c0.3,0.2,0.7,0.2,1-0.1C34.3,12.3,34.4,12.2,34.5,12.1z"/>
	<path class="st14" d="M24.2,12.3c0.2,0.1,0.3,0.3,0.2,0.5c-0.2,0.5-0.2,0.9-0.1,1.4c0.2,1,0.1,1,1.2,1c0.3,0,0.6,0,0.9,0
		c0.5,0,0.5,0,0.4,0.6c-0.3,0.5-0.2,0.8,0.4,0.9c1.2,0.2,1.4,1,1,2l0,0c-0.1,0-0.1,0.1-0.2,0.1c-0.1,0-0.2-0.1-0.3-0.2
		c-0.1-0.2-0.2-0.5-0.4-0.6c-0.1-0.1-0.2-0.1-0.3-0.2c-0.3-0.1-0.7,0-1,0.1c-0.2,0.1-0.4,0.1-0.6,0.1c-0.1,0-0.3-0.1-0.4-0.1
		c-0.2-0.1-0.3-0.3-0.5-0.4c-0.9-0.2-1.4-0.8-1.6-1.7C23.1,14.6,23.5,13.4,24.2,12.3z"/>
	<path class="st15" d="M31.7,21.4c-0.2-1.1-0.1-1.5,0.8-1.9c0.5-0.2,1-0.4,1.4-0.8c0.1-0.1,0.2-0.2,0.3-0.1c0.9,0.4,1.4-0.4,1.9-0.8
		c0.1-0.1,0.2,0,0.3-0.1c0.4,0.7,0.3,1.4-0.2,2c-0.7,1-1.7,1.7-3,1.7C32.7,21.5,32.2,21.4,31.7,21.4z"/>
	<path class="st16" d="M25.3,17.9c0.2,0,0.4,0,0.6-0.1C26,17.9,26,18,26,18c0,0.4-0.3,0.7-0.3,1.2c-1.2,1.3-2.9,2.1-4.3,3.1
		c-0.1,0.1-0.3,0.1-0.4,0.2c-0.1,0-0.3,0.1-0.5,0.1c-0.4,0-0.6-0.2-0.7-0.5c0-0.2,0-0.5,0.3-0.6c0.3-0.3,0.5-0.7,0.5-1.1
		c0.4-0.4,0.7-0.9,1.1-1.3c0.5-0.3,0.8-1,1.5-0.9c0.3,0.1,0.6,0.3,1,0.2C24.6,18.2,24.9,18,25.3,17.9z"/>
	<path class="st17" d="M46.5,11.5c0.2,0.2,0.3,0.3,0.5,0.4c0.5,0.3,0.9,0.2,1.2-0.4c0.1-0.2,0.1-0.5,0.2-0.6
		c0.5-0.6,0.9-1.1,1.8-0.7c0.1,0.1,0.3,0.1,0.5-0.1c0-0.1-0.1-0.3-0.1-0.6c0-0.8,0-0.8-0.8-0.9c-0.1,0-0.2-0.1-0.2-0.2
		c0-0.2,0-0.4,0.2-0.4c0.5-0.4,1.1-0.6,1.7-0.3c0.3,0.5,0.4,1,0.2,1.6c-0.3,0.7-0.6,1.4-1.2,1.9c-1.1,0.9-2.3,1.5-3.8,1.3
		c-1.1-0.1-2.2-0.2-3.2-0.6c0-0.2,0.1-0.3,0.2-0.4c0.1-0.1,0.3-0.2,0.4-0.2c0.7,0,1.5,0.2,2.2,0.1C46.3,11.5,46.4,11.5,46.5,11.5z"
		/>
	<path class="st18" d="M4.8,7.7C5,7.9,5.2,8.1,5.4,8.3c0.3,0,0.4,0.2,0.5,0.4C5.8,9.2,5.4,9.2,5,9.3c0.5,0,1-0.1,1.2,0.5
		c-0.1,0.3-0.3,0.7-0.6,0.7c-1.8,0.3-2,1.8-2.5,3.1c-0.4,0.6-0.9,1.2-1.8,1C1.1,14.6,1,14.3,1,14.1C1.8,12,2.3,9.9,3.7,8
		C4,7.7,4.4,7.8,4.8,7.7z"/>
	<path class="st19" d="M13.3,3.8c-0.2,0.8-0.8,1.5-0.6,2.4c0.1,0.3,0.1,0.5,0.4,0.7c0.1,0.1,0.1,0.3,0.1,0.4C12.9,7.7,12.5,7.9,12,8
		c-0.2,0.1,0,0-0.2,0c-0.7,0-1.1,1.6-1.9,0.6C9.4,8,10.3,7.3,10.6,6.5c0.1-0.2,0.4-0.2,0.5-0.4C10.3,6,9.4,6.8,8.6,6.1
		C8.6,5.5,9,4.9,9.4,5c1.3,0.3,1.7-0.7,2.3-1.3C12.3,3.2,12.9,2.6,13.3,3.8z"/>
	<path class="st1" d="M12.1,7.9c0.2-0.4,0.6-0.5,1-0.7c0.3-0.2,0.6-0.6,1-0.3c0.3,0.2,0,0.6-0.1,0.9c-0.1,0.3-0.5,0.6-0.3,1.1
		c0,0.5,0.2,0.7,0.7,0.7c0.2,0.3,0.1,0.7,0.2,1.1c0,0.2-0.1,0.3-0.2,0.4c-0.3,0.1-0.5,0.2-0.8,0.4c-0.1,0.1-0.3,0.1-0.4,0.2
		c-0.7,0.2-1.3,0.4-1.9-0.1c-0.6-0.5-2-0.3-1.4-1.7c0.1-0.1,0.2-0.2,0.4-0.2c0.6,0.1,1.2,0,1.4-0.7c0.1-0.1,0.1-0.2,0.2-0.3
		c0.1-0.1,0.2-0.2,0.2-0.4C12.2,8,12.1,7.9,12.1,7.9z"/>
	<path class="st20" d="M19.3,18.4c-0.6,0.4-1.2,0.7-1.8,1.1c-0.5,0.3-1,0.3-1.6,0.3c-0.2-0.4-0.4-0.8-0.4-1.3c0.4-1.5,1-2.8,2.9-2.5
		c0.1,0.1,0.2,0.2,0.3,0.3C19.4,16.9,18.9,17.7,19.3,18.4z"/>
	<path class="st21" d="M8.9,32.5c0-0.1,0.1-0.2,0.1-0.3c0.4,0,0.6-0.3,0.8-0.5c0.7-0.8,1.4-1.6,2.1-2.5c0.5-0.3,1.3-0.5,1-1.3
		c0.1-0.4,0.3-0.7,0.6-1.1c0.3,0.1,0.6,0,0.8-0.1c0.2,0,0.5,0.1,0.7,0c0.1,0,0.2-0.1,0.4-0.1c0.2,0,0.4,0.1,0.5,0.3
		c0.1,0.3-0.3,0.5-0.4,0.7c-0.2,0.3-0.4,0.4-0.7,0.6c-0.2,0.1-0.5,0.1-0.6,0.4c-0.4,0.4-0.8,0.8-1.3,1.3c-1.2,1.2-2.4,2.3-3.6,3.5
		C9,33.1,8.7,32.9,8.9,32.5z"/>
	<path class="st17" d="M39.5,15C39.1,14.6,39,14,39,13.5c0-0.2,0-0.4-0.3-0.5c-0.2,0-0.5,0.1-0.5-0.2c0-0.1,0.3-0.3,0.5-0.4
		c0.5-0.3,0.1-0.4-0.1-0.4c-0.2-0.1-0.2-0.2,0-0.2c0.1-0.1,0.2,0,0.3-0.1c0.6-0.3,1.3-0.3,1.9-0.7c0.2-0.2,0.6-0.1,0.8-0.4
		c0-0.1,0-0.2,0.1-0.3c0.1-0.1,0.2-0.2,0.3-0.2c0.5-0.3,0.5-0.9,1-1.3c0.8-0.3,1.3,0.1,1.7,0.8c0.1,0.1,0.1,0.3,0.1,0.4
		c0,0.6-0.3,1.1-0.8,1.6l0,0c-0.9-0.1-1.8-0.5-2.6,0.2c-0.6,0.3-1.3,0.4-1.7,1c0,0.1,0.1,0.1,0,0.2c0.2,0.6,0.2,1.2,0,1.7
		C39.6,14.8,39.6,14.9,39.5,15z"/>
	<path class="st22" d="M8.9,32.5C9,32.8,9.1,33,9.3,33.2c-0.5,0.7-0.6,1.6-1,2.3c-0.7,0.4-0.9-0.1-1.1-0.6c-0.1-0.7,0.1-1.4-0.2-2
		c-0.1-0.1-0.1-0.2-0.1-0.3c0.3-0.4-0.1-1,0.3-1.4c0.1-0.2,0-0.4-0.2-0.5c-0.1-0.1-0.3-0.2-0.4-0.3c0.1-0.2,0.4-0.2,0.6-0.1
		c0.4,0,0.6,0.3,0.8,0.6c0.2,0.4,0.4,0.8,0.4,1.2C8.3,32.4,8.6,32.5,8.9,32.5z"/>
	<path class="st23" d="M7.3,34.9c0.4,0.2,0.5,0.7,1,0.6c0,1.7,0.1,3.3,0.1,5c-0.7,0.4-1.2,0.2-1.1-0.6c0.1-0.8-0.2-1.4-0.5-2
		c-0.1-1-0.2-2.1,0.1-3.1C7,34.9,7.2,34.9,7.3,34.9z"/>
	<path class="st24" d="M13.3,3.8c-0.3-0.3-0.6-0.6-1.1-0.2c-0.3,0.3-0.7,0.5-0.8,1c-0.1,0.6-0.5,0.6-1,0.6c-0.2,0-0.4,0-0.7,0
		c-0.6,0-1,0.4-1.1,1C8.3,7.3,6.9,7.1,6.4,8C6.3,8.2,6.1,8.5,5.8,8.6C5.7,8.5,5.5,8.4,5.4,8.3c0.1-1,0.9-1.5,1.4-2.2
		C6.9,6,7,5.9,7.1,6c0.8,0.1,1.3-0.4,1.7-1C9.1,4.6,9.6,4.5,10,4.7c0.4,0.2,0.6,0.1,0.8-0.3c0.3-0.8,1-1.2,1.7-1.5
		c0.3-0.1,0.7-0.2,0.9,0.1C13.7,3.2,13.5,3.5,13.3,3.8z"/>
	<path class="st25" d="M29.3,3.2c-0.1-0.1-0.3-0.2-0.3-0.4c-0.2-0.7-0.6-1-1.3-0.8c-0.1,0-0.2-0.1-0.2-0.1c0-0.1,0-0.2,0.1-0.3
		c0.1-0.2,0.3-0.3,0.5-0.4c0-0.1,0-0.2,0-0.3c-0.1-0.1-0.2-0.1-0.3-0.2c-0.1,0-0.2,0-0.3,0c-0.5,0.3-1,0.6-1.6,1
		c-0.2,0.2-0.4,0.4-0.5,0.6c-0.4,0.8-0.5,0.8-1.4,0.3l0,0c0.2-0.1,0.2-0.2,0.3-0.4c0.6-0.9,1.4-1.5,2.4-2c1-0.5,1.3-0.4,2.3,0.6
		c0.2,0.2,0.1,0.5,0.3,0.7C29.3,2.1,29.3,2.6,29.3,3.2z"/>
	<path class="st26" d="M1.8,25.7c-0.8-1.6-1.4-3.3-1.4-5.2c-0.2-0.5-0.1-1-0.2-1.6c0.5-0.6-0.1-1.4,0.4-1.9C0.7,17,0.9,16.9,1,17
		c0.6,0.5,0.8,1.2,0.6,1.9c-0.3,1-0.1,2,0.1,2.9C1.8,22.3,1.9,22.6,2,23c0.2,0.7,0.3,1.4,0.1,2.1C2.1,25.4,2,25.6,1.8,25.7z"/>
	<path class="st27" d="M32.5,11.1c-0.4,0.1-0.6,0.2-0.5,0.7c0.2,0.5,0.4,0.9-0.1,1.4c-0.1-0.1-0.2-0.3-0.2-0.4
		c-0.1-0.3-0.3-0.5-0.6-0.2c-0.1,0.1-0.3,0.2-0.4,0.3c-0.1,0-0.3,0-0.4-0.1c0,0,0-0.2,0-0.3c0.4-0.5,0.3-1,0.3-1.6
		c0-0.1,0-0.2,0-0.3c0.1-1,0.7-1.6,1.7-1.7c0.2,0.2,0.3,0.4,0.3,0.7C32.5,10,32.5,10.6,32.5,11.1z"/>
	<path class="st9" d="M44.5,9.9c-0.1-0.1-0.3-0.2-0.3-0.3c-0.3-0.6-0.8-0.7-1.3-0.6c-0.7-0.1-0.3-0.5-0.2-0.8
		C43,7.7,43.5,7.4,44,7.1c0.6-0.4,0-0.6,0-0.9c0.2-0.3,0.4-0.5,0.8-0.6c0.3,0.1,0.5,0.3,0.7,0.5c1.3,0.9,1.4,1.8,0.4,2.5
		c-0.6,0.5-1,0.3-1.2-0.4C44.5,8.8,45,9.4,44.5,9.9z"/>
	<path class="st28" d="M45.1,6.2C45,6,44.8,5.8,44.7,5.6c1.4-0.9,2.8-1,4.3-0.4c0.1,0.1,0.2,0.2,0.4,0.3l0,0
		c0.2,0.2,0.5,0.1,0.7,0.3l0,0c0.1,0.1,0.2,0.2,0.3,0.3l0,0c-0.2,0.3-0.5,0.4-0.9,0.2C49,6,48.6,5.7,48,6c-0.1,0.1-0.4-0.1-0.6-0.2
		c-0.6-0.3-0.8,0-1,0.5C46,6.6,45.5,6.6,45.1,6.2z"/>
	<path class="st29" d="M25.3,17.9c-0.2,0.4-0.5,0.7-1,0.7c-0.3-0.2-0.8,0.1-1.1-0.3c-0.2,0.1-0.5,0.2-0.7,0.3
		C22.3,18.8,22,19,21.7,19c0.6-0.9,1.2-1.9,1.3-3c0.3,0.2,0.5,0.4,0.6,0.7c0.2,0.4,0.5,0.5,0.9,0.4c0.4-0.1,0.4,0.3,0.4,0.5
		C25.1,17.7,25.2,17.8,25.3,17.9L25.3,17.9z"/>
	<path class="st30" d="M6.7,37.9c0.4,0.2,0.7,0.5,0.9,0.9c0.2,0.3,0.2,0.6,0,1c-0.3,0.5-0.2,0.6,0.4,0.7c0.1,0,0.2,0,0.3,0
		c0.1,0.1,0.1,0.2,0.1,0.3c0.2,0.4,0.1,0.7,0.1,1.1c-0.3,0.5-0.6,1-1.3,0.7c-0.5-0.2-0.3-0.8-0.3-1.2c-0.1-0.4,0.1-0.9-0.2-1.2
		C6.6,39.5,6.6,38.7,6.7,37.9z"/>
	<path class="st31" d="M32.1,8.8c0,0.3,0,0.5,0,0.8c0,0.2-0.1,0.3-0.2,0.4c-0.3,0.1-0.3-0.2-0.4-0.4c-0.1-0.1-0.1-0.3-0.3-0.3
		c-0.2,0.4-0.1,0.9-0.6,1.2c0-0.6,0.1-1.3-0.7-1.7l0,0c-0.1-0.2-0.3-0.3-0.5-0.2c-0.2,0.1-0.5,0.3-0.8,0.1c0.3-0.6,0.5-1.2,1.3-1.3
		l0,0c0,0.3,0.1,0.7,0.4,0.8c0.5,0,1-0.1,1.4,0.2c0.1-0.1,0.1-0.3,0.2-0.4C32,8.3,32.1,8.5,32.1,8.8z"/>
	<path class="st32" d="M6.7,40.3c0.5,0.4,0.3,1,0.4,1.5c0.1,0.8,0.2,0.8,0.9,0.4c0.1-0.1,0.3-0.2,0.4-0.3c0.5,0.9,0.1,1.8,0.1,2.7
		c0,0.1,0,0.2,0,0.3C8,45.1,8.3,46,7.5,46l0-0.1c-0.6-0.5,0-1.5-0.6-2C6.7,42.7,6.5,41.5,6.7,40.3z"/>
	<path class="st33" d="M3.9,8C3.4,9,2.8,9.8,2.7,10.9c0,0.3-0.6,0.6-0.6,0.9c0.1,0.9-0.5,1.5-0.9,2.2c-0.1,0-0.1,0.1-0.2,0.1
		c-0.1,0-0.1-0.1-0.2-0.1c0-0.1,0-0.3,0-0.4c0-0.1,0-0.1,0-0.2C1.5,11.6,2.1,9.6,3.4,8C3.5,7.8,3.7,7.9,3.9,8z"/>
	<path class="st34" d="M16.4,20.4c0.5,0.4,0.5,0.4,0.2,1c-0.1,0.2,0,0.3,0.1,0.4c0,1.3-0.4,2.3-1.5,3.1c-0.3,0-0.4-0.2-0.5-0.4
		c-0.1-0.3,0.1-0.6,0.3-0.9C15.5,22.5,15.9,21.5,16.4,20.4z"/>
	<path class="st35" d="M14.8,24.4c0.1,0.1,0.3,0.2,0.4,0.4c0.1,0.3,0.3,0.6,0.5,0.8c0.4,0.7-0.2,0.8-0.6,1.2l0,0
		C15,27,14.7,27,14.5,26.8c-0.1,0.1-0.2,0.1-0.3,0.2c-0.5,0.4-0.5,0.4-0.8-0.2c0.1-0.4,0.3-0.8,0.6-1.1
		C14.3,25.3,14.5,24.8,14.8,24.4z"/>
	<path class="st36" d="M24,22.6c0.4,0.3,0,0.7,0,1c-0.1,0.4-0.1,0.6,0.4,0.7c0.2,0.6,0.6,0.9,1.2,1.1c0.2,0.1,0,0.4-0.1,0.5
		c-0.5,0-0.8-0.3-1.1-0.6c-0.4-0.4-0.9-0.8-1.3-1.2c0.1-0.4-0.4-0.3-0.4-0.6C22.9,22.9,23.3,22.5,24,22.6z"/>
	<path class="st37" d="M18.6,16.4c0-0.1,0-0.2,0-0.3c-0.1-0.1-0.3-0.1-0.4-0.3c0.1-1,0.5-1.8,0.9-2.7c0.3,0,0.7-0.3,1,0
		c-0.3,0.9-0.6,1.8-1,2.7C19,15.9,19.3,16.6,18.6,16.4z"/>
	<path class="st38" d="M1.8,25.7c0-0.2,0-0.5,0-0.7c0.6-0.1,0.6,0.3,0.7,0.7C2.8,26.8,3,28,3.8,28.9c0.3,0.4,0.4,0.9,0.4,1.4
		C3,29,2.3,27.4,1.8,25.7z"/>
	<path class="st39" d="M22.7,23.6c0.2,0.1,0.7,0,0.3,0.5c-1.4,0.5-2.9,1-4.3,1.6c-0.3-0.1-0.4-0.2-0.4-0.5c0.1-0.2,0.2-0.3,0.3-0.4
		C19.9,24.2,21.2,23.3,22.7,23.6z"/>
	<path class="st40" d="M8.8,28.6c0.3-0.2,0.6-0.4,1-0.3c-0.8,1.2-0.7,2.6-1,4c-0.6-1.1-0.7-1.5-0.4-2.4C8.6,29.4,8.7,29,8.8,28.6
		L8.8,28.6z"/>
	<path class="st41" d="M18.4,25.4c0.1,0.1,0.2,0.2,0.3,0.3c-0.6,0.4-1.3,0.8-1.9,1.2c-0.4,0.3-0.8,0.6-1.3,0.7
		c0.1-0.3,0.2-0.5,0.3-0.8C16.4,25.7,17,24.7,18.4,25.4z"/>
	<path class="st42" d="M18.6,16.4c0.2-0.2,0.4-0.4,0.6-0.7c0,0.4,0.2,0.8,0.4,1.2c0.2,0.4,0.4,0.9,0.4,1.4c0,0.1-0.1,0.4-0.1,0.4
		c-0.2,0.1-0.2-0.2-0.2-0.3c-0.1-0.2-0.2-0.2-0.3-0.1c-0.5,0-0.8-0.3-0.6-0.7C18.9,17.2,18.8,16.8,18.6,16.4z"/>
	<path class="st43" d="M44,6.2c0.7,0.5,0.7,0.6,0.3,1.1c-0.4,0.5-0.9,0.7-1.5,1c-0.2,0-0.3-0.2-0.3-0.3C42.8,7.2,43.3,6.6,44,6.2z"
		/>
	<path class="st42" d="M18.2,15.7c0.1,0.1,0.2,0.2,0.4,0.3c-0.3,0.2-0.6,0.1-0.9,0.2c-0.7,0.1-1.3,0.4-1.4,1.3
		c0,0.4-0.2,0.7-0.6,0.9c0-0.3,0-0.6,0.1-0.8C16.2,15.9,16.4,15.8,18.2,15.7z"/>
	<path class="st44" d="M42.4,7.9c0.1,0.1,0.2,0.2,0.3,0.3c0,0.2-0.4,0.4,0,0.7c0.1,0.6-0.1,1.1-0.6,1.4c-0.2,0.1-0.3,0.1-0.4-0.1
		c-0.2-0.3-0.2-0.7,0-1C41.8,8.8,42.1,8.3,42.4,7.9z"/>
	<path class="st45" d="M41.1,11.6c0.2-0.3,0.6-0.3,0.9-0.4c0.7-0.4,1.3-0.3,1.8,0.4c-0.1,0.1-0.2,0.2-0.4,0.4c-0.2,0-0.4,0-0.6-0.1
		c-0.5-0.2-0.9-0.1-1.3,0C41.4,11.9,41.2,11.8,41.1,11.6z"/>
	<path class="st33" d="M0.7,17c0,0.4,0,0.8,0.1,1.3c0.1,0.4-0.2,0.4-0.4,0.5C0,18.2,0.1,17.6,0.3,17c0-0.4,0-0.8,0.1-1.2
		c0.2-0.4,0.1-0.8,0.2-1.1c0-0.2,0.1-0.3,0.1-0.5C0.7,14,0.8,14,0.8,14c0.1,0,0.1,0,0.1,0.1l0,0c0.2,0.2,0.2,0.4,0.2,0.6
		c0.2,0.4,0.2,0.7,0.1,1.1c0,0.2-0.1,0.4-0.2,0.6C0.9,16.7,0.8,16.8,0.7,17z"/>
	<path class="st46" d="M13.8,8.8c-0.2-0.1-0.3-0.3-0.2-0.5C13.7,7.9,14,7.6,14,7.1c-0.3-0.2-0.6,0.1-0.9,0l0-0.2l0-0.2
		c0,0,0.1-0.1,0.1-0.1c0.3-0.2,0.6-0.6,1-0.5c0.3,0.1,0.4,0.7,0.2,1.4C14.2,8.1,14,8.4,13.8,8.8z"/>
	<path class="st47" d="M4.9,30.7c0.7,0.4,1.4,0.8,1.7,1.7c-0.1,0.1-0.2,0.1-0.4,0C5.5,32.1,5,31.6,4.6,31
		C4.7,30.8,4.8,30.7,4.9,30.7z"/>
	<path class="st48" d="M14.5,10.8c-0.5-0.5-0.5-0.5-0.1-1.3c0.7,0,1,0.1,0.9,0.7c0,0.2-0.2,0.4-0.2,0.6C14.9,11,14.7,11,14.5,10.8z"
		/>
	<path class="st49" d="M8.5,44.6c-0.2-0.1-0.3-0.3-0.3-0.5c0.3-0.7,0.2-1.4,0.1-2.1c0-0.4,0.1-0.7,0.1-1.1
		C8.9,42.1,8.9,43.3,8.5,44.6z"/>
	<path class="st50" d="M6.8,43.9c0.8,0.3,0.8,0.3,0.7,0.9c0,0.4,0,0.7-0.1,1.1c-0.4,0-0.6-0.2-0.6-0.6C6.8,44.9,6.8,44.4,6.8,43.9z"
		/>
	<path class="st51" d="M12.9,27.8c0.1,0.1,0.4,0.3,0.4,0.4c0,0.2-0.1,0.5-0.2,0.6c-0.3,0.3-0.7,0.6-1.3,0.3
		C12.2,28.7,12.5,28.3,12.9,27.8z"/>
	<path class="st52" d="M10.8,26.2c0.4-0.2,0.5-0.5,0.7-0.8c0.2-0.4,0.6-0.8,1.1-0.9c-0.5,0.9-0.9,1.8-1.7,2.4
		C10.8,26.7,10.8,26.4,10.8,26.2z"/>
	<path class="st53" d="M0.3,17c0,0.6,0.1,1.2,0.1,1.8c0,0.6,0,1.2,0,1.8C-0.1,19.4-0.1,18.2,0.3,17z"/>
	<path class="st54" d="M41.1,11.6c0.1,0.1,0.2,0.2,0.4,0.3c-0.7,0.3-1.3,0.6-2,0.8C39.7,11.9,40.5,11.8,41.1,11.6z"/>
	<path class="st49" d="M7.5,46c0.1-0.2,0.3-0.3,0.3-0.5c0.1-0.4,0.3-0.5,0.7-0.6c0,0.3,0,0.5-0.1,0.8C8.3,46.1,8.1,46.2,7.5,46z"/>
	<path class="st55" d="M3.9,8C3.7,8,3.5,8,3.4,8C4,7.2,4.1,7.2,4.8,7.7C4.8,8,4.7,8.2,4.3,8.1C4.2,8.1,4,8.1,3.9,8z"/>
	<path class="st56" d="M40.9,11c-0.5,0.6-1.3,0.7-2,0.7c0-0.1,0-0.2,0-0.2c0.5-0.2,1.1-0.3,1.6-0.5C40.6,10.8,40.8,10.9,40.9,11z"/>
	<path class="st57" d="M20.2,13c-0.3-0.1-0.7,0.5-1,0c0-0.2,0.1-0.4,0.1-0.6c0.4,0,0.8,0,1,0.4C20.3,12.9,20.2,12.9,20.2,13z"/>
	<path class="st58" d="M7.3,34.9C7.1,35.2,7,35,6.9,34.9c0-0.6,0.1-1.3,0.1-1.9C7.5,33.5,7.2,34.3,7.3,34.9z"/>
	<path class="st5" d="M39.6,14.7c0-0.6,0-1.2,0-1.7C40,13.5,40,14.1,39.6,14.7z"/>
	<path class="st59" d="M15.5,15.4c-0.4-0.5-0.4-1.1,0-1.7C15.7,14.3,15.7,14.9,15.5,15.4z"/>
	<path class="st60" d="M14.2,28.5c0-0.6,0-0.6,0.6-0.4C14.7,28.4,14.5,28.5,14.2,28.5z"/>
	<path class="st53" d="M0.5,14.6c0,0.4,0.2,0.8-0.2,1.1C0.3,15.3,0.3,14.9,0.5,14.6z"/>
	<path class="st5" d="M40.9,11c-0.1,0-0.2,0-0.4,0c0.2-0.3,0.6-0.3,1-0.3C41.4,10.9,41.1,11,40.9,11z"/>
	<path class="st27" d="M34.2,12.4c-0.5,0.5-0.5,0.5-1,0.1C33.5,12.4,33.9,12.4,34.2,12.4z"/>
	<path class="st5" d="M41.8,9.3c0,0.3,0,0.7,0,1c-0.1,0-0.2,0-0.3,0C41.4,9.9,41.4,9.6,41.8,9.3z"/>
	<path class="st1" d="M14.5,10.8c0.2,0,0.4,0,0.6,0c0,0.2-0.1,0.3-0.2,0.3c-0.1,0.1-0.2,0.1-0.3,0.1c-0.1,0-0.1-0.1-0.1-0.1l0,0
		C14.4,11,14.4,10.9,14.5,10.8L14.5,10.8z"/>
	<path class="st2" d="M29.3,1.5C29,1.4,29,1.1,29,0.9C29.2,1,29.3,1.3,29.3,1.5z"/>
	<path class="st52" d="M10.5,27.5c0-0.3,0.1-0.5,0.4-0.6C10.9,27.2,10.7,27.4,10.5,27.5z"/>
	<path class="st9" d="M50,5.8c-0.3,0-0.5-0.1-0.7-0.3C49.7,5.5,49.9,5.6,50,5.8z"/>
	<path class="st2" d="M20.5,11c0,0.1-0.1,0.4-0.1,0.4c-0.3,0-0.2-0.2-0.2-0.4C20.3,11,20.4,11,20.5,11z"/>
	<path class="st9" d="M50.4,6.1C50.3,6,50.2,5.9,50,5.8C50.2,5.9,50.3,6,50.4,6.1z"/>
	<path class="st10" d="M30.4,24.8c0.1-0.1,0.2-0.2,0.3-0.3C30.6,24.6,30.5,24.7,30.4,24.8z"/>
	<path class="st2" d="M24.3,2.3c-0.1,0.1-0.2,0.2-0.3,0.4C24.1,2.5,24.2,2.4,24.3,2.3z"/>
	<path class="st4" d="M27.4,7.9c-0.1,0.1-0.2,0.2-0.3,0.3C27.2,8.1,27.3,8,27.4,7.9z"/>
	<path class="st61" d="M4.9,30.7c-0.1,0.1-0.2,0.2-0.2,0.3c-0.1-0.1-0.1-0.2-0.2-0.3C4.6,30.7,4.7,30.7,4.9,30.7z"/>
	<path class="st22" d="M6.2,32.3c0.1,0,0.2,0,0.4,0c0,0.1,0,0.1,0,0.2C6.4,32.6,6.3,32.5,6.2,32.3z"/>
	<path class="st53" d="M0.9,14.1c-0.1,0-0.2,0-0.3,0c0-0.2,0.1-0.3,0.2-0.4C0.9,13.8,0.9,13.9,0.9,14.1z"/>
	<path class="st48" d="M14.5,11.1c0.1,0,0.3,0,0.4,0c0,0.1-0.1,0.2-0.1,0.3C14.7,11.4,14.6,11.2,14.5,11.1z"/>
	<path class="st9" d="M49.4,5.5c-0.1-0.1-0.2-0.2-0.4-0.3C49.2,5.2,49.3,5.3,49.4,5.5z"/>
	<path class="st62" d="M28.3,18.9c0-0.3,0-0.7-0.1-1c-0.1-0.4-0.4-0.7-0.9-0.8c-0.7-0.1-0.8-0.2-0.6-0.9c0-0.1,0.1-0.2,0.2-0.2
		c0.1,0.5,0.3,0.7,0.8,0.6c0.5-0.2,1-0.3,1.7-0.6c-0.1,0.8-0.6,1.4-0.3,2.1C28.8,18.3,28.6,18.6,28.3,18.9z"/>
	<path class="st5" d="M28.2,13.9c0.3-0.2,0.7-0.2,1,0c0,0.1,0,0.2,0,0.3c-0.1,1-0.1,1-0.8,0.5c0,0-0.1,0-0.1-0.1
		C27.8,14.4,27.8,14.4,28.2,13.9z"/>
	<path class="st15" d="M33.2,18.5c0,0.1,0,0.1,0,0.1c-0.3,0.2-0.6,0.5-1,0.4c-0.1,0-0.2-0.1-0.2-0.2c0,0,0-0.1,0-0.1
		c0.3-0.3,0.7-0.4,1.2-0.4C33.1,18.4,33.1,18.5,33.2,18.5z"/>
	<path class="st10" d="M27.5,21.1c0,0-0.1,0.1-0.1,0.1c0,0-0.1-0.1-0.1-0.1C27.3,20.9,27.4,20.9,27.5,21.1z"/>
	<path class="st62" d="M28,19.2l0-0.2l0-0.2c0.1,0,0.2,0,0.3,0C28.2,19,28.1,19.1,28,19.2z"/>
	<path class="st10" d="M25.1,21.6c0.1-0.1,0.2-0.2,0.3-0.3C25.3,21.4,25.2,21.5,25.1,21.6z"/>
	<path class="st10" d="M26,20.9c0.1-0.1,0.2-0.2,0.4-0.3C26.2,20.7,26.1,20.8,26,20.9z"/>
	<path class="st63" d="M1.7,23c-0.4-0.2-0.3-0.6-0.4-1C2.3,22,3,21.8,2.3,20.6c-0.2-0.4-0.3-0.8-0.2-1.3c0-0.2,0.1-0.3,0.2-0.4
		c0.3-0.1,0.6-0.1,0.8,0.3c0.2,0.9,0.6,0.3,0.9,0.1c0.2,0,0.4,0.1,0.4,0c0.1-0.2-0.1-0.2-0.2-0.2c-0.2-0.2-0.5-0.4-0.3-0.8
		c1.2,0.3,1.6-1.7,3-1.1c0.1-0.2-0.2-0.3-0.1-0.6c0.2-0.5,0.1-1,0.4-1.5c0.2-0.1,0.4-0.2,0.7-0.1c0.3,0,0.8,0.3,0.8-0.2
		c-0.1-1.2,0.9-2.4,0.3-3.6c0,0,0.1-0.1,0.1-0.1c0.1,0,0.3-0.1,0.4,0c0.1,0,0.3,0.1,0.4,0.2c0.1,0,0.1,0.1,0.2,0.1
		c0.4,0.2,0.8,0.2,1.1,0.5c0.1,0.1,0.1,0.3,0.1,0.4c-0.1,0.2-0.3,0.3-0.4,0.5c-0.1,0.1-0.1,0.2-0.2,0.3c-0.2,0.6,0,1.1,0.1,1.7
		c-0.2,1.8-1.9,2.4-2.8,3.6c0,0.6-0.4,1.1-0.2,1.7c0.2,0.4-0.3,0.6-0.4,1c-0.6,0.6-1.1,1.3-2,1.5c-0.9,0.2-1.1,1.2-1.6,1.8
		c-0.3,0.4-0.6,0.9-1.2,0.8c-0.6-0.1-0.3-0.7-0.4-1.1C2.1,23.5,2,23.3,1.7,23z"/>
	<path class="st64" d="M1.7,23c0.2,0,0.3,0,0.5,0c0.2,0,0.4,0.2,0.4,0.4c0,0.2-0.1,0.4-0.2,0.6c0,0.2-0.1,0.5,0.1,0.6
		c0.3,0.1,0.5-0.1,0.6-0.4c0.3-0.5,0.6-0.9,0.8-1.4c0.2-0.6,0.6-0.9,1-0.9c0.8-0.1,1.4-0.5,2-1c0.1-0.1,0.2-0.1,0.3-0.1
		c0.4,0,0.7-0.2,0.9-0.5c0.1-0.2,0.3-0.3,0.4-0.5c0,0.4,0.1,0.8,0.1,1.1c0,0.2,0.1,0.3,0.1,0.5c0,0.3-0.2,0.5-0.4,0.6
		c-0.3,0.1-0.5,0.1-0.6-0.2c-0.1-0.3-0.3-0.3-0.5-0.4c-0.2,0-0.3,0-0.3,0.2c0,0.3,0,0.7,0.4,0.8c0.7,0.3,1,0.9,1.2,1.6
		c0.1,0.5,0.3,0.9,0.5,1.4c-0.6-0.1-1-0.5-1.7-0.4c-0.3,0.1-0.7-0.4-1-0.5c-0.5-0.2-1,0.1-0.9,0.7c0,0.4,0.1,0.7-0.3,0.8
		c-0.4,0.2-0.9,0.6-1.4,0.3c-0.5-0.3-0.9-0.5-1.4-0.8C2.2,25.5,2,25.3,1.8,25C2,24.4,1.8,23.7,1.7,23z"/>
	<path class="st65" d="M8,18.3c0.3-0.5,0.6-1,1.1-1.4c0.7-0.6,1.3-1.3,1.5-2.3c0.4-0.7-0.5-1.3,0-2l0,0c0.2-0.2,0.5-0.1,0.7-0.3l0,0
		c0.2-0.2,0-0.5,0.1-0.7c0-0.1,0.1-0.2,0.2-0.3c0.4,0.2,0.8,0.3,1.2,0.1c0.2-0.1,0.5-0.1,0.8-0.1h0c0.2-0.4,0.6-0.3,1-0.3
		c0,0.1,0,0.2,0,0.3c-0.2,0.1-0.3,0.3-0.3,0.6c-0.1,0.4-0.2,0.9-0.6,1.1c-0.3-0.3-0.6-0.1-0.8,0.1c0,0,0,0,0,0
		c0.1,0,0.2-0.1,0.2-0.2c0.2-0.1,0.4-0.1,0.6,0.1c0,0.2,0,0.3-0.1,0.5c0,0.3,0,0.4,0.3,0.3c0.6-0.3,0.7-0.3,0.9,0.1
		c0.2,0.4,0.3,0.7,0.2,1.1c-0.1,0.4-0.4,0.5-0.7,0.4c-0.5-0.2-0.2-0.4-0.1-0.6c0-0.1,0-0.2-0.1-0.3c-0.1-0.1-0.3-0.1-0.4,0.1
		c-0.4,0.5-1.8,1.7-2.5,1.9c0,0-0.1,0.1-0.1,0.1c-0.2,0.2-0.3,0.3-0.1,0.6c0.1,0.1,0.3,0.2,0.4,0.1c0.1,0,0.2-0.1,0.3-0.2
		c0.3-0.5,0.9-0.4,1.4-0.4c0,0.5-0.6,0.6-0.4,1.1c0.1,0.4-0.3,0.6-0.6,0.4c-0.7-0.5-1.2-0.3-1.7,0.3c-0.1,0.1-0.3,0.2-0.3-0.1
		c0-0.2,0-0.5-0.3-0.5c-0.3,0-0.7-0.2-0.9,0.1C8.5,18.1,8.3,18.2,8,18.3z"/>
	<path class="st40" d="M8.8,28.6c-0.1,0-0.2,0-0.3,0c-0.3,0.1-0.6,0.3-0.9,0.1c-0.2-0.1-0.4-0.9-0.3-1.4c0.1-0.3,0.6-0.5,0.8-0.3
		C8.5,27.5,8.8,28,8.8,28.6L8.8,28.6z"/>
	<path class="st40" d="M9.2,27c0,0,0,0.1,0,0.1c0,0-0.1,0-0.1,0c0,0,0-0.1,0-0.1C9.1,27,9.2,27,9.2,27z"/>
	<path class="st40" d="M9.1,26.5c0,0-0.1-0.1-0.1-0.1c0,0,0.1-0.1,0.1-0.1c0,0,0.1,0.1,0.1,0.1C9.2,26.4,9.2,26.5,9.1,26.5z"/>
	<path class="st27" d="M31.9,13.1c-0.1,0.1-0.2,0.2-0.3,0.3C31.6,13.4,31.8,13.3,31.9,13.1z"/>
	<path class="st66" d="M45.1,6.2c0.4,0,0.9,0,1.3,0c0.2,0,0.3,0,0.5,0c0.6,0.2,0.8,0.6,0.5,1.1c-0.1,0.3-0.3,0.5-0.3,0.8
		c0,0.3-0.3,0.7,0,0.9c0.4,0.4,0.7-0.1,1-0.3c0.5-0.3,0.9-0.2,0.9,0.1c0.1,0.4-0.2,0.5-0.5,0.7c-0.9,0.4-1.8,0.9-2,2l0,0
		c-0.4,0.2-0.6-0.1-0.8-0.4c0-0.2,0.1-0.4,0.2-0.5c-0.2-0.2-0.1,0.1-0.3,0.1c-0.2,0.1-0.4,0-0.6,0c-0.3-0.2-0.4-0.5-0.6-0.8h0
		c-0.1-0.3-0.1-0.6-0.2-1c-0.1-0.6-0.1-0.7,0.5-1c0.1-0.1,0.3-0.2,0.4-0.1c0.1,0.2,0,0.3-0.2,0.4c-0.1,0.2-0.1,0.3,0.1,0.4
		c0.1,0,0.2,0,0.3,0C45.8,8.4,46,8,46.2,7.6c0.2-0.4,0.1-0.6-0.4-0.7C45.4,6.8,45.1,6.7,45.1,6.2z"/>
	<path class="st60" d="M19.1,23.7c-0.2,0.4-0.6,0.7-0.9,1c-0.5,0.5,0.1,0.3,0.3,0.4c0,0.1,0,0.2,0,0.3c-0.7,0-1.3,0-1.7,0.7
		c-0.2,0.3-0.6,0.5-0.9,0.7c-0.2,0-0.4,0-0.7,0c0.1-0.2,0.3-0.4,0.4-0.6c0.1-0.2,0-0.3-0.1-0.4c0-0.7,0.4-0.8,1-0.7
		c0.1,0.1,0.2,0.2,0.2,0.2c0.6-0.4,1.1-0.8,1.3-1.5c0-0.3,0.1-0.3,0.4-0.4C18.7,23.3,18.9,23.4,19.1,23.7z"/>
	<path class="st31" d="M29.8,8.9c0,0-0.1,0.1-0.1,0.1C29.6,9,29.6,8.9,29.8,8.9L29.8,8.9z"/>
	<path class="st31" d="M29.8,7.5c0,0,0.1-0.1,0.1-0.1C30,7.4,29.9,7.5,29.8,7.5L29.8,7.5z"/>
	<path class="st16" d="M27.6,17.8c-0.2,0.1-0.4,0.2-0.7,0.3c-0.3-0.1-0.7,0.2-1-0.2l-0.1-0.1C26.5,17.5,27,17.4,27.6,17.8z"/>
	<path class="st62" d="M28,18.9c-0.3-0.2-0.3-0.6-0.3-1C28.1,18.1,28,18.5,28,18.9z"/>
	<path class="st16" d="M25.3,17.9c-0.1-0.1-0.2-0.2-0.3-0.3C25.1,17.7,25.2,17.8,25.3,17.9z"/>
	<path class="st67" d="M18.7,23c0.4-0.4,0.8-0.7,1.3-1.1c0.2,0.3,0.4,0.4,0.7,0.4c-0.3,0.5-0.8,0.7-1.3,1.1
		c-0.1,0.1-0.3,0.2-0.4,0.3l0,0c-0.3,0-0.5-0.1-0.7-0.3C18.5,23.3,18.6,23.2,18.7,23z"/>
	<path class="st68" d="M26,17.9c0.3,0,0.7-0.1,1,0.2c-0.1,0.1-0.2,0.1-0.4,0.2c-0.1,0.1-0.1,0.2-0.2,0.2c-0.2,0.2-0.4,0.4-0.7,0.5
		c-0.1-0.1-0.2-0.2-0.1-0.4C25.7,18.3,25.8,18.1,26,17.9z"/>
	<path class="st67" d="M21.1,22c-0.1,0.2-0.2,0.3-0.4,0.3C20.8,22.2,20.9,22.1,21.1,22z"/>
	<path class="st9" d="M44.5,9.9c0.3,0.1,0.5,0.3,0.7,0.6c0.1,0.4,0.5,0.2,0.7,0.3c0.1,0.3,0.4,0.5,0.7,0.6c-0.5,0.5-1.1,0.3-1.7,0.3
		c-0.3,0-0.6-0.2-1-0.3C43.8,10.9,44.3,10.5,44.5,9.9z"/>
	<path class="st69" d="M5.8,8.6c0-0.3,0.1-0.5,0.4-0.6c0.7,0.4,1.3-0.1,1.9-0.2C9,7.6,9.3,8.2,9,9.3C8.9,9.5,8.8,9.6,8.7,9.7
		c-0.3,0.4-0.4,0.8-0.7,1.1C8,11,7.8,11,7.7,11.1c-0.1,0-0.1,0-0.2-0.1c-0.1,0-0.1-0.1-0.2-0.1c-0.2-0.4-0.6-0.5-1-0.7
		c0-0.1-0.1-0.1-0.1-0.2c-0.3-0.4-0.7-0.3-1-0.3C4.9,9.8,4.6,10,4.3,9.9C4.1,9.8,4,9.6,4,9.4C4,9.2,4.1,9.1,4.3,9C4.6,9,5,9,5.3,9
		C5.5,8.9,5.7,8.8,5.8,8.6z"/>
	<path class="st70" d="M2.9,13.7c-0.3-0.8,0.4-1.4,0.5-2.2c0-0.4,0.5-0.8,1-0.8C5,10.6,5.6,10.2,6.2,10l0,0c0.3,0.5,1,0.6,1.4,1l0,0
		c0.1,0.7-0.4,1-0.8,0.8c-1.5-0.6-2.1,0.4-2.6,1.5c-0.1,0.1-0.2,0.3-0.3,0.4c-0.2,0.2-0.4,0.2-0.7,0.2C3,13.8,3,13.7,2.9,13.7z"/>
	<path class="st70" d="M1.3,14.7c0.5-0.3,1.1-0.7,1.6-1l0,0c0.2,0.2,0.6,0.1,0.8,0.4c-0.4,1.2-1,1.4-2.5,0.8
		C1.2,14.9,1.2,14.8,1.3,14.7z"/>
	<path class="st53" d="M1,14.8c0-0.2,0-0.5-0.1-0.7c0.1,0,0.2,0,0.3,0c0,0.2,0,0.4,0.1,0.7l0,0c0,0.1-0.1,0.2-0.2,0.1
		C1,14.8,1,14.8,1,14.8z"/>
	<path class="st71" d="M8.5,9.6C8.6,9.4,8.6,9.2,8.7,9c0.1-0.2,0.3-0.3,0.2-0.6C8.7,8.2,8.4,8,8.1,8c-0.2,0-0.5,0.1-0.6,0.3
		C7,8.9,6.8,8.5,6.6,8.1C6.5,8,6.3,8,6.1,8c0.2-0.6,0.6-1,1.2-1.2c0.5-0.1,0.9-0.4,1.4-0.5c1-0.4,2-0.5,3-0.5c0.1,0,0.2,0.1,0.2,0.2
		c0,0.1,0,0.2-0.1,0.3c-0.2,0.1-0.4,0.2-0.6,0.3c-0.4,0.1-0.7,0.3-0.6,0.8c0,0.4-0.3,0.7-0.5,1c-0.1,0.2,0,0.3,0.1,0.4
		c0.2,0.1,0.3,0.1,0.4-0.1c0.1-0.1,0.1-0.3,0.2-0.4c0.3-0.5,0.7-0.6,1.3-0.4l0,0c0.2,0.2,0.2,0.4,0,0.7l0,0c-0.6,0.3-0.5,1.7-1.7,1
		c-0.1,0-0.2,0-0.3,0C9.6,9.8,9,9.8,8.5,9.6z"/>
	<path class="st19" d="M8.5,9.6c0.6-0.4,1.1-0.4,1.7,0c0,0.2,0,0.3,0,0.5c0,0.4,0.1,0.7,0.6,0.6c0.5-0.1,0.7,0.1,0.7,0.6
		c0,0.1,0,0.2,0,0.3c-0.5,0.3-1.1,0.3-1.7,0l0,0c-0.1-0.1-0.2-0.2-0.3-0.3l0,0c-0.2-0.2-0.7-0.1-0.8-0.6C9.2,10.2,8,10.1,8.5,9.6
		L8.5,9.6z"/>
	<path class="st19" d="M10.5,9.6c0.4,0,0.8,0.1,0.8-0.6c0-0.5,0.5-0.4,0.9-0.4c-0.1,0.3-0.1,0.5-0.2,0.8C11.6,9.9,11.4,10,10.5,9.6z
		"/>
	<path class="st19" d="M12.1,8.5c0-0.2,0-0.4,0-0.7c0.2,0,0.4,0,0.6,0c0.1,0,0.2,0.1,0.1,0.2C12.6,8.3,12.4,8.4,12.1,8.5z"/>
	<path class="st60" d="M14.5,26.8c0.2,0,0.4,0,0.6-0.1c0,0.1-0.1,0.2-0.1,0.3c-0.1,0.1-0.2,0.1-0.3,0.2C14.6,27.1,14.6,27,14.5,26.8
		z"/>
	<path class="st18" d="M1,14.8c0.1,0,0.2-0.1,0.3-0.1C1.4,14.9,1.6,15,1.8,15c0.4,0,0.7-0.3,1.1-0.2c0.6,0.1,0.7-0.3,0.7-0.8
		c0.1,0,0.1,0,0.2-0.1c0.3,0.6,1.7,0.4,1.4,1.6c-0.1,0.1-0.2,0.2-0.4,0.2c-1.1-0.1-1.2,0.6-1.1,1.5C3.5,18.1,3,18.6,2.3,19l0,0
		c-0.5,0.6-0.9,0.5-0.8-0.3c0.1-0.7,0-1.3-0.6-1.7c-0.1,0-0.2,0-0.3-0.1c0-0.2,0-0.3,0-0.5c0-0.2,0.2-0.3,0.3-0.4
		C0.9,15.6,1,15.2,1,14.8z"/>
	<path class="st72" d="M1,17.1c1,0.3,1.1,0.4,0.9,1.3c0,0.2-0.1,0.3-0.1,0.5c-0.1,0.3,0.1,0.4,0.6,0.3c-0.1,0.7,0.4,1.2,0.4,1.9
		c0,0.2,0.2,0.2,0.4,0.3c0.3,0.2,0.2,0.4,0,0.5c-0.3,0.2-0.7,0.2-0.8,0.4c-0.4,0.6-0.6-0.1-0.9-0.1c-0.6-0.8-0.3-1.8-0.3-2.7
		c0.5-0.5,0.3-1.1,0.1-1.7C1.1,17.5,1,17.3,1,17.1z"/>
	<path class="st53" d="M0.9,16.1c-0.1,0.1-0.2,0.3-0.3,0.4C0.7,16.3,0.8,16.2,0.9,16.1z"/>
	<path class="st16" d="M26.4,18.5c0-0.1,0.1-0.2,0.2-0.2C26.5,18.3,26.4,18.4,26.4,18.5z"/>
	<path class="st60" d="M19.1,23.7c0.1-0.2,0.2-0.3,0.4-0.3C19.4,23.6,19.3,23.7,19.1,23.7z"/>
	<path class="st18" d="M3.6,13.7c0.3-0.7,0.6-1.4,0.9-2.1c0.3-0.6,0.8-0.7,1.4-0.4c0.2,0.1,0.4,0.2,0.6,0.3c0.5,0.3,0.8-0.1,1-0.5
		c0.1,0,0.2,0,0.3,0C8,11,8,11.2,8.1,11.3c0,0.3-0.1,0.6-0.4,0.8c-0.3,0.2-0.7,0.2-1,0.3c0,0,0,0.1,0,0.1s0.1,0.1,0.1,0.1
		c0.2,0,0.3,0.1,0.5,0.2c0.1,0.1,0.2,0.2,0.2,0.3c0.2,0.7,0.8,1.3,0.5,2.1c-0.2,0-0.4,0-0.7,0c-0.5,0.2-0.6-0.3-0.9-0.5
		c-0.2-0.1-0.4-0.1-0.6-0.1c-1.1,0.5-1.3-0.6-2-1C3.7,13.7,3.6,13.7,3.6,13.7z"/>
	<path class="st1" d="M7.9,11.3c0-0.1,0-0.2,0-0.3l0,0c0.1-0.1,0.2-0.2,0.2-0.2c0.1-0.1,0.3-0.2,0.5-0.2c0.1,0,0.2,0,0.3,0.1
		c0.2,0.2,0.5,0.4,0.7,0.6c-0.2,0-0.5,0-0.4,0.3c0.1,0.2,0.3,0.3,0.4,0.5c0.3,0.3,0.3,0.7,0.1,1c-0.1,0.2-0.3,0.5-0.5,0.7
		c-0.5,0.3-0.2,0.5,0,0.7c0.1,0.1,0.1,0.3,0.1,0.5c0,0.6-0.4,0.9-0.9,0.6c-0.1-0.1-0.2-0.2-0.4-0.3c-0.3-0.6-0.4-1.2-0.8-1.7
		c-0.1-0.1,0.1-0.4,0.1-0.6C7.9,12.5,8.6,12.2,7.9,11.3z"/>
	<path class="st73" d="M6.9,16.6c0.2,0.3,0.5,0.6,0.7,0.8c0,0-0.1,0.1-0.1,0.1c-0.4,0.2-0.9-0.2-1.3-0.1c-0.5,0.1-0.5,0.7-0.8,1
		c-0.2,0.2-0.4,0.2-0.6,0.2c-0.3-0.1-0.6-0.2-0.9-0.2c0-0.1-0.1-0.1-0.1-0.2c-0.1-0.7,0.6-0.8,0.9-1.2c0.1-0.1,0.3-0.2,0.4-0.3
		C5.7,16.6,6.3,16.2,6.9,16.6z"/>
	<path class="st74" d="M2.3,19c0.4-0.6,0.6-1.3,1.3-1.7c0,0,0.1,0.1,0.1,0.1c0.1,0.3-0.1,0.7,0.2,0.9h0c0.3,0.6,0.8,0.6,1.4,0.7
		c0.2,0,0.2,0.4,0.1,0.6c-0.3,0.4-0.6,0.4-1,0.2c-0.2-0.1-0.3-0.3-0.5-0.4c-0.1,0-0.1,0-0.2,0c-0.2,0.1-0.3,0.1-0.5,0.1
		c-0.1,0-0.2-0.1-0.3-0.2C2.9,19.1,2.6,19,2.3,19z"/>
	<path class="st1" d="M6.9,16.6c-0.7,0.1-1.3,0.4-2,0.4c-0.4-0.4-0.4-0.9,0-1.3l0,0c0.1-0.1,0.2-0.1,0.4-0.1
		c1.2,0.4,0.5-1.1,1.2-1.2c0.5,0.2,0.3,0.8,0.7,1c0.1,0.2,0.1,0.4,0.2,0.6C7.6,16.4,7.4,16.6,6.9,16.6z"/>
	<path class="st75" d="M3,19.3c0.1,0,0.2,0,0.3,0c0.2-0.2,0.5-0.2,0.7,0v0c0,0.4-0.2,0.7-0.4,1c-0.1,0.2-0.5,0.2-0.5,0
		C3.1,20,2.7,19.7,3,19.3z"/>
	<path class="st1" d="M10.5,12.5c0,0.2,0,0.3,0,0.5c0,0.3,0.6,0.5,0.3,0.8c-0.1,0.2-0.3,0.4-0.3,0.7C10.1,13.9,10.1,13.2,10.5,12.5z
		"/>
	<path class="st1" d="M9.9,11.6c0.6,0,1.1,0,1.7,0c0,0.3-0.1,0.5-0.3,0.7c-0.2-0.2-0.4-0.3-0.7-0.3C10.3,11.9,10,11.8,9.9,11.6z"/>
	<path class="st1" d="M11.2,12.2c-0.1,0.3-0.4,0.3-0.7,0.3C10.7,12.3,10.9,12.2,11.2,12.2z"/>
	<path class="st1" d="M9.5,11.2c0.1,0.1,0.2,0.2,0.3,0.3C9.7,11.4,9.6,11.3,9.5,11.2z"/>
	<path class="st1" d="M12.9,12.8c-0.1,0.3-0.3,0.6-0.7,0.6c-0.1,0-0.2,0-0.3-0.1c0-0.1,0-0.2,0.1-0.2C12.2,13,12.5,12.8,12.9,12.8
		L12.9,12.8z"/>
	<path class="st1" d="M13.5,12.8c-0.2,0-0.4,0-0.7,0h0C13.1,12.5,13.3,12.5,13.5,12.8L13.5,12.8z"/>
	<path class="st1" d="M13.5,11.2c0,0,0.1,0.1,0.1,0.1C13.6,11.3,13.6,11.3,13.5,11.2L13.5,11.2z"/>
	<path class="st17" d="M45.8,10.9c-0.2,0.1-0.5,0.2-0.7,0.2c-0.1,0-0.3-0.2-0.3-0.3c-0.1-0.3,0.2-0.3,0.4-0.3c0.2,0,0.4,0,0.7,0
		c0.1-0.1,0.1-0.1,0.2-0.1c0.1,0,0.1,0.1,0.1,0.1C46,10.7,45.9,10.8,45.8,10.9z"/>
	<path class="st9" d="M46.1,10.5c-0.1,0-0.2,0-0.3,0C45.9,10.3,46,10.3,46.1,10.5z"/>
	<path class="st60" d="M18.7,23c-0.1,0.1-0.2,0.2-0.3,0.3C18.4,23.2,18.5,23.1,18.7,23z"/>
	<path class="st18" d="M7.5,10.9c-0.1,0-0.2,0-0.3,0c-0.9,0-0.9,0-1-1c0.1,0,0.2,0,0.3,0C7.4,10,7.4,10,7.5,10.9z"/>
	<path class="st18" d="M8.2,10.9c-0.1,0-0.2,0-0.3,0c0-0.5,0.2-1,0.6-1.3c0.2,0.5,0.7,0.6,1.1,0.8c-0.2,0.2-0.5,0.2-0.7,0.2
		c-0.1,0-0.2,0-0.3,0C8.4,10.7,8.3,10.8,8.2,10.9z"/>
	<path class="st18" d="M3.6,14c-0.3,0-0.5-0.1-0.7-0.3c0.2,0,0.4,0,0.7,0l0,0C3.7,13.8,3.7,13.9,3.6,14L3.6,14z"/>
	<path class="st74" d="M4.9,15.6c0,0.4,0,0.9,0,1.3c0,0.1,0,0.2,0,0.3c-0.4,0.3-0.9,0.3-1.3,0l0,0c0,0,0-0.1-0.1-0.1
		c-0.2-0.4-0.8-0.7-0.3-1.3c0.5-0.6,0.7-0.6,1.6-0.3C4.8,15.6,4.9,15.6,4.9,15.6z"/>
	<path class="st74" d="M3.6,14l0-0.2l0-0.2c0.2-0.1,0.4-0.2,0.6-0.3c0.3-0.1,0.6-0.1,0.5,0.4c0,0.1-0.1,0.2-0.1,0.3
		c0,0.3,0.1,0.5,0.5,0.4c0.3-0.1,0.5-0.1,0.8-0.2c0.1,0.6,0.2,1.2-0.6,1.3c-0.1,0-0.2,0-0.3,0c0.1-0.2,0.2-0.6,0-0.6
		C4.1,15.1,4,14.5,3.6,14z"/>
	<path class="st76" d="M7.9,11.3c0.3,0,0.6,0.1,0.6,0.4c0,0.2,0,0.3,0,0.5c0,0.9-0.3,1-1.3,0.7l0,0c-0.2-0.2-0.7-0.1-0.7-0.5
		c0.1-0.6,0.8-0.2,1-0.5C7.8,11.8,7.8,11.5,7.9,11.3z"/>
	<path class="st77" d="M5.3,15.6c0.5-0.3,0.3-0.9,0.6-1.3c0.2,0,0.4,0,0.7,0c0,0.4-0.2,0.8-0.1,1.3c0.1,0.4-0.3,0.6-0.6,0.6
		C5.4,16.3,5.3,16,5.3,15.6z"/>
	<path class="st1" d="M7.5,11.9c-0.1,0.1-0.2,0.3-0.4,0.3c-0.7,0.2-0.2,0.4,0,0.6c0,0,0.1,0.1,0.1,0.1c-0.3,0-0.7,0-1,0l0,0
		C6.3,12,6.3,12,7.5,11.9z"/>
	<path class="st1" d="M6.2,13c0,0-0.1,0.1-0.1,0.1C6,13.1,6.1,13,6.2,13L6.2,13z"/>
	<path class="st19" d="M8.2,10.9c0.1-0.1,0.2-0.2,0.3-0.3C8.4,10.7,8.3,10.8,8.2,10.9z"/>
	<path class="st63" d="M3.6,17.3c0.4,0,0.9,0,1.3,0c-0.1,0.2-0.3,0.3-0.5,0.4C4.1,17.7,4,18,4,18.3c-0.4,0-0.6-0.1-0.4-0.5
		C3.6,17.6,3.6,17.5,3.6,17.3z"/>
	<path class="st63" d="M4,19.3c-0.2,0-0.4,0-0.7,0C3.6,19,3.8,19,4,19.3z"/>
</g>
</svg>
