<?xml version="1.0" encoding="utf-8"?>
<!-- Generator: Adobe Illustrator 19.1.0, SVG Export Plug-In . SVG Version: 6.00 Build 0)  -->
<svg version="1.1" id="Layer_1" xmlns="http://www.w3.org/2000/svg" xmlns:xlink="http://www.w3.org/1999/xlink" x="0px" y="0px"
	 viewBox="0 0 75 84" style="enable-background:new 0 0 75 84;" xml:space="preserve">
<style type="text/css">
	.st0{fill:#F9ECDE;}
	.st1{fill:#FBE2D0;}
	.st2{fill:#FAE8D4;}
	.st3{fill:#FAE4D4;}
	.st4{fill:#FAE7D2;}
	.st5{fill:#FCF1E4;}
	.st6{fill:#FCE0C4;}
	.st7{fill:#FBE1CF;}
	.st8{fill:#F6DFC9;}
	.st9{fill:#E0EBDC;}
	.st10{fill:#F6D5C1;}
	.st11{fill:#FBDCC6;}
	.st12{fill:#FBE5CA;}
	.st13{fill:#FBEDDE;}
	.st14{fill:#F9DEBE;}
	.st15{fill:#FCDFBE;}
	.st16{fill:#F8DBC3;}
	.st17{fill:#D4E4D3;}
	.st18{fill:#C9DDB2;}
	.st19{fill:#F9D7C5;}
	.st20{fill:#F7CFB7;}
	.st21{fill:#BFD9C1;}
	.st22{fill:#C8DEB3;}
	.st23{fill:#F7D2A9;}
	.st24{fill:#F8DBB1;}
	.st25{fill:#F6D3BC;}
	.st26{fill:#689870;}
	.st27{fill:#81AC8B;}
	.st28{fill:#D9E5D5;}
	.st29{fill:#D0E2CB;}
	.st30{fill:#F8D4B5;}
	.st31{fill:#F6C4A2;}
	.st32{fill:#F5DABB;}
	.st33{fill:#9CC0A3;}
	.st34{fill:#3B5545;}
	.st35{fill:#F1D4BA;}
	.st36{fill:#F3CCA8;}
	.st37{fill:#34624D;}
	.st38{fill:#F1AC8C;}
	.st39{fill:#689F74;}
	.st40{fill:#F09342;}
	.st41{fill:#244135;}
	.st42{fill:#F9D8AA;}
	.st43{fill:#CAD9C2;}
	.st44{fill:#C5D9B9;}
	.st45{fill:#F8D4AA;}
	.st46{fill:#F8DBBA;}
	.st47{fill:#ED883F;}
	.st48{fill:#446A4B;}
	.st49{fill:#F5A441;}
	.st50{fill:#AFC497;}
	.st51{fill:#F8D38E;}
	.st52{fill:#F4CB93;}
	.st53{fill:#A3C282;}
	.st54{fill:#F4CDA4;}
	.st55{fill:#F5D8C4;}
	.st56{fill:#A4BE8A;}
	.st57{fill:#F4D4AE;}
	.st58{fill:#F1BAA0;}
	.st59{fill:#C4DBC9;}
	.st60{fill:#5F8E63;}
	.st61{fill:#AECDB0;}
	.st62{fill:#F6CDB4;}
	.st63{fill:#F5DFCD;}
	.st64{fill:#A1C8A3;}
	.st65{fill:#F7CEB5;}
	.st66{fill:#A1BB8B;}
	.st67{fill:#FBD9AA;}
	.st68{fill:#F3C0A0;}
	.st69{fill:#F7DEB1;}
	.st70{fill:#B3CCB9;}
	.st71{fill:#F3CFAF;}
	.st72{fill:#5D7760;}
	.st73{fill:#364E3A;}
	.st74{fill:#B3D2B1;}
	.st75{fill:#F1BC91;}
	.st76{fill:#F7BE8D;}
	.st77{fill:#F3BE8C;}
	.st78{fill:#A7BF90;}
	.st79{fill:#546E5E;}
	.st80{fill:#5B805C;}
	.st81{fill:#728772;}
	.st82{fill:#F5DD7F;}
	.st83{fill:#607C5F;}
	.st84{fill:#F6D3AE;}
	.st85{fill:#F1BB9C;}
	.st86{fill:#F9DCC1;}
	.st87{fill:#F0BA8E;}
	.st88{fill:#9FB48A;}
	.st89{fill:#88B28C;}
	.st90{fill:#ADC296;}
	.st91{fill:#48624C;}
	.st92{fill:#486651;}
	.st93{fill:#66866D;}
	.st94{fill:#5C7B5F;}
	.st95{fill:#A7BF9E;}
	.st96{fill:#A7BB92;}
	.st97{fill:#678053;}
	.st98{fill:#9CB681;}
	.st99{fill:#FAE3CC;}
	.st100{fill:#FBDAC4;}
	.st101{fill:#FADAB5;}
	.st102{fill:#F9DBC6;}
	.st103{fill:#FDE9D1;}
	.st104{fill:#F9E1CB;}
	.st105{fill:#FAE4CE;}
	.st106{fill:#F9E2C2;}
	.st107{fill:#7C9E7D;}
	.st108{fill:#F8D6AE;}
	.st109{fill:#FBE08A;}
	.st110{fill:#FBD7A6;}
	.st111{fill:#FAD59F;}
	.st112{fill:#FCE39C;}
	.st113{fill:#D1E3BE;}
	.st114{fill:#F5C980;}
	.st115{fill:#FAD08D;}
	.st116{fill:#F6C883;}
	.st117{fill:#F3B983;}
	.st118{fill:#F9DBA4;}
	.st119{fill:#E9793C;}
	.st120{fill:#3C5E45;}
	.st121{fill:#D9E8D3;}
	.st122{fill:#115238;}
	.st123{fill:#F7DEC6;}
	.st124{fill:#D2E5CB;}
	.st125{fill:#F19041;}
	.st126{fill:#F8D8C6;}
	.st127{fill:#FAE6D8;}
	.st128{fill:#F1CEA2;}
	.st129{fill:#FAB662;}
	.st130{fill:#DEAE3C;}
	.st131{fill:#E46736;}
	.st132{fill:#F6C771;}
	.st133{fill:#F8D499;}
	.st134{fill:#F6AB4D;}
	.st135{fill:#F9D665;}
	.st136{fill:#F8D066;}
	.st137{fill:#F5E2CA;}
	.st138{fill:#F2B852;}
	.st139{fill:#F2A749;}
	.st140{fill:#E77138;}
</style>
<g>
	<path class="st0" d="M64.8,36.2c0,0,2.4,0.1,1.8,3.4c-0.6,3.2-1.8,6.9-6.5,9.6c-4.7,2.7-9.8,3.9-12.9,3.2c-3.1-0.7-1.7-4.2,0.3-5.9
		c2-1.7,4.4-2.9,5.2-3.7c0.8-0.8,3.8-1.9,4.4-1.9C57.7,40.8,64.8,36.2,64.8,36.2z"/>
	<path class="st1" d="M23,61.9c0.1-0.4,0.2-0.8,0.2-1.3c-1.1,0.5-2.2,1-3.2,1.5c-0.4,0.2-0.8,0.4-1.3,0.4c-1.8,0.1-3.2,1.3-4.8,2
		c-1.5,0.7-2.7,0.3-3.4-1.3c-1.1,1.5-1,1.5-2.6,0.4c-1-0.7-2.1-1-2.7-2.3c-0.9-1.9-0.8-3.8-0.5-5.8c-0.1-1.1-1.1-2.1-0.6-3.3
		c0.1-0.1,0.2-0.2,0.4-0.3C5,51.6,5.8,52.4,6,51.9c0.3-0.8,0.7-1.5,0.8-2.4c0-0.7-0.1-1.4,0.6-1.8c0.9-0.3,1.8-0.6,2.8-0.7
		c0.3,0,0.7,0,0.9-0.3c0.6-1.1,1.3-0.8,2.1-0.3c0.3,0.2,0.6,0.4,0.9,0.1c0.8-0.9,1.8-0.4,2.5-0.2c1.4,0.4,3,0.7,4,2
		c-0.1,0.8,0.6,0.1,0.8,0.4c0.3,0.1,0.5,0.4,0.7,0.6c1.9,0.8,1.8,3,3,4.2c0.1,0.1,0.2,0.3,0.1,0.5c-0.6,1.2,0.2,1.8,1,2.5
		c0.9,0.8,0.7,1.3-0.4,1.7c0.3,1,1.4,1,1.9,1.7c0.1,0.1,0.1,0.3,0.1,0.4c-0.4,0.7-1.3,1.1-1,2.2c0.1,0.5-0.5,0.8-0.9,0.5
		C25,62.2,24,62.2,23,61.9z"/>
	<path class="st2" d="M48.8,52.2c-1.1,0.2-2.2,0.1-3.3,0c-0.6-0.1-1.1-0.1-1.7-0.1c-0.1-1.4-0.6-2.5-2-3.3c-1.6-0.8-1.7-2-0.7-3.8
		c0.6-0.6,1.1-0.3,1.7,0.2c0-0.5-0.1-0.8-0.3-1c-0.3-0.6-0.3-1.1,0.5-1.3c1.2-0.3,1.8-1,1.6-2.3c-0.1-0.7,1.4-1,0.6-1.9
		c0.1-0.6,0.5-1,0.8-1.5c0.2-0.4-0.2-0.1-0.3-0.2c-0.9-0.1-1.4,1.3-2.4,0.6c0,0.3,0.3,0.4,0.3,0.6c0,0.1,0,0.3,0,0.4
		C43.5,38.9,43.3,39,43,39c-0.1,0-0.3,0-0.4,0c-0.4-0.1-0.8-0.3-1.2-0.5c-0.1-0.1-0.2-0.1-0.3-0.2c-0.2-0.1-0.4-0.3-0.5-0.5
		c-0.2-0.1-0.2,0.1-0.3,0.2c0,0.1-0.1,0.2-0.2,0.3c-1.3,0.2-1.5-0.8-1.6-1.6c-0.1-0.6,0-1.3-0.1-1.9c-0.1-0.6,0.1-1.3-1-1.2
		c-0.6,0.1-1-0.8-0.6-1.2c1.2-1.5,0.7-3.2,0.6-4.8c0-0.8,0.2-1.4,1-1.2c0.9,0.2,1.1-0.4,1.4-0.9c0.1-0.1,0.2-0.2,0.3-0.3
		c1-0.7,1.6-0.5,1.7,0.7c0.1,0.5,0.1,1,0.5,1.3c0.7,0.6,0.6,1.2,0,1.9c0.6-0.3,1.1-0.2,1.6,0.1c0.6,0.4,0.4,0.9,0.3,1.5
		c-0.1,1.3,1.3,1.6,1.8,2.5c0.2,0.3,0.6,0.4,0.9,0.9c1.2-2.4,3.3-2.3,5.4-2.2c1.3,0.1,0.9,1.1,0.6,2c0.7-0.2,1.3-0.3,1.8,0.1
		c1,0.7,2.2-0.3,3.2,0.4c0.3,0.2,0.2-0.1,0.2-0.2c0.2-1.2,1.2-0.6,1.6-0.4c0.8,0.4,2,0.4,1.9,1.8c-0.4,0.3-1.5-0.3-1.2,0.9
		c0.1,0.3-0.3,0.7-0.7,0.5c-1-0.4-1.4,0.2-1.9,0.9c-0.5,0.9-1.4,1.1-2.5,0.3c1.2,1.8,1.2,1.8-0.6,2.3c-0.3,0.1-0.6,0.3-0.8,0.5
		c-0.9,1-1.9,1.3-3.2,0.3c0.5,0.8,0.7,1.3-0.1,1.7c-2-1.1-4.4-0.1-5.1,2.1c-0.1,0.4-0.2,0.7,0.1,1.1c0.4,0.5,0.5,1,0.3,1.7
		c0,0.2,0,0.5,0,0.4c1.9-0.2,1,2.2,2.3,2.6c0.3,0.1,0.5,0,0.8-0.1c0.3-0.1,0.7-0.5,1,0c0.2,0.4,0.2,0.8-0.3,1.1
		c-0.1,0.1-0.2,0.1-0.2,0.2c-0.1,0-0.3,0-0.4,0h0C49.1,52.2,49,52.2,48.8,52.2z"/>
	<path class="st3" d="M18.8,42c-0.9-0.3-1.6-0.8-2.2-1.4c-0.7-0.7-1.4-1.4-2-2.2c-1.3-2.2-2.8-4.3-3.7-6.7c-0.2-0.2-0.3-0.4-0.2-0.7
		c0.1-0.7-0.2-1.3-0.4-2c-0.7-1.9-0.3-2.5,1.7-2.3c0.6,0,0.9,0.5,1.3,0.9c0.4,0.4,0.9,0.5,1.5,0.4c0.5-0.1,0.7-0.6,0.5-1.1
		c-0.3-0.5-0.7-1.1-1-1.6c-0.5-0.9-0.1-1.7,0.9-1.9c0.6-0.1,1.2-0.3,1.9,0c0.9,0.4,1.9,0.3,2.8,0.5c0.5,0.6,1.1,0.8,1.8,1
		c1.5,0.5,1.9,2,3,3c0.2,0.2,0,0.5-0.1,0.8c-0.9,1.4-2.3,1.9-3.8,2.1c-0.9,0.1-1.5,0.5-1.7,1.4c-0.2,0.8-0.7,1.3-1.5,1.6
		c1.4,0.3,1.8,2,3,2.1c2,0.1,2.3,1.9,3.3,3c0.5,0.6,0,1.8-0.8,1.8c-0.6,0-1,0.1-1.2,0.7c-0.8,0.8-1.7,0.4-2.6,0.4
		C19,41.7,18.9,41.9,18.8,42z"/>
	<path class="st4" d="M30.7,81.3c-0.2-0.3-0.3-0.5-0.3-0.9c0.1-0.4,0.2-0.7,0.3-1c-0.1-0.4-0.4-0.3-0.7-0.3c-0.4,0-0.6-0.2-0.8-0.6
		c-0.2-0.4-0.6-0.7-0.9-1.1c-0.4-0.5-0.9-0.5-1.4-0.5c-0.4-0.1-0.7,0.1-1.1,0.2c-1.3,0.3-2.3,0.4-2.9-1.2c-0.4-1-1.3-1.9-1.9-2.9
		c-0.1-0.1-0.1-0.3-0.1-0.5c0.5-1.3,1.4-2.4,0.9-3.9c-0.1-0.3,0.1-0.7,0.4-0.8c0.8-0.2,1-0.7,0.7-1.4c-0.1-0.2,0-0.4,0.1-0.6
		c0.9-1.3,4.4-1.2,5.2,0c0.3,0.4,0.3,0.8,0,1.2c-0.3,0.3-0.7,0.6-0.4,1.1c0.1,0.1,0.1,0.2,0.2,0.3c2,1.3,2,1.3,1.9,3.3
		c0.5,0,0.6-0.5,0.7-0.8c0.5-1.2,1.2-1.3,2.3-0.7c0.7,0.4,1.4,0.8,1.1,1.7c-0.3,1.1-1.1,0.2-1.8,0.3c1.1,0.3,1.5,1,1,1.8
		c-0.6,1-0.2,1.4,0.7,1.6c1.3,0.3,1.4,1.1,1.1,2.2c-0.3,0.8-0.3,1.6-0.5,2.4c-0.6,0.6-1.3,1.1-1.9,1.7C31.3,83,31.3,83,30.7,81.3z"
		/>
	<path class="st5" d="M54.1,51.2c-0.2,0.1-0.5,0.1-0.7,0.2c-0.4,0-0.7-0.1-1.1-0.1c-1.3,0.3-3-0.7-3-2.1c0-1-0.5-1.6-1.2-2.2
		c-1.2-1-1.1-1.8,0.2-2.6c0.7,0.5,1.2,0.4,1.7-0.3c0.5-0.7,1.1-0.9,1.9-0.8c0.1,0,0.3,0.1,0.4,0.1c0.2,0.1,0.4,0.2,0.6,0.3
		c0.3,0.2,0.5,0.7,0.9,0.4c0.3-0.2,0.4-0.6,0.4-1c0-0.2-0.1-0.4-0.1-0.6c-0.1-0.4-0.1-0.8,0.3-1c0.4-0.3,0.7,0.2,0.9,0.4
		c0.2,0.1,0.3,0.3,0.7,0.4c-0.1-1,0.2-1.8,1.4-1.5c0.4,0.1,0.8-0.2,0.9-0.6c0.2-1.1,0.8-1.6,1.9-1.2c0.3-0.6-0.4-1.4,0.3-1.7
		c0.6-0.2,1.3,0.3,1.8,0.6c0.7,0.5,0.4,1.2,0,1.9c0.7-0.3,1.4-0.7,2,0.2c0.6,1,0.7,3.3,0.1,3.9c-0.6,0.6-0.8-0.1-1.1-0.3
		c0.7,0.8,0.7,1.6-0.1,2.2c-1.8,1.5-3.4,3.4-5.8,4C57,50,56.7,50.1,56.5,50C55.1,49.2,54.8,50.5,54.1,51.2z"/>
	<path class="st6" d="M27.7,68.2c-0.4-0.9-0.4-0.9,0.3-1.4c0.5-0.4,0.5-0.6,0.1-1c-0.2-0.2-0.4-0.4-0.7-0.3c-0.3,0-0.5-0.1-0.6-0.4
		c-0.5-0.6-0.5-0.6-0.9-0.1c-0.3,0.3-0.5,0.5-0.9,0.5c-0.4,0-0.7,0.1-1.1,0.2c-0.4,0.1-0.5,0.3-0.3,0.7c0.2,0.4,0.7,0.8,0.4,1.3
		c-0.3,0.4-0.8,0.2-1.2,0.3c-0.2,0-0.5,0.2-0.4,0.4c0.7,1.7,0,3-1.1,4.2c-0.3-0.1-0.4-0.4-0.4-0.6c0.3-2.4,0.1-5,2-7
		c0.4-0.5,0.5-1,0.4-1.6c-0.1-0.5-0.2-0.9-0.1-1.4l0,0c0.3-0.1,0.6,0.2,0.9-0.1c0.2-0.2,0.2-0.5,0.5-0.5c0.4,0,0.5,0.3,0.7,0.6
		c0.1,0.2,0.2,0.5,0.5,0.6c0.2,0.1,0.4,0.2,0.6,0.1c0.2,0,0.2-0.3,0.2-0.5c0-0.4,0.1-0.8-0.3-0.9c-0.2-0.1-0.3-0.2-0.2-0.4
		c0.1-0.2,0.3-0.3,0.5-0.2c0.5,0.2,0.9,0.1,1.3-0.4c0.5,0.6,1.2,1,1.4,1.8c-0.5,0.7-0.2,1.3,0.4,1.5c0.6,0.2,1.2-0.3,1.6-0.8
		c0.3-0.4,0.8-0.7,1.3-0.5c1.3,0.5,2.6,0.4,3.8,0.7c-0.7-0.6-0.6-1.4-0.2-2.1c0.5-0.9,1.3-0.8,1.9-0.1c0.1,0.1-0.1,0.3,0.1,0.2
		c0,0,0-0.2,0-0.3c0-0.2,0-0.3-0.2-0.4c-0.5-0.2-1.4,0.1-1-0.9c0.4-1,1.1-1.7,2.1-2.1c0.5-0.2,0.9,0.2,0.8,0.7c-0.1,1.3,1,2,1.5,3
		c0.2,1.6,0.1,3.2-0.2,4.8c-0.2,0.9-0.2,1.8-0.4,2.7c-0.3,1.3-0.5,2.7-1,4c-0.1,0.2-0.2,0.4-0.3,0.5c0,0.1-0.1,0.3-0.1,0.5
		c-0.1,0.1-0.1,0.2-0.2,0.2c0,0.1,0,0.3,0,0.4c-0.1,0.1-0.1,0.2-0.2,0.2c-0.3,0-0.4-0.2-0.5-0.4c0.5-1.6,0.2-3.3,0.2-4.9
		c-0.3,0.3-0.2,1.3-1,1.1c-0.9-0.1-1.6-0.7-2-1.4c-0.2-0.4-0.2-0.8,0.1-1.2c0.4-0.5,0.8-0.4,1.4,0c-1.5-1.5-3.7-1.2-5-2.6
		c0.8,0.7,1.1,1.5,1.1,2.4c0,0.3,0,0.7-0.4,0.8c-0.3,0.1-0.5-0.2-0.6-0.4c-0.7-1.2-1-0.6-1.4,0.2c-0.3,0.7-0.9,1.1-1.7,0.7
		c-0.6-0.3-0.5-0.8-0.1-1.3C28.5,67.7,28.4,68.5,27.7,68.2z"/>
	<path class="st7" d="M54,63.3c1.2,1.7,2.3,3.5,2.9,5.5c0.3,0.9,0.5,1.8,0.3,2.7c-0.1,0.6-0.7,0.9-1.2,0.5c-0.3-0.2-0.5-0.4-0.7-0.7
		c-0.3-0.3-0.8-0.2-1.1,0.1c-0.1,0.1-0.2,0.3-0.1,0.4c0.2,0.3,0.2,0.6,0.1,0.9c-0.2,0.5-0.3,0.9-0.9,1c-1.4,0.4-2.7,0.5-4-0.2
		c-0.3-0.2-0.7-0.3-1-0.4c-1.8-1-2.3-3.1-3.5-4.6c-0.1-0.5-0.5-0.8-0.5-1.4c0.1-0.3-0.1-0.8,0.4-0.9c0.8-0.1,0.9,0.8,1.4,1.1
		c0.1-0.8-1.1-1.3-0.5-2c0.4-0.6,1,0.1,1.5,0.2c0.3-0.4-0.1-0.9,0.1-1.3c0.3-0.7,1.4-0.9,1.9-0.4c1,1.1,1.6,1.1,2.3-0.1
		C52.1,62.3,53.1,63.2,54,63.3z"/>
	<path class="st0" d="M51.8,43.6c-0.7,0.1-1.5,0.2-1.8,1.1c-0.2,0.5-0.6,0.6-1,0.6c-0.5,0.1-0.7-0.2-0.6-0.7
		c0.4-1.2,1.4-1.5,2.5-1.5c0.3-0.3,0.4-0.7,0.2-1.2c-0.1-0.2-0.4-0.4-0.3-0.7c0.1-0.2,0.2,0,0.4,0c0.7,0.2,1.3,0.3,2,0.5
		c0.2-0.6,1-0.8,1.3-1.3c0.4-0.5,0.7-0.6,1.2-0.3c0.2,0.1,0.5,0.2,0.6-0.1c0.1-0.3,0-0.6-0.3-0.7c-0.6-0.2-0.6-0.8-0.9-1.2
		c0.7-0.4,1.1-0.1,1.5,0.3c0.2,0.2,0.5,0.1,0.7,0c0.4-0.3,0.7-0.7,0.9-1.3c0.2-0.9,0.6-1,1.4-0.6c0.1,0.1,0.3,0.2,0.4,0.2
		c0.2,0.1,0.4-0.2,0.4-0.3c0.1-0.5-0.4-0.7-0.5-1.1c0-0.1,0-0.2,0-0.3c0.1-0.2,0.3-0.2,0.4,0c0.4,0.5,1,0.4,1.5,0.6
		c0.4,0.1,0.4,0.5,0.7,0.7c0.2,0.2,0.4,0.3,0.7,0.2c0.4-0.1,0.7-0.3,1.1-0.2c1.2,0.7,2.2,1.6,2.4,3c0,0.6-0.6,1-0.3,1.7
		c0,0.1-0.1,0.4-0.2,0.4c-0.8,0.2-0.9,1-1.2,1.6c-0.3,0.7-0.4,1.5-1,2c0,0.3-0.3,0.4-0.3,0.7c-0.2,0.2-0.5,0.4-0.7,0.7
		c-0.3,0.6-0.8,1.1-1.4,1.3c-0.5,0.5-1.1,1-1.6,1.5c-0.2,0-0.3,0-0.5,0c-0.2,0.1-0.3,0.3-0.5,0.4c-0.2,0-0.3,0-0.5,0
		c-0.1,0.1-0.2,0.1-0.2,0.2c-0.2,0-0.3,0-0.5,0c-0.2,0.1-0.3,0.3-0.5,0.4c-0.2,0-0.3,0-0.5,0c-0.4,0.2-0.8,0.4-1.2,0.6
		c-0.2,0-0.3,0-0.5,0c-0.1,0.1-0.2,0.1-0.2,0.2c-0.2,0-0.3,0-0.5,0c-0.1,0.1-0.2,0.1-0.2,0.2c-0.2,0-0.3,0-0.5,0l0,0
		c-0.2-0.5-0.1-1,0.5-1.2c0.2-0.1,0.4-0.2,0.5-0.4c0.1-0.2,0-0.6,0.4-0.6c0.2,0,0.4,0.3,0.6,0.5c0.3,0.3,0.7,0.3,1,0.1
		c0,0,0.1-0.1,0.1-0.1c0.6-0.6,1.6-0.2,2.1-0.8c0.4-0.5,0.8-1.1,1.4-1.5c0.7-0.5,1.5-0.8,2.1-1.5c0.2-0.2,0.4-0.5,0.5-0.8
		c0.1-0.5,0-0.9-0.6-1.1c-0.4-0.1-0.5-0.4-0.4-0.7c0-0.3,0.2-0.3,0.4-0.3c0.5,0.1,0.6,0.5,0.8,0.9c0,0.1,0.2,0.2,0.3,0.2
		c0.2,0,0.3-0.1,0.3-0.3c0.1-0.8,0.5-1.6,0-2.5c-0.2-0.3-0.1-0.6-0.2-0.9c-0.1-0.4-0.6-0.6-0.9-0.3c-0.2,0.2-0.3,0.4-0.5,0.6
		c-0.2,0.3-0.5,0.2-0.8-0.1c-0.4-0.5-0.3-0.8,0.3-1c0.3-0.1,0.4-0.3,0.4-0.6c0-0.3-0.1-0.6-0.4-0.6c-0.6,0-1-0.4-1.5-0.6
		c-0.3,0.6,0.3,0.9,0.5,1.3c0.1,0.1,0.1,0.3,0.1,0.4c-0.1,0.2-0.3,0.3-0.5,0.3c-0.2,0-0.4-0.1-0.6-0.1c-0.3,0-0.6-0.2-0.9-0.1
		c-0.2,1.2-0.2,1.2-0.6,1.7c-0.4,0.4-0.8,0.6-1.2,0.1c-0.1-0.1-0.2-0.1-0.3-0.1c-0.2-0.1-0.5,0.2-0.5,0.5c0.1,0.4,0.5,0.6,0.5,1
		c0,0.3-0.2,0.5-0.5,0.5c-0.6-0.1-1-0.4-1.3-0.9c-0.1-0.2-0.2-0.4-0.4-0.4c-0.3,0.4-0.1,0.7,0.1,1c0.3,0.4,0.5,0.8-0.1,1.2
		c-0.4,0.3-0.1,1.2-0.8,1.3c-0.6,0-0.4-0.8-0.9-1c-0.2-0.1-0.5-0.2-0.7-0.3c0.1-0.1,0-0.2-0.1-0.3C51.9,43.6,51.8,43.6,51.8,43.6z"
		/>
	<path class="st7" d="M42.8,62.3c0-0.5-0.5-0.9-0.4-1.4c0.7-0.8,1.1-1.7,2.5-1.9c-0.5-0.2-0.8,0-1.1,0.1c-0.7,0.4-1,0.1-1.1-0.5
		c-0.1-0.9-0.6-1.9,0.3-2.7c0.4-0.4,0.3-0.7,0.1-1.2c-0.2-0.4-0.5-0.9,0-1.3c0.5-0.4,0.8,0.1,1.2,0.2c0.2,0,0.3,0,0.4-0.1
		c1.8,0.7,3,1.7,4,3.2c0.1,0.2,0.2,0.4,0.4,0.5c1.5,1.4,2.6,3.1,3.9,4.6c0.2,0.2,0.4,0.5,0.4,0.8c-0.7,0.2-1.2-1.1-2-0.4
		c-0.1,0.1-0.8,0.1-0.2,0.6c0.4,0.3,0.4,0.9-0.2,1.2c-0.5,0.3-0.8-0.2-1-0.5c-0.5-0.6-0.7-1.3-0.7-2.1c0-0.3-0.1-0.5-0.4-0.6
		c-0.3-0.1-0.6,0.1-0.6,0.4c-0.1,0.9-1.1,1.3-1.3,2.2c-0.2,0.8-0.6,1.2-1.4,0.8c-0.7-0.3-1.8-0.5-1.6-1.6c0.1-0.9,1-0.8,1.9-0.6
		C44.6,61.3,43.7,62,42.8,62.3z"/>
	<path class="st8" d="M62.5,36.2c-0.6,0.1-0.5-0.4-0.7-0.7c0.1-0.2,0-0.5-0.2-0.5c-0.5-0.1-1-0.1-1.2-0.7c-0.1-0.2-0.2-0.3-0.4-0.2
		c-0.5,0.2-0.9-0.2-1.3-0.2c-0.3,0.5,0.3,0.9,0,1.5c-0.3-0.3-0.6-0.6-0.9-0.8c-0.4-0.3-0.7-0.2-1.1,0.2c-0.1,0.1-0.1,0.2-0.2,0.3
		c-0.3,0.3-0.5,0.3-0.6-0.1c-0.1-0.4-0.2-0.7-0.6-0.2c-0.2,0.2-0.4,0.1-0.5-0.1C54.7,34.3,54.5,34,54,34c-0.4,0-0.6,0.2-0.7,0.5
		c-0.1,0.2-0.3,0.3-0.5,0.2c-0.2-0.1-0.3-0.3-0.3-0.5c0-0.2,0.1-0.3,0.1-0.4c0-0.1,0.2-0.1,0.2-0.2c0.3-0.4,0.4-0.9,0.2-1.1
		c-0.2-0.3-0.8-0.4-1.1,0c-0.5,0.5-0.7,0.3-0.9-0.1c-0.1-0.2-0.2-0.2-0.4-0.1c-0.2,0.1-0.2,0.4-0.5,0.4c-1.5-0.1-2.2,0.7-2.6,2
		c0,0.1-0.1,0.2-0.1,0.3c0,0-0.1,0-0.1,0c-0.4-0.1-0.3-0.6-0.6-0.9c-0.3-0.2-0.6-0.4-0.9-0.6c-0.3-0.2-0.5-0.5-0.7-0.9
		c-0.1-0.2-0.2-0.3-0.4-0.4c-0.3-0.1-0.7,0.3-0.8-0.2c-0.1-0.3,0.1-0.6,0.2-0.9c0.1-0.2,0.1-0.4,0.2-0.6c0.1-0.5,0-0.6-0.8-0.8
		c-0.5-0.2-0.4,0.1-0.4,0.3c0,0.1,0,0.1,0,0.2c0,0.2-0.1,0.3-0.3,0.3c-0.2,0-0.5-0.1-0.5-0.3c-0.1-0.6-0.3-1.2,0.4-1.6
		c0.2-0.1,0.2-0.4,0-0.5c-0.8-0.4-1-1.1-0.9-1.9c0-0.2,0-0.3,0-0.5c0-0.3-0.3-0.4-0.6-0.3c-0.2,0.1-0.3,0.2-0.5,0.4
		c-0.7-0.8-0.7-0.8,0.5-1.7c1-0.4,1.9,0,2.8,0.3c0.5,0.2,1,0.5,0.9,1c-0.4,1.2,0.6,1.7,1.1,2.5c0.8,1.1,0.4,2.3,0.6,3.5
		c0.2,0.5-0.1,1,0,1.6c0.6,0.2,1-0.3,1.5-0.5c1.9-0.8,3.9-1.2,6-1.2c2.5,0.7,4.9,1.5,7.5,1.8c0.1,0.1,0.2,0.1,0.2,0.2
		c0,0.4,0.3,0.6,0.6,0.7c0.2,0.2,0.3,0.4,0.3,0.7C62.4,35.1,62.5,35.7,62.5,36.2z"/>
	<path class="st9" d="M71,16.7c0.4-0.1,0.8-0.3,1.2-0.7c0.7,0.2,0.7,0.8,0.4,1.1c-0.7,0.9-0.6,2.5-2.3,2.4c0.1,1.5-1.1,1-1.8,1.3
		c-0.1,0-0.1,0.2-0.2,0.3c-0.5,2.1-2.2,2.7-3.9,3.2c-1.1,0.3-1.3,0-1.1-1.3c0.1-0.2-0.3-0.1-0.1,0c0.1,0,0,0.1,0,0.2
		c-0.1,0.1-0.1,0.4-0.2,0.4c-1.4-0.2-1.9,1.1-2.9,1.7c-0.5,0.3-1,0.4-1.5,0.2c-0.6-0.3-0.2-0.8-0.2-1.2c0-0.2-0.2,0.2-0.3,0.1
		c-0.2,0-0.3,0-0.4-0.1c-0.1-0.2-0.1-0.4-0.1-0.6c0.1-0.3,0.3-0.6,0.5-0.9c0.1-0.1,0.2-0.2,0.3-0.3c0.2-0.2,0.5-0.3,0.7-0.5
		c0.4-0.4,0.8-0.8,1.3-0.9c0.1,0,0.2,0,0.3,0.1c0.1,0.1,0.1,0.1,0.1,0.1c0,0.1-0.1,0.2-0.1,0.3c0,0.1,0.1,0.2,0.2,0.1
		c1-1,2.4-1.6,3.7-2.2c0.8-0.4,1.6-0.9,2.4-1.2c0.6-0.3,1.3-0.5,2-0.7c0.7-0.2,1.3-0.3,2-0.5c0,0.2,0,0.3,0,0.5
		C71,17.1,70.9,16.9,71,16.7z"/>
	<path class="st10" d="M5,55.5c0,0.1,0,0.1,0,0.2c-0.4,1-0.3,2,0.2,2.9c0.2,0.4,0,0.6-0.3,0.7c-0.2,0.1-0.4,0.4-0.2,0.5
		c0.7,0.4,0.7,1,0.9,1.6c0.3,0.7,0.7,1.2,1.5,1.4c0.6,0.1,1.3,0.4,1.6,1.2c0.1,0.3,0.4,0.3,0.7,0.1c0.4-0.2,0.6-0.7,0.9-1.1
		c0.3,0,0.3,0.3,0.4,0.4c0.5,0.9,1.4,1,2.3,1.1c0.2,0,0.3,0,0.4-0.2c0.3-0.5,0.8-0.7,1.3-0.8c0.7-0.2,1.4-0.4,1.9-1
		c0.3-0.3,0.7-0.4,1-0.2c0.3,0.2,0.7-0.4,0.9,0.2c-0.2,0.2-0.5,0.4-0.7,0.6c-0.1,0-0.3,0-0.4,0c-1.4,1-3,1.5-4.6,2.2
		c-0.3,0.1-0.6,0.2-0.9,0.1c-0.7-0.2-1.4-0.1-2.1,0c-1.4,0.1-2.8-0.1-4.1-0.6c-1.2-0.5-2.4-1-3.4-1.8c-0.8-0.8-0.6-2-1.3-2.9
		c-0.4-0.4,0.2-1.3,0.8-1.7C3,58.1,3.2,57,4,56.5C4.3,56.1,4.4,55.5,5,55.5z"/>
	<path class="st11" d="M42.8,62.3c0.1-0.2,0.3-0.3,0.4-0.5c0.1-0.3,0.3-0.5,0.6-0.4c0.7,0,1.4,0,2.1,0.1c0.2,0,0.6,0.1,0.6,0.4
		c0,0.2-0.1,0.4-0.2,0.6c-0.2,0.3-0.5,0.1-0.7-0.1c-0.2-0.2-0.4-0.3-0.7-0.3c-0.3,0-0.6,0.2-0.7,0.6c0,0.2,0,0.4,0.2,0.5
		c0.2,0.1,0.4,0.3,0.7,0.4c0.4,0.1,0.7,0.6,1.2,0.5c0.6-0.2,0.2-0.7,0.4-1.1c0-0.1,0.1-0.2,0.1-0.3c0.1-0.5,0.7-0.3,0.8-0.6
		c0.2-0.3-0.1-0.7,0.1-1.1c0.2-0.3,1.2-0.8,1.5-0.7c0.3,0.1,0.5,0.3,0.5,0.6c0,0.2,0.1,0.4,0,0.6c-0.4,1,0.3,1.6,0.8,2.3
		c0.1,0.1,0.3,0.1,0.4,0c0.1-0.1,0.1-0.2,0.1-0.3c0.1-0.4-0.1-0.6-0.4-0.9c-0.2-0.2-0.4-0.4-0.6-0.6c0.4-0.3,0.5,0.1,0.7,0.2
		c0.1,0,0.2,0,0.1-0.2c-0.1-0.3-0.2-0.5,0.3-0.6c0.5-0.1,1.1-0.1,1.4,0.4c0.2,0.3,0.4,0.5,0.7,0.7c0.2,0.2,0.4,0.5,0.6,0.7
		c-0.3,0.2-0.5,0.7-0.9,0.2c-0.2-0.3-0.5-0.5-0.8-0.3c-0.4,0.2-0.6,0.4-0.6,0.9c0,0.3,0,0.5,0,0.8c0,0.5-0.4,0.6-0.7,0.3
		c-0.4-0.3-0.7-0.5-1.1-0.2c-0.2,0.1-0.4,0.1-0.6,0.1c-0.2,0-0.5,0-0.6-0.2c-0.2-0.3,0.2-0.4,0.3-0.6c0.2-0.2,0.1-0.5-0.1-0.5
		c-0.2,0-0.4,0-0.6,0c-0.4,0-0.7,0.3-0.6,0.7c0.1,0.5,0.2,1,0.3,1.5c-0.4,0.4-0.6-0.1-0.9-0.2c-0.3-0.1-0.5-0.3-0.8-0.5
		c-0.1,0-0.2,0-0.3,0c-0.2,0.1-0.2,0.3,0,0.4c0.5,0.3,0.6,0.8,0.8,1.3c0.1,0.3,0.3,0.6,0,0.8c-0.3,0.2-0.4-0.2-0.7-0.3
		c-0.4-0.1-0.5-0.5-0.7-0.9c-0.1-0.2-0.2-0.4-0.5-0.4c-0.3,0-0.2,0.3-0.2,0.5c0,0.1-0.2,0.1-0.3,0.1C43.6,65.5,43.1,63.9,42.8,62.3z
		"/>
	<path class="st12" d="M41,24.2c0,0.2,0,0.3-0.1,0.4c-0.2,0.1-0.6-0.1-0.6,0.2c-0.1,0.3,0.1,0.5,0.3,0.7c-0.1,0.1-0.2,0.1-0.2,0.2
		c-0.8,0.1-1.4,1.2-2.4,0.7c-0.3-0.1-0.5,0.2-0.4,0.5c0.4,1.4-0.7,2.7,0,4.1c0.2,0.4-0.1,1-0.6,1.2c-0.4,0.2-0.7-0.2-0.9-0.5
		c-0.4-0.5-1.4-0.7-1-1.8c-0.5,0.8-0.5,1.8-1.3,2.5c-0.5,0.4-0.2,0.8,0.1,1.2c0.5,0.7,0.7,1.6-0.4,2.1c-0.6-0.5-0.8-1.3-1.3-1.9
		c-0.2-0.5-0.3-1.2,0.1-1.5c0.9-1,0.7-2.1,0.7-3.2c-0.2-0.7,0.2-1.2,0.5-1.8c1.1-0.9,0.7-2.3,1.4-3.4c0.8-1.7,1.6-2,2.8-0.9
		c0.1,0.3,0.1,0.7,0.3,1c0.1,0.2,0.1,0.4,0.2,0.7c1.1,0.4,0.9-0.7,1.4-1.1c0.1-0.2,0.2-0.4,0.4-0.5c0.1-0.1,0.2-0.2,0.4-0.2
		c0.1,0,0.1,0,0.2-0.1c0.1,0,0.2,0.1,0.3,0.2c0.1,0.2,0.2,0.3,0.3,0.5C41,23.8,41,24,41,24.2z"/>
	<path class="st13" d="M50.9,43.1c-0.8,0.5-1.8,0.9-2.5,1.5c-0.4-0.1-0.5,0.2-0.6,0.5c-0.2,0.5-0.3,1,0.3,1.4c0.4,0.2,0.5,0.7,1,0.8
		c0.7,0.2,0.9,0.4,0.7,1c-0.4,1.1,0.1,1.8,0.9,2.5c0.1,0.1,0.2,0.2,0.3,0.3c0.3,0.3,0.6,0.3,0.9,0.1c0.6-0.5,1.2-0.3,1.6,0.2
		c-0.1,0.1-0.2,0.1-0.2,0.2c-0.2,0-0.3,0-0.5,0C51.8,52,50.9,52.3,50,52c0.1-0.4,0.2-0.7,0-1.1c-0.4,0.1-0.4,0.8-0.9,0.7
		c-0.3,0-0.6,0-0.8-0.1c-0.3-0.2-0.6-0.6-0.9-0.9c-0.3-0.3-0.1-0.7,0-1.1c0-0.1,0-0.3,0-0.4c-0.3-0.2-0.5,0.1-0.8,0.1
		c-0.8,0-1.2-0.5-0.8-1.2c0.4-0.9,0.4-0.9-0.3-1.5c-0.4-0.3-0.4-0.5-0.2-1c0.2-0.3,0.5-0.6,0.4-1c0-0.3,0.2-0.5,0.5-0.5
		c0.5,0,0.8-0.3,0.8-0.8c0-0.2,0-0.3,0-0.5c0.1-0.4,0.4-0.6,0.7-0.5c0.7,0.4,1.2,0.2,1.7-0.3c0.4-0.3,0.7-0.2,1,0.3
		C50.5,42.6,50.7,42.9,50.9,43.1z"/>
	<path class="st14" d="M32.2,43.5c0.1-0.1,0.1-0.1,0.2-0.2c0-1.5-0.5-2.9-0.5-4.5c0.1-0.1,0.2-0.2,0.4-0.1c0.8,0.5,1.4,1.2,2,1.8
		c0.6,0.5,1,0.5,1.6,0.2c0.1,0,0.3,0,0.4,0c0.2,0,0.4,0.3,0.6,0.3c-0.2-0.1-0.3-0.3-0.4-0.5c-0.1-0.1-0.1-0.3-0.2-0.4
		c0.1-1,0.3-1.9,1.6-1.1c0.1,0,0.3,0.1,0.4,0.1c0.1,0,0.3,0.1,0.4,0.2c0.1,0.1,0.2,0.2,0.3,0.3c1.2,0.9,2.1,0.8,3-0.2
		c0.2-0.3,0.4-0.6,0.8-0.7l0,0c0.3,0,0.6,0.2,0.7-0.2h0c-0.1-1.1,0.6-1.2,1.4-0.9c0.1,1.2-0.7,2.1-1.2,3.1c-0.2,0.3-0.4,0.5-0.6,0.7
		c-1.2,1.4-3,1.1-4.6,1.4c-0.7,0.2-1.3,0.4-1.9,0.8c-0.5,0.2-1,0.1-1.4,0.3c-0.2,0.1-0.4,0.1-0.6,0.1c-0.1,0-0.2-0.1-0.3-0.1
		c-0.2-0.2-0.1,0.2-0.3,0.2c-0.2,0.1-0.4,0.1-0.6,0c-0.1-0.1-0.2-0.1-0.3,0c-0.2,0.1-0.4,0.1-0.7,0c-0.1-0.1-0.2-0.2-0.3-0.3
		C32.2,43.8,32.2,43.6,32.2,43.5z"/>
	<path class="st15" d="M41.3,61.1c-0.8,0-0.9,0-1-0.4c-0.1-0.6-0.3-1-0.8-1.3c-0.6-0.4-0.6-0.4-0.1-1.2c0.1-0.2,0.1-0.3,0-0.4
		c-0.1-0.1-0.3-0.1-0.4-0.1c-0.8,0.6-1.6,1.2-2,2.2c0.3,0.2,0.5,0,0.8-0.1c0.3-0.2,0.6-0.1,0.6,0.2c0,0.6,0.1,1.2,0.1,1.7
		c0,0.3-0.2,0.5-0.5,0.5c-0.4,0-0.6-0.3-0.5-0.6c0.1-0.3,0.2-0.5,0.3-0.8c-0.2-0.1-0.3-0.1-0.5-0.1c-0.3,0-0.6,0-0.8,0.1
		c-0.1,0.1-0.1,0.4-0.2,0.6c0,0.1-0.1,0.2-0.1,0.3c-0.3,0.8-0.3,0.9,0.6,1.3c0.2,0.1,0.4,0.2,0.3,0.4c-0.1,0.2-0.3,0.3-0.5,0.3
		c-0.1,0-0.3-0.1-0.4-0.2c-0.1-0.1-0.3-0.2-0.4-0.2c-0.6-0.1-1.2,0.1-1.7,0.1c-0.5,0-1-0.6-1.6-0.7c-0.5-0.1-0.8,0.2-1.1,0.5
		c-0.6,0-0.8-0.5-0.9-1c0.1-1.6,0.4-1.8,2.1-1.1c0.8,0.3,1.6,0.9,1.9-0.5c0.1-0.1,0.2-0.2,0.3-0.3c0.4-0.3,0.6-0.8,0.7-1.2
		c0.5-1.1,1.3-1.9,2.3-2.5c0.1-0.1,0.2-0.2,0.3-0.3c0.2-0.1,0.4-0.1,0.7-0.1c1.3,0.3,1.8,1.4,2.4,2.3c0,0.1,0.1,0.1,0.1,0.2
		C41.2,59.4,41.2,60.2,41.3,61.1z"/>
	<path class="st16" d="M24.2,28.5c0.2-0.4,0.2-0.9-0.3-1.1c-0.6-0.2-0.9-0.5-1.1-1.1c-0.2-0.6-0.7-1-1.4-1.1c-0.4,0-0.9-0.3-1.3-0.6
		c-0.3-0.2-0.4-0.4-0.4-0.8c1.3,0.2,2.5,0.6,3.4,1.7c1.2,1.4,2.3,3,3.3,4.5c0.5,0.6,0.8,1.3,1.1,2c0.2,0.3,0.2,0.7,0.4,1
		c0,0.1,0.1,0.2,0.1,0.4c-0.1,0.3,0.3,0.1,0.3,0.2c0.1,0.1,0.2,0.2,0.2,0.4c0.2,0.4,0.4,0.8,0.1,1.2c-0.2,0.2-0.3,0.3-0.6,0.3
		c-1.8,0-3.2-0.6-4.3-2.1c-0.6-0.9-1-1.7-0.5-2.6C23.8,30.1,23.6,29.1,24.2,28.5z"/>
	<path class="st17" d="M57.6,24c0.1,0,0.4,0,0.4-0.1c0.2-0.2,0.3-0.5,0.4-0.7c0.1-0.2,0.3-0.3,0.5-0.2c0.1,0.1,0.1,0.3,0,0.4
		c-0.3,0.5-0.4,1-0.5,1.5c0,0,0,0.1,0.1,0.1c0.2,0.1,0.5-0.3,0.7,0c0.1,0.1,0.4,0.1,0.4,0c0.2-0.6,0.9-0.5,1.2-0.9
		c0.3-0.4-0.2-0.9,0.1-1.4c0.5-0.1,0.6,0.4,1,0.5c0.6,0.2,0.8,0.1,0.8-0.5c0-0.1,0-0.1,0-0.2c0.1-0.7,0.3-1.1,0.6-1
		c0.4,0.3,0.3,0.6,0.3,1c0,0.2-0.1,0.3-0.1,0.5c-0.2,0.8-0.1,1,0.7,0.7c0.4-0.2,0.9,0,1.3-0.2c0.2-0.1,0.3-0.2,0.2-0.5
		c0-0.1-0.1-0.2-0.1-0.3c0-0.3,0.3-0.5,0.5-0.5c0.3,0.1,0.6,0.2,0.9,0.3c0.3,0.1,0.6-0.3,0.6-0.6c0-0.3-0.1-0.6-0.1-1
		c0.1-0.5,0.3-0.3,0.5-0.1c0,0.1,0.1,0.1,0.1,0.2c0.1,0.1,0.1,0.3,0.1,0.4c0.1,0.3,0.2,0.7,0,1c-0.1,0.1-0.2,0.2-0.3,0.2
		c-1.4,1-2.9,2-4.7,2.3c-0.1,0-0.3,0.1-0.4,0.2c-0.7,0.8-1.8,0.8-2.8,1.1c-0.8,0.3-1.6,0.5-2.5,0.3c-0.1,0-0.1,0-0.2,0
		C56.1,25.7,56.1,24.8,57.6,24z"/>
	<path class="st18" d="M46.3,9.3c0.2-0.8,0.3-1.7,0.8-2.5c0.4-0.6,0.6-1.3,0.3-2.1c-0.1-0.3-0.1-0.6,0-0.9c0.2-0.1,0-0.3,0-0.5l0,0
		c0-0.2,0-0.3,0-0.5l0,0c0-0.2-0.1-0.6,0.2-0.6c0.7-0.1,0.4,0.8,0.9,0.9c1,2.6,1.6,5.4,2.5,8.1c0.1,0.2,0,0.4,0,0.6
		c-0.4,0.6,0.3,1.5-0.6,1.9c-1.7-0.2-1.7-0.3-1.2-1.8c0.4-1.1-0.9-1-1.2-1.6c0,0-0.1,0-0.1,0c0,0,0,0.1-0.1,0.1
		c-0.1,0.1-0.2,0.2-0.3,0.2c-0.4,0-0.8,0.2-1.2,0c-0.3-0.5,0.1-0.9,0.1-1.4c0-0.1,0.2-0.1,0-0.2C46.6,9.3,46.5,9.4,46.3,9.3z"/>
	<path class="st19" d="M44.7,53.4c0,0.2,0.1,0.3,0.1,0.5c0,0.3-0.2,0.3-0.5,0.3c-0.3,0-0.5-0.2-0.6-0.5c-0.1-0.2-0.3-0.3-0.5-0.1
		c-0.1,0.1-0.1,0.3-0.1,0.4c0.1,0.2,0.3,0.4,0.5,0.6c0.4,0.7,0.3,1.1-0.5,1.5c-0.1,0.1-0.4,0.1-0.3,0.3c0.3,0.8-0.1,1.6,0.2,2.3
		c0,0.1,0.1,0.2,0.2,0.2c0.1,0,0.2-0.1,0.3-0.1c0.2-0.2,0.2-0.7,0.6-0.6c0.4,0,0.7,0.2,1,0.4c0.1,0.1,0.2,0.2,0.2,0.2
		c0.1,0.1,0.1,0.2,0.1,0.3c0,0.2,0,0.3-0.2,0.3c-0.1,0-0.1,0-0.1,0c-0.6-0.3-1.1-0.1-1.5,0.5c-0.3,0.5-0.6,0.9-1.2,0.9
		c-0.1-0.1-0.1-0.2-0.2-0.3c0-0.1,0-0.3,0-0.4c-0.2-0.5-0.2-1.1-0.6-1.6c-0.8-0.8-0.5-2.1-1.3-2.9c-0.4-0.7-0.6-1.5-0.7-2.3
		c0-0.2,0.2-0.2,0.3-0.3c0.2,0,0.3-0.1,0.3-0.3c0-0.4,0.1-0.7,0.5-0.9c0.4-0.1,0.7-0.1,1.1,0c0.1,0.1,0.3,0.2,0.4,0.2
		C43.1,52.6,43.9,53,44.7,53.4z"/>
	<path class="st20" d="M5,55.5c-0.4,0.3-0.6,0.7-0.7,1.1c-0.5,0-0.6,0.7-1.2,0.6c0-0.6,0.6-0.9,0.9-1.3c0.5-0.6,0.6-0.9,0-1.5
		c-0.4-0.5-0.9-0.9-1.3-1.4c-1-0.9-1.2-2.1-0.9-3.4c0.9-1.3,2.1-2.3,3.1-3.4c1.1-1.1,2.6-1,4-1.5c0.3-0.1,0.7,0.1,0.8-0.4
		c0.3-0.1,0.6-0.1,0.9,0c0.2,0.2,0.3,0.5,0.2,0.8c-1.3,0.9-2.6,1.8-3.9,2.7c-0.5,0.9-1,1.8-2.1,2.2C4.4,50.3,4.2,50.6,4,51
		c-0.2,0.5-0.7,1,0.2,1.3c0,0.2,0.1,0.3,0.1,0.5C4.3,53.7,4.6,54.6,5,55.5z"/>
	<path class="st21" d="M57.4,15.3c0-0.3,0.2-0.6,0.4-0.8c0.3-0.3,0.7-0.6,1-0.9c1.4,0,1.2,1,1.1,1.9c0.3-0.4,0.5-1.1,1.3-0.5
		c0.3,0.4,0.5,0.9,0.6,1.5c0,0.1,0,0.3,0,0.4c-0.3,0.6,0,1.2,0.1,1.8c0,0.3-0.2,0.4-0.4,0.6c-0.1,0.1-0.1,0.2-0.1,0.3
		c-0.1,0.2-0.1,0.3-0.3,0.4c-0.3,0.1-0.5,0-0.6-0.2c-0.1-0.1-0.2-0.2-0.2,0c-0.1,0.2-0.1-0.1,0.1,0c0,0.1,0,0.2,0,0.4
		c-0.1,0.1-0.1,0.2-0.3,0.3c-0.1,0-0.3,0-0.4,0c-0.5-0.2-0.6-1.2-1.6-0.9c-0.4,0.1-0.7-0.8-0.5-1.3c0.3-0.8-0.2-1.3-0.4-1.9
		c0-0.1,0-0.3,0-0.4C57.3,15.7,57.4,15.5,57.4,15.3z"/>
	<path class="st22" d="M49.6,24.9c0,0.3-0.1,0.5-0.3,0.7c-1.5,0-1.8-1.3-2.2-2.3l0,0c-0.1-1-0.4-2-0.6-3l0,0c0-0.2,0.1-0.3,0.2-0.4
		c1-0.5,1.7-0.4,1.4,1c-0.1,0.5-0.1,0.9,0.4,1.2c0,0,0.1-0.1,0.1-0.1c0.3-2.2,1-4.3,0.6-6.5c-0.1-0.7,0.8-0.8,1.5-0.7
		c0.6,0.3,0.2,1,0.5,1.4l0,0c0,0.2,0,0.3,0,0.5l0,0c0,0.2,0,0.3,0,0.5l0,0c0,0.2,0,0.3,0,0.5l0,0C51,20.1,50.1,22.5,49.6,24.9z"/>
	<path class="st23" d="M25.9,48.2c0.3,0.2,0.5,0.6,1,0.5c0.1,0.1,0.2,0.2,0.3,0.3c0.2,0.7-0.3,1.2-0.7,1.7c-0.4,0.6-0.2,0.8,0.4,1
		c0.1,0.1,0.2,0.2,0.3,0.3c0.5,0.8,1.4,0.6,2.1,0.9c0.1,0.1,0.2,0.2,0.2,0.3c0,0.3-0.5,0.7,0.1,1c0.1,0.1,0.2,0.1,0.4,0.2
		c0.4,0.5,0.5,1.2,0.8,1.8c0,0.1,0,0.3-0.1,0.4c-0.1,0-0.1,0.1-0.2,0.1c-0.1,0-0.1,0-0.2,0c-0.9-0.3-1.9,0-2.8-0.5
		c-0.4-0.4-1.1-0.6-1.1-1.3c-0.1-1-0.7-1.6-1.5-2.1c-0.8-0.5-0.9-1.1-0.3-1.8c0.4-0.4,0.8-1,1.2-1.2c-0.8,0.2-2.1-0.9-2.4-2.1
		c0.6-0.3,1,0,1.5,0.2c0.2,0.1,0.3,0.2,0.5,0.3c0.1,0.2,0.3,0.2,0.1,0.1c0,0,0-0.1,0.1-0.1C25.7,48.1,25.8,48.1,25.9,48.2z"/>
	<path class="st24" d="M18.8,42c-0.2-0.2-0.3-0.4-0.2-0.7c1.3,0.2,2.5,0.8,3.7,1.1c0.1,0,0.3,0,0.4,0.1c1.6,0.9,3.2,1.8,4.6-0.3
		c0.2,0.4,0.4,0.8,0.8,1c0.2,0.8,1.1,0.8,1.6,1.3c0.2,0.4,0.3,0.7-0.2,0.9c-0.4-0.2-0.7,0.4-1.1,0.3c-2.3,0.2-4.1-1-6.1-1.8
		c-0.1,0-0.2,0-0.3-0.1C21.2,43,20,42.5,18.8,42z"/>
	<path class="st25" d="M41.3,45.2c-0.1,0.1-0.1,0.3-0.2,0.4c-0.1,0.5-0.7,1.1-0.3,1.5c0.5,0.6,0.7,1.6,1.7,1.7
		c0.4,0.1,0.8,0.3,1.1,0.6c0.3,0.4,0.6,0.7,0.5,1.3c-0.1,0.4,0.2,1-0.2,1.3c-0.3,0-0.6-0.1-0.9-0.1c-0.5,0-0.8-0.3-1-0.8
		c-0.4-0.7-0.9-1.4-1.1-2.2c0-0.2-0.3-0.3-0.4-0.5c0,0-0.1-0.1-0.1-0.1c-0.3-0.3-0.7-0.5-0.6-1c0.5-0.8,0.4-1.9,1.4-2.4
		c0.1,0,0.2,0.1,0.2,0.1C41.3,45.1,41.3,45.1,41.3,45.2z"/>
	<path class="st26" d="M50.1,25.4c0.4-0.5,0.8-1,1.2-1.5c0.6-0.6,1.4-1,1.5-1.9c0.1-0.3-0.1-0.8,0.4-0.9c1.3,0.7,1.3,0.9,0.5,1.8
		c0.7,0.2,1.5-0.9,2.1,0.1c-0.2,1.2-1.5,0.9-2,1.7c-0.7,0.5-1.8,0.5-1.9,1.6c0,0.3-0.3,0.4-0.3,0.7c-0.2,0.2-0.4,0.3-0.7,0.2
		c-0.7-0.2-0.8,1.2-1.7,0.7c-0.2-0.9,0.5-1.5,0.8-2.2C50,25.6,50.1,25.5,50.1,25.4z"/>
	<path class="st27" d="M55.8,23c-0.2-0.2-0.4-0.3-0.7-0.1c-0.4,0.3-0.9,0.3-1.5,0.3c0-0.4,0.6-0.7,0.3-1.1c-0.2-0.4-0.3-0.8-0.8-0.9
		c-0.3,0-0.3-0.4-0.4-0.5c0-0.6,0.2-1.2,0.5-1.8c0.3-0.2,0.5-0.5,0.9-0.4c0.1,0.5-0.3,0.9-0.1,1.4c0.7,0.1,0.7-1,1.5-0.8
		c-0.1,1.2,1.3,1.6,1.4,2.7C57,21.8,57,21.9,57,22c0,0.1-0.1,0.3-0.2,0.4c-0.2,0.3-0.5,0.5-0.8,0.6C55.9,23,55.9,23,55.8,23z"/>
	<path class="st28" d="M68.3,22.7c-0.1-0.4-0.3-0.7-0.2-1.1c0.2-0.1,0-0.3,0-0.5l0,0c0.2-0.5,0-1.1,0.3-1.6c0.4,0.3,0.6,0.8,1,1
		c0.1,0,0.2,0,0.3,0c0.1,0,0.1-0.2,0.1-0.3c-0.1-0.3-0.4-0.5-0.4-0.8c0-0.2,0-0.5,0.1-0.6c0.2-0.2,0.3,0,0.5,0.2
		c0.2,0.1,0.4,0.4,0.5,0.3c0.3-0.1,0.6-0.2,0.8-0.5c0.4-0.6,0.7-1.3,1-1.9c0.1-0.3,0-0.6-0.2-0.9c0.3-0.2,0.5-0.8,1-0.5
		c0.3,0.2,0,0.7-0.1,1c-0.1,0.4-0.3,0.8-0.5,1.2c-0.9,2-2.2,3.6-3.9,5C68.6,22.7,68.5,22.8,68.3,22.7z"/>
	<path class="st29" d="M61.3,15.2c-0.2-0.2-0.5-0.4-0.7-0.1c-0.3,0.4-0.5,0.9-1.1,1.1c-0.1,0-0.3-0.1-0.4-0.1
		c-0.1-0.1-0.2-0.3,0-0.4c0.2-0.3,0.7-0.3,0.7-0.8c-0.1-0.6-0.3-1.1-0.9-1.3c0.8-0.8,1.6-1.5,2.8-1.8c0.4,0.2,0.8-0.3,1.2,0.1
		c0.7,0.6,0.6,1.3,0,1.9c-0.4,0.5-1,0.8-1.3,1.4C61.4,15.2,61.3,15.2,61.3,15.2z"/>
	<path class="st30" d="M23.1,61.9c0.1,0.3,0.2,0.6,0.4,0.9c0.3,0.6,0.2,1.1,0.1,1.7c-0.1,0.7-0.5,1-1.1,1.2
		c-0.3,0.1-0.5,0.4-0.5,0.7c-0.1,0.4-0.1,0.7-0.2,1.1c-0.1,0.4,0,0.9-0.2,1.3c-0.6,1.2-0.5,2.5-0.4,3.7l0,0c0,0.3-0.2,0.4-0.5,0.4
		c-0.3-0.7-0.4-1.3-0.3-2C20.8,67.8,21.6,64.8,23.1,61.9z"/>
	<path class="st31" d="M10.8,45.2c-0.2-0.2-0.3-0.4-0.2-0.7c1.1-0.1,2.1-0.1,3.2,0c2,0.2,3.9,0.4,5.8,0.8c1.2,0.3,2.4,0.6,3.4,1.2
		c0,0.3,0.4,0.5,0.2,0.8c-1.5-0.4-2.9-0.7-4.4-1.1c-2.1-0.2-4.2-0.9-6.4-0.4C11.8,45.9,11.3,45.5,10.8,45.2z"/>
	<path class="st32" d="M38.4,74c0.1,0.2,0.3,0.3,0.4,0.5c-0.9,2-2.1,3.8-3.7,5.3c-1,1-2.1,1.9-3.1,3c-0.3,0.4-0.8,1-1.3,0.7
		c-0.6-0.3-0.4-1-0.2-1.6c0-0.1,0-0.1,0.1-0.1c0-0.2,0.1-0.3,0-0.5l0,0c0.4-0.1,0.5,0.2,0.6,0.6c0,0.2,0,0.4,0.3,0.5
		c0.2,0.1,0.4,0,0.5-0.2c0.6-1,1.8-1.4,2.5-2.4c-0.1-0.5,0.2-0.9,0.5-1.3c0.9-1.2,1.9-2.3,2.3-3.7C37.5,74.3,37.9,74,38.4,74z"/>
	<path class="st33" d="M56.9,21.9c-0.7,0-0.7,0-0.7-0.5c0-1-0.1-1.1-1.2-1c0.1-0.5,0.5-0.9,0.4-1.5c0-0.1,0-0.1-0.1-0.2
		c0-0.2,0-0.4-0.2-0.5c0.5-1,1.1-1.9,1.9-2.6c0.1,0,0.2,0,0.2,0.1c0,0.1,0,0.1,0,0.1v0c-0.9,1.5,0.2,3,0.2,4.5
		c0,0.6,1.3,0.3,1.3,1.2c0,0.2-0.1,0.3-0.2,0.4C58.1,22.5,57.5,22.2,56.9,21.9z"/>
	<path class="st34" d="M57,28.6c-0.1,0-0.2,0.1-0.3,0.1c-2.3,0-4.6,0.6-6.8,1.2c-0.3,0-0.4-0.1-0.5-0.4c0-0.2,0.1-0.3,0.3-0.3
		c1.7-0.6,3.5-1.2,5.3-1.4c0.5-0.1,1-0.1,1.6-0.1C56.9,27.9,57.6,28,57,28.6z"/>
	<path class="st6" d="M20.7,73c0.2-0.1,0.3-0.3,0.5-0.4c1,0.8,1.4,2.1,2.3,3c0.2,0.2,0.2,0.6,0.2,0.9c0.1,0.3,0.3,0.5,0.7,0.5
		c0.7-0.1,1.5-0.2,2.2-0.3c0.2,0,0.3,0,0.3,0.2c-1.6,1-2.7,1-4.1-0.1c-0.3-0.9-1-1.4-1.8-1.9C20.9,74.2,20.6,73.7,20.7,73z"/>
	<path class="st35" d="M61.2,33c-0.7,0.1-1.4,0.1-2,0.1c-0.6,0-1.1-0.1-1.5-0.6c-0.3-0.3-0.6-0.3-1-0.1c-0.2,0.1-0.5,0.2-0.8,0.2
		c-0.1,0-0.4-0.1-0.4-0.2c-0.2-0.8-1-0.7-1.5-0.9c-0.2-0.1-0.2-0.2-0.2-0.4c0.5-0.1,0.9-0.1,1.4,0c0.2,0,0.3,0,0.5,0
		c1.5,0,2.9,0.6,4.3,1C60.4,32.3,60.9,32.5,61.2,33z"/>
	<path class="st36" d="M46,23c0.2,0.4,0.3,0.7,0.3,1.1c-0.2,0.7,0,1.3,0.3,1.8c0.2,0.9,0.1,1.8,0,2.7c0,0.1-0.1,0.2-0.3,0.3
		c-0.5-0.3-0.4-1-0.9-1.3c-0.1-1.6-1.1-2.9-1.3-4.5c-0.1-0.6-0.5-1.1,0.1-1.6C45.5,21.2,45.1,22.8,46,23z"/>
	<path class="st37" d="M58,27.6c0.8-0.1,1.7-0.1,2.5,0.1c0.5,0.1,0.5-0.3,0.7-0.4c0.6-0.1,1.2-0.6,1.9-0.1c0.5,1-0.1,1.5-0.8,2
		c-0.4,0.5-0.9,0.5-1.4,0.1c-0.2-0.3-0.3-0.6-0.8-0.6c-0.6,0-1.1-0.1-1.7-0.1C57.9,28.4,57.5,28.2,58,27.6z"/>
	<path class="st38" d="M9.7,44.5c0.1,0.2,0,0.5-0.2,0.5c-1.1,0.1-1.9,0.8-3,0.9C5.4,46,4.8,47,4,47.8c-0.2,0.2-0.2,0.5-0.5,0.6
		c-0.6,0.2-0.9,0.6-1.2,1.2c-0.1,0.2-0.3,0.2-0.6,0.2l0,0C1.8,49.5,2,49.3,2,49c0.1-0.1,0.1-0.2,0.2-0.2c0-0.3,0.3-0.4,0.3-0.7
		C3.3,47.5,4,46.7,4.7,46c0.4-0.4,1-0.7,1.5-0.8C7.4,44.8,8.5,44.5,9.7,44.5z"/>
	<path class="st39" d="M55.2,8.9C55.1,9,55,9.2,54.9,9.3c-1,0-1.3-0.4-1.8-1.9l0,0c0.3-0.7,0.4-1.5,1.3-1.8c1.6,0.3,1.9,0.8,1.4,2.2
		C55.6,8.2,55.4,8.5,55.2,8.9z"/>
	<path class="st36" d="M40.1,22.8c1.1-0.8,1.4-1.8,0.8-3.1c0,0,0-0.1,0-0.2c-0.1-0.4,0.2-0.8,0.6-0.7c1.1,0.3,2.3,0.6,3.1,1.5
		c0.1,0.2,0.3,0.3,0.4,0.5c-0.2,0.3-0.5,0.4-0.8,0.4c-1.2-0.1-2.3,0-2.9,1.3c-0.2,0.3-0.6,0.5-1,0.5l0,0c-0.1,0-0.2,0-0.2-0.1
		C40.1,22.9,40.1,22.8,40.1,22.8z"/>
	<path class="st14" d="M32.3,33.7c0.6,0.5,1.1,1.2,1.1,2.1c0,0.1,0.1,0.1,0.1,0.2c0,0.2,0,0.3,0.1,0.5c0.1,0.7,0.7,1.3,0.4,1.9
		c-0.4,0.9-1.3-0.3-1.8,0.3l0,0c-0.3,0.1-0.4-0.2-0.7-0.2c-0.2-0.5-0.1-0.9,0-1.4c0.3-0.7,0.1-1.4,0.2-2
		C31.8,34.6,31.6,34,32.3,33.7z"/>
	<path class="st40" d="M39.7,51c-0.1,0.2-0.1,0.5-0.2,0.7c-0.3,0-0.5-0.2-0.7-0.3c-0.8-0.7-1.5-0.8-1.8,0.5
		c-0.1,0.4-0.2,0.7-0.7,0.7c-0.2,0-0.3-0.1-0.4-0.2c-0.2-0.3-0.3-0.5-0.3-0.8c0-0.2,0-0.5,0-0.7c0-0.8,0.4-1.4,0.9-1.9
		c0.6-0.5,1.1-0.9,1.9-0.5c0.3,0.2-0.1,0.8,0.4,1C39.3,49.9,39.7,50.4,39.7,51z"/>
	<path class="st41" d="M60.8,29.3c0.5,0,1,0.1,1.4-0.4c0.4,0,0.8,0.4,1.1-0.2c0.3-0.6-0.1-1-0.4-1.4c-0.3-0.1-0.6-0.1-0.9,0
		c-0.3,0.1-0.6,0.1-0.9,0c0.5-0.9,1.4-0.7,2.1-0.5c0.7,0.2,1,0.7,1.2,1.4c0.2,0.5-0.4,1.8-0.9,2.1c-0.7,0.4-2,0.2-2.6-0.5
		C60.9,29.7,60.9,29.5,60.8,29.3z"/>
	<path class="st42" d="M32.3,33.7c-0.5,1-0.4,2-0.4,3c0,0.2-0.1,0.4-0.4,0.3c-0.1-0.4-0.2-0.7-0.2-1.1c0.1-2.3,0.6-4.5,1.3-6.6
		c0-0.1,0.1-0.2,0.2-0.3c0.4,0.4,0.1,1.2,0.6,1.6c0.1,0.1,0,0.3-0.1,0.4c-0.1,0.2-0.2,0.4-0.4,0.5C32.4,32.3,32.3,33,32.3,33.7z"/>
	<path class="st43" d="M62.5,11.8C62.3,11.9,62,12,61.8,12c-0.2,0-0.2-0.1-0.2-0.3c0.6-0.4,1.1-0.8,1.7-1.1C64.6,9.9,65.9,9.1,67,8
		c0.2-0.2,0.5-0.4,0.8-0.4c0.1,0.5,0.4-0.2,0.5,0.1c0,0.3-0.1,0.5-0.3,0.7c-0.5,0.4-0.9,0.9-1.4,1.3c-0.1,0-0.1,0-0.2,0
		c-0.4,0.9-1.2,1.3-2.1,1.4c-0.2,0.1-0.4,0.2-0.5,0.3c-0.1,0.1-0.2,0.1-0.3,0.1c-0.2,0.1-0.3,0.1-0.5,0.2
		C62.9,11.8,62.7,11.9,62.5,11.8z"/>
	<path class="st44" d="M67.1,10.6c0.6,1,0.1,2-0.3,2.9c-0.5,1-1,2.1-1.8,3c-0.4,0-0.5,0.5-0.9,0.5c-0.4-0.4-0.3-0.9,0.1-1.2
		c0.5-0.5,0.8-1.1,1.3-1.6c0.1-1.1,0.4-2.1,0.9-3c0-0.2,0.1-0.3,0.1-0.4c0-0.1,0.1-0.1,0.1-0.2C66.8,10.3,67.1,10.3,67.1,10.6z"/>
	<path class="st45" d="M28.6,35c0.2-0.4-0.4-0.7-0.2-1.1c0.3-0.1,0.4,0.3,0.6,0.3c0.6,1.4,1.4,2.8,1.6,4.3c-0.1,0-0.1,0.1-0.2,0.1
		c-0.6,0.1-1.2,0.4-1.8,0.3C29,37.6,28,36.3,28.6,35z"/>
	<path class="st46" d="M37.4,23.6c-0.1-0.2-0.1-0.4-0.2-0.6c-0.1-0.3-0.4-0.4-0.6-0.3c-0.7,0.3-1.5,0.6-1.7,1.5
		c-0.2,0-0.3-0.1-0.3-0.3c0.1-0.4,0.2-0.7,0.3-1.1c0.5-0.3,0.6-0.9,0.8-1.3c0.3-0.5,0.3-1.4,1.1-1.4c0.8,0,1.1,0.7,1.3,1.4
		c0,0.1,0,0.3,0,0.4c-0.4,0.3-0.4,0.7-0.3,1.1l0,0C37.8,23.5,37.6,23.6,37.4,23.6z"/>
	<path class="st47" d="M27.1,48.8c0-0.1-0.1-0.2-0.2-0.2c0.3-0.5,0.9-0.5,1.3-0.9c0.4-0.1,0.7,0.1,1,0.2c0.4,0.1,0.9,0.1,1.2,0.5
		c0.2,0.3,0.1,0.5-0.1,0.8c-0.3,0.1-0.6,0.3-0.4,0.7c0,0.3-0.1,0.5-0.2,0.8c-0.2,0.5-0.5,0.6-1,0.3c-0.2-0.1-0.3-0.3-0.4-0.4
		c-0.1-0.1-0.1-0.2-0.2-0.3c0-0.2,0-0.3-0.1-0.5c0-0.1-0.1-0.2-0.2-0.2c-0.1,0-0.2-0.1-0.3-0.1C27.3,49.2,27.1,49.1,27.1,48.8z"/>
	<path class="st48" d="M49.4,29.4c0.1,0.2,0.3,0.3,0.4,0.5C49.8,30,49.6,30,49.5,30c-0.1-0.1-0.2,0-0.3,0.1
		c-0.5,0.3-0.9,0.5-1.4,0.8c-0.1,0.1-0.3,0.1-0.4,0c-0.1-0.1-0.1-0.3-0.1-0.4c0.1-0.9,0.6-1.7,1.2-2.3c0.2-0.3,0.3-0.7,0.8-0.3
		c0.6,0.2,0.8-0.4,1.2-0.7c0.2-0.1,0.4-0.2,0.4,0.1c-0.5,0.4-0.9,0.9-1.4,1.3C49.4,28.8,49.3,29.1,49.4,29.4z"/>
	<path class="st49" d="M36.3,52.5c0.1-0.1,0.4-0.1,0.4-0.2c0.1-0.3,0.1-0.6,0.2-0.9c0.2-0.8,0.8-1.1,1.5-0.8
		c0.6,0.2,0.9,0.7,1.2,1.2c0.1,0.2,0.1,0.4,0.2,0.7c-0.2,0.6-0.7,0.7-1.1,0.9c-0.1,0.1-0.3,0.1-0.4,0.2c-0.1,0.1-0.3,0.1-0.4,0.1
		c-0.2,0-0.3,0-0.5,0C36.8,53.5,36.3,53.2,36.3,52.5z"/>
	<path class="st50" d="M46.3,9.3c0.2,0,0.5-0.5,0.5,0.1c0,0.5-0.1,1-0.2,1.5c0,0.1,0.1,0.1,0.1,0.2c0,0.1,0,0.2,0,0.4
		c0,0.1,0,0.2,0,0.4c0,0.2,0,0.4,0,0.6c0,1.7,0.7,3.4-0.3,5.1c-0.1,0-0.1,0-0.2,0c-0.1-0.1-0.2-0.3-0.2-0.4
		C45.7,14.5,45.6,11.9,46.3,9.3z"/>
	<path class="st51" d="M31,39.9c0.2,0.8,0.2,1.5,0,2.3c-0.2,0.9-1.1,0.8-1.6,1.2c-0.1,0.1-0.3,0.1-0.4,0.1c-0.2-0.1-0.3-0.2-0.4-0.5
		c0-0.7,0.4-1.1,0.7-1.7c0-0.1,0.1-0.3,0.1-0.4c0.1-0.9,0.3-1.6,1.5-1.3C30.9,39.6,31,39.7,31,39.9z"/>
	<path class="st52" d="M22.4,44c0-0.1,0.1-0.3,0.2-0.2c1.2,0.6,2.4,1.2,3.8,1.6c0.5,0.2,0.9,0.2,1.3-0.1c0.1-0.1,0.3-0.2,0.4-0.2
		c0.2,0,0.5,0.1,0.6,0.2c0.2,0.2,0,0.4-0.1,0.6c-0.4,0.3-0.8,0.4-1.3,0.4C25.4,45.8,23.9,45,22.4,44z"/>
	<path class="st53" d="M47.1,23.2c0.1,0.1,0.3,0.2,0.3,0.3c0.4,0.9,1.2,1.4,1.9,2l0,0c0,0.5-0.1,1-0.6,1.3c-0.6,0.3-0.7,0.3-0.9,0
		c-0.1-0.1-0.1-0.2-0.2-0.3C47.5,25.5,47,24.4,47.1,23.2z"/>
	<path class="st54" d="M38.1,21.6c-0.4-0.4-0.7-0.7-1.1-1.1c-0.2-0.2-0.6,0-0.7,0.2c-0.2,0.7-0.5,1.3-0.8,1.9
		c-0.1,0.3-0.4,0.3-0.7,0.3c0.3-0.9,0.6-1.7,1-2.5c0.6-1,0.6-1,1.8-0.7c0.4,0.1,0.5,0.3,0.5,0.7c0,0.1,0,0.1,0,0.2
		C38.2,20.9,38.2,21.3,38.1,21.6z"/>
	<path class="st55" d="M10.9,31.8c0.1,0,0.1,0,0.2,0c0.6,1,1.2,2.1,1.7,3.2c0.3,0.7,0.6,1.3,1.1,1.9c0.5,0.4,0.8,1,0.7,1.7
		c-0.5-0.4-0.9-0.9-1.2-1.5c-0.6-1-1.3-2.1-1.9-3.1C11.2,33.2,10.9,32.5,10.9,31.8z"/>
	<path class="st52" d="M29.7,45.5c0.2-0.3,0.2-0.6,0-0.9c0-0.1,0.1-0.1,0.1-0.2c0.9-0.1,1.8-0.1,1.9,1.1c-0.5,0.5-1.1,1-1.3,1.8
		c-0.2,0.3-0.5,0.6-1,0.4c-0.3-0.2-0.1-1.2-1-0.7c0-0.3,0.2-0.6,0.4-0.8C29.1,46,29.4,45.8,29.7,45.5z"/>
	<path class="st56" d="M49.6,24.9c-0.1,0-0.3-0.1-0.3-0.1c0-0.2,0-0.4,0.1-0.6c0.7-1.7,1.1-3.4,1.2-5.2c0-0.5,0.2-0.9,0.6-1.3
		c0.3,1.5-0.2,2.9-0.5,4.2C50.4,22.9,50,23.9,49.6,24.9z"/>
	<path class="st57" d="M31.5,38.5c0.3-0.1,0.5,0.1,0.7,0.2c0.2,0.8,0.4,1.5,0.3,2.3c-0.1,0.6,0.2,1,0.5,1.4c0.4,0.5,0.2,0.7-0.5,0.8
		c-0.6-1.3-0.7-2.8-0.9-4.2C31.5,38.9,31.5,38.7,31.5,38.5z"/>
	<path class="st55" d="M12,26.8c0,0.1,0,0.2-0.1,0.3c-0.1,0.1-0.2,0.1-0.3,0c-0.4,0-0.8-0.4-1.2,0c-0.3,0.4-0.2,0.9-0.1,1.4
		c0,0.2,0.2,0.4,0.3,0.6c0.4,0.6,0.4,1.3,0.4,2c0,0-0.2,0.1-0.3,0.1c-0.6-1.3-1-2.5-0.9-4c0.1-0.5,0.2-0.7,0.7-0.7
		C11,26.4,11.6,26.4,12,26.8z"/>
	<path class="st58" d="M2.2,58.6c-0.1,0.1-0.1,0.2-0.2,0.2c-0.8,1.4-0.8,1.4,0.5,2.3c-0.4,0.8-0.4,0.8,0,2c-0.4-0.4-0.7-0.8-1.1-1.2
		c0-0.3-0.3-0.4-0.3-0.7C0.8,60.7,0.5,60,1,59.2c0.2-0.4,0.5-0.7,1-0.9l0,0c0.1,0,0.2,0,0.2,0.1C2.2,58.5,2.2,58.6,2.2,58.6z"/>
	<path class="st59" d="M57.6,24c-0.3,0.3-0.7,0.5-0.7,1c0.1,0.6,0.1,1.3,0.6,1.8c-0.6,0.1-1.2,0.1-1.8-0.1c-0.7-0.7-0.2-1.4-0.1-2
		c0.4-0.6,0.9-1,1.6-1C57.5,23.7,57.6,23.8,57.6,24L57.6,24z"/>
	<path class="st60" d="M51.6,27c-0.1-0.3,0.1-0.6,0.3-0.8c0.6-1.1,1.5-1.3,2.7-1c0.4,0.5,0.8,1.1-0.2,1.4
		C53.4,26.7,52.5,26.8,51.6,27z"/>
	<path class="st61" d="M64.1,16.9c0.3-0.2,0.5-0.5,0.9-0.4c-1.3,1.7-2.8,3.2-4.4,4.6c-0.1-0.1-0.1-0.1-0.2-0.2c0-0.2,0-0.4,0.2-0.6
		c0.2-0.3,1-0.4,0.6-1c-0.1-0.4,0.1-0.5,0.5-0.4c0.4-0.1,0.4-0.5,0.7-0.7c0.2-0.2,0.4-0.4,0.6-0.6c0.2-0.2,0.3-0.3,0.5-0.4
		C63.7,16.9,63.9,16.9,64.1,16.9z"/>
	<path class="st62" d="M26.5,30.4c-0.6-0.6-1.2-1.3-1.4-2.2c-0.1-0.6-0.7-0.9-1-1.4c-0.3-0.4-0.9-0.7-0.8-1.3c1.5,1.4,2.7,3,3.9,4.7
		c0.1,0.1,0.1,0.3,0.1,0.5C26.9,30.7,26.8,30.3,26.5,30.4z"/>
	<path class="st63" d="M66.7,39.3c-0.2,0.1-0.6,0.3-0.5-0.1c0.1-1.2-0.7-1.8-1.5-2.3c-0.3-0.2-0.4-0.3-0.3-0.6
		c0.2,0,0.3-0.1,0.5-0.1c0.1,0,0.4,0.1,0.4,0.2c0.1,0.9,1.3,0.5,1.5,1.2c0,0.2,0.1,0.3,0.1,0.5C66.9,38.4,66.9,38.9,66.7,39.3z"/>
	<path class="st64" d="M53.7,16.1c-0.1-0.7,0.1-1.4,0.3-2C54,14,54,13.8,54,13.6l0,0c0-0.1,0-0.3,0-0.4l0,0c0-0.1,0-0.3,0-0.4l0,0
		c0.6-0.4,0.7,0,0.8,0.5l0,0c0.1,0.2-0.2,0.4-0.1,0.7c0,0.1,0.1,0.2,0.1,0.2c0,0.1,0,0.2,0,0.4c-0.1,0.5,0,1.1-0.3,1.6
		C54.3,16.3,54,16.4,53.7,16.1z"/>
	<path class="st65" d="M44.7,68.5c0.2,0,0.4,0,0.4,0.1c0.4,0.6,1,1.2,1.1,1.9c0.2,0.9,0.7,1.5,1.5,1.9c0.3,0.2,0.5,0.4,0.4,0.8l0,0
		c-0.3,0-0.4-0.2-0.7-0.3C46.1,71.7,45.3,70.2,44.7,68.5z"/>
	<path class="st66" d="M51.2,16.3c-0.5-0.4-0.2-0.9-0.4-1.4c0-0.1-0.1-0.1-0.1-0.2c-0.1-0.3-0.2-0.5-0.1-0.8c0-0.1,0-0.1,0.1-0.2
		c0.1-0.5,0.1-1.1,0.2-1.6c0-0.2,0.1-0.3,0.3-0.2C51.5,13.4,51.5,15,51.2,16.3z"/>
	<path class="st67" d="M34.6,24c0.1,0.1,0.2,0.2,0.3,0.3c-0.3,0.7-0.2,1.5-0.4,2.2c-0.1,0.6-0.4,1-1.1,1C33.6,26.2,34,25.1,34.6,24z
		"/>
	<path class="st68" d="M26.5,30.4c0.3-0.1,0.5,0.1,0.7,0.3c0.7,1.1,1.3,2.3,1.8,3.5c-0.3,0-0.5-0.1-0.6-0.3
		c-0.1-0.1-0.1-0.1-0.2-0.2c-0.1,0-0.2-0.1-0.2-0.3l0,0c0.1-0.4-0.5-0.5-0.4-0.9C27.3,31.7,27,31,26.5,30.4z"/>
	<path class="st69" d="M38.3,53.2c0.2-0.3,0.4-0.4,0.7-0.5c0.3,0,0.5-0.1,0.7-0.3c0.1,0.2,0.1,0.4,0.2,0.7c-0.1,0.1-0.2,0.2-0.2,0.2
		c0.2,0.6-0.1,1.1-0.6,1.4c-0.3,0.2-0.7,0.3-1.1,0.2c-0.1-0.1-0.2-0.2-0.2-0.3C37.9,54,38.1,53.6,38.3,53.2z"/>
	<path class="st70" d="M54.3,26.5c0.5-0.4,0.5-0.8,0.1-1.3c0.3-0.5,0.7-0.9,1.4-0.4c0.3,0.6-0.1,1.2,0,1.9
		C55.2,26.8,54.8,26.9,54.3,26.5z"/>
	<path class="st71" d="M45.6,27.7c0.3-0.1,0.5,0.1,0.5,0.4c0,0.3,0.1,0.5,0.1,0.8c0.1,0,0.2,0,0.2,0.1c0,0.1,0,0.1,0,0.1l0,0
		c0,0.2,0,0.3,0,0.5c-0.1,0.5-0.2,1.1-0.2,1.6c-0.1,0-0.2,0-0.3-0.1c-0.1-0.1-0.1-0.3-0.1-0.4c0.1-1-0.1-1.9-0.5-2.7
		C45.4,27.8,45.5,27.7,45.6,27.7z"/>
	<path class="st72" d="M55.2,8.9c0-0.3,0-0.5,0.1-0.8c0.6-1.5,0.6-1.6-0.8-2.4c0-0.2,0.1-0.2,0.2-0.2c0.6-0.1,1.1,0.2,1.3,0.7
		c0.3,0.6,0.3,1.3-0.2,1.9c-0.1,0.1-0.1,0.1-0.1,0.3C55.7,8.6,55.5,8.7,55.2,8.9z"/>
	<path class="st73" d="M53.1,22c0.2,0.8,0.2,0.9-0.4,1c-0.6,0.2-0.8,0.8-1.4,0.8c0.1-0.2,0.3-0.4,0.4-0.5c0.1-0.2,0.2-0.3,0.3-0.5
		c0.2-0.4,0.4-0.9,0.6-1.3C52.9,21.5,53,21.7,53.1,22z"/>
	<path class="st74" d="M54.9,13.2c-0.2-0.2-0.4-0.5-0.8-0.5c-0.2-0.6-0.2-1.1,0.2-1.6c0.2-0.3,0.4-0.3,0.5,0
		C54.9,11.8,54.9,12.5,54.9,13.2z"/>
	<path class="st75" d="M44.2,21.1c0.2-0.1,0.5-0.1,0.7-0.2c0.7,0.5,0.7,1.4,1,2.1c-0.5,0-0.8-0.3-0.9-0.7c-0.1-0.4-0.5-0.5-0.8-0.7
		c0,0-0.1-0.1-0.1-0.1c0-0.1,0-0.2,0-0.2L44.2,21.1z"/>
	<path class="st76" d="M23.2,47.1c-0.2-0.2-0.3-0.4-0.2-0.7c0.4,0.2,0.8,0.3,1.1,0.6c0.2,0.1,0.4,0.3,0.6,0.4
		c0.2,0.1,0.3,0.3,0.5,0.4c0,0.1,0,0.1,0,0.2c-0.1,0.1-0.2,0.1-0.3,0.1c-0.4-0.2-1,0-1.4-0.5C23.4,47.6,23.3,47.4,23.2,47.1z"/>
	<path class="st77" d="M28.5,47.1c0.1-0.1,0.1-0.1,0.2-0.2c0.4-0.3,0.5-0.3,0.6,0.1c0.1,0.2,0,0.4,0,0.6c0,0.3-0.1,0.5-0.3,0.7
		c-0.4,0-0.6-0.3-0.9-0.5C28.2,47.5,28.3,47.3,28.5,47.1z"/>
	<path class="st78" d="M46.5,20.3c0.5,0.9,1,1.9,0.6,3C46.6,22.3,46.4,21.3,46.5,20.3z"/>
	<path class="st79" d="M58,27.6c-0.2,0.5,0.2,0.7,0.4,1c-0.5,0.1-0.9,0.1-1.4,0c0-0.2,0.1-0.3-0.1-0.4c-0.1-0.1-0.2-0.4-0.3-0.5
		C57.1,27.5,57.5,27.5,58,27.6z"/>
	<path class="st80" d="M54.1,18.4c-0.3,0.2-0.5,0.6-0.9,0.4l0,0c0-0.1,0-0.2,0-0.4c0-0.5,0.2-1,0.4-1.4c0.3-0.1,0.6-0.1,0.7,0.3
		c0,0.2-0.1,0.5-0.1,0.7C54.1,18.1,54.1,18.3,54.1,18.4L54.1,18.4z"/>
	<path class="st81" d="M54.7,5.4c-0.1,0.1-0.1,0.2-0.2,0.2c-0.7,0.5-1,1.2-1.5,1.8c-0.2-0.7,0.1-1.2,0.6-1.7
		C53.9,5.4,54.3,5.3,54.7,5.4z"/>
	<path class="st81" d="M53,7.5c0.4,0.4,0.5,1.1,1,1.5c0.3,0.2,0.5,0.4,0.8,0.3c0.1,0.2,0.1,0.3,0,0.5c-0.1,0.4-0.4,0.3-0.7,0.2
		c-0.1-0.4-0.2-0.8-0.6-1C53.1,8.6,52.8,8.1,53,7.5z"/>
	<path class="st82" d="M39.7,51c-0.4-0.5-1-0.9-1.1-1.6c0-0.1,0-0.1,0-0.2c0.1-0.1,0.2-0.1,0.4-0.1c0.2,0.1,0.3,0.3,0.5,0.3
		C40,49.9,40,50.4,39.7,51z"/>
	<path class="st83" d="M49.3,27.8c-0.3-0.1-0.5,0.1-0.8,0.3c0-0.4,0.3-0.6,0.5-1c0.1-0.7,0.5-1.3,1.2-1.5c0.1,0.5-0.1,0.9-0.4,1.3
		C49.6,27.2,49.4,27.5,49.3,27.8z"/>
	<path class="st84" d="M21.1,74.8c0.6,0,1.1,0.1,1.3,0.8c0.1,0.4,0.6,0.6,0.5,1.1c-0.4-0.4-0.7-0.9-1.3-1.1
		C21.2,75.5,21.2,75.1,21.1,74.8z"/>
	<path class="st85" d="M2.2,58.6c-0.1-0.1-0.1-0.2-0.2-0.2c0.4-0.4,0.7-0.7,1.1-1.1c0.4-0.2,0.6-0.8,1.2-0.6c-0.5,0.5-1.1,1-1.4,1.7
		C2.8,58.6,2.5,58.7,2.2,58.6z"/>
	<path class="st36" d="M40.1,23.3c-0.2,0.2-0.3,0.3-0.5,0.5c-0.4,0.4-0.5,1.3-1.4,0.9c0.2-0.7,0.6-1.2,1.2-1.5
		C39.7,23,40,22.8,40.1,23.3z"/>
	<path class="st78" d="M46.8,20.1c-0.1,0.1-0.2,0.1-0.3,0.2c-0.4-0.9-0.4-1.8-0.4-2.7l0.1,0C47.3,18.1,47.3,19,46.8,20.1z"/>
	<path class="st86" d="M38.2,24.6c0.7,0.1,0.9-0.6,1.4-0.9c-0.1,0.9-0.6,1.5-1.5,1.7c-0.3-0.2,0-0.5-0.2-0.7
		C38.1,24.7,38.1,24.6,38.2,24.6z"/>
	<path class="st87" d="M46.6,26c-0.1,0-0.3,0-0.3,0c-0.2-0.5-0.4-0.9-0.5-1.4c0-0.2,0.1-0.5,0.5-0.4c0.4,0.4,0.2,0.9,0.3,1.4
		C46.6,25.7,46.6,25.8,46.6,26L46.6,26z"/>
	<path class="st28" d="M71,16.7c0,0.4,0.1,0.7,0.1,1.1c0,0.2,0,0.5-0.3,0.4c-0.2,0-0.3-0.2-0.4-0.4c-0.2-0.4,0.2-0.6,0.4-0.9
		C70.9,16.8,70.9,16.7,71,16.7z"/>
	<path class="st88" d="M48.6,3.3c-0.3,0.1-0.4-0.1-0.5-0.3c-0.3-0.5-0.3-0.5-0.6,0c-0.3-0.3-0.4-0.7-0.2-1.2c0.2,0,0.3,0,0.5,0
		C48.3,2.2,48.4,2.7,48.6,3.3z"/>
	<path class="st53" d="M50.2,25.6c-0.4,0.5-0.8,1-1.2,1.5c-0.1-0.1-0.1-0.1-0.2-0.2c0-0.5,0.2-1,0.6-1.3c0.3,0.1,0.5-0.1,0.7-0.2
		C50.2,25.4,50.2,25.5,50.2,25.6z"/>
	<path class="st89" d="M54.4,17.3c-0.2-0.1-0.5-0.2-0.7-0.3c-0.1-0.3-0.1-0.6,0-0.9c0.3-0.1,0.6-0.1,0.9,0
		C54.6,16.5,54.6,17,54.4,17.3z"/>
	<path class="st51" d="M29.3,43.2c0-0.3,0.1-0.5,0.4-0.5c0.5,0,0.9-0.2,1.2-0.5c0.1,0.3,0.1,0.5,0.2,0.8c0,0.1-0.1,0.3-0.2,0.4
		c-0.3,0.2-0.7,0.2-1.1,0.2c-0.1,0-0.3-0.1-0.4-0.1C29.4,43.3,29.3,43.2,29.3,43.2z"/>
	<path class="st90" d="M47.4,4.8c0.1,0,0.3,0.1,0.3,0.1c0.1,0.8,0.1,1.5-0.6,2C47.2,6.2,47.3,5.5,47.4,4.8z"/>
	<path class="st52" d="M30.9,43.1c0.1-0.1,0.1-0.1,0.2-0.2c0.2,0.2,0.4,0.4,0.7,0.6c0.2,0.1,0.4,0.3,0.7,0.3
		c0.1,0.1,0.2,0.2,0.2,0.2c0,0.3,0.4,0.6-0.1,0.9C31.6,44.7,31,44.1,30.9,43.1z"/>
	<path class="st91" d="M54.2,10c0.2-0.1,0.4-0.1,0.7-0.2c0.1,0.5,0.2,0.9-0.1,1.4c-0.2,0-0.3,0-0.5,0C54.1,10.8,54.1,10.4,54.2,10z"
		/>
	<path class="st92" d="M55.5,18.9c-0.3,0.3-0.7,0.7-1,1c-0.2,0.2-0.4,0.2-0.4-0.1c0.2-0.2,0.5-0.5,0.7-0.7c0.1-0.1,0.1-0.2,0.2-0.3
		C55.2,18.7,55.3,18.6,55.5,18.9L55.5,18.9z"/>
	<path class="st93" d="M55.4,18.9c-0.1,0-0.3,0-0.4,0c-0.1,0-0.1-0.1-0.2-0.1c0.1-0.2,0.2-0.4,0.4-0.6c0.2-0.1,0.4-0.3,0.5-0.1
		c0.1,0.1,0,0.3,0,0.4C55.7,18.7,55.5,18.8,55.4,18.9z"/>
	<path class="st5" d="M61.7,47.6c0.5-0.4,0.9-0.9,1.4-1.3C63,47,62.5,47.5,61.7,47.6z"/>
	<path class="st25" d="M39.5,49.4c-0.3,0-0.5-0.1-0.7-0.3c0.2-0.7,0.5-1.3,1.4-0.9c0,0.1,0,0.1,0,0.2C40,48.7,39.5,48.9,39.5,49.4z"
		/>
	<path class="st94" d="M53.1,22c-0.2-0.2-0.3-0.3-0.5-0.5c-0.1-0.3,0-0.6,0.1-0.9c0.4-0.1,0.3,0.3,0.4,0.5
		C53.1,21.4,53.1,21.7,53.1,22z"/>
	<path class="st54" d="M37.8,23.2c-0.2-0.2-0.3-0.4-0.3-0.7c0-0.4,0.2-0.6,0.6-0.5C38.1,22.5,38,22.8,37.8,23.2z"/>
	<path class="st54" d="M37.4,23.6c0.2-0.1,0.3-0.3,0.5-0.4c0.1,0.3,0.1,0.6,0,0.9C37.4,24.2,37.5,23.8,37.4,23.6z"/>
	<path class="st10" d="M2,58.3c-0.3,0.3-0.6,0.6-1,0.9C1.1,58.7,1.4,58.3,2,58.3z"/>
	<path class="st43" d="M67.1,10.6c-0.2,0-0.4,0-0.5,0c-0.4-0.3-0.4-0.6,0-0.9l0,0C66.9,10,67.2,10.2,67.1,10.6z"/>
	<path class="st95" d="M68.3,7.7c-0.1,0.1-0.1,0.1-0.2,0.2c-0.1,0.1-0.3,0.2-0.4,0.2c-0.2-0.2,0-0.3,0.1-0.5
		c0.1-0.1,0.2-0.1,0.2-0.1c0.1,0,0.2,0,0.2,0.1C68.3,7.6,68.4,7.7,68.3,7.7L68.3,7.7z"/>
	<path class="st86" d="M40.1,23.3c-0.2-0.1-0.4-0.2-0.7-0.2c0.2-0.2,0.4-0.3,0.7-0.2c0.1,0.1,0.2,0.2,0.2,0.2
		C40.2,23.1,40.2,23.2,40.1,23.3z"/>
	<path class="st35" d="M62.1,33.9c-0.6-0.1-0.6-0.1-0.6-0.7C61.6,33.4,61.9,33.7,62.1,33.9z"/>
	<path class="st30" d="M25.9,48.2c-0.1,0.1-0.1,0.1-0.2,0.2c-0.3,0-0.4-0.2-0.5-0.4l0.1-0.1C25.6,47.8,25.8,48,25.9,48.2z"/>
	<path class="st74" d="M54.8,13.9c-0.2-0.3-0.1-0.5,0.1-0.7C55,13.5,54.9,13.7,54.8,13.9z"/>
	<path class="st7" d="M47.6,72.9c0.3-0.1,0.5,0.1,0.7,0.3C47.9,73.2,47.7,73.1,47.6,72.9z"/>
	<path class="st96" d="M47.5,3.4c0.1,0.1,0.2,0.3,0.2,0.4c-0.1,0-0.2,0.1-0.3,0.1C47.4,3.7,47.3,3.6,47.5,3.4z"/>
	<path class="st30" d="M24.8,47.4c-0.3,0-0.5-0.1-0.6-0.4C24.5,47.1,24.7,47.2,24.8,47.4z"/>
	<path class="st26" d="M51.9,22.8c0.1,0.3,0,0.4-0.3,0.5C51.6,23.1,51.7,22.9,51.9,22.8z"/>
	<path class="st57" d="M32.4,43.8c-0.3,0.1-0.5-0.1-0.7-0.3c0.1,0,0.3,0,0.4,0.1C32.3,43.6,32.4,43.7,32.4,43.8z"/>
	<path class="st9" d="M68.3,22.7c0.2,0,0.3,0,0.5,0c-0.2,0.2-0.4,0.3-0.7,0.2C68.2,22.9,68.3,22.8,68.3,22.7z"/>
	<path class="st20" d="M2.5,48.2c0,0.3-0.1,0.5-0.3,0.7C2.2,48.5,2.3,48.3,2.5,48.2z"/>
	<path class="st5" d="M63.8,45.6c-0.1-0.3,0.1-0.5,0.3-0.7C64.1,45.2,64,45.4,63.8,45.6z"/>
	<path class="st20" d="M2,49c0.1,0.3-0.1,0.5-0.2,0.7C1.7,49.4,1.8,49.2,2,49z"/>
	<path class="st10" d="M1.2,61.3c0.2,0.2,0.4,0.4,0.3,0.7C1.3,61.8,1.1,61.6,1.2,61.3z"/>
	<path class="st45" d="M30.6,38.5c0.2,0.2,0.3,0.4,0.2,0.7c-0.1,0-0.1,0-0.2,0C30.3,38.9,30.2,38.7,30.6,38.5L30.6,38.5z"/>
	<path class="st45" d="M31,39.9c-0.1-0.1-0.1-0.1-0.2-0.2c-0.3-0.2-0.2-0.3,0-0.5l0.1,0C31,39.4,31.1,39.6,31,39.9z"/>
	<path class="st74" d="M54.1,12.8c0,0.1,0,0.3,0,0.4C54,13,54,12.9,54.1,12.8z"/>
	<path class="st74" d="M54.9,14.5c0-0.1,0-0.2,0-0.4C54.9,14.3,54.9,14.4,54.9,14.5z"/>
	<path class="st96" d="M47.5,3c0.1,0.2,0.1,0.3,0,0.5C47.3,3.3,47.3,3.1,47.5,3z"/>
	<path class="st97" d="M47.8,1.9c-0.2,0.1-0.3,0.1-0.5,0C47.5,1.7,47.6,1.7,47.8,1.9z"/>
	<path class="st74" d="M54.1,13.2c0,0.1,0,0.3,0,0.4C53.9,13.5,54,13.3,54.1,13.2z"/>
	<path class="st56" d="M51.2,17.7c-0.1-0.2-0.1-0.3,0-0.5C51.3,17.4,51.3,17.5,51.2,17.7z"/>
	<path class="st27" d="M53.2,18.5c0.1,0.1,0.1,0.3,0,0.4C53.1,18.7,53.1,18.6,53.2,18.5z"/>
	<path class="st8" d="M46.5,29.1c-0.1-0.1-0.1-0.1-0.2-0.2c0.1-0.1,0.2-0.2,0.3-0.2C46.6,28.8,46.6,29,46.5,29.1z"/>
	<path class="st8" d="M46.5,29.6c0-0.2,0-0.3,0-0.5C46.5,29.3,46.5,29.4,46.5,29.6z"/>
	<path class="st39" d="M55.8,8.3c-0.1-0.1,0-0.2,0.1-0.3C55.9,8.2,55.9,8.3,55.8,8.3z"/>
	<path class="st74" d="M54,13.6c0.1,0.2,0,0.3-0.1,0.5C54,14,54,13.8,54,13.6z"/>
	<path class="st27" d="M54.8,18.8c0.1,0,0.1,0.1,0.2,0.1c-0.1,0.1-0.2,0.1-0.3,0.2C54.7,18.9,54.7,18.8,54.8,18.8z"/>
	<path class="st56" d="M51.2,17.2c-0.1-0.2-0.1-0.3,0-0.5C51.4,16.9,51.4,17.1,51.2,17.2z"/>
	<path class="st43" d="M68.3,7.7c-0.1-0.1-0.2-0.1-0.3-0.2C68.3,7.4,68.4,7.4,68.3,7.7z"/>
	<path class="st61" d="M57.4,15.8c-0.1-0.1-0.1-0.2-0.2-0.2c0.1-0.1,0.1-0.2,0.2-0.2C57.4,15.5,57.4,15.6,57.4,15.8z"/>
	<path class="st36" d="M46.6,26c0-0.1,0-0.3,0-0.4C46.6,25.7,46.6,25.8,46.6,26z"/>
	<path class="st98" d="M51.2,16.8c-0.1-0.2-0.1-0.3,0-0.5C51.4,16.5,51.4,16.6,51.2,16.8z"/>
	<path class="st34" d="M49.2,30.1c0-0.3,0.1-0.3,0.3-0.1C49.4,30,49.3,30.1,49.2,30.1z"/>
	<path class="st27" d="M54.1,18.4c-0.1-0.2,0-0.3,0.1-0.4C54.3,18.2,54.2,18.3,54.1,18.4z"/>
	<path class="st99" d="M39.1,74.2c0-0.1,0-0.3,0-0.4C39.1,73.9,39.1,74.1,39.1,74.2z"/>
	<path class="st99" d="M39.3,73.5c0-0.2,0-0.3,0.1-0.5C39.4,73.2,39.4,73.4,39.3,73.5z"/>
	<path class="st4" d="M30.7,81.3c0,0.2,0,0.3,0,0.5C30.7,81.6,30.7,81.4,30.7,81.3z"/>
	<path class="st13" d="M49.3,52.2c0.1,0,0.3,0,0.4,0C49.6,52.2,49.4,52.2,49.3,52.2z"/>
	<path class="st13" d="M48.8,52.2c0.2,0,0.3,0,0.4,0C49.1,52.2,49,52.2,48.8,52.2z"/>
	<path class="st7" d="M42.2,60.2c0,0.1,0,0.3,0,0.4C42.2,60.5,42.2,60.3,42.2,60.2z"/>
	<path class="st5" d="M59.6,49.1c0.2,0,0.3,0,0.5,0C59.9,49.1,59.8,49.1,59.6,49.1z"/>
	<path class="st5" d="M58.7,49.5c0.2,0,0.3,0,0.5,0C59,49.5,58.8,49.5,58.7,49.5z"/>
	<path class="st5" d="M58,49.7c0.2,0,0.3,0,0.5,0C58.3,49.7,58.2,49.7,58,49.7z"/>
	<path class="st5" d="M54.1,51.2c0.2,0,0.3,0,0.5,0C54.4,51.2,54.2,51.2,54.1,51.2z"/>
	<path class="st5" d="M52.7,51.6c0.2,0,0.3,0,0.5,0C53,51.6,52.9,51.6,52.7,51.6z"/>
	<path class="st5" d="M57.1,50.2c0.2,0,0.3,0,0.5,0C57.4,50.2,57.2,50.2,57.1,50.2z"/>
	<path class="st5" d="M55.5,50.8c0.2,0,0.3,0,0.5,0C55.8,50.8,55.6,50.8,55.5,50.8z"/>
	<path class="st5" d="M54.8,51c0.2,0,0.3,0,0.5,0C55.1,51,54.9,51,54.8,51z"/>
	<path class="st8" d="M55.6,31.2c-0.2,0-0.3,0-0.5,0C55.3,31.2,55.4,31.2,55.6,31.2z"/>
	<path class="st1" d="M17.6,63.2c0.1,0,0.3,0,0.4,0C17.9,63.1,17.7,63.2,17.6,63.2z"/>
	<path class="st16" d="M25,51.3c-0.1,0.1-0.2,0.2-0.3,0.4c-0.1,0.2-0.2,0.4,0,0.6c0.3,0.2,0.6,0.5,0.9,0.6c1,0.4,1.2,1.1,1.2,2
		c0,0.5,0.2,0.6,0.6,0.7c0.3,0,0.3,0.4,0.4,0.7c0.4,0.3-0.6,0.5,0,1c1.4,1.4,1.3,1.6-0.3,2.9c-0.2-0.2-0.4-0.4-0.6-0.4
		c-0.5,0-0.9-0.2-1.1-0.7c-0.1-0.4-0.6-0.4-0.9-0.7c-0.1-0.2-0.2-0.4-0.1-0.6c0.1-0.2,0.3-0.1,0.4-0.1c0.2,0.1,0.3,0.1,0.5,0.1
		c0.3,0.1,0.5,0.2,0.7,0c0.2-0.2,0-0.7-0.3-1c-0.5-0.3-1-0.6-1.4-1c-0.5-0.6-0.5-0.6,0-1.3c0.4-0.6,0.4-0.6-0.1-1
		c-0.6-0.4-0.9-1-0.8-1.8c0-0.8-0.1-1-0.9-1.2c-0.6-0.1-0.7-0.5-0.9-1c0.1-1-1.1-1.3-1.1-2.2c0.3-0.6,0.8-0.8,1.2-0.2
		c0.5,0.7,1.1,1.2,1.5,1.9c0.2,0.4,0.4,0.6,1,0.7C25.3,49.6,24.9,50.6,25,51.3z"/>
	<path class="st100" d="M20.7,47.3c0.3,0.1,0.6,0.2,0.8,0.5c0.1,0.3,0.3,0.5,0.6,0.7c0.6,0.4,0.6,0.4-0.3,0.8
		c-0.2-0.2-0.4-0.5-0.7-0.7c-0.2,0-0.5-0.1-0.7-0.2c-0.1-0.2-0.2-0.5-0.5-0.6c-0.9-0.3-1.9-0.6-2.7-1.2c-0.3-0.2-0.8-0.4-1.2-0.1
		c-0.1,0.1-0.3,0.1-0.4,0c-0.3-0.2-0.5-0.5-0.8-0.3c-0.3,0.2-0.4,0.4-0.6,0.7c-0.2,0.3-0.4,0.3-0.7,0.1c-0.3-0.3-0.6-0.5-1-0.7
		c-0.6-0.3-0.6-0.3-0.9,0.4c-0.1,0.3-0.3,0.5-0.6,0.5c-1.2-0.2-2.3,0.6-3.6,0.5c-0.3,0-0.6,0.2-0.7-0.2c0-0.2,0.1-0.3,0.3-0.3
		c0.2,0,0.4,0,0.6-0.1c0.4-0.2,0.7-0.6,1-1c0.2-0.3,0.9,0,1-0.6c0.2-0.6,0.7-0.2,1.1-0.4c0.2-0.1,0.5-0.3,0.7-0.1
		c0.4,0.4,0.8,0.4,1.3,0.2c0.6-0.2,1.2-0.4,1.8,0c0.1,0.1,0.4,0,0.6,0c0.3,0,0.6-0.1,0.8,0c0.9,0.4,2,0.3,2.9,0.6
		C19.6,46.3,20.2,46.8,20.7,47.3z"/>
	<path class="st101" d="M27.4,60c0.1-0.2-0.1-0.5,0.2-0.7c0.2-0.1,0.5,0,0.7-0.3c0.2-0.4-0.3-0.7-0.1-1c0.1-0.2-0.2-0.3-0.4-0.4
		c-0.2-0.1-0.5-0.2-0.6-0.4c-0.1-0.2-0.3-0.5,0.2-0.5c0.3,0,0.3-0.3,0.4-0.4c0.6,0,1.2,0.1,1.8,0.1c0.4,0,0.6,0.2,0.9,0.5
		c0,0.3-0.2,0.5-0.1,0.8c0.4,1.7,0.1,3.3-1.2,4.5c-0.1,0-0.1,0.1-0.2,0.1c-0.3-0.2-0.5-0.6-0.8-0.7c-0.7-0.2-0.4-0.7-0.5-1.1
		C27.6,60.2,27.5,60.1,27.4,60z"/>
	<path class="st102" d="M6.8,47.6c0.2,0.1,0.5,0.2,0.7,0.2C7,48.4,7.1,49,7.2,49.6c0,0.3,0.1,0.7-0.2,0.9c-0.5,0.4-0.5,0.9-0.4,1.4
		c0,0.2,0,0.4-0.1,0.6c0,0.2-0.5,0.4-0.7,0.2c-0.4-0.7-1-0.7-1.7-0.5c-0.2-0.1-0.3-0.3-0.5-0.1c-0.1,0.1-0.2,0.4-0.5,0.4
		c-0.1,0-0.1,0-0.2,0c-0.1-0.1-0.1-0.2-0.1-0.2c0.6-0.8,0.6-1.9,1.6-2.5c0.4-0.3,1.2-0.2,1.3-0.7c0.2-0.5,0.3-0.9,0.7-1.2
		C6.6,47.8,6.7,47.7,6.8,47.6z"/>
	<path class="st16" d="M20.5,48.4c0.3-0.1,0.5,0.1,0.7,0.2C20.9,48.7,20.5,49,20.5,48.4z"/>
	<path class="st103" d="M38.7,39.6c-0.1-0.1-0.1-0.2-0.2-0.2c-0.2,0-0.3,0-0.5,0l0,0c-0.5-0.5-1.4-0.6-1.3-1.6
		c0.1-0.1,0.2-0.2,0.4-0.2c0.2,0-0.1,0.1,0.1,0c0,0-0.1,0-0.1,0c-1.6,0.4-0.9,1.5-0.7,2.5c0.1,0.1,0.1,0.2,0.2,0.2
		c0,0.3-0.2,0.4-0.5,0.4h0c-1-0.1-1.6-0.9-1.8-1.7c-0.3-1.1-0.6-2.1-1.1-3.2l0,0c0.5-0.5,0.4-1.1,0.4-1.7c0-0.2-0.2-0.3-0.4-0.4
		c-0.6-0.3-0.6-0.5-0.5-1c0.2-0.8,1.3-0.9,1.3-1.9c0-0.8,0.7-1.3,1.1-1.9c0-0.1,0.2-0.1,0.3-0.1c0.1,0,0.1,0.2,0.2,0.2
		c0.1,0.4-0.2,0.7-0.4,1c-0.2,0.3-0.1,0.7,0.3,0.7c0.5,0,0.8,0.2,0.8,0.7c0,0.2,0.1,0.5,0.4,0.4c0.2,0,0.3-0.3,0.3-0.5
		c0.1-0.3,0.1-0.5-0.1-0.8c-0.4-0.5-0.4-1.1-0.2-1.7c0.1-0.3,0.1-0.7,0.2-0.9c0.3-0.5,0.3-0.9,0-1.3c-0.1-0.2-0.1-0.4,0-0.6
		c0-0.2,0.2-0.4,0.4-0.3c0.2,0.1,0.5,0.2,0.7,0.3c0.6,0.2,0.8,0.1,1.1-0.6c0.2-0.3,0.3-0.4,0.7-0.1c0.1,0.1,0.2,0.1,0.2,0.2
		c-0.6,0.3-0.4,1-0.5,1.6c-0.4-0.2-0.7-0.4-1.1-0.5c-0.2-0.1-0.6-0.1-0.8,0c-0.3,0.2-0.2,0.4-0.1,0.7c0.1,0.3,0,0.5,0,0.8
		c0,0.3-0.1,0.7,0.1,0.9c0.6,1.1,0.2,1.9-0.5,2.8c-0.1,0.2-0.3,0.3-0.3,0.5c-0.1,0.3,0,0.5,0.2,0.7c0.3,0.2,0.5,0.1,0.7-0.1
		c0.5-0.4,0.6-0.4,0.6,0.1c0.1,1,0.4,2,0.2,3C38.7,37,39,37.6,39.5,38c0.4,0.4,0.5,0.1,0.7-0.2c0.4-0.1,0.7,0.3,1.1,0.3
		c0.1,0.1,0.1,0.2,0.2,0.2c0.3,0.6,0.3,1.2-0.1,1.6c-0.5,0.5-1,0.1-1.4-0.3C39.5,39.4,39.1,39.6,38.7,39.6z"/>
	<path class="st104" d="M41.3,45.2c-0.1-0.1-0.1-0.1-0.2-0.2c-0.4-1.1,0.6-1.8,0.9-2.6c0.2-0.4,0.5-0.8,1-1c0.1-0.2,0.2-0.5,0.3-0.7
		c1.1-0.2,0.9-1.8,2.1-2c0.2,0.5,0.5,0.9,0.7,1.4c0.1,0.2,0,0.4-0.2,0.6c-0.2,0.1-0.4,0-0.5-0.2c-0.1-0.1-0.2-0.2-0.3-0.3
		c-0.3,0.1-0.1,0.3-0.1,0.5c0.3,1.2-0.3,2.3-1.5,2.6c-0.2,0-0.3,0-0.5,0c-0.1,0-0.3,0.1-0.4,0.1c0.8,1.3,0.8,1.3,0.5,2.6
		c-0.3-0.3-0.6-0.7-1-1C41.8,44.8,41.5,45,41.3,45.2z"/>
	<path class="st12" d="M38.7,39.6c0.1-0.1,0.2-0.3,0.3-0.4c0.4-0.6,0.5-0.7,0.9-0.2c0.2,0.3,0.4,0.5,0.7,0.6
		c0.5,0.3,0.7,0.2,0.8-0.3c0.1-0.4,0.1-0.7,0.2-1.1c0.5-0.1,0.9,0.4,1.4,0.5c-0.2,0.3-0.4,0.6-0.6,0.9c-0.3,0.5-0.5,1-1.3,0.8
		c-0.2-0.1-0.5,0.2-0.7,0.2C39.5,40.9,39,40.5,38.7,39.6z"/>
	<path class="st12" d="M45.6,36.6c-0.4,0.3-0.6,0.7-0.8,1.1c-0.7-0.1-1.2,0.2-1.4,0.9c-0.3-0.3-0.4-0.8-0.9-1
		c-0.2-0.1-0.2-0.3-0.2-0.5c0-0.2,0.3-0.4,0.4-0.3c0.1,0,0.2,0.1,0.3,0.1c0.2,0.2,0.2,0.7,0.8,0.6c0.4-0.1,0.6-0.3,0.8-0.6
		C44.9,36.4,45.3,36.5,45.6,36.6z"/>
	<path class="st12" d="M43.4,35.9c0-0.1,0-0.3,0-0.4c0-0.2,0.1-0.3,0.3-0.3c0.2,0,0.3,0.2,0.3,0.3c0,0.1,0,0.3-0.1,0.4
		C43.7,36.1,43.5,36.1,43.4,35.9z"/>
	<path class="st12" d="M41.3,38.1c-0.6,0.3-0.6,0.3-1.1-0.3l0,0c0-0.3,0.2-0.4,0.5-0.4C40.8,37.6,41,37.9,41.3,38.1z"/>
	<path class="st12" d="M43.5,38.6c0,0.1,0.1,0.2,0.1,0.3c0,0.4-0.1,0.5-0.4,0.2c-0.1-0.1-0.2-0.2-0.3-0.3
		C43.1,38.8,43.3,38.7,43.5,38.6z"/>
	<path class="st103" d="M40.6,37.4c-0.2,0.1-0.3,0.3-0.5,0.4c0-0.1-0.1-0.2-0.1-0.3C40.1,37.1,40.1,37.1,40.6,37.4z"/>
	<path class="st105" d="M24.2,28.5c-0.1,0.5-0.4,1.1,0.1,1.6c0.1,0.1,0,0.4-0.2,0.5c-0.6,0.2-0.7,0.6-0.6,1.1
		c0.1,0.4,0.1,0.8,0.3,1.2c1,0,0.9,1,1.4,1.5c0.1,0.2,0.3,0.3,0.5,0.3c0.5,0,0.9,0.3,1.4,0.2c0.4-0.1,0.7,0.2,1,0.4
		c0.1,0.4,0.1,0.9,0,1.3c-0.3,0.5-0.3,1.3-1,1.4c-0.9,0.1-0.7-0.9-0.9-1.7c-0.4,1.2-1.1,2.2,0.3,2.9c0.2,0.1,0.2,0.5,0.1,0.7
		c-0.5,1.1-1.3,2.1-1.9,3.2c-0.2,0.4-0.6,0.3-1,0.1c-0.4-0.3-0.8-0.4-1.3-0.6l0,0c-0.5-0.4-0.7-0.9-0.9-1.4c0.2-0.4,0-0.8,0.1-1.2
		c0.4-0.3,0.6,0.1,0.9,0.2c0.7,0.2,0.9,0.2,1.1-0.6c0-0.2,0.1-0.3,0-0.5c0-0.2-0.2-0.4-0.3-0.3c-0.7,0.3-0.8,0-0.8-0.6
		c0-0.4-0.1-0.8-0.2-1.3c0-0.2-0.1-0.5-0.4-0.4c-0.2,0-0.3,0.3-0.3,0.5c0,0.1-0.1,0.2-0.2,0.4c-0.4-0.8-1-1.2-1.7-1.3
		c-0.6-0.1-0.8-0.4-0.8-0.9c0-0.3-0.2-0.4-0.5-0.5c-0.5-0.1-1-0.2-1.5-0.6c-0.2-0.1-0.3-0.3-0.3-0.6c0.1-0.3,0.3-0.5,0.6-0.5
		c0.8,0.2,1.2-0.1,1.2-0.9c0-0.2,0.1-0.4,0.2-0.6c0.2-0.8,0.5-1.3,1.6-1.1c0.5,0.1,1.2-0.1,1.7-0.6C23.1,29.8,23.6,29.1,24.2,28.5z"
		/>
	<path class="st106" d="M21.6,41.2c0.6,0.3,0.9,0.7,0.9,1.4c-0.3,0.2-0.5,0.7-0.9,0.1c-0.2-0.3-0.4-0.4-0.8-0.5
		c-0.7-0.3-1.5-0.4-2.2-0.9c0.3-0.1,0.7-0.2,1-0.2c0.3,0.1,0.5,0.7,0.9,0.2c0.3-0.5,0.7,0.3,0.9-0.1C21.5,41.2,21.6,41.2,21.6,41.2z
		"/>
	<path class="st99" d="M38.4,74c-0.2,0.2-0.6,0.4-0.6,0.7c-0.2,1.7-1.6,2.8-2.5,4.1c-0.2,0.3-0.6,0.5-0.7,1c-0.4-0.5-0.4-1-0.2-1.5
		c0.4-0.7,0.3-1.4,0.5-2.1c-0.7-0.2-1.3-0.4-1.9-0.7c-0.8-0.4-0.9-0.7-0.3-1.4c0.1-0.1,0.2-0.2,0.3-0.4c0.3-0.3,0.2-0.7,0-1.1
		c-0.2-0.3-0.4-0.2-0.7-0.1c-0.3,0.1-0.5,0-0.7-0.3c-0.1-0.3-0.1-0.5,0-0.8c0.1-0.2,0.3-0.3,0.5-0.2c0.2,0.1,0.4,0.3,0.7,0.4
		c0.3,0.1,0.6,0.4,0.9,0.1c0.2-0.2,0-0.6,0-0.9c0-0.3-0.2-0.3-0.5-0.3c-0.4,0.1-0.7-0.1-0.9-0.4c-0.3-0.5-0.9-0.4-1.1,0.1
		c-0.2,0.5-0.4,1-0.5,1.5c-0.1,0.3-0.5,0.5-0.8,0.3c-0.7-0.3-0.9-1.3-0.4-1.8c0.4-0.4,0.4-0.4,0-0.7c-0.6-0.4-1.1-0.9-1.9-1.1
		c-0.1,0-0.1-0.3-0.1-0.4c0.3-0.1,0.6-0.3,0.7-0.6c0.1-0.3,0.4-0.7,0.6-1c0-0.1,0.2-0.1,0.3-0.1c0.2,0,0.2,0.2,0.3,0.3
		c0.1,0.2,0.1,0.4-0.1,0.6c-0.2,0.2-0.4,0.4-0.5,0.6c-0.1,0.1,0,0.3,0.1,0.4c0.1,0.1,0.3,0.1,0.4,0.2c0.1,0,0.2-0.1,0.3-0.1
		c0.5-0.2,0.9-0.4,0.8-1.2c-0.1-0.6,0.6-1,1.2-0.9c0.2,0.1,0.3,0.2,0.4,0.4c0.2,0.4,0.1,0.8,0.6,1.3c-0.1-1.3-0.1-2.3-1.3-2.8
		c-0.1-0.1-0.2-0.2-0.3-0.4c0,0,0-0.1,0-0.2c0-0.1,0.1-0.2,0.2-0.2c0.2,0,0.5,0.2,0.6,0.1c0.7-0.7,0.8-0.2,1.1,0.4
		c0.1,0.3,0.3,0.4,0.6,0.4c0.5-0.1,0.8,0.8,1.4,0.3c0.5,0.3,0.9,0.5,1.4,0.8c0.4,0.3,0.9,0.6,1.3,0.9c0.2,0.1,0.3,0.3,0.2,0.6
		c-0.1,0.2-0.4,0.3-0.7,0.1c-0.2-0.2-0.5-0.4-0.7-0.6c-0.2-0.2-0.5-0.1-0.6,0.2c-0.2,0.5-0.2,0.8,0.2,1.2c0.5,0.4,0.9,0.7,1.4,1
		c0.2,0.1,0.4,0,0.5-0.2c0.1-0.5,0.2-1.1,0.5-1.5c0.1-0.1,0.2-0.2,0.4-0.3c0.1,0,0.2-0.1,0.3,0c0.1,0,0.2,0.2,0.2,0.2
		c-0.1,0.5-0.1,1-0.3,1.4c-0.3,0.4-0.3,0.8,0,1.2c0.5,0.6,0.5,1.2,0.1,1.8C38.7,73,38.9,73.6,38.4,74z"/>
	<path class="st2" d="M51.8,43.6c0-0.2,0-0.4,0.3-0.4c0.2,0,0.2,0.2,0.1,0.4c0,0.1-0.1,0.2-0.2,0.3C52,43.8,51.9,43.7,51.8,43.6z"/>
	<path class="st101" d="M30.6,61.9c0.1,0.4,0.3,0.8,0.6,1.2c-0.1,0.2-0.1,0.4-0.2,0.6c-0.2,0.3-0.3,0.4-0.6,0.1
		c-0.1-0.1-0.2-0.2-0.2-0.2C29.9,63.6,30,63.8,30,64c0,0.2,0.1,0.3,0.2,0.4c0.1,0.2,0.1,0.3-0.1,0.4c-0.1,0-0.3-0.1-0.4-0.2
		c-0.1-0.1-0.3-0.3-0.3-0.5c-0.2-0.5-0.4-0.7-1-0.7c-0.2,0-0.4-0.2-0.4-0.4c0-0.2,0.1-0.4,0.3-0.5c0.2-0.1,0.5-0.3,0.7-0.4l0,0
		C29.5,62,30,61.8,30.6,61.9z"/>
	<path class="st86" d="M45.6,27.7c-0.1,0.1-0.2,0.1-0.2,0.2c-0.3-0.3-0.4-0.9-1-0.9c-0.3,0-0.4-0.3-0.4-0.6c0-0.3,0.1-0.6,0.2-0.9
		c0.2-0.6,0.2-0.7-0.3-0.9c-0.4-0.2-0.8-0.6-1.3-0.4c-0.4,0.1-0.7-0.1-1-0.3c-0.2-0.1-0.4,0.1-0.6,0.2c-0.1-0.2-0.3-0.3-0.4-0.5
		c0-0.2,0-0.3,0-0.5c-0.1-0.1-0.1-0.2-0.2-0.2c0.7-0.6,1.4-1.3,1.6-2.3c0.1-0.4,0.5-0.5,0.8,0c0.2,0.3,0.4,0.4,0.8,0.2
		c0.3-0.2,0.5,0,0.7,0.2l0,0c0,0.2,0,0.3,0,0.5l0,0c0,0.2-0.1,0.5-0.1,0.6c0.4,0.8,0.5,1.7,0.7,2.6c0.1,0.5,0.2,1,0.8,1.2
		c0.4,0.2,0.4,0.4,0,1C45.6,27.3,45.6,27.5,45.6,27.7z"/>
	<path class="st86" d="M43.2,25.5c-0.1,0-0.2,0.1-0.3,0.1c-0.1,0-0.1-0.2-0.1-0.3c0-0.1,0.2-0.1,0.3-0.1
		C43.1,25.2,43.2,25.4,43.2,25.5z"/>
	<path class="st26" d="M58.1,22.7c-0.2,0.1-0.5,0.2-0.7,0.2c-0.3-0.3-0.4-0.6-0.4-0.9c0,0-0.1-0.1-0.1-0.1c0.3-0.2,0.6-0.2,0.9,0
		c0.3,0.2,0.5,0.1,0.8-0.1c0.1,0,0.2,0.1,0.2,0.1c0,0.1,0.1,0.1,0,0.1c-0.1,0.2-0.3,0.3-0.5,0.4C58.3,22.5,58.2,22.6,58.1,22.7z"/>
	<path class="st107" d="M58.8,22c-0.1-0.1-0.1-0.1-0.2-0.2c0.1-0.1,0.1-0.2,0.2-0.3c0-0.1,0.1-0.1,0.1-0.2c0.5-0.5,1-1.2,1.9-0.9
		c-0.1,0.2-0.3,0.3-0.4,0.5c-0.5,0.4-1,0.8-1.5,1.2c-0.1,0.1-0.2,0-0.2,0C58.7,22,58.7,22,58.8,22z"/>
	<path class="st33" d="M58.8,22c0.1,0.1,0.1,0.1,0.2,0.2c-0.1,0.2-0.3,0.4-0.6,0.3C58.5,22.3,58.6,22.1,58.8,22z"/>
	<path class="st17" d="M57.4,23.8l0.1-0.1l0.1-0.1c0,0.1,0,0.3,0,0.4C57.5,23.9,57.5,23.8,57.4,23.8z"/>
	<path class="st8" d="M40.5,23.3c0,0.2,0,0.3,0,0.5C40.5,23.6,40.5,23.4,40.5,23.3z"/>
	<path class="st12" d="M33.4,35.8c0.1,0.4,0.4,0.5,0.8,0.6c0.6,0.2,0.8,0.5,0.5,1.1c-0.4,0.8,0.1,1.4,0.4,2c0.3,0.4,0.7,0.8,1.1,1.2
		c0,0-0.1,0.1-0.1,0.1c-0.8,0.9-1.2,1.1-2-0.2c-0.1-0.1-0.2-0.3-0.3-0.3c-0.7,0-0.8-0.6-1.1-1c-0.1-0.2-0.3-0.4-0.5-0.6
		c0-0.1,0.1-0.2,0.1-0.3c0.1-0.3,0-0.7,0.4-0.8c0.3,0,0.3,0.4,0.5,0.6c0,0,0.1,0.1,0.1,0.1c0.1,0.1,0.3,0.2,0.4,0
		c0.1-0.1,0.1-0.2,0.1-0.3c-0.2-0.4-0.4-0.9-0.6-1.3C32.9,36.5,33.1,36.1,33.4,35.8z"/>
	<path class="st108" d="M43,41.3c-0.3,0.3-0.8,0.6-0.7,1.1c0,0.3-0.2,0.4-0.4,0.5c-0.5,0.2-0.7,0.6-1.1,0.9
		c-0.5,0.5-1.1,0.8-1.8,0.2c-0.6-0.5-1.3-0.3-2-0.2c-0.1,0-0.3,0-0.4,0c-0.1-0.1-0.2-0.2-0.2-0.3c0.3-0.2,0.6-0.5,0.8-0.8
		c0.2-0.2,0.5-0.4,0.9-0.3c0.6,0.1,1.1,0,1.6-0.5c0.1-0.2,0.4-0.1,0.6,0c0.4,0.4,0.7,0.3,1.2,0.1c0.4-0.2,0.7-0.4,1.1-0.7
		C42.5,41.3,42.7,41.3,43,41.3z"/>
	<path class="st12" d="M37.2,37.5c-0.2,0.3-0.3,0.5-0.1,0.8c0.3,0.3,0.6,0.7,0.9,1c-0.5,0.1-0.7-0.4-1.1-0.4
		c-0.3,0.3-0.2,0.8-0.5,1.1c-0.2-0.2-0.4-0.4-0.6-0.7c-0.4-0.5-0.4-0.7,0.1-1.3c0.3-0.3,0.3-0.6,0.5-1c0.1-0.1,0.2-0.3,0.4-0.2
		c0.1,0.1,0.2,0.2,0.3,0.4C37.1,37.3,37.1,37.4,37.2,37.5L37.2,37.5z"/>
	<path class="st57" d="M32.9,44.7c-0.2-0.2-0.3-0.4-0.2-0.7c0.3,0.1,0.5,0,0.7-0.2c0.3,0.3,0.6,0.3,0.9,0l0,0
		c0.1,0.1,0.1,0.1,0.2,0.2c0,0.1,0,0.1,0,0.2c-0.2,0.4,0,1-0.7,1.2c-0.3-0.1-0.6-0.3-0.9-0.5C33,44.8,32.9,44.8,32.9,44.7z"/>
	<path class="st12" d="M36.2,40.7c0.2-0.1,0.3-0.3,0.5-0.4c0.3,0.3,0.6,0.7,1.1,0.9c0.1,0.1,0.2,0.2,0.1,0.4
		c-0.1,0.2-0.3,0.1-0.4,0.1C36.9,41.5,36.5,41.1,36.2,40.7z"/>
	<path class="st57" d="M36.3,43.6c0.1,0.1,0.1,0.2,0.2,0.3c-0.4,0.6-0.9,0.7-1.5,0.4c0-0.1,0-0.1-0.1-0.2
		C35.3,43.3,35.3,43.3,36.3,43.6z"/>
	<path class="st57" d="M34.3,43.8c0,0,0-0.1,0-0.1C34.3,43.6,34.3,43.7,34.3,43.8L34.3,43.8z"/>
	<path class="st12" d="M38,39.4c0.2,0,0.3,0,0.5,0C38.3,39.4,38.2,39.4,38,39.4z"/>
	<polygon class="st57" points="33.4,43.8 33.3,43.6 33.4,43.6 	"/>
	<path class="st57" d="M34.5,44c0.1,0,0.3,0,0.4,0c0,0,0,0.1,0,0.1c-0.1,0.2-0.3,0.2-0.5,0.1L34.5,44z"/>
	<path class="st109" d="M36.3,52.5c0.3,0.5,0.7,0.9,1.3,1c0.4,0.3,0.3,0.7,0.3,1.1l-0.1,0.1c0.2,0.4,0.3,0.9,0.3,1.4
		c0,0.1,0,0.1-0.1,0.2c-0.1,0.1-0.2,0.1-0.2,0.2c-0.6,0.3-0.8-0.2-1.1-0.6c-0.2-0.5-0.2-1.1-0.5-1.7c-0.1-0.1-0.1-0.2-0.3-0.2
		c-0.5,0.7-0.3,1.3,0,2c0.1,0.2,0,0.4,0.2,0.5c0.1,0.1,0.2,0.2,0.2,0.4c-0.4,1.5-1.2,2.6-2.7,3.1c-1.2-0.6-1.7-2-1.4-3.9
		c0.3-0.6,1.2-1.1,0.4-2c0-0.2,0.1-0.3,0.1-0.4c0.2-0.2,0.4-0.2,0.6-0.2c0.4,0.1,0.8,0.3,1-0.3c0.1-0.2,0.3-0.4,0.4-0.6
		c0-0.2,0-0.3-0.2-0.5c-0.1-0.1-0.2-0.2-0.2-0.3c-0.5-0.9-0.6-1.6,0.5-2.1c0.7,0.2,0.9,0.7,0.8,1.4c0,0.2,0,0.3,0,0.5
		c0,0.2,0.2,0.4,0.2,0.6C36.2,52.3,36.3,52.4,36.3,52.5z"/>
	<path class="st110" d="M30.6,61.9c-0.5,0.6-1,0.4-1.6,0.2c0-0.2,0-0.3,0-0.5c-0.1-0.3-0.2-0.4,0.2-0.6c0.9-0.3,1-0.4,0.9-1.2
		c0-0.5-0.1-0.9,0.2-1.4c0.1-0.2,0-0.4-0.1-0.6c-0.6-0.8-0.6-0.8,0.4-1.3l0,0c0.2,0,0.2-0.1,0.2-0.2l0,0c0.8,0.1,0.9,0.1,1.1,0.8
		c0.2,0.9,1,1.4,1.2,2.3c0.1,0.3,0.5,0.7,1,0.3c0.3-0.1,0.6,0,0.7,0.3c-0.1,0.4-0.1,0.7-0.2,1.1c-0.1,0.5-0.8,0.9-1.2,0.5
		c-0.4-0.4-1-0.3-1.4-0.7c-0.1-0.2-0.5-0.2-0.7-0.2c-0.4-0.1-0.6,0.1-0.6,0.7C30.6,61.7,30.6,61.8,30.6,61.9z"/>
	<path class="st111" d="M40.6,55.6c0.2,1,0.3,2,0.5,3c-0.6-0.2-0.8-0.9-1.2-1.3c-0.4-0.5-0.8-0.9-1.4-1c0-0.1,0-0.1,0-0.2
		c0.1-0.5,0.1-1,0.3-1.4c0.4-0.3,0.8-0.8,0.9-1.3c0.3,0.3,0.5,0.5,0.5,0.9C40.3,54.7,40.5,55.1,40.6,55.6z"/>
	<path class="st112" d="M34.7,60.2c-0.2-0.1-0.4-0.2-0.7-0.2c-0.1,0-0.2,0-0.2-0.1c0-0.1,0-0.1,0-0.1c0.7-0.3,1.2-0.9,1.8-1.4
		c0.4-0.4,0.6-1.1,0.6-1.7c0.1-0.4,0.3-0.6,0.7-0.6c0.4,0,0.5,0.5,0.9,0.5c0,0.8,0,0.9-0.6,0.8c-0.4,0-0.6,0-0.7,0.4
		c-0.2,0.6-0.5,1-1,1.4C35.3,59.5,35.4,60.1,34.7,60.2L34.7,60.2z"/>
	<path class="st110" d="M34.7,60.2c0.2-0.4,0.5-0.7,0.7-1.1C35.5,60,35.5,60.1,34.7,60.2z"/>
	<path class="st112" d="M38.5,56.2c-0.1,0-0.3,0-0.4,0l0,0C38.2,56,38.3,56,38.5,56.2L38.5,56.2z"/>
	<path class="st106" d="M22.5,42.6c0.6,0,1.1,0,1.5,0.5c0.1,0.2,0.5,0.1,0.5-0.2c0-0.4,0.2-0.7,0.5-0.9c0.3-0.3,0.5-0.5,0.5-1
		c0-0.2,0.1-0.4,0.3-0.5c0.3-0.1,0.4-0.3,0.5-0.6c0.2-0.5,0.1-0.8-0.4-0.7c-0.5,0-0.6-0.1-0.6-0.6c0-0.4,0-0.8,0.1-1.2
		c0.1-0.4,0.4-0.7,0.4-1.2c0-0.2,0.3-0.3,0.5-0.3c0.2,0,0.3,0.2,0.3,0.3c0.1,0.3,0.1,0.5,0.1,0.8c0,0.2,0,0.4,0,0.6
		c0,0.1,0.1,0.2,0.2,0.2c0.1,0,0.2,0,0.2-0.1c0.3-0.8,0.6-1.5,0.9-2.3c0.2-0.1,0.3-0.3,0.5-0.4c0.2,0.4-0.2,0.9,0,1.2
		c0.3,0.4,0.2,0.8,0.3,1.1c0.2,0.5,0.2,0.7-0.2,1.1c-0.1,0.1-0.1,0.3-0.1,0.4c-1,0.9-0.5,2.4-1.2,3.4c-0.2,0.2-0.5,0.4-0.5,0.8
		c0,0.7-0.6,0.8-1,1.1c-0.2,0.1-0.4,0.2-0.6,0C24.4,43.6,23.3,43.4,22.5,42.6z"/>
	<path class="st45" d="M27.5,32.5c0.2,0.3,0.5,0.5,0.4,0.9C27.7,33.1,27.4,32.9,27.5,32.5z"/>
	<path class="st45" d="M28,33.4c0.1,0.1,0.2,0.2,0.2,0.3C28,33.7,27.9,33.6,28,33.4z"/>
	<path class="st9" d="M68.1,21.1c0.1,0.1,0.2,0.2,0.3,0.3c0,0.1,0.1,0.2,0.1,0.2c-0.2,0.1-0.3,0-0.4-0.1
		C68.1,21.4,68.1,21.3,68.1,21.1z"/>
	<path class="st113" d="M46.8,20.1c-0.1-0.9-0.1-1.8-0.7-2.5c0.4-0.8-0.1-1.7,0.5-2.4c0.1-0.1-0.1-0.4-0.2-0.6
		c-0.2-0.8-0.3-1.6-0.1-2.5c0.3-0.5,0.5-0.1,0.7,0c0-0.4-0.5-0.4-0.5-0.7l0,0c0-0.2,0-0.3,0-0.5l0,0c0.6-0.5,0.6-0.5,1.1-0.2l0,0
		c0.2-0.4,0-0.7,0.1-1.1c0-0.1,0.1-0.2,0.2-0.2c0.1,0,0.2,0.1,0.3,0.1c0.2,0.3,0,0.8,0.4,1c0.3,0.1,0.6,0.1,0.9,0.1
		c0.1,0.5,0.3,1,0.4,1.5c-0.1,0.4-0.4,0.1-0.5,0.2c-0.4,0.2-0.4,0.4-0.2,0.7c0.4,0.5,1,0.3,1.4,0.7l0,0c0,0.4,0.1,0.8,0.2,1.1l0,0
		c-0.1,0.1-0.3,0.2-0.4,0.2c-0.8,0.2-0.8,0.2-0.9,0.8c0,0.2-0.1,0.4-0.1,0.5c0.7,0.3-0.1,1.1,0.4,1.5c0.3,0.3,0.4,0.8,0.2,1
		c-0.4,0.4-0.4,1-0.6,1.4c-0.1,0.2-0.2,0.4-0.3,0.5c-0.5,0.6-0.5,0.6,0,1.1c0.2,0.2,0.4,0.4,0.1,0.6c-0.3,0.3-0.6,0.3-0.9,0
		c-0.2-0.2-0.4-0.4-0.6-0.6c-0.3-0.3-0.3-0.7-0.1-1c0.1-0.2,0.2-0.4,0.3-0.6c0-0.1,0-0.4-0.1-0.4c-0.2-0.2-0.4,0-0.5,0.1
		C47.2,20.3,47,20.2,46.8,20.1z"/>
	<path class="st61" d="M58.8,21.5c-0.3-0.4-0.7-0.5-1.3-0.4c-0.4,0.1-0.6-0.1-0.5-0.6c0.1-0.8,0.2-1.6-0.4-2.3
		c-0.2-0.3-0.2-0.7-0.1-1.1c0.1-0.5,0.3-1,0.8-1.4c0,0.2,0.1,0.3,0.1,0.5c0,0.3,0.1,0.5,0.5,0.4c0.5-0.1,0.6,0,0.4,0.4
		c-0.1,0.3-0.3,0.7-0.4,1c-0.1,0.3-0.1,0.6,0,0.9c0,0.2,0.1,0.4,0.4,0.4c0.2,0,0.2-0.2,0.2-0.4c0-0.1,0-0.2,0-0.3
		c0-0.2,0.1-0.3,0.3-0.3c0.1,0,0.3,0.1,0.4,0.2c0.2,0.7,0.3,1.3,0.9,1.8C59.8,21,59,20.9,58.8,21.5L58.8,21.5z"/>
	<path class="st29" d="M63.7,17.3c-0.2,0.1-0.3,0.3-0.5,0.4c-0.4,0.1-0.6,0.3-0.7,0.7c-0.3,0.2-0.5,0.6-0.9,0.4c0-0.2,0-0.4-0.1-0.6
		c-0.6-0.6-0.4-1.2,0.2-1.7c0.1,0,0.3,0,0.4,0.1c-0.1-0.1-0.3-0.1-0.4-0.1c-0.3-0.4-0.5-0.9-0.4-1.4l0,0c0.6-0.2,1,0.1,1.5,0.3
		c0.2,0.1,0.4,0.3,0.5,0.4C63.5,16.4,63.6,16.9,63.7,17.3z"/>
	<path class="st33" d="M58.8,21.5c0.1-0.3,0.1-0.6,0.1-0.9c0-0.1,0-0.3,0.1-0.4c0.1-0.1,0.3,0,0.4,0.2c0.2,0.3,0.4,0.2,0.6,0
		c0.1-0.1,0.1-0.1,0.2-0.2c0-0.2,0-0.3,0-0.5l0,0c0-0.1,0.1-0.2,0.2-0.2c0.2,0.2,0.4,0.3,0.7,0.2c0-0.2,0-0.3,0-0.4l0,0
		c0.5,0.2,0.5,0.3,0.3,0.6c-0.2,0.2-0.4,0.4-0.6,0.5c-0.4-0.1-0.6,0.2-0.9,0.4C59.6,21.1,59.3,21.6,58.8,21.5z"/>
	<path class="st61" d="M61.2,19.3c0,0.1,0,0.3,0,0.4C61.1,19.6,61.1,19.5,61.2,19.3z"/>
	<path class="st61" d="M60.2,19.7c0,0.2,0,0.3,0,0.5C60.2,20,60.2,19.9,60.2,19.7z"/>
	<path class="st61" d="M60.5,19.5c-0.1,0.1-0.2,0.1-0.2,0.2C60.2,19.5,60.2,19.4,60.5,19.5z"/>
	<path class="st114" d="M28.8,50.8c0.5,0.2,0.5,0.2,0.8-0.2c0.3-0.1,0.6,0,0.8,0.2c-0.1,1.1,0.9,0.8,1.4,1c0.2,0.1,0.4,0.2,0.5,0.4
		c0.1,0.1,0.1,0.3,0,0.4c-0.1,0.4-0.9,0.6-0.7,1.2c0,0.1,0,0.3,0,0.4c-0.1,0.3-0.4,0.5-0.6,0.5c-0.5,0.2-0.8-0.3-1.2-0.4l0,0
		c-0.9-0.2-0.2-0.8-0.2-1.2c-0.1-0.1-0.1-0.1-0.2-0.2c-0.7-0.5-1.8,0-2.3-1l0,0c-0.5-1.2-0.3-2.2,1-2.7l0,0c0.1,0,0.2,0,0.3,0.1
		c0.2,0.2,0.1,0.4-0.1,0.6c0,0.2,0,0.4,0,0.5c0,0.1,0.1,0.2,0.1,0.3c0,0,0.1,0.1,0.1,0.1s0.1-0.1,0.1-0.1
		C28.6,50.8,28.7,50.7,28.8,50.8z"/>
	<path class="st30" d="M20.7,47.3c-0.3,0.1-0.6,0.2-0.7-0.1c-0.3-0.5-0.9-0.8-1.1-1.3c0.3-0.1,0.6,0.1,0.9,0.2
		c0.2,0.2,0.4,0.3,0.7,0.1c0.4-0.2,0.7-0.1,1,0.1c0.6,0.2,1,0.9,1.7,0.9c0.1,0.2,0.3,0.3,0.4,0.5c-0.1,0.3,0,0.5,0.3,0.7
		c0.3,0.1,0.6,0.3,0.9,0.4c0.2,0.1,0.3,0.2,0.4,0.5c0.2,0.5,0.2,0.5,0.8,0.5c-0.2,0.7-0.6,1.2-1.1,1.7c-0.4-0.4-0.3-0.9-0.3-1.4
		c0-0.3-0.2-0.4-0.4-0.3c-0.4,0.2-0.7,0.3-0.8-0.2c-0.2-0.5-0.5-0.9-1-1.2c-0.3-0.2-0.4-0.5-0.5-0.7C21.5,46.8,21.5,46.8,20.7,47.3z
		"/>
	<path class="st115" d="M29.6,54.4c0.4-0.1,0.8,0.1,1.2,0.3c0.5,0.2,0.5,0.8,0.9,1c0.3,0.1,0.7,0,0.8,0.4c-0.1,1.2,0.4,2.2,0.6,3.4
		c0.1,0.3,0.4,0.4,0.6,0.3c0.1,0.1,0.1,0.2,0.2,0.2c0,0.2,0,0.3,0,0.5c0,0.2-0.3,0.4-0.4,0.2c-0.1-0.1-1-1.4-1.1-1.6
		c-0.1-0.3-0.3-0.4-0.5-0.5c-0.3-0.2-0.8-0.5-0.4-1c-0.2-0.4-0.1-1.1-0.9-1.1c-0.4-0.4-0.8-0.8-0.8-1.5
		C29.9,54.8,29.7,54.6,29.6,54.4z"/>
	<path class="st116" d="M28,49.3c-0.8,0.7-1,1.7-1,2.7c-0.2-0.2-0.4-0.3-0.7-0.2c-0.2,0.1-0.4,0.2-0.5-0.1c-0.1-0.2-0.2-0.5,0-0.7
		c0.2-0.3,0.4-0.6,0.7-0.8c0.4-0.4,0.5-0.9,0.7-1.4C27.4,49,27.7,49,28,49.3z"/>
	<path class="st116" d="M27,52c0.6,0.5,1.3,0.5,2,0.5c0.2,0,0.3,0.2,0.2,0.5c-0.7,0.2-1.3-0.2-2-0.3C27,52.6,26.9,52.3,27,52z"/>
	<path class="st116" d="M29.4,53.2c0.1,0.4-0.2,0.8,0.2,1.2c-0.2,0.2-0.5,0.3-0.7,0.1c-0.2-0.3-0.2-0.7,0.1-0.9
		C29.2,53.4,29.3,53.3,29.4,53.2z"/>
	<path class="st117" d="M25.2,47.9c0.2,0.1,0.3,0.3,0.5,0.4c0.1,0.1,0.2,0.2,0.1,0.4c0,0-0.2,0-0.2-0.1c-0.2-0.2-0.4-0.4-0.5-0.6
		C25.1,48,25.2,48,25.2,47.9z"/>
	<path class="st101" d="M30.7,56.5c0.1,0.2,0,0.3-0.2,0.2C30.6,56.6,30.6,56.5,30.7,56.5z"/>
	<path class="st118" d="M27.5,42.3c0-0.4,0.1-0.8,0.1-1.2c0.1-0.5-0.6-0.9-0.2-1.3c0.3-0.3,0.8-0.5,1.1-0.8c0,0,0.1-0.1,0.1-0.1
		c0.5-0.6,1.1-0.7,1.8-0.4c-0.1,0.3,0,0.5,0.2,0.7c0,0.2,0,0.3,0,0.5c-0.1,0.1-0.3,0.2-0.4,0.2c-0.5-0.1-0.6,0.1-0.6,0.6
		c0,0.3-0.1,0.5-0.1,0.8l0,0c-0.1,0.7-0.7,1.2-1,1.8c0,0-0.2,0-0.2,0c-0.3,0.1,0.1,0.2,0,0.3c-0.1,0.1-0.2,0.1-0.3,0.1
		C27.7,43.1,27.4,42.8,27.5,42.3z"/>
	<path class="st52" d="M28.1,43.4c0.1-0.1,0.2-0.1,0.2-0.2c0-0.2,0-0.3,0.2-0.2l0,0c0.1,0.2,0.3,0.3,0.4,0.5c0,0,0.1,0.1,0.1,0.1
		c0.1,0.1,0.2,0.2,0.3,0.3c0.2,0.2,0.3,0.4,0.2,0.7c0,0,0,0.1,0,0.1c-0.3-0.1-0.7-0.2-1-0.3C28.1,44.2,28.1,44.2,28.1,43.4z"/>
	<path class="st119" d="M34.5,44.1c0.2,0,0.3,0,0.5-0.1c0.6,0.2,1.1-0.1,1.6-0.2l0,0c0.8,0.1,1.2,0.6,1.4,1.3c0.1,0.6,0.4,1,0.8,1.3
		c0.3,0.3,0.7,0.7,0.9,1.1c0.7,0.1,0.7,0.1,0.7,0.6c-0.6,0.1-0.9,0.6-1.4,0.9l0,0c-0.1,0-0.2,0-0.2-0.1c0-0.1,0-0.1,0-0.2
		c-0.4-0.4-0.9-0.4-1.4,0c-0.2,0.1-0.3,0.3-0.4,0.4c-0.5-0.5-0.3-1.7-1.4-1.6c-0.3-0.1-0.6-0.3-0.6-0.6c0.1-0.4,0.6-0.6,0.6-1.2
		c-0.6,0.6-1.2,1.3-2,0.6c-0.2-0.4-0.2-0.7-0.1-1.1c0.1-0.1,0.2-0.2,0.4-0.3c0.1,0.1,0.3,0,0.2-0.1C33.9,44.5,34.2,44.3,34.5,44.1z"
		/>
	<path class="st120" d="M57,22c0.6,0.2,0.6,0.2,0.4,0.9c-1.2,0.7-2.4,1.4-3.8,1.6c0-0.4,0.3-0.7,0.6-0.7c0.6-0.1,1.1-0.3,1.5-0.7
		l0,0c0.5-0.1,0.8-0.4,1-0.9C56.9,22.1,56.9,22,57,22z"/>
	<path class="st26" d="M56.8,22.1c0,0.8,0,0.8-1,0.9C56.1,22.7,56.5,22.4,56.8,22.1z"/>
	<path class="st121" d="M62.6,15.7c-0.5,0.1-0.9-0.4-1.4-0.5c0.1-0.5-0.1-1,0.6-1.1c0.2,0,0.4-0.2,0.5-0.4c0.8-0.7,0.8-0.9,0.1-1.9
		c0.2-0.1,0.3-0.3,0.5-0.4c0.1,0,0.3,0,0.4,0l0,0c0.3,0,0.4-0.1,0.5-0.4c0.4-0.3,0.8-0.5,1.3-0.4c0.4,0,0.6-0.1,0.6-0.5
		c0-0.2,0-0.3,0.1-0.5c0.1-0.2,0.2-0.4,0.5-0.3c0.1,0.1,0.2,0.3,0.2,0.4c-0.1,0.3-0.2,0.6,0,0.9l0,0c0,0.1,0,0.3,0,0.4
		c0.2,0.5,0,0.9-0.4,1.3c-0.3,0.3-0.4,0.6-0.2,1c0.2,0.4,0.1,0.8-0.2,1.1c-0.9,0-2-1-2.7,0.5c-0.1,0.2-0.1,0.4-0.2,0.6
		C62.9,15.7,62.8,15.7,62.6,15.7z"/>
	<path class="st122" d="M63,27.3c1,0.4,1.2,0.8,0.7,1.5c-0.2,0.3-0.4,0.6-0.6,0.9c-0.3-0.3-0.5-0.6-0.8-0.9c0-0.2,0-0.3,0.2-0.3
		c0.3,0,0.5-0.1,0.4-0.5C62.9,27.9,62.9,27.6,63,27.3z"/>
	<path class="st123" d="M38.6,48.9c0.1,0.1,0.2,0.1,0.3,0.2c-0.1,0.1-0.2,0.2-0.3,0.2c-0.1,0-0.4-0.1-0.4-0.1
		C38.2,49,38.5,49.1,38.6,48.9z"/>
	<path class="st49" d="M36.1,52.2c-0.2-0.2-0.3-0.4-0.2-0.6C36,51.8,36.2,52,36.1,52.2z"/>
	<path class="st29" d="M63.9,11c0,0.4-0.1,0.5-0.5,0.4C63.6,11.3,63.7,11.1,63.9,11z"/>
	<path class="st29" d="M63.4,11.4c-0.1,0-0.3,0-0.4,0C63.1,11.4,63.3,11.4,63.4,11.4z"/>
	<path class="st124" d="M62.9,15c-0.1-0.3-0.2-0.5,0.1-0.7c0.3-0.2,0.6-0.3,0.7-0.6c0.2-0.3,0.4-0.3,0.7-0.1c0.5,0.3,1,0.6,1.5,0.8
		c-0.1,0.1-0.4,0.1-0.4,0.2c-0.2,0.7-0.6,1.2-1.2,1.5c-0.2,0.1-0.1,0.5-0.1,0.7c-0.2,0.1-0.3,0.3-0.5,0.4c-0.7-0.1-0.4-0.8-0.6-1.1
		c0-0.1,0-0.2,0-0.3c0-0.2,0-0.3,0-0.5c0-0.1-0.1-0.2-0.1-0.3L62.9,15z"/>
	<path class="st43" d="M66.6,11c0-0.1,0-0.3,0-0.4C66.6,10.7,66.6,10.9,66.6,11z"/>
	<path class="st125" d="M31.7,51.9c-0.2,0-0.5,0.1-0.6,0c-0.4-0.4-0.9,0.4-1.2-0.1c-0.2-0.4,0.5-0.6,0.3-1.1
		c-0.4-0.2-0.4-0.5-0.4-0.9c-0.3-0.5-0.3-0.5,0.2-0.8c1.2,0,0.2-1.1,0.7-1.4c0.7-0.5,1.1,0,1.6,0.4c0.1,0.4,0.3,0.4,1-0.1
		c0.5,0,0.6,0.3,0.6,0.7c0,0.1-0.1,0.2-0.2,0.3c-0.1,0.1-0.1,0.1-0.2,0.2c0.4,0,0.7-0.2,1.1-0.1c0.2,0.1,0.3,0.3,0.3,0.5l0.1,0.1
		c-0.1,0.1-0.1,0.3-0.2,0.4c-0.3,0.4-0.4,0.8,0,1.2c0.2,0.1,0.2,0.4,0.1,0.6c-1.1-0.1-1.3-1.3-2.2-1.6c0,0,0-0.1,0,0
		c0.2,0.2,0.4,0.4,0.3,0.7c-0.1,0.1-0.2,0.2-0.3,0.2c-0.2,0-0.4,0-0.6-0.1c-0.1,0-0.2,0-0.3,0c-0.1,0.1-0.1,0.2-0.2,0.3
		C31.8,51.7,31.8,51.8,31.7,51.9z"/>
	<path class="st126" d="M30.3,48.5c0.2-0.1,0.3-0.3,0.5-0.4c0.1,0.3,0.2,0.6,0.2,0.9c0,0.2,0.1,0.6-0.2,0.7
		c-0.3,0.1-0.5-0.1-0.6-0.3c0,0-0.1-0.1-0.1-0.1C30.2,48.9,30.4,48.8,30.3,48.5z"/>
	<path class="st127" d="M29.8,49.9c0.3,0.2,0.3,0.6,0.4,0.9c-0.3,0.1-0.5-0.1-0.6-0.3C29.5,50.3,29.6,50.1,29.8,49.9z"/>
	<path class="st128" d="M28.4,51.2c-0.4,0.1-0.3-0.3-0.4-0.5c0-0.3,0.1-0.4,0.4-0.4c0.1,0.2,0.3,0.3,0.4,0.5c0,0.1-0.1,0.1-0.1,0.2
		C28.6,51.1,28.5,51.2,28.4,51.2z"/>
	<path class="st116" d="M28.4,50.3c-0.1,0.1-0.3,0.3-0.4,0.4c-0.1-0.3,0-0.5,0.3-0.7C28.3,50.1,28.3,50.2,28.4,50.3z"/>
	<path class="st116" d="M28.3,49.4c-0.1,0-0.2-0.1-0.3-0.1C28.1,49.3,28.2,49.3,28.3,49.4z"/>
	<path class="st26" d="M48.8,28.4c0,0,0-0.1,0.1-0.1c0.1-0.1,0.2,0,0.1,0.1C49,28.5,49,28.5,48.8,28.4
		C48.9,28.5,48.9,28.5,48.8,28.4z"/>
	<path class="st129" d="M37.8,51c0.4,0.1,0.6,0.4,0.8,0.7c0.3,0.3,0.2,0.5-0.2,0.7c-0.2,0.1-0.4,0.2-0.6,0.3c-0.2,0.1-0.5,0-0.4-0.2
		C37.6,52,37.4,51.4,37.8,51z"/>
	<path class="st69" d="M38.3,53.2c-0.1,0.1-0.3,0.1-0.4,0.1C38,53.2,38.2,53.1,38.3,53.2z"/>
	<path class="st18" d="M46.6,11.4c1,0.5,1.2,0.8,0.9,1.5c0,0.1-0.2,0.1-0.2,0.2c-0.1,0-0.2,0-0.3-0.1c-0.1-0.2-0.1-0.4-0.1-0.6
		c-0.1-0.2-0.2-0.3-0.5-0.3C46.3,11.8,46.4,11.6,46.6,11.4z"/>
	<path class="st18" d="M46.6,10.9c0,0.2,0,0.3,0,0.5C46.6,11.2,46.6,11.1,46.6,10.9z"/>
	<path class="st130" d="M29.7,44.6c-0.2-0.2-0.4-0.4-0.6-0.7c0-0.2,0-0.3,0-0.5l0,0c0.1-0.1,0.2-0.2,0.2-0.3l0,0c0.1,0,0.3,0,0.4,0
		c0.4,0,0.8-0.1,1.2-0.1c0.4,0.4,0.9,0.9,1.3,1.3c0.2,0.2,0.4,0.3,0.7,0.3l0,0c0.2,0,0.3,0.1,0.3,0.3c-0.4,0.6-0.9,1-1.7,0.6
		c0.1-0.3,0-0.5-0.3-0.6C30.7,44.8,30.2,44.7,29.7,44.6z"/>
	<path class="st131" d="M31.5,45.6c0.5-0.2,1.1-0.4,1.6-0.6c0.3-0.1,0.4,0.1,0.5,0.3c0.1,0.4,0.1,0.8,0,1.1
		c-0.1,0.5-0.4,0.7-0.9,0.7c-0.7,0-1.5-0.1-2.2-0.1c-0.1-0.9,0-1,0.5-1.2C31.1,45.7,31.3,45.7,31.5,45.6z"/>
	<path class="st124" d="M62.5,18.4c0.1-0.6,0.1-0.6,0.7-0.7C63,18,62.8,18.2,62.5,18.4z"/>
	<path class="st18" d="M50.8,14.9c-0.3-0.3-0.4-0.7-0.2-1.1C50.9,14.1,51,14.5,50.8,14.9z"/>
	<path class="st132" d="M38.5,56.2c-0.1,0-0.3,0-0.4,0c-0.4-0.5-0.4-1-0.2-1.6c0.3,0,0.6,0,0.9,0C38.9,55.2,39.2,55.8,38.5,56.2z"/>
	<path class="st36" d="M44.2,21.6c0-0.2,0-0.3,0-0.5C44.2,21.3,44.2,21.4,44.2,21.6z"/>
	<path class="st51" d="M29.7,43.2c-0.1,0.1-0.3,0.1-0.4,0C29.4,43.2,29.6,43.2,29.7,43.2z"/>
	<path class="st12" d="M37.2,37.5c0.1-0.1,0.2-0.2,0.4-0.3c0.4-0.2,0.7-0.1,0.8,0.4c0.1,0.3-0.2,0.5-0.4,0.5
		C37.6,38,37.4,37.7,37.2,37.5L37.2,37.5z"/>
	<path class="st106" d="M24.3,40.7c-0.2,0.2-0.3,0.2-0.5,0.1c0,0,0-0.2,0-0.2c0.1-0.2,0.3-0.3,0.5-0.1
		C24.3,40.5,24.3,40.6,24.3,40.7z"/>
	<path class="st106" d="M23.3,41.8c0.1,0,0.2,0,0.3-0.1c0,0.1,0,0.2-0.1,0.3c-0.1,0.1-0.2,0-0.3,0.1C23.3,42,23.3,41.9,23.3,41.8z"
		/>
	<path class="st133" d="M41.8,42.9c-0.9,0.9-1.7,1.9-2.9,2.4c-0.3,0.1-0.4,0.4-0.3,0.7c0.1,0.3,0.1,0.6,0,0.9
		c-0.2-0.2-0.4-0.5-0.7-0.6c-0.2,0-0.3-0.2-0.3-0.3c0.4-1-0.4-1.5-1-2.1c0.5-0.4,1-0.5,1.6-0.5c0.5,0,0.9,0,1.2,0.5
		c0.1,0.3,0.5,0.3,0.8,0.1c0.3-0.3,0.6-0.6,0.9-0.8C41.3,43,41.5,42.8,41.8,42.9z"/>
	<path class="st52" d="M33.5,45.3c-0.2-0.1-0.3-0.2-0.5-0.3c-0.1-0.1-0.1-0.2-0.2-0.3c0.4-0.1,0.6,0.2,0.9,0.4
		C33.7,45.2,33.6,45.2,33.5,45.3z"/>
	<path class="st134" d="M32.5,50.4c0.3,0,0.6,0,0.9,0c0.2,0,0.4,0.1,0.5,0.3c0.2,0.6,0.7,0.9,1.1,1.4c0.1,0,0.1,0.1,0.1,0.1
		c0.2,0.3,0.3,0.5,0.1,0.8c-0.2,0-0.4,0.1-0.6,0.1c0,0-0.1,0.1-0.1,0.2c-0.2,0.2-0.4,0.4-0.7,0.5c-0.1,0-0.3,0-0.4,0
		c-0.1-0.1-0.2-0.1-0.3,0c-0.9,0-1.1-0.6-0.9-1.4l0,0c0-0.6,0.3-0.9,0.7-1.2C33,50.8,32.7,50.6,32.5,50.4z"/>
	<path class="st135" d="M36.9,56c-0.2,0.2-0.5,0.4-0.7,0.6l0,0c-0.1,0-0.2,0-0.2-0.1c0-0.1-0.1-0.1,0-0.1c-0.1-0.2-0.3-0.3-0.4-0.5
		c-0.4-0.4-0.6-0.7-0.2-1.2c0.1-0.2,0.1-0.5,0.2-0.8c0-0.3,0-0.5,0.3-0.7c0.2-0.1,0.7,0.2,0.8,0.6C36.9,54.5,37.1,55.2,36.9,56z"/>
	<path class="st136" d="M32.6,56.1c-0.3,0-0.6,0-0.9,0c-0.4-0.6-0.4-1.3-0.1-2l0-0.1c0.4-0.5,0.9-0.4,1.4,0c0.2,0.4,0.6,0.6,1,0.8
		c0.2,0.2,0.1,0.4,0,0.5C33.4,55.6,32.9,55.7,32.6,56.1z"/>
	<path class="st137" d="M35.3,53c-0.1-0.3-0.2-0.5-0.1-0.8C35.8,52.4,35.8,52.5,35.3,53z"/>
	<path class="st112" d="M36,56.4c0.1,0.1,0.2,0.1,0.2,0.2c-0.1,0-0.2,0-0.3,0C35.9,56.6,36,56.5,36,56.4z"/>
	<path class="st18" d="M48.5,11.3c0.1,0.2,0,0.4-0.2,0.5c-0.1,0-0.2,0-0.2-0.1c-0.1-0.2-0.1-0.4,0.1-0.5
		C48.4,11.2,48.5,11.3,48.5,11.3z"/>
	<path class="st18" d="M47.7,10.7c0,0,0,0.1,0,0.1C47.7,10.9,47.7,10.9,47.7,10.7L47.7,10.7z"/>
	<path class="st33" d="M57.7,20.3c0-0.1,0-0.2,0.2-0.2c0,0,0.1,0,0.1,0c0.1,0.1,0.1,0.2-0.1,0.2C57.9,20.4,57.8,20.3,57.7,20.3z"/>
	<path class="st21" d="M61.7,16.6c0.2-0.1,0.3-0.3,0.5-0.2c0.2,0.1,0.3,0.3,0.1,0.5c-0.1,0.2-0.3,0.1-0.4,0
		C61.9,16.8,61.8,16.7,61.7,16.6L61.7,16.6z"/>
	<path class="st21" d="M63.3,16c-0.1,0.1-0.2,0.1-0.2,0.2c-0.1-0.2-0.3-0.3-0.4-0.5c0.1-0.1,0.2-0.1,0.2-0.2
		C63.1,15.5,63.3,15.7,63.3,16z"/>
	<path class="st138" d="M31.5,54.1c0.1,0.1,0.2,0.3,0.2,0.4c-0.2,0.5,0,1,0,1.5c-0.7-0.2-0.7-0.9-0.8-1.4
		C31.1,54.5,31.3,54.3,31.5,54.1z"/>
	<path class="st116" d="M28.4,51.2c0.1-0.1,0.1-0.1,0.2-0.2C28.7,51.1,28.6,51.2,28.4,51.2z"/>
	<path class="st51" d="M28.6,43c-0.1,0.1-0.2,0.1-0.2,0.2c-0.1-0.1-0.3-0.3-0.2-0.4C28.3,42.7,28.5,42.9,28.6,43z"/>
	<path class="st51" d="M29.6,41.2c0,0-0.1,0-0.1,0C29.4,41.1,29.4,41.1,29.6,41.2L29.6,41.2z"/>
	<path class="st51" d="M29,43.4c0,0.2,0,0.3,0,0.5C29.1,43.8,29.1,43.6,29,43.4z"/>
	<path class="st139" d="M33.5,47.7c0.5-0.2,1-0.1,1.4-0.4c0.2,0.1,0.4,0.1,0.6,0.2c0.4,0.9-0.2,1.5-0.5,2.2
		c-0.2-0.2-0.3-0.3-0.5-0.5c-0.4,0.1-0.8,0.3-1-0.2c0.3-0.3,0.3-0.6,0.1-0.9C33.4,48,33.4,47.8,33.5,47.7z"/>
	<path class="st29" d="M63.3,16c-0.1-0.2-0.3-0.3-0.4-0.5c0-0.2,0-0.3,0-0.5l0,0c0.1,0,0.3,0,0.4,0C63.4,15.4,63.4,15.7,63.3,16z"/>
	<path class="st21" d="M63.3,15c-0.1,0-0.3,0-0.4,0C63,15,63.2,15,63.3,15z"/>
	<path class="st140" d="M33.5,47.7c0,0.1,0,0.3,0,0.4c-0.2,0.1-0.3,0.3-0.5,0.4c-0.6,0.5-0.6,0.5-0.8-0.3c-0.2-0.5,0.2-0.7,0.6-0.9
		C33,47.5,33.3,47.6,33.5,47.7z"/>
	<path class="st114" d="M31.7,51c-0.1,0.2-0.3,0.3-0.4,0.5C31.2,51.1,31.4,51,31.7,51z"/>
	<path class="st134" d="M32.1,50.3c0,0,0-0.1,0-0.1c0,0,0.1,0,0.1,0c0.1,0.1,0.2,0.1,0.2,0.2c0,0-0.1,0-0.1,0
		C32.3,50.4,32.2,50.3,32.1,50.3z"/>
	<path class="st134" d="M32.7,51.1c-0.1,0-0.2,0-0.3-0.1C32.5,51,32.6,51,32.7,51.1z"/>
	<path class="st139" d="M33.4,49c-0.2,0.1-0.3,0.1-0.4,0C33.1,49,33.3,49,33.4,49z"/>
	<path class="st109" d="M34.7,53.2c-0.2,0.2-0.5,0.5-0.8,0.4C34,53.4,34.3,53.1,34.7,53.2z"/>
</g>
</svg>
