<?xml version="1.0" encoding="utf-8"?>
<!-- Generator: Adobe Illustrator 19.1.0, SVG Export Plug-In . SVG Version: 6.00 Build 0)  -->
<svg version="1.1" id="Layer_1" xmlns="http://www.w3.org/2000/svg" xmlns:xlink="http://www.w3.org/1999/xlink" x="0px" y="0px"
	 viewBox="0 0 18 10" style="enable-background:new 0 0 18 10;" xml:space="preserve">
<style type="text/css">
	.st0{fill:#B6D6A7;}
	.st1{fill:#BFDAB1;}
	.st2{fill:#A1CB93;}
	.st3{fill:#BDDAAF;}
	.st4{fill:#C2DBAF;}
	.st5{fill:#A6CC90;}
	.st6{fill:#72AF73;}
	.st7{fill:#488C4D;}
	.st8{fill:#7CB276;}
	.st9{fill:#64A060;}
	.st10{fill:#529251;}
	.st11{fill:#B5D2A3;}
	.st12{fill:#B6D3A1;}
	.st13{fill:#B1D3A2;}
	.st14{fill:#93C283;}
	.st15{fill:#4C834D;}
	.st16{fill:#7EB273;}
	.st17{fill:#225C33;}
	.st18{fill:#AACC91;}
	.st19{fill:#B5D5A7;}
	.st20{fill:#B4D39E;}
	.st21{fill:#B4D199;}
	.st22{fill:#79B47B;}
	.st23{fill:#6BA368;}
	.st24{fill:#92C385;}
	.st25{fill:#426E48;}
	.st26{fill:#559553;}
	.st27{fill:#98C48B;}
	.st28{fill:#609B5E;}
	.st29{fill:#A5CC96;}
	.st30{fill:#B1D0A1;}
	.st31{fill:#367C45;}
	.st32{fill:#6D926A;}
	.st33{fill:#AFD19A;}
	.st34{fill:#569657;}
	.st35{fill:#51914E;}
	.st36{fill:#B8D4A9;}
	.st37{fill:#508E53;}
	.st38{fill:#80B97E;}
	.st39{fill:#2C4933;}
	.st40{fill:#629061;}
	.st41{fill:#648A65;}
	.st42{fill:#2E703E;}
	.st43{fill:#42814A;}
	.st44{fill:#ADCE9E;}
	.st45{fill:#66A664;}
	.st46{fill:#24392F;}
	.st47{fill:#719F70;}
	.st48{fill:#B0CE9C;}
	.st49{fill:#34623E;}
	.st50{fill:#3F5745;}
	.st51{fill:#587F5A;}
	.st52{fill:#6FA672;}
	.st53{fill:#306138;}
	.st54{fill:#23462F;}
	.st55{fill:#A4C594;}
	.st56{fill:#38573F;}
	.st57{fill:#ABC79A;}
	.st58{fill:#456049;}
	.st59{fill:#9BBE86;}
	.st60{fill:#406B48;}
	.st61{fill:#2D6E3F;}
	.st62{fill:#496F4D;}
	.st63{fill:#376440;}
	.st64{fill:#556958;}
	.st65{fill:#49694D;}
	.st66{fill:#1D2222;}
	.st67{fill:#465A48;}
	.st68{fill:#AFD0A1;}
	.st69{fill:#648E5F;}
	.st70{fill:#9BBE87;}
	.st71{fill:#75AC6D;}
	.st72{fill:#5E7E5E;}
	.st73{fill:#3F7748;}
	.st74{fill:#79AA6F;}
	.st75{fill:#496B50;}
	.st76{fill:#4F764F;}
	.st77{fill:#346D3E;}
	.st78{fill:#4B604E;}
	.st79{fill:#48534B;}
	.st80{fill:#46684A;}
	.st81{fill:#559354;}
	.st82{fill:#405B43;}
	.st83{fill:#699269;}
	.st84{fill:#4B614B;}
	.st85{fill:#5A6958;}
	.st86{fill:#4C6550;}
	.st87{fill:#3D4A43;}
	.st88{fill:#67A466;}
	.st89{fill:#9BAA96;}
	.st90{fill:#5D755D;}
	.st91{fill:#354C3B;}
	.st92{fill:#51654F;}
	.st93{fill:#182D24;}
	.st94{fill:#45654A;}
	.st95{fill:#BBD8A7;}
	.st96{fill:#9BC686;}
	.st97{fill:#3C8247;}
	.st98{fill:#183F25;}
	.st99{fill:#348046;}
	.st100{fill:#22703D;}
	.st101{fill:#3A8248;}
	.st102{fill:#8DA589;}
	.st103{fill:#4E9352;}
	.st104{fill:#5EA260;}
	.st105{fill:#599A5C;}
	.st106{fill:#3F884B;}
	.st107{fill:#307F45;}
	.st108{fill:#488D4D;}
</style>
<g>
	<path class="st0" d="M16.6,3.5c-0.7-0.1-1.5-0.2-2.2-0.4c-0.1,0-0.1,0-0.2,0c-0.3,0-0.6,0-0.9,0.3c-0.1,0.1-0.2,0.2,0,0.4
		c0,0,0.1,0,0.1,0c0,0-0.1,0-0.1,0c0,0-0.1,0-0.1,0.1c-0.2,0.3,0,0.3,0.2,0.3c-0.1,0.1-0.4,0-0.3,0.3c0,0,0.1,0,0.1,0
		c0,0,0.1,0,0.1,0c0,0,0,0,0.1,0c0,0,0.1,0,0.1,0c0,0,0,0,0.1,0c0.1,0,0.1,0,0.2,0c0,0,0.1,0,0.1-0.1c0.6-0.1,1.1-0.5,1.8-0.4
		C16,4,16.4,4,16.6,3.5C16.6,3.6,16.6,3.5,16.6,3.5z"/>
	<path class="st1" d="M6.5,3.6c0.4-0.4,0.7-0.8,1-1.3C7.6,2,7.9,1.8,8.2,1.6c0.1-0.1,0.3-0.1,0.4-0.2c-0.1-0.1-0.2-0.1-0.3,0
		C7.7,1.6,7.1,1.7,6.6,2C6.5,2.2,6.2,2.3,6,2.4C5.8,2.5,5.5,2.6,5.6,3C5.9,3.3,6.3,3.4,6.5,3.6z"/>
	<path class="st2" d="M13.3,3.9C13.3,3.9,13.3,3.8,13.3,3.9c0.1-0.1,0.1-0.1,0.1-0.1c-0.2-0.2-0.2-0.2,0-0.3
		c0.1-0.1,0.3-0.1,0.4-0.2c0,0,0.1,0,0.2,0c0.1,0,0.2,0,0.3-0.1C13.9,3,13.5,3,13.1,3c-0.1,0-0.1,0-0.2,0.1
		c-0.2,0.1-0.4,0.3-0.3,0.6c0,0.3-0.2,0.5-0.5,0.3c0.3,0,0.4-0.2,0.3-0.4c-0.1-0.1-0.1-0.3-0.2-0.5c-0.2,0-0.5,0-0.7,0.1
		c-0.2,0.5-0.1,0.9-0.2,1.4c0,0,0.1,0,0.1,0c0.2-0.1,0.4-0.1,0.6,0c0.3,0.1,0.5,0,0.8,0c0.2-0.1,0-0.3,0.1-0.4
		C13,4.1,13.1,3.9,13.3,3.9z"/>
	<path class="st3" d="M10.2,6.5c0.5,0,1-0.2,1.5-0.3c0.1,0,0.2-0.1,0.4-0.2c0.3-0.2,0.7-0.3,1.1-0.3c0.1,0,0.3,0.1,0.4-0.2
		c-0.1-0.2-0.3-0.1-0.4-0.2c-0.2,0-0.4,0-0.5,0c-0.3,0.1-0.5,0.1-0.9,0c-0.3-0.1-0.7,0-1-0.1c-0.2,0-0.4,0.2-0.5,0.4
		C10.3,5.9,10.3,6.2,10.2,6.5z"/>
	<path class="st4" d="M8.3,8.8c0.1,0,0.2,0,0.3-0.1C8.7,8.4,9,8.4,9.2,8.3C9.4,8,9.6,7.8,9.6,7.3c0.3,0.3,0.5,0.6,0.8,0.4
		c0.1-0.1,0.2-0.1,0.4-0.2c0.1,0,0.3-0.1,0.2-0.3c0-0.2-0.2-0.2-0.4-0.2c-0.3,0.1-0.7,0-1-0.1C9.5,7,9.4,7,9.2,7
		C9.1,7.2,8.9,7.5,8.5,7.3C8.4,7.2,8.1,7.4,8.3,7.6C8.5,7.9,8.2,7.9,8.1,8C8,8.1,8,8.1,7.9,8.2C7.7,8.4,7.7,8.5,8,8.6
		C8.1,8.7,8.2,8.7,8.3,8.8z"/>
	<path class="st5" d="M5.8,7C5.7,7,5.5,7.1,5.4,7.2C5.5,7.5,5.9,7.3,6,7.6C5.8,7.7,5.6,7.9,5.6,8.2c0,0.1,0,0.3,0.2,0.4
		c0.2,0,0.3,0,0.4-0.2c0,0-0.1-0.1,0-0.1c0,0,0,0.1,0.1,0.1c0,0,0.2,0,0.1,0.1C6.2,8.7,6,8.7,5.8,8.6C5.6,8.6,5.5,8.6,5.5,8.7
		C5.6,9.3,5.6,9.3,6,9.1C6.2,9,6.4,8.9,6.5,8.7c0.1-0.1,0.2-0.2,0.3-0.3c0,0,0.1-0.1,0.1-0.2c0,0,0-0.1,0-0.1C7,7.9,6.8,7.6,6.7,7.3
		c0,0,0-0.1,0.1-0.1c0-0.1,0-0.1-0.1-0.1c-0.1,0-0.2,0-0.1-0.1C6.5,6.9,6.3,7,6.2,6.9c0,0-0.1,0-0.1,0C6,7,5.9,7.1,5.8,7z"/>
	<path class="st6" d="M10.6,4.6c0.1,0,0.2,0,0.4,0c0.6-0.3,0.6-0.8,0.1-1.3c-0.1,0-0.2,0-0.3,0.1c0,0.2,0,0.4-0.2,0.5
		c0.1-0.3-0.1-0.4-0.2-0.4c-0.2,0-0.3,0.1-0.4,0.1C9.9,3.7,9.8,3.8,9.7,3.9C9.5,4.2,9.5,4.3,9.9,4.5C10.1,4.6,10.4,4.5,10.6,4.6z"/>
	<path class="st7" d="M5,6.4C4.7,6.6,4.5,6.7,4.3,6.9C4.2,6.9,4.2,7,4.2,7.1c0,0.1,0.1,0.1,0.2,0.1C4.6,7,4.8,6.9,5,6.8
		c0.1,0,0.1-0.1,0.2-0.1l0,0c0.2-0.1,0.3-0.3,0.5-0.4c0.2-0.1,0.4,0,0.6,0c0,0,0.1-0.1,0.1,0c0.2,0.1,0.5,0.1,0.7,0.1
		c0.3-0.1,0.1-0.2,0-0.3C6.9,5.9,7,5.8,7.2,5.7c0,0,0.1-0.1,0.1-0.1c0-0.1,0.1-0.3-0.1-0.4c0,0-0.1,0-0.1,0c-0.4,0.4-1,0.3-1.4,0.6
		C5.5,5.9,5.4,6.1,5.3,6.3c0,0-0.1,0.1-0.1,0.1C5.1,6.4,5.1,6.5,5,6.4z"/>
	<path class="st8" d="M10.3,5c-0.1,0-0.2,0-0.3,0c-0.3,0.3-0.6,0.5-1,0.7C8.8,5.8,8.7,5.9,8.9,6.1C9,6.2,9,6.4,9.2,6.5
		c0.3,0,0.6,0,0.8,0c0.3-0.2,0.2-0.5,0.2-0.8C10.2,5.4,10.2,5.2,10.3,5C10.3,5,10.3,5,10.3,5z"/>
	<path class="st9" d="M9.2,6.5c0-0.1,0-0.2,0-0.3C9.1,6.1,9.1,6.1,9,6C8.9,6,8.8,5.9,8.9,5.8C9,5.7,9,5.7,9.1,5.7
		c0.1,0,0.2,0,0.2-0.1c0-0.1,0.1-0.1,0.2-0.1c0.2,0,0.3-0.2,0.4-0.3C10,5.1,10,5,10,5c-0.4,0-0.8,0-1.1,0C8.8,5.1,8.7,5.1,8.7,5.2
		C8.5,5.4,8.5,5.7,8.6,5.9c0.1,0.2,0.2,0.4,0.2,0.6C8.9,6.6,9,6.5,9.2,6.5z"/>
	<path class="st10" d="M3,8.6C2.8,8.6,2.7,8.7,2.6,8.7c0-0.1,0-0.1,0-0.2c0.1-0.1,0.1-0.1,0.2-0.2c0-0.1,0-0.1-0.1-0.1
		c-0.2,0-0.3,0.2-0.4,0.3C2.2,8.6,2.1,8.7,2.1,8.9C2.1,8.9,2.2,9,2.2,9c0,0,0.1,0,0.1,0c0.1,0,0.2-0.1,0.3,0C2.8,9,2.9,9,3,9
		c0.1-0.1,0.3-0.1,0.4-0.1c0.4-0.1,0.7,0.2,1.1,0C4.4,8.6,4.1,8.4,3.9,8.2c0,0-0.1,0-0.1-0.1C3.4,8.1,3.3,8.5,3,8.6z"/>
	<path class="st11" d="M9.7,7c0.2,0.2,0.5,0.2,0.7,0.3c0.1,0,0.2,0,0.2-0.1c0.1-0.1,0.2,0,0.2,0c0.1,0,0.1,0.1,0.1,0.1
		c0,0.1,0,0.1-0.1,0.1c-0.2,0-0.3,0.1-0.4,0.3c0,0,0,0.1,0,0.1c0,0,0.1,0,0.1,0c0.2-0.1,0.5-0.2,0.7-0.2c0.1-0.2,0.3-0.2,0.4-0.2
		c0.1,0,0.2-0.1,0.1-0.2l0,0c0,0,0,0-0.1,0c0,0,0,0,0,0C11.4,7,11,7,10.7,7C10.4,7,10,7,9.7,7C9.7,7,9.7,7,9.7,7C9.7,7,9.7,7,9.7,7z
		"/>
	<path class="st12" d="M10.5,7.8C10.4,7.8,10.4,7.7,10.5,7.8c-0.1-0.1-0.2-0.1-0.2-0.1c-0.2,0-0.3-0.1-0.3-0.3
		c0-0.1-0.1-0.2-0.3-0.2c0,0-0.1,0.1-0.1,0.1c0,0.2-0.2,0.3-0.1,0.5C9.5,8,9.4,8,9.3,8c0,0-0.1,0-0.1,0C9.1,8,9.1,8,9.1,8.1
		c0,0.2,0,0.2-0.1,0.3c-0.1,0-0.1,0-0.2,0c-0.2,0-0.2,0-0.1,0.3C9,8.5,9.4,8.3,9.8,8.1C10,8,10.2,7.9,10.5,7.8
		C10.4,7.8,10.5,7.8,10.5,7.8z"/>
	<path class="st13" d="M15.7,4c-0.2,0-0.4-0.2-0.6-0.1c-0.1,0-0.2,0-0.2,0.2c0,0.1-0.1,0.1-0.1,0.1c-0.2,0-0.4,0.1-0.6,0.1
		c-0.2,0-0.3,0.1-0.4,0.3c0.1,0.2,0.2,0.1,0.3,0.1c0.2,0,0.3-0.1,0.5,0c0.2,0,0.4-0.1,0.5-0.2c0.1-0.1,0.3-0.2,0.4-0.3
		c0,0,0.1,0,0.1,0C15.7,4.1,15.7,4.1,15.7,4C15.7,4,15.7,4,15.7,4z"/>
	<path class="st14" d="M5.7,8.2c0,0-0.1-0.1-0.1-0.1C5.8,8,5.9,7.8,6,7.7c0,0,0.1,0,0.1,0c0.1,0,0.1,0,0.2,0c0,0,0-0.1-0.1-0.1
		c0,0-0.1-0.1-0.1-0.1C6,7.3,5.9,7.3,5.7,7.3c-0.1,0-0.3,0-0.4-0.1l0,0c-0.1,0-0.1,0.1-0.2,0.1C5,7.3,4.8,7.3,4.7,7.4
		C5,7.8,5.2,8.1,5.7,8.2C5.7,8.3,5.7,8.2,5.7,8.2z"/>
	<path class="st15" d="M2.2,8.9c0-0.2,0.1-0.2,0.2-0.4c0,0,0,0,0,0c0,0,0,0,0,0C2.1,8.6,2,8.7,1.9,8.8c-0.1-0.1,0-0.2,0-0.3
		C2.1,8,2.1,7.5,2.2,7c0,0,0-0.1,0-0.1l0,0c0,0,0-0.1,0-0.1c0,0,0-0.1,0-0.1l0,0c0,0,0-0.1,0-0.1l0,0c0,0,0-0.1,0-0.2
		c0-0.1,0-0.1-0.1-0.2c0,0-0.1,0-0.1,0c0,0-0.1,0.1-0.1,0.1l0,0c0,0,0,0.1,0,0.1c0,0.1,0,0.1,0,0.2C2,7,2,7.2,1.9,7.4
		c0,0-0.1,0.1,0,0.2c0,0.1,0,0.2-0.1,0.2C1.7,8.2,1.6,8.6,1.5,8.9c0.1,0,0,0.1,0.1,0.2C1.9,9.1,2.1,9.1,2.2,8.9z"/>
	<path class="st16" d="M5.7,8.3c-0.1,0-0.1-0.1-0.2-0.1c0,0-0.1-0.1-0.1-0.1c0.2-0.3-0.1-0.2-0.2-0.3C5,7.7,4.9,7.5,4.7,7.4
		c0,0-0.1,0-0.1,0C4.5,7.7,4.7,7.9,4.7,8.1c0,0.1,0.1,0.2,0.1,0.3C5,8.6,5,8.8,4.8,8.9C4.7,9,4.6,9.1,4.6,9.3c0.1,0,0.2,0.1,0.3,0
		c0.1-0.1,0.1-0.2,0.2-0.3C5.2,8.8,5.6,8.6,5.7,8.3z"/>
	<path class="st17" d="M3.8,4.4c0,0.1-0.1,0.1-0.1,0.2C3.8,4.8,4,4.7,4.1,4.7c0.1,0,0.1-0.2,0.2,0C4.6,4.8,4.8,4.8,5,4.6
		c0-0.1,0.1-0.2,0.1-0.2c0-0.2,0-0.4-0.2-0.5C4.7,3.8,4.4,3.7,4.3,4C4.2,4,4.1,4.1,4,4.1C4,4.2,3.9,4.3,3.8,4.4z"/>
	<path class="st18" d="M6.6,9.4c0.3,0,0.5,0,0.8-0.1c0.2,0,0.3-0.1,0.4-0.2c0.1-0.2-0.1-0.2-0.2-0.2C7.4,8.9,7.2,9,7,9.1
		C7,9.1,7,9,7,9c0.1,0.1,0.3-0.3,0.4-0.6C7,8.3,6.8,8.6,6.5,8.7c0,0,0,0-0.1,0.1C6.3,8.9,6.1,8.9,6.2,9.2C6.2,9.3,6.4,9.3,6.6,9.4z"
		/>
	<path class="st19" d="M10.4,5.7c0-0.1,0-0.1,0.1-0.2c0,0,0.1,0,0.2-0.1c0.1-0.1,0.3-0.1,0.5,0c0.1,0,0.2,0.1,0.3,0
		c0.2-0.1,0.4-0.1,0.6,0c0.2,0.1,0.4,0.1,0.6,0c0.1-0.1,0.1-0.1,0.2-0.1c0,0-0.1,0-0.1,0c-0.6,0-1.1-0.1-1.6-0.2c-0.1,0-0.2,0-0.3,0
		c-0.1,0.1-0.2,0.2-0.3,0.3C10.2,5.4,10.2,5.6,10.4,5.7z"/>
	<path class="st20" d="M7.4,8.5C7.2,8.7,7.1,8.8,7,9c0,0,0,0.1,0,0.1c0,0,0.1,0.1,0.1,0.1c0.2,0,0.4-0.1,0.6-0.2
		c0.1-0.1,0.1,0,0.1,0.1C7.9,9.1,8,9,8.1,8.9c0.1,0,0.1-0.1,0.2-0.1c0,0,0,0,0.1,0c0-0.1,0-0.2-0.1-0.2C8.1,8.5,8,8.5,7.9,8.5
		C7.8,8.3,8,8.3,8,8.3c0,0,0-0.1-0.1-0.1C7.9,8.1,7.8,8.1,7.7,8.1C7.5,8.1,7.5,8.2,7.5,8.4C7.5,8.6,7.4,8.4,7.4,8.5z"/>
	<path class="st21" d="M6.6,9.4C6.5,9.2,6.2,9.2,6.2,9.1c0-0.1,0.2-0.2,0.3-0.3c0,0,0,0,0,0c0-0.1-0.1-0.1-0.1-0.1
		C6.3,8.8,6.2,9,5.9,8.9c0,0-0.1,0-0.1,0.1c0,0,0,0.2-0.1,0.1c0,0-0.1-0.1-0.1-0.2c0-0.1,0-0.2-0.1-0.2c0,0,0,0-0.1,0
		C5.4,8.8,5.4,9,5.2,8.9c0,0-0.1,0-0.1,0.1C5.1,9.1,5,9.2,5.1,9.4c0.2,0.1,0.4,0,0.7,0.1C6.1,9.4,6.3,9.4,6.6,9.4z"/>
	<path class="st22" d="M7.2,5.2c0,0.1,0,0.1,0,0.2c0,0.1,0,0.2,0.1,0.2c0,0.1,0.1,0.1,0.1,0.2c0.1,0,0.2,0,0.2,0c0.1,0,0.1,0,0.2,0
		c0.1,0,0.2,0.1,0.3,0.1c0,0,0.1,0,0.1,0c0.4-0.1,0.4-0.2,0.2-0.4C8.2,5.3,8.1,5.1,7.9,5c-0.1,0-0.1,0-0.2,0c-0.1,0-0.1,0.2-0.2,0.1
		c-0.1,0-0.1,0-0.2,0c-0.1,0-0.1,0-0.2,0C7.1,5.1,7.1,5.2,7.2,5.2z"/>
	<path class="st23" d="M10,4.4c0,0-0.1,0-0.1,0C9.6,4.3,9.6,4.2,9.8,4C9.8,3.9,10,3.8,9.9,3.6c-0.2,0-0.3,0.1-0.5,0.2
		C9.1,4,8.7,4.2,8.4,4.4c0.1,0.2,0.3,0.1,0.5,0.1c0.2,0,0.4-0.1,0.6-0.1c0.2,0,0.3,0.1,0.5,0.1C10.1,4.5,10,4.5,10,4.4z"/>
	<path class="st24" d="M12.2,3.1c0,0.1,0,0.2-0.1,0.2c0,0.1,0,0.1,0.1,0.2c0.1,0,0.1,0.1,0.2,0.2c0,0.1,0,0.2-0.1,0.2
		c-0.1,0-0.1,0-0.1-0.1c-0.1-0.1-0.1-0.2-0.2-0.1C11.9,3.8,12,4,12,4.1c0,0.1,0.1,0.1,0.1,0.1c0.1,0.1,0.2,0.1,0.3-0.1
		c0-0.1,0.1-0.2,0.2-0.3c0.1,0,0.1-0.1,0.1-0.2c0-0.2,0.1-0.4,0.2-0.6c-0.1-0.2-0.4,0.1-0.5-0.1c0,0-0.1,0-0.1,0
		C12.3,3.1,12.2,3.1,12.2,3.1L12.2,3.1z"/>
	<path class="st25" d="M2.7,8.4C2.7,8.4,2.6,8.5,2.5,8.6c0,0,0,0.1,0,0.1c0,0,0,0,0,0c0.1-0.1,0.2-0.1,0.2-0.2
		c0.5-0.6,1.1-1,1.8-1.4C4.7,7,4.9,7,5,6.8C5,6.8,5,6.8,5,6.7C4.8,6.8,4.7,6.9,4.5,7C4.5,7,4.4,7.1,4.4,7.1c0,0-0.1,0-0.1,0
		c0-0.1,0-0.1,0.1-0.2C4.1,7,3.9,7.2,3.7,7.3C3.5,7.4,3.4,7.5,3.3,7.5c0.1,0.2-0.1,0.2-0.2,0.2C3,7.9,2.9,8.2,2.7,8.4z"/>
	<path class="st26" d="M7.6,5.6c-0.1,0-0.1,0-0.2,0.1c0,0,0,0.1,0,0.1c0,0,0,0,0,0.1c0,0.1,0,0.1,0,0.2c0,0,0.1,0.1,0.1,0.1
		c0.1,0.1,0.1,0.1,0.2,0.2c0,0,0.1,0,0.1,0.1c0.1,0,0.2,0,0.3,0c0.1,0,0.1,0,0.2,0c0.1,0,0.3,0.1,0.4,0c0.1-0.2,0.1-0.3-0.1-0.4
		C8.7,6,8.7,5.9,8.6,5.9C8.4,5.7,8.4,6.1,8.2,6C8.1,6,8,6,8,5.9c0,0-0.1,0-0.2-0.1C7.7,5.8,7.7,5.7,7.6,5.6z"/>
	<path class="st27" d="M6.5,3.6c0-0.1-0.1-0.2-0.1-0.2c0,0-0.1-0.1-0.1-0.1C6.1,3.3,5.9,3,5.7,3C5.4,3,5.1,3,4.9,3.1
		C4.7,3.3,4.5,3.4,4.4,3.7c0,0,0,0,0,0.1c0,0,0,0,0.1,0C4.8,3.6,5,3.4,5.4,3.4c0.4,0,0.7,0.1,0.9,0.5c0,0,0,0.1,0.1,0.1
		C6.4,3.8,6.5,3.7,6.5,3.6z"/>
	<path class="st28" d="M9.5,4.5c0-0.1,0-0.2-0.1-0.1C9.1,4.4,8.9,4.4,8.7,4.5c-0.1,0-0.1,0-0.2,0C8.2,4.5,8,4.7,7.7,4.9
		c0,0-0.1,0,0,0.1c0,0,0.1,0,0.1,0C8,5,8.1,5.1,8.2,5.2c0.1,0.2,0.3,0.3,0.5,0c0-0.2-0.1-0.2-0.2-0.2c0,0-0.1-0.1,0-0.1
		c0.2-0.2,0.4-0.2,0.6-0.3c0,0,0.1,0,0.1,0l0,0c0,0,0.1,0,0.1,0c0,0,0.1,0,0.1,0C9.4,4.5,9.4,4.5,9.5,4.5L9.5,4.5z"/>
	<path class="st29" d="M10.4,5.7c-0.1-0.2-0.1-0.2,0-0.3c0.2-0.1,0.3-0.1,0.2-0.3c0,0,0,0-0.1,0c0,0-0.1,0-0.1,0l0,0
		c0,0-0.1,0-0.1,0c-0.2,0.1-0.3,0.3-0.2,0.5c0,0.2,0,0.7-0.1,1c0.1,0,0.2,0,0.3,0c0,0,0.1-0.1,0.1-0.1c0.1-0.1,0.2-0.3,0-0.5
		C10.3,5.8,10.4,5.7,10.4,5.7z"/>
	<path class="st13" d="M13.3,3.9c-0.1,0-0.1-0.1-0.2-0.1c-0.1,0-0.1,0-0.1,0.1c0,0.1,0,0.1-0.1,0.2c-0.2,0-0.1,0.2-0.1,0.3
		c0,0.1,0,0.2,0,0.3c0.2,0,0.3,0,0.5,0c0-0.1,0.1-0.1,0-0.2c0,0-0.1,0-0.1-0.1c0,0,0-0.1,0.1-0.1c0.1,0,0.3-0.1,0.4-0.1
		c0,0,0.1,0,0-0.1c0,0,0-0.1,0-0.1c-0.1,0-0.1-0.1-0.2,0c-0.1,0-0.1,0.1-0.2,0.1c0,0-0.1,0-0.1,0c0,0,0-0.1,0-0.1
		C13.3,4,13.3,3.9,13.3,3.9z"/>
	<path class="st30" d="M4.9,3.1c0.3,0,0.6,0,0.8-0.2c0,0,0-0.1-0.1-0.1c0,0,0,0,0,0c0.2,0,0.2-0.3,0.3-0.3c0.1-0.1,0.3-0.1,0.4-0.1
		C6.5,2.3,6.6,2.2,6.6,2C6,2.3,5.5,2.6,5,3C4.9,3,4.9,3.1,4.9,3.1z"/>
	<path class="st31" d="M7.6,6.1c0,0-0.1-0.1-0.1-0.1c0,0,0-0.1,0-0.1l0,0C7.4,5.7,7.3,5.7,7.2,5.6c0,0-0.1,0-0.1-0.1
		c-0.1,0-0.1,0-0.1,0.1c0,0.1,0,0.1-0.1,0.2c0,0,0,0.1,0,0.1C7,6,7,6.1,7.1,6.1c0.1,0,0.1,0.1,0,0.2c0,0,0,0.1,0,0.1
		c0,0,0.1,0,0.1,0c0.2,0,0.3,0.1,0.5,0c0.1,0,0.1,0,0.1-0.1l0,0C7.7,6.3,7.6,6.2,7.6,6.1z"/>
	<path class="st32" d="M7.6,3.8c0,0-0.1,0.1-0.1,0.1C7.1,4.3,6.8,4.7,6.6,5.2C6.8,5.3,6.9,5.1,7,5c0.2-0.3,0.5-0.6,0.7-0.8
		c0-0.1,0.1-0.1,0.1-0.2C7.8,3.8,7.7,3.8,7.6,3.8z"/>
	<path class="st33" d="M8.1,6.7c-0.2,0-0.5-0.1-0.7,0C7.3,6.8,7.1,6.8,7.2,7c0.2,0.1,0.4,0.1,0.6,0.3C7.8,7.4,8,7.5,8.1,7.4
		c0.2-0.1,0.1-0.2,0.1-0.3C8.2,7,8.2,7,8.3,6.9C8.2,6.8,8.2,6.8,8.1,6.7z"/>
	<path class="st34" d="M8.8,2.5c-0.1,0-0.1,0-0.1,0C8.4,2.6,8.2,2.6,8.3,3C8.4,3,8.4,3.2,8.5,3.2c0.2,0.1-0.1,0.3,0.1,0.4
		c0.1-0.1,0.2-0.1,0.3-0.2C8.9,3.3,9,3.3,9,3.2C9,3.1,8.9,3,9,2.9c0,0,0-0.1,0-0.1c0-0.1,0-0.1,0-0.2C8.9,2.6,8.9,2.5,8.8,2.5z"/>
	<path class="st35" d="M2.2,8.9C2,9,1.8,9.1,1.6,9C1.4,9,1.5,9.3,1.3,9.4C1.2,9.5,1.1,9.6,1.1,9.8c0.1,0.1,0.2,0.1,0.3,0.1
		c0.3-0.1,0.4-0.4,0.6-0.6c0.1-0.1,0.2-0.2,0.3-0.2c0,0,0,0,0.1,0c0,0,0.1-0.1,0-0.1C2.3,8.9,2.2,8.9,2.2,8.9z"/>
	<path class="st36" d="M16.9,3.9c0.3,0,0.6,0,0.9,0c0.1,0,0.1,0,0.2-0.1c0-0.1-0.1-0.1-0.1-0.1c-0.4-0.1-0.8-0.2-1.3-0.2l0,0
		C16.7,3.7,16.7,3.9,16.9,3.9z"/>
	<path class="st37" d="M10.3,1.8c-0.1,0-0.2,0.1-0.2,0.3c0,0,0,0.1,0.1,0.1c0.1,0.1,0.2,0.2,0.2,0.4c0,0,0.1,0.1,0.1,0.1l0,0
		C11,2.3,11,2.2,10.8,1.8c-0.1-0.1-0.2-0.1-0.3-0.1C10.4,1.8,10.4,1.8,10.3,1.8z"/>
	<path class="st38" d="M11.1,3.3c0.1,0.2,0.1,0.5,0.3,0.6c0,0,0,0.1,0,0.1c-0.1,0.1,0,0.4-0.3,0.4C11,4.4,11,4.6,11,4.6
		c0.1,0,0.2,0,0.3,0c0-0.1,0.1-0.3,0.1-0.4c0.1-0.2,0.1-0.3,0-0.5c0-0.1,0-0.2,0-0.3c0-0.1,0.1-0.2,0-0.3
		C11.4,3.2,11.2,3.2,11.1,3.3z"/>
	<path class="st39" d="M3,8.6c0.2,0,0.4-0.1,0.5-0.2c0.1-0.1,0.2-0.1,0.3-0.1c0.1,0,0.1,0,0.2,0c0.1,0,0.2,0,0.2-0.1
		c0.1-0.2,0.4-0.3,0.3-0.5C3.9,7.8,3.4,8.1,3,8.6z"/>
	<path class="st40" d="M7.2,5.1c0,0,0.1,0,0.1,0c0.2-0.3,0.5-0.6,0.8-0.9c0.1-0.1,0.2-0.2,0.3-0.4C8.1,3.7,8,3.9,7.9,4.1
		C7.7,4.2,7.8,3.9,7.7,4c0,0-0.1,0.1-0.1,0.1C7.5,4.3,7.4,4.5,7.3,4.7C7.2,4.8,7.1,4.9,7.2,5.1z"/>
	<path class="st41" d="M2.3,6.1c0-0.3,0-0.7,0.1-1c0,0,0-0.1-0.1-0.1c0,0-0.1,0-0.1,0.1c0,0-0.1,0.1-0.1,0.1C2.1,5.6,2,5.9,2,6.3
		c0,0,0.1,0,0.1,0l0,0C2.3,6.2,2.2,6.1,2.3,6.1z"/>
	<path class="st42" d="M4.4,7.5c0,0.1,0,0.1-0.1,0.2C4.2,7.8,4.2,7.9,4.1,8.1C4,8.2,4.1,8.2,4.2,8.2c0.1,0,0.1,0.1,0.2,0.1
		C4.6,8.2,4.7,8.1,4.8,8c0-0.1,0-0.2-0.1-0.3C4.7,7.7,4.7,7.5,4.6,7.4C4.6,7.5,4.5,7.4,4.4,7.5z"/>
	<path class="st43" d="M2.7,8.4c0.1,0,0.2-0.1,0.3-0.2C3.1,8,3.2,7.9,3.4,7.8c0.1-0.1,0.1-0.1,0-0.2c0-0.1,0-0.2,0-0.3
		C3.3,7.2,3.4,7,3.2,7.1c0,0.1-0.1,0.1-0.1,0.2c0,0.4-0.3,0.6-0.4,0.9C2.7,8.3,2.7,8.3,2.7,8.4z"/>
	<path class="st44" d="M16.9,3.9c-0.1-0.1-0.2-0.2-0.3-0.4c0,0.1-0.1,0.2-0.2,0.2c-0.1,0-0.2,0-0.3,0.2c0,0.1-0.1,0.1-0.1,0.1
		c-0.1,0-0.3,0-0.4,0.1c0,0,0.1,0,0.1,0.1c0.2,0,0.4,0,0.6,0C16.5,4,16.7,3.9,16.9,3.9z"/>
	<path class="st45" d="M10.4,3.5c0,0,0,0.1,0.1,0.1c0.1,0,0.2,0,0.1,0.1c0,0-0.1,0.1-0.1,0.1c-0.1,0.1-0.1,0.2,0,0.2
		c0.1,0,0.2,0,0.3-0.1c0.1-0.1,0.1-0.2,0.1-0.2C11,3.6,11,3.6,10.8,3.4C10.6,3.4,10.5,3.4,10.4,3.5z"/>
	<path class="st46" d="M4,6.5c0.3-0.3,0.7-0.6,1-0.9c0.1-0.1,0.2-0.2,0.2-0.3c0-0.1-0.1-0.1-0.2,0c0,0-0.1,0-0.1,0.1
		c0,0-0.1,0-0.1,0.1c0,0-0.1,0-0.1,0.1c0,0-0.1,0-0.1,0c-0.1,0-0.1,0.1-0.2,0.1C4.4,5.6,4.4,5.7,4.3,5.8c0,0-0.1,0.1-0.1,0.1
		C4.1,6,4,6.1,3.9,6.3C3.9,6.3,3.9,6.4,4,6.5z"/>
	<path class="st47" d="M8.5,3.2c0,0,0-0.1,0-0.1C8.5,3,8.4,3,8.3,3C8.3,3,8.2,3,8.2,3.1c0,0.1-0.1,0.2-0.2,0.3
		C7.8,3.5,7.7,3.6,7.6,3.8c0,0,0.1,0.1,0.1,0.1c0.1,0,0.2-0.1,0.3-0.1c0,0,0.1,0,0.1-0.1c0,0,0.1-0.1,0.1-0.1
		C8.3,3.5,8.4,3.4,8.5,3.2C8.5,3.2,8.5,3.2,8.5,3.2z"/>
	<path class="st48" d="M9.3,7.1c0.1,0,0.3,0,0.4,0l0,0c0,0,0-0.1,0-0.1c0,0,0,0,0,0C9.2,6.9,8.9,6.8,8.5,6.8C8.4,6.8,8.4,6.9,8.4,7
		C8.7,7.4,9,7.3,9.3,7.1z"/>
	<path class="st49" d="M5.7,5.9C6,5.7,6.3,5.6,6.6,5.6c0.1,0,0.1,0,0.2-0.1C6.9,5.4,7,5.3,7.1,5.2C7.1,5.1,7,5.2,6.9,5.2
		c-0.1,0-0.2,0.1-0.3,0.1C6.5,5.4,6.4,5.4,6.2,5.5C6.1,5.5,5.9,5.6,5.8,5.7C5.8,5.7,5.7,5.8,5.7,5.9C5.7,5.8,5.7,5.9,5.7,5.9z"/>
	<path class="st50" d="M2.1,5.2c0.1,0,0.1,0,0.2-0.1c0-0.1,0-0.2,0-0.2C2,4.4,2,4.4,2.4,4.2c0,0,0-0.1,0-0.1C2.3,4,2.2,4,2,4
		C1.9,4.1,1.8,4.2,1.8,4.4c0,0.2,0,0.3,0.2,0.4C2.1,4.9,2.1,5.1,2.1,5.2z"/>
	<path class="st51" d="M10.4,2.6c0,0,0-0.1-0.1-0.1c-0.1-0.1-0.1-0.2-0.2-0.3c0,0-0.1-0.1-0.1-0.1C10,2.2,10,2.4,9.8,2.5
		c-0.1,0-0.2,0.1-0.3,0.2c0,0.1-0.2,0.2-0.1,0.4c0.2-0.1,0.3-0.2,0.5-0.4c0.1-0.1,0.2-0.1,0.4-0.1C10.3,2.6,10.4,2.6,10.4,2.6z"/>
	<path class="st52" d="M7.8,4c0,0.1,0,0.1,0,0.2C8,4,8.2,3.9,8.4,3.8c0.1,0,0.2-0.1,0.2-0.2c0-0.1,0-0.2,0.1-0.2
		c0-0.1,0.1-0.1,0-0.2c-0.1-0.1-0.2,0-0.2,0l0,0c0,0.1,0,0.1-0.1,0.1C8.4,3.5,8.3,3.5,8.2,3.6c0,0-0.1,0-0.1,0.1
		c0,0.1-0.2,0.1-0.3,0.2C7.8,3.9,7.7,4,7.8,4z"/>
	<path class="st53" d="M4.6,9.3c0.1-0.1,0.2-0.2,0.2-0.4c0-0.1,0.2-0.2,0.1-0.4C4.9,8.5,4.8,8.4,4.7,8.5C4.5,8.5,4.5,8.6,4.5,8.8
		C4.6,9,4.3,9,4.3,9.1c0,0.1,0.1,0.1,0.1,0.1C4.5,9.3,4.5,9.3,4.6,9.3z"/>
	<path class="st54" d="M4.1,4.7C4,4.6,3.8,4.7,3.7,4.6C3.5,4.8,3.4,5.1,3.3,5.4c0.1,0,0.2,0,0.3-0.1C3.7,5,4.1,5,4.1,4.7z"/>
	<path class="st55" d="M13.3,4.5c0,0.1-0.1,0.1,0,0.2c0.5,0,0.9,0,1.3-0.1c0,0,0-0.1-0.1-0.1c-0.2,0-0.3,0-0.5,0
		c-0.1,0-0.2,0-0.3-0.1l0,0c-0.1,0-0.1-0.1-0.2,0l0,0c0,0-0.1,0-0.1,0l0,0C13.4,4.5,13.4,4.5,13.3,4.5L13.3,4.5z"/>
	<path class="st56" d="M4.4,9.2C4.3,9.2,4.3,9.2,4.4,9.2C4,8.8,3.7,8.8,3.3,8.8c-0.1,0-0.1,0-0.2,0C3.1,8.9,3,8.9,3,9
		C3.3,9,3.6,9,3.8,9.1C4,9.2,4.2,9.2,4.4,9.2z"/>
	<path class="st57" d="M11.8,7.2c0,0.1,0,0.2-0.1,0.2c-0.1,0-0.2,0-0.3,0.1c-0.1,0-0.1,0.1-0.1,0.2c0.3-0.1,0.6-0.2,0.8-0.2
		c0,0,0.1,0,0.1-0.1c0,0,0-0.1-0.1-0.1C12,7.1,11.9,7.1,11.8,7.2z"/>
	<path class="st58" d="M2.7,8.2c0-0.1,0.1-0.1,0.1-0.2C3,7.8,3.1,7.6,3.1,7.3c0,0,0,0,0,0C3,7.3,3,7.4,3,7.5
		C2.9,7.8,2.7,8.1,2.5,8.2C2.4,8.3,2.3,8.4,2.3,8.5c0,0,0,0,0.1,0C2.4,8.4,2.6,8.3,2.7,8.2z"/>
	<path class="st59" d="M7.1,7c0.1-0.1,0.1-0.1,0.2-0.2c0,0,0.1-0.1,0.1-0.1c-0.3,0-0.5,0.1-0.8,0.1c-0.1,0-0.2,0-0.3,0.1
		c0,0.2,0,0.2,0.2,0.1c0,0,0.1,0,0.2-0.1C6.7,7.1,6.9,7,7.1,7C7.1,7,7.1,7,7.1,7z"/>
	<path class="st60" d="M7.2,6.4C7.2,6.3,7.1,6.3,7.2,6.4C6.9,6.3,6.6,6.2,6.4,6.2l0,0c-0.1,0-0.3,0-0.4,0c-0.1,0-0.1,0-0.2,0.1
		c0,0,0,0.1,0,0.1c0,0,0,0,0,0c0.3,0,0.6,0.1,0.9,0.1C6.8,6.4,7,6.4,7.2,6.4C7.2,6.4,7.2,6.4,7.2,6.4z"/>
	<path class="st61" d="M3.3,7.1c0,0,0,0.1,0,0.1c0,0.1,0,0.1,0.1,0.1C3.4,7.2,3.5,7.1,3.5,7c0-0.2,0.1-0.3,0.1-0.4
		c0-0.1-0.1-0.2-0.2-0.2c-0.1,0-0.1,0-0.1,0.1c0,0.1,0,0.2,0,0.2l0,0c0,0,0,0.1,0,0.2C3.2,6.9,3.1,7,3.3,7.1z"/>
	<path class="st62" d="M9.4,3c0.1-0.1,0.1-0.3,0.1-0.4C9.3,2.7,9.2,2.8,9,2.8c0,0,0,0,0,0.1c0.1,0.2,0.1,0.1,0.3,0
		C9.2,3.1,9,3,9,3.2c0,0.1,0,0.1-0.1,0.2C9.1,3.3,9.3,3.2,9.4,3z"/>
	<path class="st63" d="M5.1,5.2C5.2,5.3,5,5.4,5,5.5c0.1,0,0.2-0.1,0.2-0.2C5.3,5.2,5.4,5.1,5.5,5c0-0.1,0.1-0.2,0.2-0.3
		c0,0,0-0.1,0-0.1c0,0-0.1,0-0.1,0c0,0-0.1,0-0.1,0.1c0,0-0.1,0-0.1,0.1c0,0,0,0,0,0C5.2,4.9,5.2,5,5.1,5.1C5.1,5.1,5.1,5.1,5.1,5.2
		z"/>
	<path class="st64" d="M10.8,1.8c0,0,0,0.1,0,0.1c0.1,0.2,0,0.3-0.1,0.4c-0.1,0.1-0.2,0.1-0.3,0.2c0.2,0,0.3-0.1,0.4-0.1
		C11,2.3,11,2.2,11,2.1C11,2,10.9,1.8,10.8,1.8z"/>
	<path class="st65" d="M2.5,4.1L2.5,4.1L2.5,4.1c-0.1,0.3,0,0.5-0.1,0.7c0,0.1-0.1,0.2,0,0.2c0,0,0,0,0,0.1C2.8,4.7,2.8,4.6,2.5,4.1
		C2.5,4.1,2.5,4.1,2.5,4.1z"/>
	<path class="st1" d="M5.7,4.6c0,0.1-0.2,0.2-0.2,0.3c0.3-0.3,0.6-0.7,0.8-1.1c0,0,0,0-0.1,0c0,0-0.1,0-0.1,0C6,4,5.9,4.1,5.8,4.3
		C5.7,4.3,5.7,4.4,5.7,4.5C5.6,4.5,5.6,4.6,5.7,4.6z"/>
	<path class="st66" d="M3.6,5.3c-0.1,0.1-0.2,0-0.3,0.1C3.3,5.5,3.3,5.6,3.2,5.7c0,0,0,0.1,0,0.1c0,0,0,0.1,0,0.1c0.1,0,0.1,0,0.2,0
		c0,0,0.1-0.1,0.1-0.1c0,0,0.1-0.1,0.1-0.1c0,0,0.1,0,0.1-0.1c0,0,0.1-0.1,0.1-0.1C3.7,5.4,3.7,5.3,3.6,5.3C3.7,5.3,3.7,5.3,3.6,5.3
		C3.7,5.3,3.7,5.3,3.6,5.3z"/>
	<path class="st63" d="M3.5,6.6C3.4,6.7,3.4,6.8,3.5,7C3.6,6.7,3.8,6.6,4,6.5c0,0,0-0.1,0-0.1c0,0,0-0.1-0.1-0.1
		c-0.1,0-0.2,0.1-0.2,0.2C3.6,6.5,3.6,6.5,3.5,6.6C3.6,6.5,3.5,6.6,3.5,6.6z"/>
	<path class="st67" d="M1.9,9.2C1.7,9.5,1.5,9.7,1.3,9.9c0,0-0.1,0,0,0.1c0.2,0,0.3-0.1,0.4-0.2C1.8,9.5,1.9,9.4,1.9,9.2
		C2,9.2,2,9.2,1.9,9.2C1.9,9.2,1.9,9.2,1.9,9.2z"/>
	<path class="st68" d="M12,4.6c0-0.2-0.1-0.1-0.2-0.1c-0.2-0.1-0.3,0-0.4,0.2C11.6,4.7,11.8,4.7,12,4.6z"/>
	<path class="st69" d="M10,4.4c0,0,0,0.1,0,0.1c0.2,0.1,0.4,0.1,0.6,0.1c0-0.1-0.1-0.2-0.2-0.2C10.3,4.4,10.2,4.4,10,4.4z"/>
	<path class="st70" d="M8.4,7c0.1-0.1,0.1-0.1,0-0.2C8.3,6.7,8.2,6.7,8.1,6.7c0,0.1,0.1,0.2,0.2,0.2C8.3,7,8.4,7,8.4,7z"/>
	<path class="st71" d="M4.4,3.7C4.4,3.7,4.4,3.7,4.4,3.7C4.2,3.9,3.9,4.1,3.8,4.4C3.9,4.3,4,4.2,4.1,4.1C4.3,4,4.4,3.9,4.4,3.7z"/>
	<path class="st72" d="M8.2,3.1c0.1,0,0.1,0,0.2-0.1c0-0.1,0-0.3,0.1-0.3c0.1,0,0.1-0.1,0.2-0.1C8.2,2.6,8.2,2.6,8.2,3.1z"/>
	<path class="st73" d="M8.3,5c0.1,0.1,0.3,0.1,0.4,0.2c0,0,0,0,0,0c0,0,0,0,0,0C8.8,5.2,8.9,5.1,8.9,5C8.7,5,8.6,5,8.5,5
		C8.5,5,8.4,4.9,8.3,5z"/>
	<path class="st54" d="M3.3,5.8c0,0-0.1,0-0.1,0c-0.1,0.1,0,0.3,0,0.4c0,0,0,0.1,0,0.1l0,0c0,0,0,0.1,0,0.1c0,0,0,0,0,0
		c0,0,0.1-0.1,0.1-0.1c0,0,0,0,0,0c0,0,0-0.1,0-0.1C3.4,6.1,3.5,5.9,3.3,5.8z"/>
	<path class="st74" d="M12.4,3.1c0,0.1,0,0.1,0.1,0.1c0.1,0,0.3,0,0.4,0c0,0,0.1-0.1,0.1-0.1C12.9,3,12.7,3,12.4,3.1z"/>
	<path class="st75" d="M5.8,6.3C5.8,6.3,5.8,6.3,5.8,6.3c-0.3,0-0.5,0.1-0.6,0.4C5.5,6.6,5.6,6.4,5.8,6.3z"/>
	<path class="st76" d="M1.9,7.4C2.1,7.2,2.1,7,2,6.7C1.9,7,1.9,7.2,1.9,7.4z"/>
	<path class="st77" d="M1.3,9.4c0.1,0,0.2,0,0.2-0.1c0-0.1,0.1-0.2,0.1-0.2c0,0,0.1-0.1,0-0.1c0,0-0.1,0-0.1,0.1
		C1.4,9.1,1.3,9.2,1.3,9.4z"/>
	<path class="st78" d="M5.3,6.3c0.1-0.1,0.2-0.3,0.4-0.4c0,0,0,0,0,0c0,0,0-0.1,0-0.1C5.5,5.8,5.3,6,5.3,6.3z"/>
	<path class="st5" d="M5.1,9.4c0-0.1-0.1-0.3,0.1-0.4C5.1,8.9,5.1,8.9,5,9.1C5,9.1,5,9.2,5,9.3C5,9.4,5.1,9.4,5.1,9.4z"/>
	<path class="st79" d="M3.3,7.1c0-0.1,0-0.2,0-0.3c0,0,0,0,0-0.1c0,0,0,0,0,0c0,0.2-0.1,0.3-0.1,0.5c0,0,0,0,0,0
		C3.2,7.2,3.2,7.1,3.3,7.1z"/>
	<path class="st33" d="M5.8,7c0,0,0,0.1,0.1,0.1c0,0.1,0.1,0.1,0.2,0.1c0.1,0,0-0.1,0-0.1c0,0,0-0.1,0-0.1C6,7,5.9,7,5.8,7z"/>
	<path class="st5" d="M5.1,7.3c0,0,0,0.1,0,0.1c0,0,0,0.1,0.1,0.1c0,0,0.1,0,0.1,0c0-0.1,0.1-0.2,0.1-0.2C5.3,7.2,5.2,7.2,5.1,7.3z"
		/>
	<path class="st80" d="M2.3,6.1C2.1,6,2.2,6.2,2.1,6.3c0,0.1,0,0.1,0.1,0.2c0,0,0.1,0,0.1-0.1C2.3,6.3,2.3,6.2,2.3,6.1z"/>
	<path class="st81" d="M7.8,6.3C7.8,6.4,7.7,6.4,7.8,6.3C7.9,6.5,8,6.5,8.1,6.5c0,0,0,0,0-0.1C8,6.3,7.9,6.4,7.8,6.3z"/>
	<path class="st82" d="M1.2,9.9C1.2,9.9,1.2,9.9,1.2,9.9c0-0.1-0.1-0.1-0.2-0.1c0,0,0,0,0,0.1c0,0,0,0.1,0,0.1c0,0,0.1,0,0.1,0
		C1.1,10,1.2,10,1.2,9.9z"/>
	<path class="st15" d="M1.9,9.2C1.9,9.2,1.9,9.3,1.9,9.2c0.1,0,0.2,0,0.3-0.1c0.1,0,0.1-0.1,0.1-0.1C2.1,9,2,9.1,1.9,9.2z"/>
	<path class="st83" d="M7.7,5C7.7,5,7.7,4.9,7.7,5C7.6,4.9,7.6,5,7.5,5.1c0,0,0,0.1,0.1,0C7.6,5.1,7.7,5,7.7,5z"/>
	<path class="st84" d="M2.7,9C2.6,9,2.5,9,2.4,9c0,0-0.1,0-0.1,0.1c0,0,0,0,0,0C2.5,9.1,2.6,9.1,2.7,9z"/>
	<path class="st85" d="M8.8,2.5C8.8,2.5,8.9,2.6,9,2.7C9,2.5,8.9,2.5,8.8,2.5z"/>
	<path class="st86" d="M5,6.7c0,0,0,0.1-0.1,0.1c0.1,0,0.2-0.1,0.3-0.2C5.1,6.6,5.1,6.7,5,6.7z"/>
	<path class="st87" d="M3.3,6.5C3.3,6.5,3.2,6.4,3.3,6.5c-0.1,0-0.1,0.1-0.1,0.2C3.3,6.6,3.3,6.6,3.3,6.5z"/>
	<path class="st88" d="M8.2,6.4C8.2,6.4,8.1,6.5,8.2,6.4c0.1,0.1,0.1,0.1,0.2,0.1C8.3,6.4,8.2,6.4,8.2,6.4z"/>
	<path class="st89" d="M8.3,5c0.1,0,0.1,0,0.2,0c0,0-0.1,0-0.1-0.1C8.3,4.9,8.3,4.9,8.3,5z"/>
	<path class="st90" d="M2.3,6.4C2.3,6.4,2.2,6.4,2.3,6.4c-0.1,0.1-0.1,0.2,0,0.2C2.3,6.5,2.3,6.5,2.3,6.4z"/>
	<path class="st80" d="M2.1,6.3c0,0-0.1,0-0.1,0c0,0,0,0.1,0,0.1C2,6.4,2.1,6.3,2.1,6.3z"/>
	<path class="st91" d="M10.3,1.8c0.1,0.1,0.1,0,0.2-0.1C10.4,1.7,10.4,1.7,10.3,1.8z"/>
	<path class="st92" d="M1.8,7.8c0.1-0.1,0.1-0.1,0.1-0.2C1.8,7.7,1.8,7.7,1.8,7.8z"/>
	<path class="st93" d="M5.7,5.7c0,0,0,0.1,0,0.1C5.8,5.8,5.8,5.8,5.7,5.7C5.7,5.7,5.7,5.7,5.7,5.7z"/>
	<path class="st4" d="M8.3,8.8c-0.1,0-0.1,0-0.2,0.1C8.2,8.9,8.2,8.9,8.3,8.8z"/>
	<path class="st19" d="M10.3,5c0,0,0.1,0,0.1,0C10.4,5,10.3,4.9,10.3,5C10.3,5,10.3,5,10.3,5z"/>
	<path class="st94" d="M5,6.4c0.1,0,0.2,0,0.2-0.1C5.1,6.4,5,6.4,5,6.4z"/>
	<path class="st90" d="M2.3,6.7C2.2,6.7,2.2,6.8,2.3,6.7c-0.1,0.1-0.1,0.1,0,0.1c0,0,0,0,0,0C2.3,6.8,2.3,6.8,2.3,6.7z"/>
	<path class="st80" d="M2,6.5C2.1,6.5,2.1,6.5,2,6.5C2,6.5,2,6.5,2,6.5z"/>
	<path class="st90" d="M2.3,6.6c0,0,0,0.1,0,0.1C2.3,6.7,2.3,6.6,2.3,6.6z"/>
	<path class="st57" d="M11.7,7.1C11.7,7.2,11.7,7.2,11.7,7.1C11.7,7.1,11.7,7.1,11.7,7.1z"/>
	<path class="st4" d="M10.5,7.8C10.4,7.8,10.4,7.8,10.5,7.8C10.4,7.8,10.5,7.8,10.5,7.8C10.5,7.8,10.5,7.8,10.5,7.8z"/>
	<path class="st0" d="M15.6,4.1c0,0-0.1,0-0.1,0C15.6,4.1,15.6,4.1,15.6,4.1z"/>
	<path class="st23" d="M9.5,4.5c-0.1,0-0.1,0-0.1,0C9.4,4.5,9.5,4.5,9.5,4.5z"/>
	<path class="st4" d="M9.6,7C9.6,7,9.6,7,9.6,7c0.1,0,0.1,0,0.1,0C9.7,7,9.6,7,9.6,7z"/>
	<path class="st2" d="M12.2,3.1c0.1,0,0.1,0,0.1,0C12.3,3.1,12.2,3.1,12.2,3.1z"/>
	<path class="st19" d="M10.5,5c0,0,0.1,0,0.1,0C10.5,5,10.5,5,10.5,5z"/>
	<path class="st87" d="M3.2,6.8C3.2,6.8,3.2,6.8,3.2,6.8C3.3,6.8,3.2,6.7,3.2,6.8C3.2,6.7,3.2,6.7,3.2,6.8z"/>
	<path class="st84" d="M2.3,9c0,0-0.1,0.1-0.1,0.1C2.2,9.2,2.3,9.2,2.3,9L2.3,9C2.3,9.1,2.3,9.1,2.3,9C2.3,9,2.3,9,2.3,9L2.3,9z"/>
	<path class="st43" d="M2.6,8.6C2.6,8.6,2.6,8.6,2.6,8.6C2.5,8.6,2.5,8.7,2.6,8.6C2.6,8.7,2.6,8.7,2.6,8.6z"/>
	<path class="st76" d="M2.2,6.9c0,0,0,0.1,0,0.1C2.3,7,2.3,7,2.2,6.9z"/>
	<path class="st54" d="M3.2,5.8c0,0,0-0.1,0-0.1C3.2,5.7,3.2,5.7,3.2,5.8z"/>
	<path class="st76" d="M2.3,6.8C2.2,6.8,2.2,6.8,2.3,6.8C2.2,6.8,2.2,6.9,2.3,6.8C2.3,6.9,2.3,6.9,2.3,6.8z"/>
	<path class="st87" d="M3.2,6.4c0,0,0-0.1,0-0.1C3.2,6.3,3.2,6.4,3.2,6.4z"/>
	<path class="st23" d="M9.3,4.5C9.3,4.6,9.2,4.6,9.3,4.5C9.2,4.6,9.3,4.6,9.3,4.5z"/>
	<path class="st23" d="M9.2,4.6c0,0-0.1,0-0.1,0C9.1,4.6,9.1,4.6,9.2,4.6z"/>
	<path class="st7" d="M7.2,6.4L7.2,6.4C7.2,6.4,7.2,6.4,7.2,6.4C7.2,6.4,7.2,6.4,7.2,6.4C7.2,6.4,7.2,6.4,7.2,6.4z"/>
	<path class="st13" d="M13.6,4.5c0.1,0,0.1,0.1,0.2,0C13.7,4.4,13.6,4.4,13.6,4.5z"/>
	<path class="st13" d="M13.4,3.8C13.4,3.8,13.4,3.8,13.4,3.8C13.4,3.8,13.5,3.8,13.4,3.8z"/>
	<path class="st13" d="M13.4,4.5c0,0,0.1,0,0.1,0C13.5,4.5,13.5,4.5,13.4,4.5z"/>
	<path class="st13" d="M13.3,4.5c0,0,0.1,0,0.1,0C13.4,4.5,13.4,4.5,13.3,4.5z"/>
	<path class="st19" d="M11,5.6c0,0,0-0.1,0-0.1c0,0-0.1,0-0.1,0c0,0-0.1,0-0.1,0.1c0,0,0,0,0.1,0C10.9,5.7,10.9,5.7,11,5.6z"/>
	<path class="st95" d="M8.4,7c-0.1,0-0.1,0-0.2,0C8.2,7,8.1,7,8,7.1c-0.1,0,0,0.1,0,0.1c0,0,0,0,0,0c0.1,0,0.1,0.1,0.1,0.1
		c0,0.1-0.1,0.1-0.2,0c0,0-0.1,0-0.1,0c0-0.1-0.2-0.1-0.3-0.2C7.6,7,7.5,6.9,7.4,7C7.3,7,7.2,7,7.1,7l0,0c0,0-0.1,0-0.1,0
		c0,0.3-0.2,0.1-0.3,0.2l0,0l0,0c0.1,0.3,0.5,0.1,0.6,0.3c0,0,0,0.1,0,0.1c-0.1,0.2-0.6,0-0.4,0.4c0,0,0,0-0.1,0.1
		c0,0.1,0,0.1-0.1,0.1C6.6,8.5,6.5,8.6,6.4,8.6c0,0,0.1,0.1,0.1,0.1C6.7,8.7,6.8,8.7,7,8.6c0.1-0.1,0.2-0.2,0.4-0.1
		c0.1,0.1,0.1,0.1,0.1,0.2c0,0,0,0.1,0.1,0.1c0,0,0.1,0,0.1,0c0,0,0.1-0.1,0.1-0.1c0-0.1-0.1-0.1-0.1-0.2C7.5,8.3,7.5,8.3,7.7,8.2
		c0-0.1,0.1-0.2,0.2-0.3c0-0.1,0.1,0,0,0c-0.1,0.1,0,0.2,0,0.3c0,0,0,0,0.1,0.1c0.1-0.1,0.1-0.2,0.2-0.2c0.1,0,0.2-0.1,0.2-0.2
		c0-0.1,0.1-0.1,0.1-0.1c0.1,0,0.1,0,0.2-0.1c0,0,0-0.1,0-0.1c0,0,0,0,0,0c-0.1,0-0.2,0-0.3,0c-0.1,0-0.1,0-0.1-0.1
		c0-0.1,0.1-0.1,0.1-0.1c0.2,0,0.3,0.1,0.4,0.2c0.1,0.1,0.2,0,0.2-0.1c0-0.2,0.1-0.3,0.2-0.4c0,0-0.1,0-0.1,0C8.9,7.2,8.7,7.2,8.4,7
		z"/>
	<path class="st96" d="M5,9.1C5.1,9,5.1,9,5.2,9c0,0,0,0,0.1-0.1c0.1,0,0.1-0.2,0.2-0.2l0,0c0,0,0.1-0.1,0.1-0.1
		C5.7,8.8,5.8,8.8,6,8.8c0.1,0,0.2,0,0.3-0.1c0-0.1,0.1-0.1,0.1-0.2c0-0.1,0.1-0.1,0.1-0.2c-0.1-0.1-0.3,0-0.4,0l0,0
		c0,0.2-0.2,0.2-0.3,0.2c-0.1,0-0.1,0-0.1-0.1c0-0.1,0.1-0.1,0-0.2c0,0,0,0-0.1,0.1C5.5,8.4,5.3,8.6,5.1,8.8C5.1,8.9,5,9,5,9.1z"/>
	<path class="st33" d="M6.9,8.2C6.9,8,7,7.9,7.1,7.9c0.1,0,0.2,0.1,0.3,0c0-0.1,0-0.2-0.1-0.3l0,0c0-0.2-0.1-0.3-0.3-0.2
		c-0.2,0-0.3,0-0.5-0.1c-0.1,0-0.1,0-0.2,0c0,0,0,0-0.1,0.1c0,0,0,0,0,0c0,0,0.1,0,0.1,0c0.1,0,0.1,0.1,0.1,0.2c0,0.1,0,0.1,0.1,0.1
		c0.1,0,0.1,0.1,0,0.2C6.7,8.1,6.8,8.1,6.9,8.2z"/>
	<path class="st33" d="M6.7,7.2c0.2,0,0.4,0,0.5,0.1c0,0,0.1,0,0.1-0.1c0-0.1,0-0.1-0.1-0.1c0,0-0.1,0-0.1,0c0,0-0.1,0-0.1-0.1
		C7.1,7,7.1,7,7.1,7C6.9,6.9,6.8,6.9,6.6,7c0,0.1-0.1,0.1,0.1,0.2C6.7,7.2,6.7,7.2,6.7,7.2z"/>
	<path class="st33" d="M6.7,8.4c0.1,0,0.1,0,0.1-0.1C6.8,8.3,6.8,8.4,6.7,8.4z"/>
	<path class="st96" d="M6.1,8.3C6.1,8.3,6.1,8.2,6.1,8.3C6.1,8.2,6.1,8.2,6.1,8.3L6.1,8.3z"/>
	<path class="st81" d="M7.2,5.6c0.1,0.1,0.2,0.2,0.3,0.2c0,0,0-0.1,0-0.1C7.4,5.7,7.3,5.6,7.2,5.6C7.2,5.6,7.2,5.6,7.2,5.6z"/>
	<path class="st60" d="M6.4,6.2C6.4,6.2,6.4,6.1,6.4,6.2C6.4,6.1,6.4,6.1,6.4,6.2L6.4,6.2z"/>
	<path class="st88" d="M8.7,5.3C8.7,5.2,8.7,5.2,8.7,5.3c-0.3,0.1-0.4,0-0.5-0.1c0-0.1-0.1-0.2-0.1-0.3C8,4.9,7.9,4.9,7.8,5
		C8,5.2,8.2,5.4,8.4,5.6c0,0,0,0.1,0,0.1c0,0.1,0,0.1-0.1,0.1c-0.1,0-0.2,0-0.3,0l0,0C8,5.7,7.9,5.6,7.8,5.6
		C7.7,5.8,7.7,5.9,7.9,5.9c0,0,0.1,0,0.1,0C8,6,8,6.1,8.1,6c0.1,0.1,0.2,0.1,0.3,0.1c0.1,0,0.1,0,0.1-0.1c0-0.1,0-0.2,0.2-0.2
		c0,0,0.1-0.1,0-0.2c-0.1-0.1-0.1-0.2,0-0.2C8.8,5.4,8.8,5.3,8.7,5.3z"/>
	<path class="st97" d="M3.3,8.8C3.5,8.9,3.8,8.9,4,9c0.1,0,0.2,0.1,0.3,0.1c0.1,0,0.1,0,0.2,0C4.6,9,4.6,9,4.6,8.8
		c0-0.2,0-0.2,0.1-0.2c0.1,0,0.2,0.1,0.2,0.2c0,0.1,0,0.1,0,0.2c0,0,0.1-0.1,0.1-0.1c0.1-0.1,0.2-0.3,0-0.4c0,0,0-0.1-0.1-0.2
		c-0.2-0.1-0.4,0-0.6,0c0,0,0-0.1,0-0.1c0-0.1,0-0.2-0.1-0.1c-0.1,0.1-0.1,0-0.1-0.1C4,8,4,8,3.9,8c0,0.1-0.1,0.1,0,0.2
		c0,0,0,0,0.1,0.1C4.1,8.3,4,8.5,4.1,8.6c0.1,0.1,0.2,0.1,0.3,0.2c-0.1,0-0.2-0.1-0.4-0.1c-0.1,0.1-0.2,0-0.3,0
		C3.6,8.6,3.4,8.7,3.3,8.8z"/>
	<path class="st42" d="M3.9,8.2c0-0.1,0.1-0.1,0-0.2C3.9,8.1,3.8,8.1,3.9,8.2C3.8,8.2,3.8,8.2,3.9,8.2z"/>
	<path class="st15" d="M2.3,9C2.3,9.1,2.3,9.1,2.3,9c0.1,0,0.1,0,0.1,0C2.4,9,2.3,9,2.3,9L2.3,9L2.3,9z"/>
	<path class="st98" d="M4.4,8.3c0,0.1,0,0.2,0.1,0.1c0.1-0.1,0.2-0.1,0.4-0.1c0,0,0.1,0,0.1-0.1c0-0.1-0.1-0.2-0.1-0.2
		C4.7,8,4.6,8,4.5,8.1C4.5,8.2,4.4,8.2,4.4,8.3z"/>
	<path class="st99" d="M3.3,5.8c0.1,0.1,0,0.3,0,0.4c0,0,0,0.1,0,0.1c0,0,0,0,0,0c0.1,0.1,0.1,0.2,0.2,0.2l0,0c0,0,0.1,0,0.1,0
		c0.1-0.1,0.2-0.2,0.2-0.3c0.2-0.3,0.6-0.6,0.4-1.1C4.2,5.1,4.5,4.9,4.4,4.7c0,0,0.1-0.1,0.1-0.1c0,0,0-0.1,0-0.1c0,0-0.1,0-0.1,0
		C4.2,4.5,4.2,4.6,4.1,4.7C4,4.9,3.8,4.9,3.6,5.1c-0.1,0.1,0,0.1,0,0.2l0,0c0,0,0,0,0.1,0c0,0,0,0,0,0l0,0c0,0.1,0,0.1-0.1,0.1
		c0,0,0,0-0.1,0.1c-0.1,0-0.1,0.1-0.1,0.1C3.4,5.7,3.4,5.8,3.3,5.8z"/>
	<path class="st100" d="M4.4,4.7c0,0.1,0,0.3-0.2,0.3C4,5,4,5.2,4.2,5.3c0.1,0,0.1,0.1,0.1,0.2C4.1,5.7,4,5.9,4,6.2
		c0,0-0.1,0.1-0.1,0.1c0,0,0,0,0.1,0C4.1,6.2,4.2,6,4.3,5.9c0,0,0,0,0,0c0,0,0,0,0,0l0,0c0-0.1,0.1-0.1,0.1-0.2c0-0.1,0-0.1,0-0.2
		c0.1,0,0.1-0.1,0.2-0.1c0,0,0.1,0,0.1,0c0,0,0.1,0,0.1,0c0,0,0-0.1,0.1-0.1c0,0,0-0.1,0-0.1c0,0,0.1-0.1,0.1-0.1c0,0,0-0.1,0.1-0.1
		C5.1,4.9,5.1,4.8,5,4.6c0,0,0,0-0.1,0c-0.1,0.2-0.2,0-0.3,0C4.6,4.7,4.5,4.8,4.4,4.7C4.4,4.7,4.4,4.7,4.4,4.7z"/>
	<path class="st101" d="M4.4,3.7C4.3,3.8,4.2,4,4.1,4.1c0.1,0,0.2,0,0.3,0c0.1,0,0-0.2,0.1-0.2c0.1,0,0.2,0,0.3,0C4.9,3.9,5,4,5,4.1
		c0,0.1,0,0.2,0,0.3c0,0,0,0.1,0,0.1c0,0,0,0.1,0.1,0.1c0.1,0,0.1,0.1,0.1,0.1c0,0,0.1,0.1,0.1,0l0,0c0,0,0.1,0,0.1,0
		c0,0,0-0.1,0.1-0.1c0,0,0-0.1,0.1-0.1c0,0,0.1,0,0.1,0c0,0,0,0,0,0c0-0.1,0-0.1,0-0.2c0.1-0.5-0.3-0.6-0.6-0.8
		C4.9,3.5,4.7,3.8,4.4,3.7L4.4,3.7z"/>
	<path class="st100" d="M5,4.5c0,0,0-0.1,0-0.1C5,4.5,5,4.5,5,4.5L5,4.5C5,4.6,5.1,4.6,5,4.5z"/>
	<path class="st4" d="M7.9,8.2c0-0.1,0-0.1,0-0.2c0,0,0-0.1,0-0.1c0.1,0,0.2,0,0.2-0.2c0-0.1-0.2,0-0.2,0c-0.1,0-0.1,0-0.2,0.1
		C7.6,8,7.6,8.1,7.7,8.2C7.8,8.1,7.9,8.2,7.9,8.2z"/>
	<path class="st5" d="M5.5,8.7c-0.1,0-0.2,0.1-0.2,0.2C5.4,9,5.4,9,5.5,8.8C5.5,8.8,5.5,8.8,5.5,8.7z"/>
	<path class="st81" d="M7.9,5.9c0-0.1-0.1-0.2-0.1-0.3c0,0-0.1,0-0.1,0c0,0.1,0,0.1,0,0.2C7.6,6,7.6,6,7.9,5.9z"/>
	<path class="st81" d="M7.6,6.1c0,0.2,0,0.2,0.2,0.2C7.8,6.2,7.7,6.2,7.6,6.1z"/>
	<path class="st81" d="M8.1,6C8.1,6,8,6,8,5.9C8,6,7.9,6,8,6.1C8,6.2,8.1,6.1,8.1,6z"/>
	<path class="st81" d="M7.5,5.9c0,0,0,0.1,0,0.1C7.5,5.9,7.5,5.9,7.5,5.9z"/>
	<path class="st71" d="M4.4,3.7c0.2,0.2,0.4,0.1,0.5,0c0,0,0.1-0.1,0.1-0.1c0.4-0.1,0.8,0.1,1.1,0.3c0,0,0.1,0,0.1,0
		c0,0,0-0.1,0.1-0.1c0-0.1,0.1-0.2,0-0.2C6.1,3.5,6,3.4,5.8,3.3c-0.2,0-0.4-0.1-0.6,0C4.8,3.5,4.8,3.4,4.6,3.6
		C4.5,3.7,4.5,3.7,4.4,3.7z"/>
	<path class="st102" d="M7.6,4.1C7.7,4.1,7.7,4.1,7.6,4.1c0.1,0,0.1,0,0.1,0c0,0,0.1-0.1,0.1-0.1C8,3.9,8,3.8,8,3.7
		c-0.1,0-0.2,0.1-0.2,0.2C7.7,3.9,7.7,4,7.6,4.1z"/>
	<path class="st103" d="M9,3.2c0.1-0.1,0.3-0.1,0.3-0.3C9.2,2.9,9.1,3,9,2.9c-0.1,0-0.1,0-0.2,0C8.8,2.9,8.7,3,8.8,3
		C8.9,3.1,8.9,3.2,9,3.2z"/>
	<path class="st104" d="M10.2,2.1c0,0,0,0.1,0,0.1c0,0.2,0,0.2,0.2,0.2C10.5,2.2,10.5,2.2,10.2,2.1z"/>
	<path class="st105" d="M2.3,5C2.4,5,2.4,4.9,2.5,4.8C2.4,4.7,2.3,4.7,2.2,4.7c-0.1,0-0.1,0.1,0,0.2C2.2,5,2.2,5.1,2.3,5
		C2.3,5.1,2.3,5.1,2.3,5z"/>
	<path class="st63" d="M4.7,5.4c-0.1,0-0.1,0-0.2,0.1C4.6,5.5,4.6,5.5,4.7,5.4z"/>
	<path class="st63" d="M4.4,5.9C4.4,5.9,4.4,5.8,4.4,5.9L4.4,5.9c-0.1,0-0.1,0-0.1,0C4.3,5.9,4.4,5.9,4.4,5.9z"/>
	<path class="st63" d="M4.9,5.4c0,0-0.1,0-0.1,0C4.8,5.5,4.8,5.5,4.9,5.4z"/>
	<path class="st63" d="M5,5.3C4.9,5.3,4.9,5.3,5,5.3C5,5.3,5,5.3,5,5.3z"/>
	<path class="st40" d="M8,3.7c0,0-0.1,0.1-0.1,0.1c0.1,0,0.2,0,0.2-0.2C8.1,3.7,8.1,3.6,8,3.7C8,3.7,8,3.7,8,3.7z"/>
	<path class="st102" d="M8,3.7C8.1,3.7,8.1,3.7,8,3.7c0.1,0,0.1,0,0.1,0c0.1,0,0.1,0,0.1-0.1c0,0,0,0,0,0C8.1,3.6,8.1,3.6,8,3.7z"/>
	<path class="st106" d="M2.2,4.9c0.1-0.2,0.1-0.2,0.3-0.1c0.1-0.1,0.1-0.2,0.1-0.4c0-0.1-0.1-0.2-0.1-0.3c0,0-0.1,0-0.1,0
		c-0.1,0-0.2-0.1-0.3,0C2,4.3,1.9,4.5,2,4.6C2,4.7,2.1,4.8,2.2,4.9z"/>
	<path class="st40" d="M8.2,3.6C8.2,3.6,8.2,3.6,8.2,3.6c0.1,0,0.3,0,0.3-0.2C8.4,3.4,8.3,3.5,8.2,3.6z"/>
	<path class="st107" d="M5,4.5C5,4.6,5,4.6,5,4.5C5,4.7,5,4.7,5,4.8C4.9,5,4.9,5,5.2,5.1C5.3,5,5.3,4.9,5.3,4.8c0,0-0.1-0.1-0.1-0.1
		c0,0,0-0.1,0-0.1C5.1,4.6,5.1,4.6,5,4.5C5.1,4.6,5.1,4.5,5,4.5z"/>
	<path class="st108" d="M5.6,4.6C5.5,4.6,5.5,4.6,5.6,4.6C5.5,4.6,5.5,4.6,5.6,4.6z"/>
	<path class="st107" d="M5.5,4.7c0,0-0.1,0-0.1,0C5.4,4.7,5.4,4.7,5.5,4.7z"/>
	<path class="st108" d="M6.2,3.9C6.1,3.8,6.1,3.7,5.9,3.6c0,0-0.1,0-0.1,0c-0.1,0-0.2-0.2-0.4-0.2c-0.1,0-0.3,0.1-0.4,0.2
		c0.1,0.1,0.2,0.2,0.3,0.3C5.4,3.9,5.4,4,5.5,4c0.2,0.1,0.2,0.1,0,0.2c-0.1,0.1,0,0.1,0,0.2c0,0.1,0.1,0.1,0.2,0.1
		c0.1,0,0.1-0.1,0.2-0.1C6,4.2,6.1,4.1,6.2,3.9z"/>
	<path class="st63" d="M5.9,4.4c-0.1,0-0.1,0-0.2,0.1c0,0,0,0.1,0,0.2C5.8,4.5,5.8,4.4,5.9,4.4z"/>
	<path class="st54" d="M3.4,5.7c0,0,0.1-0.1,0.1-0.1C3.4,5.5,3.4,5.6,3.4,5.7z"/>
	<path class="st54" d="M3.6,5.5c0.1,0,0.2,0,0.1-0.1C3.7,5.4,3.6,5.4,3.6,5.5z"/>
	<path class="st54" d="M3.7,5.3C3.7,5.3,3.7,5.2,3.7,5.3C3.7,5.3,3.7,5.3,3.7,5.3z"/>
	<path class="st61" d="M3.7,6.5c0,0-0.1,0-0.1,0C3.6,6.6,3.6,6.6,3.7,6.5z"/>
	<path class="st61" d="M3.4,6.3c0,0,0-0.1,0-0.1C3.4,6.2,3.4,6.3,3.4,6.3z"/>
	<path class="st95" d="M7.4,7.7C7.4,7.7,7.4,7.7,7.4,7.7C7.4,7.7,7.4,7.7,7.4,7.7L7.4,7.7z"/>
	<path class="st22" d="M8.1,5.8C8.1,5.8,8.1,5.8,8.1,5.8C8.1,5.9,8.1,5.9,8.1,5.8C8.2,5.9,8.2,5.9,8.1,5.8C8.1,5.8,8.1,5.8,8.1,5.8
		L8.1,5.8z"/>
	<path class="st99" d="M4.4,5.8C4.4,5.8,4.4,5.8,4.4,5.8C4.3,5.8,4.3,5.8,4.4,5.8L4.4,5.8z"/>
	<path class="st108" d="M5.1,4.6C5.1,4.6,5.2,4.6,5.1,4.6c0.1,0,0.1,0,0.1-0.1C5.2,4.5,5.1,4.6,5.1,4.6z"/>
</g>
</svg>
