<?xml version="1.0" encoding="utf-8"?>
<!-- Generator: Adobe Illustrator 19.1.0, SVG Export Plug-In . SVG Version: 6.00 Build 0)  -->
<svg version="1.1" id="Layer_1" xmlns="http://www.w3.org/2000/svg" xmlns:xlink="http://www.w3.org/1999/xlink" x="0px" y="0px"
	 viewBox="0 0 818 15" style="enable-background:new 0 0 818 15;" xml:space="preserve">
<style type="text/css">
	.st0{fill:#202020;}
</style>
<g>
	<g>
		<g>
			<g>
				<g>
					<path class="st0" d="M816.4,3.4c0.4-0.1,0.2-0.3-1-0.2l-0.8,0.3L816.4,3.4z"/>
					<path class="st0" d="M808.5,2.9c-1.4,0.2-3,0.5-2.1,0.8c1.4-0.3,1.7-0.2,3.2-0.6c1.2-0.1,2.1,0.1,1.9,0.2
						c0.4-0.1,1.8,0,2.5-0.2c-1.5-0.2-3.5-0.2-5.5,0C807.9,3.1,808.4,3,808.5,2.9z"/>
					<path class="st0" d="M692.9,4.4l0.7,0C693.5,4.4,693.2,4.4,692.9,4.4z"/>
					<path class="st0" d="M621.4,5.4c0.5,0,0.8-0.1,0.8-0.1C621.7,5.3,621.3,5.3,621.4,5.4z"/>
					<path class="st0" d="M609.2,5.2c0.3,0,0.5,0,0.7,0C609.6,5.2,609.3,5.2,609.2,5.2z"/>
					<path class="st0" d="M692.9,4.4L691,4.3C690.9,4.5,692,4.4,692.9,4.4z"/>
					<path class="st0" d="M792.5,4c0.4,0,0.7-0.1,1-0.1C793.2,3.9,792.9,3.9,792.5,4C792.6,4,792.6,4,792.5,4z"/>
					<path class="st0" d="M724.5,3.6l0.6,0c0.2,0,0.3-0.1,0.5-0.1L724.5,3.6z"/>
					<path class="st0" d="M748.7,3.2c-0.5,0-0.7,0.3-0.9,0.4c0.3-0.1,0.7-0.2,1.2-0.2C749,3.3,748.9,3.2,748.7,3.2z"/>
					<path class="st0" d="M787.1,3l0.7-0.1C787.6,2.9,787.3,2.9,787.1,3z"/>
					<path class="st0" d="M707.2,3.9c0,0-0.1-0.1-0.2-0.1C706.9,3.8,707,3.8,707.2,3.9z"/>
					<path class="st0" d="M29.9,12.7C30,12.7,29.9,12.7,29.9,12.7C29.8,12.7,29.8,12.7,29.9,12.7z"/>
					<path class="st0" d="M1.9,11.4l0.4,0c0-0.1,0.1-0.1,0.1-0.2L1.9,11.4z"/>
					<path class="st0" d="M586.8,5.1C586.8,5.1,586.8,5.2,586.8,5.1C587.5,5.1,587.1,5.1,586.8,5.1z"/>
					<path class="st0" d="M381.5,7.9c2.3,0.2-3.8,0.4-0.3,0.6C380.9,8.4,384.4,8,381.5,7.9z"/>
					<path class="st0" d="M791.9,4c-0.3,0-0.7,0-1,0C791.4,4,791.7,4,791.9,4z"/>
					<path class="st0" d="M381.2,8.5L381.2,8.5l0.4,0C381.4,8.5,381.4,8.5,381.2,8.5z"/>
					<path class="st0" d="M535.3,6c0.1,0,0.3,0.1,0.5,0.1C535.8,6.1,535.7,6.1,535.3,6z"/>
					<path class="st0" d="M573.7,5.9l-1,0C573.1,5.9,573.4,5.9,573.7,5.9z"/>
					<path class="st0" d="M515.3,6.7c-0.5,0-0.7-0.1-1.4,0c0.1,0,0.1,0,0.2,0C514.4,6.7,514.8,6.7,515.3,6.7z"/>
					<path class="st0" d="M494.6,7c0.1,0,0.3,0,0.4,0.1c0.2,0,0.4,0,0.7,0L494.6,7z"/>
					<path class="st0" d="M93,12.3c-0.5-0.1-0.7-0.2-1-0.2C92.4,12.3,89.3,12.4,93,12.3z"/>
					<path class="st0" d="M792.5,3.8c-0.1,0.1-0.3,0.1-0.6,0.1c0.2,0,0.5,0,0.7,0C792.7,3.9,792.7,3.9,792.5,3.8z"/>
					<path class="st0" d="M514.5,8.9l-3.3,0C512.2,8.9,513.3,8.9,514.5,8.9z"/>
					<path class="st0" d="M241.8,11.4l-0.8,0C241.4,11.5,241.6,11.5,241.8,11.4z"/>
					<path class="st0" d="M501.4,9.1c-0.6-0.1-1.2-0.1-1.9-0.2c-0.1,0-0.3,0-0.4,0.1L501.4,9.1z"/>
					<path class="st0" d="M92,12.1C92,12.1,92,12.1,92,12.1C92,12.1,92,12.1,92,12.1z"/>
					<path class="st0" d="M70.3,12.9c3.1,0,1.5-0.4,2.1-0.6c3.7-0.1,1.7,0.3,3,0.4c2.3-0.1,4.1-0.5,5.9-0.4c0.1,0.1,0.5,0.1,0.1,0.2
						c2.5-0.3,7.3,0,10.2-0.4c0.2,0,0.3,0.1,0.4,0.1c-0.5-0.2-0.5-0.4-0.4-0.5c1.4,0,2.6-0.2,3.1,0c-0.9,0-0.9,0.1-1.3,0.2l1.5-0.1
						c1.3,0.3-2,0.1-2,0.4c2.9-0.1,6.2-0.4,8.4-0.3c0.5,0.3-5.2,0.1-2.2,0.4L95.7,12c2.6,0.5-2.1,0,0.3,0.5c4.5,0.1,5-0.2,9.5-0.1
						c1-0.2-0.3-0.3,0.7-0.5c6.4-0.4,5,0.8,9.7,0.4c1.2-0.2,1.7-0.7,5-0.5l-1.1,0.4c4.3,0,2.5-0.6,7-0.3c-0.8,0.2-3.4,0.1-2.8,0.2
						c3,0.3,2.1-0.2,4.4-0.2l0.5,0.3c4.6-0.1,9.7-0.3,14.8-0.4c-0.3,0.1-1.2,0.2,0,0.3c6.5-0.2,13.8,0,20,0.1l2.4-0.3
						c0.6,0,1,0.1,0.4,0.2c2.4,0.1,0.1-0.2,1.3-0.3c1.4,0,1.8,0.2,1,0.3c4.3-0.3,12.2-0.6,16.7-0.3l-0.9,0.1c3.5,0.1,4-0.6,7.2-0.4
						l-0.6,0.1c7.6,0.1,16.1-0.2,21.9,0.2c1.1-0.4,7.6,0.1,8-0.5c4.4,0.3,3.1,0.4,9.3,0.5c1.6,0,2.4-0.4,4.5-0.5l0.1,0.3l2.7-0.3
						l1.5,0.4l1.9-0.1c-0.8,0-1.6-0.1-1.5-0.2c3-0.2,7.2,0.2,7.3,0.3l7-0.3c-0.2,0.1-1.3,0.2-2.3,0.3c3.7-0.3,0.7,0.3,4.1,0
						c-0.5-0.1,0.2-0.2,0.3-0.2c1.7,0.2,5.6,0.1,8.5,0l-0.6,0.2c5.2,0,11-0.2,16.8-0.2c-2.1-0.1-1.6-0.5,0.1-0.5l0.7,0.3
						c1.1-0.2-1.8-0.1,0.5-0.4c2.2,0,1.5,0.4,0.2,0.5l2.7-0.1c0.2,0.1-0.5,0.2-0.6,0.3c1.1-0.2,4.6,0.3,6.2-0.1l0.2,0.1
						c5.8,0,8.5-0.2,13.3-0.2c0.1-0.3,2-0.2,3.4-0.5c3.5,0.1,7.4,0.2,11.6,0.2c3-0.2,0.9-0.2,2.2-0.4c0.2,0.3,4.4,0.2,2.2,0.4
						c5.1-0.1,6.5-0.1,12.9-0.4c-0.7-0.1-1.5-0.1-1.1-0.2c1.2-0.1,2.6,0.1,2.5,0.2l-0.3,0c7.2-0.5,16.6,0.6,22.3,0l-0.3,0l5.9-0.3
						c2.7,0-1.6,0.2,0.4,0.3c6.4-0.5,10.1,0,15.4-0.4c4.1,0.7,14.5-0.2,20,0.2l-0.3-0.2c1.4-0.2,1.7,0.1,2.8,0.1
						c-0.2-0.1-1.5-0.1-0.7-0.2c12.1-0.3,24.9,0,37.3,0c4.5,0,2.6-0.9,8.3-0.6l-1.6,0.3c9.1-0.5,18.7-0.2,27.6-0.6
						c-0.5,0.1-0.5,0.2-1.4,0.2c1.9,0.2,7-0.1,7-0.3c1.4,0,0.3,0.2,1.2,0.3c1.9,0.1,4.7-0.4,5.8-0.1c0.2,0-0.5,0.1-0.9,0.1
						c1.2-0.1,5.7,0,4.6-0.3c3.4,0.1,6.4-0.2,9.1-0.1c1.7-0.3,5.7,0.1,6.3-0.4c-0.2,0.5,5.9,0.3,8,0.1c-0.7,0.1,1.8,0.1,1,0.3
						c2.4,0,4.6-0.2,4.2-0.4c4.5,0.5,9-0.6,11.5,0.1c7.2-0.3,13.8-0.6,20.3-0.8c-0.2,0.5-7.1,0.1-6.9,0.6c6.1-0.3,9.7-0.7,15.7-0.7
						c1.6,0-0.9,0.2-1.4,0.3c6.1-0.3,11.8-0.1,17.3-0.4c0,0-0.6,0.1-1.2,0.1c1.1,0,2.5,0,2.4-0.2l-1,0.1c-1.7-0.3,4.3-0.7,4.4-0.8
						c-1.8,0.6,5.4,0.1,2.5,0.9c0.7,0,1.6-0.2,1.4-0.3c1,0,1.4,0.1,0.3,0.3c3.8-0.2,2.5-0.4,6-0.4c0,0.1-0.7,0.1-1.1,0.3
						c1.8-0.2,3.5-0.4,6.5-0.4c-0.2,0.1,0.2,0.1-0.7,0.1c5.1-0.1,8.6-0.6,14.2-0.5c-1.6,0.5,1.9,0.1,2.2,0.5l3-0.2l-1.2-0.2
						c2.6,0,4.9-0.3,7.2-0.3l-1.9,0.2l4.9-0.1l-2.8-0.1c2.6-0.2-0.3-0.5,3.2-0.4c-0.7,0,2.6,0,4,0.2l0,0c1.3-0.1,2.6-0.3,4.6-0.2
						c0.5,0.1-0.4,0.4-0.1,0.5c1.3-0.3,6.1-0.2,7.7-0.5c-0.5,0.1-0.6,0.3-0.4,0.3l1.1-0.3c1.2,0.1,1.4,0.1,1.2,0.3
						c3.6,0-1.2-0.5,3.2-0.3c-0.3,0-0.2,0.1-0.9,0.1c4.3,0,8.4-0.3,12.4-0.2c1.2,0.4-3.5,0.1-2.1,0.4c5.8-0.2,11.9-0.6,17.5-0.6
						l-1,0c0.8-0.5,4.2,0.2,7-0.1c-0.7,0.1-0.9,0.3-0.7,0.2c3.8,0,7.8-0.3,13.6-0.5L690,5.5c2.2,0.1,5.9,0,8.3,0
						c0.7-0.1,2.1-0.1,1.3-0.3c7.5,0.7,14.3-0.6,20.9-0.1c-0.8,0-1.9,0.2-1.3,0.1l5.7-0.2c-0.5-0.2-0.7-0.1-1.9-0.3
						c0.7-0.1,2.3-0.3,3.7-0.3c-2.5,0.2,0,0.4,1.1,0.5c-0.2-0.1,0.2-0.2,0.1-0.2c3,0.4,0.5-0.5,4.5-0.3l-0.2,0.1
						c1.5-0.1,2.9-0.3,4.5-0.3c0.7,0.3-1.6,0.2-1.7,0.4c2.3-0.1,4.5-0.6,6.6-0.4c-1,0.1-2.4,0.1-3.3,0.2c2.3,0.3,2.5,0.2,4.2,0.2
						l-0.2,0l3.9,0.1l-1-0.1c2.8-0.7,5.8-0.2,9.7-0.8c-3.7,0.5-0.6,0.3-0.9,0.6c1,0.1,2.5,0.1,2.1,0.2c1.8-0.3,3,0.1,5.6-0.3
						c0.1,0.1,1.9,0,1.5,0.2c2.4-0.1-0.6-0.2-0.4-0.3c3.6-0.4,8.6,0.2,13.8-0.3c4.5-0.3,5.4-0.6,9.6-0.9c1.4,0.1-1.2,0.4-1.2,0.4
						c2.3,0.1,4,0,6.2-0.1c-0.4,0.1,0,0.2,0.7,0.3c1.7-0.1,1.2-0.4,3.4-0.3c-0.4,0.1-0.9,0.3-1.7,0.4c2-0.2,4.1-0.3,6.2-0.5
						c0.6,0.2-1.3,0.3-2,0.4c2.4-0.1,6.1-0.3,6.9-0.5l-1.5-0.1c0.9,0,0.4,0.2-0.2,0.3c-2,0.2-2.9,0-3.1-0.1l1.5-0.1
						c-1.6-0.5-6,0.2-9.1,0.2l1.3-0.4l-3.1,0.4c-0.7-0.1-1.1-0.3,0.4-0.4c-2.2-0.2-1.9,0.2-3.8,0c-0.2,0-0.1-0.1,0.1-0.1L785,3.1
						c0.4-0.1-0.4-0.3,0.9-0.3c-3.8-0.2-6.1,0.4-7.6,0.1l0.3,0c-5.3,0.2-0.5,0.3-4.5,0.7L771.5,3L771,3.3c-0.5,0-1.6,0-1.4-0.1
						c-2,0.2,0.3,0.1-0.8,0.3c-2.6-0.2-7.2,0.3-7.8-0.2c-0.9,0.2,2.5,0.1-0.3,0.3c-0.8-0.5-3.2,0.1-5.6-0.1c0.7-0.3,3-0.2,0.6-0.4
						c-1.4,0.5-4.7,0-6.7,0.1c-0.1,0.4-4.4,0.2-7.8,0.4c0.2-0.1-6.4-0.1-9.5-0.2l0.1-0.1c-0.6,0.4-3.9,0.4-6.2,0.5
						c0.1-0.2,0.5-0.3,1.8-0.4l-2.2,0c-0.5,0.1-1.2,0.2-2.7,0.3l0.6-0.3c-3,0.1-6,0.4-9.8,0.3c-0.2,0.3,3,0.7-1,0.9
						c-0.2-0.1-0.3-0.4,0.7-0.4c-0.3,0-1.2,0.1-1.9,0.1l1.6-0.3c-1.7-0.1-0.9,0.2-2.3,0.2c0-0.2-1-0.1-0.8-0.3c0.4,0,1.2,0.1,1.7,0
						c-1.6,0-3.5-0.1-4.1-0.2c0.1,0.1,0,0.3-1.1,0.3c-3,0.1-1-0.2-2.7-0.3c-0.7,0.1-2.6,0-2.7,0.3c-0.9,0-1-0.1-1.4-0.2
						c-1.5,0.2-7.2,0.2-5.4,0.4l0.4,0c-0.1,0-0.2,0-0.3,0c0,0,0,0,0,0l0,0c-5,0.4-10.4,0-15.4,0.2l0-0.1c-3,0.2-6.6,0.2-8.7,0.4
						c-0.9,0-2.1-0.1-1.7-0.3c-2.3,0.1-2.5,0.2-5.8,0.1c2.3-0.2-0.8-0.1,2.3-0.2c-3,0-3.6-0.2-6.8,0.1c1.1-0.3-2.2-0.3-3.6-0.2
						l2.1,0.1c-1.6,0.1-3,0.1-4.4,0.1l0.8-0.3c-6.1-0.3-10.9,0.9-15.5,0.2c-1.6,0.3,3.3,0.1,1.9,0.4c-2.8,0-5.7-0.4-6.6-0.4
						c-3.8-0.1-3.6,0.5-7.5,0.5c0.5,0.1,1,0.4-2,0.6c-2.8,0-3.4-0.4-1.7-0.6c0.7,0,1,0,1,0.1c0.9-0.1,2.1-0.1,1-0.2l-0.4,0.1
						c-1.4-0.1-5.2,0-4.3-0.2c-2.1,0.1-0.9,0.2,0.7,0.2c-3.6-0.1-5.6,0.1-9.3,0c0.6,0.1,1.1,0.2,0.5,0.2c-5.4-0.1-2.4,0.3-6,0.4
						c-2.1-0.2,0.7-0.4-2.9-0.2c-2.2-0.1-0.5-0.3,0.4-0.4c-3.3,0.3-6.3-0.1-8.2-0.1l1.8-0.1C594.4,5,593.5,5,592.6,5l1,0.2
						c-1,0-1.9,0-1.9-0.1c-1.1,0.2,0.8,0.4-1.3,0.6c-1.4-0.1-4.2,0.2-4.7-0.1c4.3,0-0.5-0.3,3.2-0.4c-0.7,0-1.6,0.1-2.6,0
						c-0.2,0,0.1-0.1,0.4-0.1c-4.2-0.2-1.9,0.4-6.2,0.4c0.5-0.2-1-0.3-1.7-0.3c1.7,0,0.8,0.3-0.8,0.4c-2.8-0.1-3,0.1-4.5,0.2l1.7,0
						c-0.6,0.2-1.9,0.2-3.9,0.3c-0.2-0.1,1.7-0.1,1.1-0.2c-2.1,0.3-4.8-0.3-7.8,0c-1.4-0.1-0.1-0.3-1.4-0.4c-3.3,0.3-3.6-0.2-7.1,0
						c1,0.2,1.2,0.2-1.3,0.4l5.8-0.2L557,6.3c1.7,0,3.7-0.2,4.7-0.2c-1.8,0.2-1.6,0.2-0.7,0.3c-2.4-0.3-4.7,0.3-7.5,0.1l0.1-0.6
						c-4.1-0.2-7.4,0.4-12.7,0.3l1.7,0.1c-0.7,0.2-3.3,0.1-5.1,0.2c0.2-0.2-0.9-0.3-1.7-0.4c0.1,0.1-3.9,0-4.4,0.4L529,6.4
						c-4.3,0-5,0.6-9.1,0.6c1.3-0.2-0.6-0.3,2.2-0.5c-1.4,0-2.7,0-2.7,0.1c-0.8-0.1-3.9,0.3-5.2,0.1c-0.6,0.1-0.8,0.3-2.3,0.3
						c-0.2,0,0-0.1,0-0.1c0,0.1-2.5,0.2-1.1,0.4c-4.3-0.6-12,0.2-15.8-0.3c-3,0.1-6.7,0.2-9.5,0.3c0.2-0.1,0-0.1,0.5-0.1
						c-3.8-0.1-2.3,0.6-6.7,0.4c-2.2-0.3,2.3-0.2,0.9-0.3c-0.6-0.6-5.2,0.2-8.2-0.2l0.7,0c-2.2-0.2-5.4,0.3-9.1,0.3
						c0,0,0.2-0.1,0-0.1c-2.5,0.4-7.2,0.5-10.7,0.7c1.1-0.3,1.6-0.2,0.9-0.4c-1.6,0.1,0.5,0.4-2.7,0.5c-1-0.1-3.3-0.2-3.6-0.5l3,0
						c-1.5-0.3-3.8,0.1-5.4,0l0.2-0.2c-4.5,0.1-4.6,0.5-9.5,0.5l0.5,0.1c-2.7,0.4-2.2-0.2-4.9,0.1l-0.8-0.4
						c-1.8,0.1-6.2,0.5-9.3,0.6c1.8-0.3,5.5-0.5,7.8-0.7c-1.7,0-5.9,0.1-6.8,0.3c0.7,0,1.6-0.2,2.3-0.1c-2.1,0.3-4.9,0.5-8.4,0.6
						c0.6-0.8-9.1-0.1-11.6-0.7c-6.1,0.3-12.2,0-19.4,0.1c2.5,0.6-2.1,0-1.6,0.6c-1.7,0.1-2.3,0.1-2.5,0l-5.1-0.3
						C375,8,377.8,8,377.6,7.9c-3.7,0-1.5-0.2-4-0.4c0.5,0.2-1.3,0.3-3.3,0.3l2.9,0.3c-5.1,0.4-4.4-0.5-9.6-0.1l1.6-0.2
						c-2.6,0.1-9.7,0.1-12.3,0.6c-0.5-0.1-1.1-0.2,0.1-0.3c-6.3,0-14,0.7-18.9,0.4l0.5-0.2c-1.2,0.1-2,0.3-3.5,0.2
						c0.1-0.1,0.5-0.2-0.1-0.2c-0.6,0.1-3.1,0.3-4.7,0.2l1.3-0.2c-6.2-0.1-9.4,0.5-14.6,0.6c0-0.4-4.8-0.5-7.2-0.6l0.1-0.1
						c-7.2,0-12.2,0.5-18.8,0.7c-4.1-0.4-14-0.1-20.6-0.3c1,0.1-0.2,0.3-1.3,0.4c-1.6-0.1-4.3,0.3-4-0.1l0.6,0
						c-1.2-0.4-4.4-0.3-6.9-0.2l-0.4,0.5c-6.5-0.7-17.1,0.4-20.6-0.3c-1.6,0.1-3.5,0.2-5.1,0.3l0.1-0.3c-4.4,0-6.5-0.1-11.9,0
						l1.1-0.2c-3,0-3.8,0.8-6.6,0.9l-0.8-0.4c-5.3,0-10.7-0.3-15.9,0.1c0.1-0.1,0.2-0.2,1.1-0.2c-2.5,0-9.7-0.2-8.7,0.3
						c-0.1-0.4-5.5,0-8.3,0.2l0.4-0.3c-2.4,0.4-2.5,0.5-5.9,0.6c-0.8,0-0.7-0.2,0.4-0.2c-2.7-0.1-2.1,0.3-5.3,0.1l1.2-0.2
						c-2.7,0-2.5,0.1-4,0.3c-1.7,0.1-5.2,0-5.6-0.3c-0.4,0.2-1.9,0.4-3.5,0.3c-0.2-0.1,0.4-0.2,0.7-0.2c-4.6-0.2-6.8,0.4-10,0.1
						c-0.1-0.1-0.3-0.1-0.5-0.2c3.6,0,6.6,0,6.3,0c0-0.3-2.9-0.3-0.6-0.7c-2.4,0.2-6.4,0.6-9.3,0.5c-0.1,0-0.3,0-0.4-0.1l0.3,0
						c-0.7,0-1.3,0-1.8,0.1c-0.9,0-1.5-0.1-2.4-0.1c-0.3-0.2-3.4-0.1-4.8-0.1c0.1,0.3-1.8,0.2,0,0.5c-0.2,0,0.3,0,1.3-0.1
						c0.2,0,0.5,0,0.6,0c0,0-0.1,0-0.1,0c1,0,2.2,0,3.6,0c-1.2,0.1-2.4,0.3-4,0.1c-0.8,0.2-1.6,0.4-2,0.5c-2-0.4-5.9-0.6-6.4-0.8
						c-4.5,0.2-10.6,0.2-13.4,0.7c-1.3,0.1-1.5-0.1-1.9-0.2c0.7-0.1,1.6-0.1,2-0.1c-2.5,0.1-7.5,0.1-8.2,0.5
						c-3.2-0.2,1.8-0.3-2.6-0.3l0.6-0.1c-8.7-0.6-14.1,1-23.7,0.3c0.7,0,1,0.1,1.1,0.1c-11-0.3-22.6,0.4-33.4-0.1
						c-3.1-0.1-3.4,0.1-5.3,0.3l-0.7-0.3L38.1,11c-4.6,0.3-7.9-0.7-13.6-0.2l0.7,0.2c-2.1,0-6.6,0.1-6.2-0.1c-0.2,0-0.7,0.2-1.5,0.1
						l-0.1-0.2l-5.1,0.3C8.4,11,13,10.5,7.2,10.5c-2.1,0.1-6.1,0.5-5.3,0.6c0.9,0,2.2,0.1,2.3,0.2l-2,0.1c-0.4,0.5-1.9,0.9,2.9,1.3
						l3.3-0.3l1.1,0.2l-2.8,0c1.6,0.2,2.6,0,3.7-0.1c0.3,0.1,0.7,0.2,1.4,0.2l3.3-0.5c0.4,0.2-1.5,0.4,0.7,0.5
						c1.5-0.2-1.5-0.4,1.1-0.5c1.6,0.2,1.1,0.4,3,0.2c0.3,0.1-0.1,0.2-0.9,0.3c1.7-0.1,4.4-0.1,5.3-0.3c1.7,0.3,5.6-0.1,5.5,0.4
						c0.5-0.1,2.9-0.4,4.5-0.4c-2.8,0.5,5.7,0,5,0.6c2.1-0.5,7.5-0.2,11.2-0.5c-0.2,0-0.6,0.1-0.9,0.1c2.1,0,2.7,0.2,4,0.3
						c0.3-0.4,3.5-0.5,5.2-0.7c2.5,0.4-1.5,0.5-0.7,0.8c-0.1-0.3,4.4-0.3,3.5-0.6c1.9,0.2,1.7,0.1,2.7,0.4c0.3-0.5,1.8-0.1,3.4-0.4
						c2.8,0.2,0.7,0.5,3.8,0.3C73.1,12.7,70.3,12.9,70.3,12.9z M143.7,11.7L143.7,11.7c-0.6,0-1.2,0-1.5,0
						C142.5,11.7,142.9,11.7,143.7,11.7z M149.8,11.6c-0.8,0-1.7,0-2.7,0c-0.2-0.1,0-0.2,0.6-0.2C147.5,11.5,148.9,11.5,149.8,11.6z
						 M136.8,9.7c1,0,1.3,0,1.4,0.1c-0.5,0-1,0-1.7,0c0,0-0.1,0-0.1,0C136.5,9.8,136.6,9.8,136.8,9.7z"/>
					<path class="st0" d="M135,10.1c-0.1,0-0.2,0-0.4,0c0.2,0,0.4,0,0.6,0.1c0.1,0,0.2-0.1,0.3-0.1C135.4,10.1,135.2,10.1,135,10.1z
						"/>
					<path class="st0" d="M693.8,4.5l-0.1,0c0.1,0,0.2,0,0.3,0C693.9,4.5,693.9,4.5,693.8,4.5z"/>
					<polygon class="st0" points="235,11.6 235,11.5 234.4,11.6 					"/>
					<path class="st0" d="M727.8,4.8c0.1,0,0.2,0,0.4,0.1C728.2,4.9,728,4.9,727.8,4.8z"/>
					<path class="st0" d="M742.4,4.7l2.1,0.1C743.6,4.7,743,4.7,742.4,4.7z"/>
					<path class="st0" d="M753.7,4.6c0.1-0.1,0.2-0.1,0.2-0.1l0,0L753.7,4.6z"/>
					<path class="st0" d="M574.5,7.8c-0.2,0-0.3,0-0.4,0C573,7.9,573.7,7.8,574.5,7.8z"/>
					<path class="st0" d="M627.8,6.3c-0.6,0.1-1.1,0.1-1.7,0.2C627,6.5,627.8,6.5,627.8,6.3z"/>
					<path class="st0" d="M514.9,8.9C514.9,8.9,514.9,8.9,514.9,8.9c-0.1,0-0.2,0-0.4,0L514.9,8.9z"/>
					<path class="st0" d="M623.6,6.5c1,0,1.7,0,2.5,0C625.3,6.5,624.4,6.5,623.6,6.5z"/>
					<path class="st0" d="M802.6,3.8l0.5,0c0,0,0,0,0.1,0L802.6,3.8z"/>
					<path class="st0" d="M803.2,3.8l0.6,0C803.5,3.8,803.3,3.8,803.2,3.8z"/>
					<path class="st0" d="M805.1,3.7l-1.3,0.1C804.2,3.7,804.8,3.7,805.1,3.7z"/>
					<path class="st0" d="M787.7,4l-0.2,0.1C787.6,4.1,787.7,4,787.7,4z"/>
					<path class="st0" d="M783.1,4.1c1.1,0,2.7,0.2,4.2,0.1l0.1-0.1C786.8,4.3,784.2,3.9,783.1,4.1z"/>
					<path class="st0" d="M764.2,3.2l3.8,0c-0.7-0.1-1.5-0.2,0.2-0.3C763.4,2.7,769.2,3.1,764.2,3.2z"/>
					<path class="st0" d="M752.4,3.2c2-0.1,0-0.2,0.1-0.2C751.2,3.1,750.9,3.2,752.4,3.2z"/>
					<path class="st0" d="M667.2,4.7l0.2-0.3C665.9,4.5,667.4,4.5,667.2,4.7z"/>
					<polygon class="st0" points="651,6.2 652.5,6.4 653.2,6.1 					"/>
					<polygon class="st0" points="641.3,4.6 642,4.5 639.4,4.7 					"/>
					<path class="st0" d="M498.3,6.7l0.5,0.3C499.8,6.9,500,6.5,498.3,6.7z"/>
					<path class="st0" d="M436.5,7.7c-0.7-0.1-2.4-0.2-3.5-0.1C434.4,7.7,435.8,7.8,436.5,7.7z"/>
					<polygon class="st0" points="251.3,9 252.6,8.9 250.2,9 					"/>
				</g>
			</g>
		</g>
	</g>
</g>
</svg>
