<?xml version="1.0" encoding="utf-8"?>
<!-- Generator: Adobe Illustrator 19.1.0, SVG Export Plug-In . SVG Version: 6.00 Build 0)  -->
<svg version="1.1" id="Layer_1" xmlns="http://www.w3.org/2000/svg" xmlns:xlink="http://www.w3.org/1999/xlink" x="0px" y="0px"
	 viewBox="0 0 35 41" style="enable-background:new 0 0 35 41;" xml:space="preserve">
<style type="text/css">
	.st0{fill:#F3B9B7;}
	.st1{fill:#DBCF89;}
	.st2{fill:#F0AFA9;}
	.st3{fill:#F0AE9D;}
	.st4{fill:#EC8186;}
	.st5{fill:#E3DE9A;}
	.st6{fill:#E4E0A4;}
	.st7{fill:#87974F;}
	.st8{fill:#EC9A98;}
	.st9{fill:#EDB998;}
	.st10{fill:#DDD18B;}
	.st11{fill:#D1C57E;}
	.st12{fill:#AABC81;}
	.st13{fill:#A69E5A;}
	.st14{fill:#EDE7B2;}
	.st15{fill:#E88A82;}
	.st16{fill:#E64F3D;}
	.st17{fill:#F1ACA7;}
	.st18{fill:#E55243;}
	.st19{fill:#E7BC90;}
	.st20{fill:#EDAF95;}
	.st21{fill:#D64A50;}
	.st22{fill:#EF9291;}
	.st23{fill:#ED8691;}
	.st24{fill:#E58676;}
	.st25{fill:#E7A58D;}
	.st26{fill:#C84A43;}
	.st27{fill:#DA4655;}
	.st28{fill:#E9978F;}
	.st29{fill:#DEA079;}
	.st30{fill:#EE8D94;}
	.st31{fill:#C0423D;}
	.st32{fill:#E96259;}
	.st33{fill:#E36754;}
	.st34{fill:#ECB1A6;}
	.st35{fill:#E88487;}
	.st36{fill:#D96259;}
	.st37{fill:#D24B42;}
	.st38{fill:#D3474B;}
	.st39{fill:#D25D4B;}
	.st40{fill:#E07D65;}
	.st41{fill:#E15646;}
	.st42{fill:#E25B63;}
	.st43{fill:#9DB273;}
	.st44{fill:#BFB367;}
	.st45{fill:#88A05E;}
	.st46{fill:#E98188;}
	.st47{fill:#DA785B;}
	.st48{fill:#ED9294;}
	.st49{fill:#EA8386;}
	.st50{fill:#EF959D;}
	.st51{fill:#96944F;}
	.st52{fill:#C4805F;}
	.st53{fill:#EA8F7F;}
	.st54{fill:#EA8183;}
	.st55{fill:#C7524A;}
	.st56{fill:#E0917C;}
	.st57{fill:#E3DEA4;}
	.st58{fill:#D3423F;}
	.st59{fill:#54653E;}
	.st60{fill:#728947;}
	.st61{fill:#E78B7C;}
	.st62{fill:#E69F86;}
	.st63{fill:#E47A64;}
	.st64{fill:#E9B39C;}
	.st65{fill:#AA904B;}
	.st66{fill:#C7BA71;}
	.st67{fill:#EE947C;}
	.st68{fill:#4F2023;}
	.st69{fill:#EEA8A6;}
	.st70{fill:#778748;}
	.st71{fill:#ACAD70;}
	.st72{fill:#E29F84;}
	.st73{fill:#E55546;}
	.st74{fill:#E99F95;}
	.st75{fill:#E3A180;}
	.st76{fill:#B9C992;}
	.st77{fill:#EB6A7C;}
	.st78{fill:#D89B7C;}
	.st79{fill:#7A2E2E;}
	.st80{fill:#5F7247;}
	.st81{fill:#D46C5B;}
	.st82{fill:#98844C;}
	.st83{fill:#D37868;}
	.st84{fill:#BBAD63;}
	.st85{fill:#748652;}
	.st86{fill:#E9867C;}
	.st87{fill:#EC8B89;}
	.st88{fill:#7C844A;}
	.st89{fill:#6A7A50;}
	.st90{fill:#C2B665;}
	.st91{fill:#D1866A;}
	.st92{fill:#EDACA9;}
	.st93{fill:#CC9070;}
	.st94{fill:#E47B73;}
	.st95{fill:#CCC173;}
	.st96{fill:#DDA074;}
	.st97{fill:#9CB177;}
	.st98{fill:#BD764E;}
	.st99{fill:#8B9152;}
	.st100{fill:#E37B65;}
	.st101{fill:#D96E64;}
	.st102{fill:#DB756E;}
	.st103{fill:#898154;}
	.st104{fill:#DC887A;}
	.st105{fill:#EA918F;}
	.st106{fill:#E17C6C;}
	.st107{fill:#DD8A76;}
	.st108{fill:#B34840;}
	.st109{fill:#EEA8A4;}
	.st110{fill:#B0794A;}
	.st111{fill:#EA7373;}
	.st112{fill:#727747;}
	.st113{fill:#D6887F;}
	.st114{fill:#D56B59;}
	.st115{fill:#DB6E51;}
	.st116{fill:#94865B;}
	.st117{fill:#E67E6E;}
	.st118{fill:#D86F5E;}
	.st119{fill:#E6766D;}
	.st120{fill:#E47370;}
	.st121{fill:#D9907B;}
	.st122{fill:#BE8460;}
	.st123{fill:#E88676;}
	.st124{fill:#DF816B;}
	.st125{fill:#CC8260;}
	.st126{fill:#E6817C;}
	.st127{fill:#CE6849;}
	.st128{fill:#AB7A4B;}
	.st129{fill:#EDB4B6;}
	.st130{fill:#DF8F81;}
	.st131{fill:#E6967E;}
	.st132{fill:#CA4653;}
	.st133{fill:#D78974;}
	.st134{fill:#C97E62;}
	.st135{fill:#506A39;}
	.st136{fill:#637349;}
	.st137{fill:#DE7E76;}
	.st138{fill:#E34D4F;}
	.st139{fill:#B4784C;}
	.st140{fill:#A8544B;}
	.st141{fill:#CD9073;}
	.st142{fill:#E27D78;}
	.st143{fill:#CF6A49;}
	.st144{fill:#DF7C71;}
	.st145{fill:#BC524A;}
	.st146{fill:#CB8361;}
	.st147{fill:#9A8250;}
	.st148{fill:#D36658;}
	.st149{fill:#CF8467;}
	.st150{fill:#DB806E;}
	.st151{fill:#C07E5B;}
	.st152{fill:#ED9D95;}
	.st153{fill:#DD9576;}
	.st154{fill:#C06751;}
	.st155{fill:#E06C5D;}
	.st156{fill:#8B9D56;}
	.st157{fill:#E86674;}
	.st158{fill:#E29079;}
	.st159{fill:#F3B3A9;}
	.st160{fill:#EFAFA8;}
	.st161{fill:#DCD08C;}
	.st162{fill:#EC9C91;}
	.st163{fill:#E18573;}
	.st164{fill:#E39083;}
	.st165{fill:#E89C83;}
	.st166{fill:#99AA66;}
	.st167{fill:#A3AA67;}
	.st168{fill:#D99572;}
	.st169{fill:#E95D51;}
	.st170{fill:#DD9C7C;}
	.st171{fill:#E07E70;}
	.st172{fill:#ECC9A1;}
	.st173{fill:#DD8B62;}
	.st174{fill:#E5616E;}
	.st175{fill:#E05860;}
	.st176{fill:#EA9B93;}
	.st177{fill:#DA8F7B;}
	.st178{fill:#EA7571;}
	.st179{fill:#D77C75;}
	.st180{fill:#D38F8D;}
	.st181{fill:#E05B5F;}
	.st182{fill:#E66863;}
	.st183{fill:#E18A80;}
	.st184{fill:#E4515C;}
	.st185{fill:#DA5152;}
	.st186{fill:#E06360;}
	.st187{fill:#D17B74;}
	.st188{fill:#D07B74;}
	.st189{fill:#BAB05B;}
	.st190{fill:#7F954E;}
	.st191{fill:#E7637B;}
	.st192{fill:#CE5A47;}
	.st193{fill:#E16C6B;}
	.st194{fill:#CF796F;}
	.st195{fill:#8DA258;}
	.st196{fill:#57723A;}
	.st197{fill:#D27664;}
	.st198{fill:#CD7858;}
	.st199{fill:#B52C3D;}
	.st200{fill:#DA5565;}
	.st201{fill:#D9B19C;}
	.st202{fill:#EA767E;}
	.st203{fill:#D85C5B;}
	.st204{fill:#EA9E91;}
	.st205{fill:#D54455;}
	.st206{fill:#D7494E;}
	.st207{fill:#DA624F;}
	.st208{fill:#DB3D6B;}
	.st209{fill:#CB2E5E;}
	.st210{fill:#D19F97;}
</style>
<g>
	<path class="st0" d="M10.1,15.4c0,0-0.1,0-0.1,0c-0.2,0-0.3-0.1-0.2-0.3c0-0.1,0-0.2,0-0.3c-0.3-0.1-0.5-0.3-0.5-0.6
		c-0.1-0.1-0.3,0-0.4,0c-0.7-0.4-1.3-0.2-1.9,0.1c-0.3,0.2-0.6,0.3-0.9,0.2c-0.5,0.1-1.1-0.3-1.5,0.2c0,0.1-0.1,0.1-0.1,0.2
		c0.3,0.3-0.2,0.4-0.2,0.6c0,0.1,0,0.1,0,0.2c0.1,0.4,0.6,0.7,0.4,1.3c-0.1,0.2,0.2,0.6,0.5,0.6c0.3,0,0.3-0.3,0.3-0.5
		c0-0.2,0.1-0.4,0.3-0.3c0.5,0.3,0.5-0.2,0.8-0.4c0.2-0.2,0.1-0.5,0.4-0.6c0.1,0.1,0.2,0.2,0.4,0.2c0.4,0,0.6,0.2,0.8,0.4
		c0.3,0.2,0.4,0,0.6-0.2c0,0.2-0.1,0.4-0.1,0.6c0,0.1,0,0.1,0,0.2c0.1,0.1,0.1,0.1,0.2,0.1c0.6-0.2,0.7,0.2,0.9,0.6
		c0.1,0,0.1,0,0.2,0c0.2-0.2,0.3-0.5,0.5-0.7C10.8,16.3,10.8,16,10.1,15.4z"/>
	<path class="st1" d="M12.5,30.3c-0.2,0-0.3,0.2-0.5,0.3c0.1,0.3-0.4,0.6-0.1,0.9c-0.1,0.1,0.5,0.2,0,0.4c-0.2,0.1-0.3,0.2,0,0.4
		c0.5,0.1,0.9,0.2,1.1,0.7c0.1,0.2,0.3,0.4,0.6,0.5c0.4-0.4,0.9-0.3,1.3-0.6c0.5-0.1,0.2-0.7,0.5-0.9c0.1,0,0.1-0.1,0.2-0.1
		c0.6-0.5,0.6-0.8-0.1-1.4c0-0.1,0-0.1,0-0.2c0-0.1,0.1-0.2,0.1-0.3c0-0.1,0-0.1,0-0.2c-0.3-0.8-0.4-0.6-1.3-0.3
		C13.8,29.9,13.3,30.6,12.5,30.3z"/>
	<path class="st2" d="M15.6,22.5c-0.1,0-0.2,0-0.3,0c-0.1-0.3-0.2-0.6-0.5-0.7c-0.2,0-0.4,0.1-0.5,0.2c-0.3,0.3-0.6,0.5-1.1,0.5
		c0,0-0.1,0-0.1,0c0,0-0.1,0-0.1-0.1c0,0-0.1,0-0.1-0.1c-0.5-0.2-0.9,0.2-1.2,0.4c-0.1,0-0.1,0.1-0.1,0.2c0,0.5,0.4,0.7,0.7,0.9
		c0.3,0.3,0.6,0.7,1.2,0.5c0.2-0.1,0.3-0.6,0.7-0.2c0.5,0.4,0.9,1,1.7,0.6c0-0.1,0-0.1,0-0.2c0-0.3,0.4-0.5,0.4-0.8
		C16.3,23,16,22.7,15.6,22.5z"/>
	<path class="st3" d="M10.1,15.4c-0.1,0.1-0.1,0.2,0.1,0.3c0.3,0.1,0.4,0.3,0.3,0.5c0,0.1-0.1,0.3-0.1,0.4c0.1,0.3-0.1,0.4-0.2,0.6
		c-0.2,0.1-0.3,0.3-0.2,0.5c0.1,0.2,0.1,0.3-0.1,0.3c-0.2,0-0.2,0-0.3-0.2c-0.4-0.7-0.5-0.7-1.1-0.1c-0.1,0.1-0.2,0.3-0.3,0.4
		c-0.3,0-0.6-0.1-0.6,0.4c0,0.2-0.1,0.3-0.3,0.1c0-0.1-0.1-0.1-0.1-0.2c-0.6-0.3-0.7-0.2-0.6,0.3c0.1,0.5,0,1.1,0.8,1
		c0.2,0,0.4,0.2,0.7,0.3c0.1,0,0.2,0.1,0.3,0.1c0.1,0,0.1,0,0.2,0c0.4-0.4,0.7,0,1.1,0.1c0.3-0.4,0.9-0.3,1-0.9
		c-0.2-0.2-0.1-0.5,0.1-0.7c0.3-0.3,0.2-0.6-0.1-0.9c-0.1-0.1-0.1-0.1-0.2-0.2c-0.1-0.1,0-0.2,0.1-0.3c0.1-0.2,0.2-0.5,0.2-0.7
		C11,16.1,10.7,15.6,10.1,15.4z"/>
	<path class="st4" d="M27.5,4c0.3,0,0.5-0.1,0.8-0.1c0.1,0,0.3,0,0.5,0c0.3,0,0.6,0,0.8-0.3c0.2-0.3,0.3-0.5,0.2-0.8
		c-0.3-0.3-0.7-0.3-1-0.6c-0.1,0-0.1,0-0.2,0c0,0,0,0-0.1,0c-0.1,0-0.1,0-0.1,0c0.1-0.3,0.3-0.7,0.1-1c-0.1-0.1-0.1-0.2-0.2-0.3
		c-0.3-0.2-0.6-0.3-0.9-0.6c-0.1,0-0.2,0.1-0.3,0.2c-0.1,0.4-0.5,0.7-0.3,1.2c0.4,0.6-0.1,0.5-0.4,0.6c-0.1,0.1-0.1,0.2-0.1,0.3
		c-0.3,0.9-0.3,0.9,0.7,0.7c0.1,0,0.2,0,0.3,0C27.5,3.6,27.4,3.8,27.5,4z"/>
	<path class="st5" d="M7.8,34.2c-0.7,0.8-1.2,1.7-2,2.4c-0.1,0.1-0.1,0.2-0.2,0.2C5.8,37.1,6,37,6.3,37c0.5-0.1,1-0.3,1.5-0.4
		c0.6-0.2,1.2-0.4,1.8-0.7c0.2-0.2,0.2-0.4,0.3-0.6c0.1-0.2,0.3-0.5,0-0.7c-0.2-0.3-0.5,0-0.7,0.1c-0.2-0.3,0.1-0.7-0.2-0.9
		C8.4,33.5,8.2,34.1,7.8,34.2z"/>
	<path class="st6" d="M8.8,33.8c0.2,0.1,0.2,0.3,0.1,0.5c-0.1,0.1-0.2,0.3-0.1,0.4C8.9,35,9.1,35,9.4,34.8c0.1,0,0.1-0.1,0.2-0.2
		c0,0,0.1,0,0.1,0c0.1,0,0.1,0.1,0.1,0.2c-0.1,0.2-0.1,0.5-0.2,0.6c-0.2,0.2,0,0.3,0,0.5c0.1,0,0.2,0,0.2,0c0.9-0.4,1.8-0.9,2.7-1.3
		c0.1,0,0.2-0.1,0.2-0.2c0.1-0.2,0-0.4,0-0.6c-0.3-0.5-0.7-0.7-1.2-0.9c-0.1,0-0.1,0-0.2,0c-0.5,0.1-0.7,0.8-1.3,0.9
		c-0.1,0-0.1,0-0.2,0.1C9.4,34,9.1,33.4,8.8,33.8z"/>
	<path class="st7" d="M2.3,34c0,0.1,0,0.1,0.1,0.2c0.3,0.1,0.4,0.5,0.5,0.7c0.1,0.2,0.2,0.4,0.4,0.3c0.4-0.2,0.3-0.7,0.6-0.9
		c0.1,0,0.1-0.1,0.1-0.2c0-0.1,0-0.3,0-0.4c0-0.6-0.1-1.1-0.1-1.7c-0.1-0.3,0-0.7-0.4-0.8c-0.3,0.1-0.3,0.4-0.3,0.6
		C3.3,32.3,3,32,3,32.1c0.2-0.3,0.3-0.7,0.1-1.1C3.1,31,3,30.9,3,30.9c-0.6,0.1-1.2,0.4-1.7,0.6c-0.1,0.1-0.1,0.1-0.1,0.2
		c0.1,0.1,0.1,0.2,0.2,0.3C1.7,32.6,2.2,33.2,2.3,34z"/>
	<path class="st8" d="M15.8,24.5c-0.5,0.2-0.8-0.2-1.2-0.3c-0.1-0.2-0.2-0.4-0.4-0.4c-0.1,0-0.1,0.1-0.1,0.1c0,0.1,0,0.2,0,0.3
		c0,0.2-0.2,0.5,0,0.7c0.1,0.1,0.2,0.2,0.3,0.3c0.2,0.2,0.1,0.3-0.1,0.4c-0.2,0.1-0.4,0.4-0.1,0.5c0.5,0.3,0.7,0.6,0.7,1.1
		c0,0.1,0.2,0.1,0.2,0.2c0.1,0,0.3-0.1,0.4-0.2c0.1-0.3,0.5-0.1,0.7-0.4c0.3-0.3,0-0.6,0.1-1c-0.1-0.1-0.1-0.2-0.2-0.2
		C16,25.6,16,25.4,16,25.2c0,0,0-0.1,0-0.1c-0.1-0.1-0.1-0.1,0-0.2C16,24.7,15.9,24.6,15.8,24.5z"/>
	<path class="st9" d="M10.6,19.3c0,0.1,0,0.3-0.2,0.2c-0.1,0-0.2-0.1-0.3,0.1c-0.1,0.2-0.5,0.2-0.4,0.5c0,0.1,0,0.2,0,0.3
		c0,0.1,0.1,0.3,0.1,0.4c0.1,0.2,0,0.3-0.1,0.4c0.1,0.2,0.3,0.3,0.5,0.3c0.5,0,0.8-0.4,1-0.8c0.2-0.3,0.4-0.6,0.6-0.9
		c0.1-0.1,0.1,0.1,0,0c0,0,0,0-0.1,0c-0.3,0.5-0.6,1.1-1.1,1.6c-0.1,0.2-0.3,0.4,0,0.6c0.6-1.1,1.3-2.1,1.9-3.2
		c0-0.1-0.1-0.1-0.2-0.1c-0.1,0.1-0.2,0.3-0.3,0.5c0.4-0.8,0.4-0.8-0.2-0.8c-0.2,0.3-0.3,0.5-0.5,0.8c-0.1,0.1-0.2,0.2-0.3,0.2
		C11,19.4,11,18.7,10.6,19.3z"/>
	<path class="st10" d="M17.7,30.3c0.3-0.1,0.4-0.4,0.5-0.7c0.3-0.4,0.6-0.9,1.1-1.1c0,0,0.1-0.1,0.1-0.1c0.5-0.6,1.1-0.9,1.8-1.1
		c0,0,0.1-0.1,0.1-0.1c0,0,0-0.1,0-0.1c0,0,0-0.1-0.1-0.1c0,0-0.1,0-0.1,0c-0.6,0.1-1.3,0.2-1.9,0.5c-0.5,0.8-1.4,0.8-2.1,1
		c0,0.1,0,0,0,0.1c0,0.1,0,0.1,0,0.2c0-0.1,0-0.1,0-0.2c-0.1-0.2-0.3-0.1-0.4,0c-0.1,0.2,0.1,0.4-0.1,0.5c0,0.1,0,0.1,0,0.2
		c0.1,0.2,0.4,0.4,0.1,0.6c-0.2,0.2-0.3,0.4,0,0.7c0.1,0,0.1,0.1,0.2,0.1c0.2,0,0.4-0.1,0.6-0.2c0-0.1,0.1-0.1,0.1-0.2
		c0-0.2,0.3-0.2,0.4-0.4c0.1-0.1,0-0.3,0.1-0.5C18,29.7,17.6,29.9,17.7,30.3z"/>
	<path class="st11" d="M16.5,29.2c0,0,0.1-0.1,0.1-0.1c0-0.1,0.1-0.2,0-0.3c0.1-0.1,0.3-0.1,0.4-0.1l0,0c0,0,0.1,0,0.1,0
		c0.3,0.2,0.6,0.3,0.8-0.1c0-0.1,0.1-0.1,0.2-0.1c0.1,0,0.1,0,0.2,0c0.3,0,0.5-0.1,0.7-0.3c0.2-0.1,0.1-0.4,0.1-0.5
		c-1.5,0.4-2.9,1-4.3,1.6c-0.6,0.2-1.1,0.5-1.7,0.8c-0.2,0.1-0.5,0.2-0.7,0.4c0,0.1,0,0.3,0.2,0.2c0.1,0,0.2-0.2,0.3-0.1
		c0.5,0.3,0.6-0.1,0.7-0.4c0-0.1,0.1-0.1,0.1-0.2c0.1-0.1,0.3-0.1,0.3,0c0.1,0.1,0.1,0.2,0.2,0.3c0,0,0.1,0,0.2,0
		c0,0,0.1-0.1,0.1-0.1c0-0.1-0.1-0.2-0.1-0.3c-0.1-0.2-0.1-0.3,0.1-0.3c0.2,0,0.4,0,0.6-0.1c0.2,0.2,0,0.5,0.3,0.6
		c0.2-0.1,0.2-0.2,0.2-0.4C15.8,29.2,16.1,29.2,16.5,29.2C16.5,29.2,16.5,29.2,16.5,29.2z"/>
	<path class="st12" d="M1.2,23.2C1,23.4,1,23.7,0.7,23.9c-0.2,0.2-0.3,0.5-0.2,0.8c0.2,0.4-0.1,0.8,0,1.2c0,0.1,0,0.1,0.1,0.2
		c0.2,0.1,0.3,0.2,0.5,0.3c0.1,0,0.1-0.1,0.2-0.1c0-0.7,0.8-1,0.9-1.6c0-0.6-0.2-1.2-0.3-1.8C1.6,22.8,1.4,23,1.2,23.2z"/>
	<path class="st13" d="M3.2,40c-0.1,0.3-0.1,0.5-0.1,0.8c0,0.1,0.1,0.2,0.2,0.2c0.1,0,0.2,0,0.2-0.1c0.1-0.3,0.2-0.6,0.3-0.9
		C4,39.5,4.1,39,4.3,38.6c0.2-0.4,0.7-0.5,1-0.7c0,0,0.1-0.1,0.1-0.1c0-0.1,0-0.2-0.1-0.3c-0.2,0-0.3,0.1-0.4,0.1
		c-0.5,0.2-0.5-0.1-0.5-0.5c-0.1-0.4,0.2-0.7,0.1-1c0-0.1-0.1-0.2-0.2-0.3c-0.5,0.1-0.4,0.5-0.5,0.8c-0.1,0.6-0.3,1.2-0.4,1.9
		C3.3,38.9,3.4,39.5,3.2,40z"/>
	<path class="st14" d="M9.8,33.9c0.2,0,0.3-0.1,0.5-0.1c0.2,0,0.3-0.2,0.3-0.4c0-0.1,0.1-0.2,0.2-0.2c0.3,0.1,0.3-0.2,0.3-0.3
		c0-0.6,0-0.6-0.8-0.3c0-0.4,0.3-0.6,0.2-1c-0.4,0.1-0.7,0.4-1,0.7c-0.6,0.6-1.1,1.2-1.7,1.8c0.2,0,0.3-0.1,0.5,0
		c0.1,0.1,0.2,0,0.2-0.1c0-0.1,0-0.2,0-0.2c0.1-0.1,0.2-0.1,0.2,0c0.2-0.1,0.3,0,0.4,0.1C9.4,34.1,9.5,34.1,9.8,33.9
		c0-0.2-0.2-0.3-0.3-0.5C9.7,33.5,9.7,33.7,9.8,33.9z"/>
	<path class="st15" d="M24,4.1c0,0.3-0.1,0.5-0.4,0.7c-0.3,0.1-0.5,0.3-0.8,0.4c-0.3,0.2-0.5,0.4-0.7,0.5c0,0.2-0.1,0.2-0.2,0.3
		c-0.3,0.3-0.4,0.6-0.2,0.9c0.6-0.3,1.2-0.7,1.9-1c0.5-0.1,0.1-0.7,0.5-0.8l0,0c0.4-0.4,0.3-1,0.6-1.4c0-0.2-0.1-0.3-0.1-0.4
		c0-0.1-0.1-0.1-0.2-0.1c-0.3-0.1-0.6,0.2-0.4,0.3C24.2,3.8,23.9,3.9,24,4.1z"/>
	<path class="st16" d="M18.7,2c-0.1-0.1-0.2-0.2-0.3-0.1c-0.4,0.1-0.9,0.4-1,0.8c-0.2,0.6-0.4,1.3,0,1.9c0,0.1,0,0.1,0,0.2l0,0
		c0,0.1,0,0.1,0,0.2l0,0c0.1,0.3,0.3,0.2,0.3,0c0-0.4,0.3-0.1,0.4-0.1c0.1,0,0.1,0,0.2-0.1c0.3-0.3-0.1-0.8,0-0.9
		c0.4-0.3,0.3-0.5,0.2-0.8c-0.1-0.2-0.2-0.5,0-0.7C18.6,2.3,18.7,2.2,18.7,2z"/>
	<path class="st17" d="M6.5,16.5c-0.2-0.1-0.3-0.1-0.3,0.1c0,0.1,0.1,0.2-0.1,0.2c0,0-0.1-0.1-0.1-0.2c-0.1-0.1-0.1-0.2-0.3-0.1
		c-0.4,0.2-0.4,0.2-0.4,0.7c0,0.1,0,0.2,0,0.2c-0.1,0.1-0.2-0.1-0.2-0.1C5,17.3,4.9,17.1,4.8,17c-0.1-0.1,0-0.2,0.1-0.2
		c0.2,0,0.2-0.2,0.1-0.3c-0.3-0.2-0.4-0.6-0.6-0.8c-0.1,0.6-0.5,1.2,0.1,1.8c0.1,0.1-0.1,0.2-0.2,0.2c0.1,0.3,0.3,0.3,0.5,0.5
		c0.3-0.1,0.4,0.1,0.5,0.3c0,0,0.1,0.1,0.1,0.1c0.2,0,0.3-0.2,0.4-0.3C6,18.1,6.1,18,6.2,17.9c0.1-0.1,0.3,0,0.4-0.2
		C6.6,17.3,6.8,16.9,6.5,16.5z"/>
	<path class="st18" d="M18.7,2c-0.1,0.1-0.2,0.1-0.3,0.2c0,0.8,0,0.8,1,0.7c0.1,0.2-0.2,0.5,0.1,0.7c0.1,0,0.1,0.1,0.2,0.1
		c0.1,0,0.3-0.1,0.4,0.1c0,0,0.1,0.1,0.2,0.1c0.2,0.1,0.4,0.1,0.4,0.3c0.2,0.4,0.5,0.5,0.9,0.2c0,0,0.1,0,0.1,0c0,0.2-0.3,0.4,0,0.5
		c0.2,0.1,0.3,0,0.3-0.2c0.1-0.2,0.3-0.3,0.2-0.5c-0.1-0.2-0.2-0.3-0.4-0.4c-0.3-0.1-0.5-0.2-0.7-0.4c-0.1-0.1-0.3-0.1-0.4-0.2
		c-0.3,0-0.5-0.2-0.5-0.4c-0.1-0.5-0.5-0.6-1-0.6C19,2.1,18.9,2.1,18.7,2z"/>
	<path class="st19" d="M12.9,18.6c0.3-0.6,0.7-1.1,1.5-1.2c0.1,0,0.2-0.1,0.3-0.2c0-0.2-0.2-0.4-0.4-0.5c-0.2-0.2-0.3-0.5,0-0.7
		c0.2-0.2,0.3-0.4,0.2-0.6c-0.1-0.1-0.2-0.2-0.4-0.2c-0.7,0.9-1.3,1.9-1.8,2.9C12.4,18.3,12.7,18.4,12.9,18.6z"/>
	<path class="st20" d="M6,17.6c0,0.2-0.1,0.3-0.2,0.4c0,0.1,0,0.2,0.1,0.3c0,0,0.1,0.1,0.1,0.1c0,0,0.1,0.1,0.1,0.1
		c0,0.1-0.1,0-0.1,0c0,0-0.1,0.1,0,0.1c0.3,0.2,0.6,0.4,0.7,0.8c0.1,0.2,0.1,0.3,0.2,0.5c0.4,0.3,0.3,0.7,0.4,1.1
		c0.1,0.3,0.3,0.5,0.7,0.4c0.1,0,0.2-0.1,0.2-0.2c0-0.1-0.1-0.2,0.1-0.3c0.1,0,0.1-0.1,0.1-0.1c0,0,0-0.1,0-0.1c0-0.2,0-0.4-0.1-0.5
		c-0.2-0.1,0-0.2,0-0.3c-0.3-0.1-0.5-0.1-0.7-0.4c-0.1-0.1-0.2,0-0.2,0c-0.3,0.2-0.4,0.1-0.4-0.1c-0.1-0.3-0.1-0.7-0.1-1
		c0.2,0,0.3,0.2,0.5,0.2c0.2-0.2,0.1-0.4-0.1-0.5C6.8,17.9,6.5,17.7,6,17.6z"/>
	<path class="st21" d="M16.6,16.1c0.1,0,0.2-0.1,0.3-0.1c0.4-0.2,0.8-0.3,1.2,0.1c0.1,0.1,0.3,0.2,0.5,0.1c0.1-0.2,0-0.4-0.2-0.4
		c-0.4-0.2-0.5-0.6-0.4-1c0-0.4-0.6-0.7-0.2-1.2c0-0.1,0-0.2-0.1-0.2c-0.2-0.1-0.3,0-0.5,0.1c-0.4,0.4-0.6,0.9-0.9,1.4
		c-0.1,0.1-0.1,0.2-0.1,0.3C15.9,15.5,16.3,15.8,16.6,16.1z"/>
	<path class="st22" d="M26.2,5.8c0.1,0.1,0.3,0.2,0.4,0.3c0.1,0.1,0.2,0.2,0.4,0.3c0.3,0,0.6,0.2,0.9-0.2c0-0.3,0.4-0.7-0.2-0.9
		c-0.2-0.1,0.1-0.4,0-0.6c-0.1-0.1-0.2-0.1-0.3,0c-0.1,0-0.2,0.2-0.3,0c-0.2-0.5-0.4-0.3-0.6,0c0,0,0,0.1,0,0.1c0,0.1,0,0,0,0
		c0,0-0.1-0.1-0.1-0.1c0,0-0.1,0-0.1,0c-0.1,0-0.1,0-0.2,0c-0.3,0.1-0.5,0.3-0.7,0.5c-0.1,0.1-0.1,0.1-0.2,0.2
		c-0.2,0.3,0,0.4,0.2,0.3C25.7,5.7,26,5.7,26.2,5.8z"/>
	<path class="st23" d="M28.6,2.1c0.2,0.5,0.6,0.6,1,0.6c0-0.2,0-0.4,0.2-0.6c0.3-0.1,0.6-0.1,0.8-0.3l0,0l0,0c0.3-0.3,0.2-0.7,0.1-1
		C29.8,0.6,28.7,1.3,28.6,2.1z"/>
	<path class="st24" d="M11.1,22.2c-0.1,0.1-0.2,0.3-0.2,0.5c0.2-0.2,0.3,0,0.4,0.1c0.1,0,0.3,0,0.4,0l0,0c0.5-0.2,0.3-0.7,0.6-1
		c0.3,0.2,0.2,0.8,0.7,0.6l0,0c0.2-0.5,0-1,0-1.4c0-0.2-0.2-0.4-0.5-0.3c-0.2,0-0.4,0.1-0.6,0.2c-0.4,0.3-0.7,0.6-0.8,1.2
		c0.2,0,0.2-0.1,0.2-0.2C11.3,21.8,11.3,22,11.1,22.2z"/>
	<path class="st25" d="M8.9,28c-0.3-0.2,0-0.3,0-0.5c0-0.1-0.1-0.1-0.2-0.1c-0.3,0.2-0.6,0.3-0.9,0.5c-0.4,0.6-0.8,1.2-1.1,1.8
		c0,0.6-0.5,0.9-0.6,1.4c0.2,0.4,0.4,0.1,0.6,0c0.2-0.1,0.2-0.4,0.5-0.5c0.2-0.2,0.3-0.4,0.5-0.7c0.1-0.4,0.1-0.8,0.7-0.9
		c0.2,0,0.4-0.2,0.6-0.3C8.9,28.5,8.8,28.2,8.9,28z"/>
	<path class="st26" d="M17.3,9.6c-0.1-0.3-0.3-0.5-0.6-0.5c-0.4,0-0.7-0.1-1,0.3c-0.2,0.2-0.4,0.3-0.7,0.4c-0.3,0.1-0.6,0.4-0.8,0.7
		c-0.1,0.2-0.2,0.4-0.3,0.6c-0.3,0.4-0.4,0.9-0.3,1.4c0,0,0,0.1,0,0.1l0,0.1c0,0.1,0.1,0.1,0.2,0.1c0.1,0,0.1-0.1,0.1-0.2
		c0.2-0.5,0.2-1,0.8-1.3c0.1-0.1,0.3-0.2,0.4-0.3c0,0,0.1-0.1,0.1-0.2c0.1-0.2,0-0.4,0.1-0.5c0.1,0,0.1-0.1,0.2-0.1
		c0.2-0.1,0.3-0.3,0.5-0.4c0,0,0.1-0.1,0.1-0.1c0.1,0,0,0,0,0.1c0,0,0.1,0.1,0.2,0.1c0.3-0.1,0.6,0.1,0.8,0.2c0,0,0.1,0,0.1,0
		c0.1,0,0.1-0.1,0.1-0.2l0,0C17.4,9.7,17.4,9.6,17.3,9.6z"/>
	<path class="st27" d="M17.8,14.7c0,0.1-0.1,0.2-0.1,0.3c-0.2,0.3-0.1,0.5,0.2,0.7c0.2,0.2,0.5,0.2,0.6,0.5c0.4,0.1,0.7-0.1,1-0.5
		c0.2-0.5,0.1-0.8-0.4-1c0,0-0.1-0.1-0.2-0.1c-0.1-0.1-0.3-0.1-0.5-0.2c-0.1,0-0.1,0-0.2,0c-0.1,0-0.1,0.1-0.1,0.1
		C18.1,14.6,17.8,14.5,17.8,14.7z"/>
	<path class="st28" d="M15.1,27.4c0-0.2-0.2-0.3-0.1-0.5c0.1-0.4-0.1-0.6-0.7-0.8c-0.2-0.1-0.2-0.2,0-0.4c0.2-0.2,0.2-0.4,0.2-0.6
		c-0.1-0.1-0.3-0.2-0.4-0.2c-0.2,0.1-0.1,0.4-0.3,0.5c-0.2,0.1-0.3-0.1-0.4-0.2c-0.1,0-0.2,0-0.3,0c0,0.1-0.1,0.1-0.1,0.2
		c0,0,0,0.1,0,0.1c0,0.1,0,0.3,0,0.4c0,0.1,0,0.1,0,0.2c0.1,0.2,0.2,0.4,0.4,0.5c0,0,0.1,0.1,0.1,0.1c0.4,0.4,0.6,0.9,1.2,0.9
		C14.9,27.5,15,27.5,15.1,27.4z"/>
	<path class="st29" d="M7,30.5c-0.2,0-0.2,0.2-0.3,0.3C6.5,31,6.3,31.2,6,31.2c-0.2,0.1-0.2,0.4-0.4,0.5c-0.1,0.1-0.2,0.3-0.2,0.5
		c0.1,0,0.1,0,0.2-0.1c0,0,0,0.1,0,0.1c-0.1,0.2-0.2,0.5-0.3,0.7c-0.1,0.4-0.3,0.7-0.4,1.2c0.1,0.2,0.3,0.3,0.5,0.2
		c0.2-0.1,0.2-0.3,0.4-0.4c0.2-0.4,0.4-0.8,0.5-1.2c-0.1-0.3,0.3-0.5,0.3-0.8C6.6,31.3,7,31,7,30.5z"/>
	<path class="st30" d="M24,4.1c0.1-0.1,0.2-0.2,0.2-0.3c0.1-0.1,0.1-0.1,0-0.2c-0.1,0-0.2-0.1-0.1-0.2c0.1-0.1,0.2-0.1,0.3-0.1
		c0,0,0,0,0.1,0c0.2,0.1,0.5,0.4,0.8,0.1c0-0.1,0-0.1,0-0.2c0-0.1-0.1-0.1-0.1-0.2c-0.3-0.1-0.5-0.3-0.7-0.4
		c-0.2-0.1-0.4-0.5-0.7-0.2c-0.2,0.3-0.9,0.4-0.5,1c0.3,0.4-0.4,0.4-0.3,0.7c0.1,0.4,0.2,0.4,0.4,0.4C23.5,4.5,23.8,4.4,24,4.1z"/>
	<path class="st31" d="M19.8,13.6c0.1,0.1,0.2,0.1,0.2,0.2c0.1,0.2,0.4,0.3,0.6,0.3c0.4,0,0.5-0.1,0.3-0.5c-0.1-0.2,0-0.3,0.1-0.5
		c0.2-0.2,0.4-0.3,0.6-0.5c0.5-0.3,0.8-0.8,1.1-1.2c0.1-0.1,0-0.2-0.1-0.3c-0.2-0.2-0.5-0.2-0.8-0.1c-0.2,0.3,0.5,0.7-0.1,0.9
		c-0.1,0-0.1,0.1-0.2,0.1c-0.1,0.1-0.2,0.2-0.3,0.3c-0.3,0.2-0.6,0.3-0.8,0.6c0,0.1-0.1,0.1-0.1,0.2c0,0.1,0,0.1-0.1,0.2
		c0,0-0.1,0-0.1-0.1c0,0-0.1-0.1-0.1-0.1c0,0-0.1,0-0.1,0c-0.1,0-0.1,0.1-0.2,0.1C19.8,13.3,19.7,13.5,19.8,13.6z"/>
	<path class="st32" d="M20.2,3.7c0,0-0.1-0.1-0.1-0.1c-0.1-0.2-0.2-0.1-0.3,0c0,0-0.1-0.1-0.1-0.1c-0.2,0.1-0.3-0.2-0.5-0.1
		c-0.3,0.5,0.1,0.5,0.4,0.7c0.1,0,0.2,0.1,0.2,0.2c0.5,0.4,1.2,0.6,1.8,0.9C22,5.1,22,5.1,22.1,4.6c-0.1,0-0.1,0.1-0.2,0.1
		c0,0,0,0-0.1,0c-0.1,0-0.1,0-0.1-0.1c0.1-0.1,0.2-0.2,0.2-0.3C22.1,4.1,22,4,21.7,4l0,0c0,0-0.1,0-0.1,0c-0.1,0.1-0.1,0.3-0.3,0.3
		c-0.2,0-0.4-0.1-0.5-0.3C20.7,3.8,20.3,4,20.2,3.7z"/>
	<path class="st33" d="M18,5.9c0.1,0.1,0.2,0.2,0.4,0.2c0.4,0,0.7,0.1,0.9,0.3c0.3-0.3,0.7-0.7,1-1c0.1-0.1,0.2-0.3,0.1-0.4
		c-0.1-0.1-0.3-0.2-0.5-0.1c-0.2,0.1-0.2,0.2-0.4,0.3c-0.2,0-0.3-0.2-0.5-0.2c-0.2-0.1-0.4-0.3-0.6-0.1l0,0
		C17.7,5.1,18.3,5.6,18,5.9z"/>
	<path class="st34" d="M13.1,26c0-0.1,0-0.1,0.1-0.2c0-0.1,0.1-0.2,0-0.3v0c0-0.1-0.1-0.2-0.2-0.2c-0.5-0.1-0.9,0.3-1.4,0.4
		c-0.1,0-0.2-0.1-0.3-0.1c-0.1-0.1,0-0.4-0.2-0.4c-0.2,0-0.3,0.2-0.4,0.4c-0.1,0.2-0.1,0.5-0.2,0.7c0,0.2,0.1,0.3,0.3,0.4
		c0.2,0.1,0.3-0.2,0.5-0.1c0.1,0,0.1,0,0.2,0c0.4,0,0.8-0.3,1.2-0.3c0.2,0,0.3-0.2,0.4-0.1L13.1,26L13.1,26z"/>
	<path class="st35" d="M22.8,4.2C22.9,4,23.3,4,23.5,3.9c0.1-0.1,0.2-0.2,0.1-0.3c-0.3-0.1-0.3-0.4-0.3-0.7c0.1,0,0.2,0.1,0.2,0.1
		c0.1,0.1,0.2,0.2,0.3,0.1c0.1-0.1,0-0.2-0.1-0.3c0,0,0,0,0-0.1c0-0.1,0-0.2,0.1-0.3c0,0,0.2,0,0.2,0c0.2,0.3,0.7,0.3,0.9,0.6
		c0,0,0.1,0,0.2,0c0.1,0,0.1-0.1,0.2-0.1c0-0.5-0.5-0.3-0.7-0.5c-0.1,0-0.2-0.1-0.3-0.1c-0.1-0.1-0.2-0.2-0.4-0.2
		c-0.2,0-0.3,0.1-0.5,0.2C22.8,2.8,22.6,3.4,22.8,4.2z"/>
	<path class="st36" d="M15.5,13.4c-0.3,0.2-0.5,0.5-0.7,0.8c-0.2,0.1-0.2,0.3-0.3,0.5c0.1,0.3,0.3,0.4,0.6,0.5
		c0.3,0,0.5-0.2,0.6-0.4c0.3-0.6,0.7-1,1.3-1.3c-0.2-0.3-0.2-0.8-0.7-0.7c-0.2,0.2-0.4,0.4-0.5,0.6C15.7,13.5,15.6,13.5,15.5,13.4z"
		/>
	<path class="st37" d="M20.5,9.5c-0.3,0-0.5,0-0.8,0.1c-0.2,0-0.5-0.2-0.6,0.1c-0.1,0.2,0.1,0.4,0.2,0.5c0.1,0.1,0.2,0.1,0.3,0.1
		c0.2,0,0.3-0.2,0.4-0.1c0,0,0.1,0.1,0.1,0.1c0.4,0.2,0.6,0,0.9-0.2c0.1,0.2-0.1,0.3-0.2,0.4c-0.5,0.3-0.3,0.4,0.1,0.5
		c0.1,0,0.3,0,0.4-0.1c0.1,0,0.1-0.1,0.1-0.1c0.1-0.4,0.8-0.8,0.2-1.3C21.3,9.3,20.9,9.6,20.5,9.5z"/>
	<path class="st38" d="M19,14.8c0,0.1-0.1,0.2,0,0.2c0.4,0,0.4,0.3,0.4,0.6c0,0,0,0.1,0,0.1c0.3-0.2,0.4-0.4,0.3-0.8
		c-0.1-0.2,0-0.4-0.1-0.6c-0.2-0.2,0-0.4,0-0.6c0-0.2,0.2-0.6-0.3-0.5c-0.1,0.1-0.2,0.1-0.2,0.2c0,0.1,0,0.1-0.1,0.2
		c0,0.1,0,0,0,0.1c0,0.1,0,0.1,0,0.2c-0.1,0,0-0.1,0-0.1c0-0.1-0.1-0.1-0.2-0.1c-0.1,0-0.1,0-0.2,0c0,0-0.1,0-0.1,0
		c-0.3,0-0.6,0.1-0.6,0.4c0,0.2,0.1,0.4,0.3,0.4c0,0,0.1-0.1,0.1-0.1l0,0c0.2,0.1,0.3,0.3,0.6,0.2c0.1,0,0.2-0.1,0.1-0.2
		C19.1,14.6,19,14.7,19,14.8z"/>
	<path class="st39" d="M19.4,10.1c0-0.1-0.1-0.2-0.1-0.3c-0.1-0.1-0.1-0.2,0.1-0.2c0.1,0,0.2,0,0.4,0c0,0-0.1-0.1-0.1-0.1
		c0-0.3,0-0.5-0.4-0.4c-0.3,0.1-0.6,0-0.8-0.2c-0.1,0-0.2,0-0.3,0C18,8.9,18,9,18,9c-0.1,0.3-0.1,0.7-0.5,0.9c0-0.1-0.1-0.1-0.2-0.1
		l0,0c-0.2,0.1-0.2,0.2-0.2,0.4c0,0.1,0.1,0.1,0.1,0.2c0,0,0.1,0,0.1,0.1c0.1,0,0.1,0,0.2,0c0.1,0,0.2,0,0.3,0c0.1,0,0.1,0,0.2,0
		c0.1,0,0.2-0.1,0.2-0.2c0.1-0.1,0.1-0.3,0.3-0.3c0.1,0,0.1,0,0.2,0C18.9,10,19.2,10.2,19.4,10.1z"/>
	<path class="st40" d="M18.3,8.9c0,0.1,0.1,0.1,0.1,0.2c0,0.1,0.1,0.2,0.3,0.2c0.2,0,0.4,0,0.6-0.1c0.3-0.1,0.2,0.2,0.3,0.3
		c0.2-0.4,0.5-0.8,0.7-1.2c-0.1-0.2,0-0.4-0.1-0.6c0,0,0-0.1-0.1-0.1c-0.1,0-0.1,0-0.2,0c-0.3,0.1-0.3,0.7-0.8,0.7
		c-0.2,0.1-0.3,0.3-0.4,0.5c-0.1,0-0.2-0.1-0.4-0.1C18.3,8.7,18.3,8.8,18.3,8.9z"/>
	<path class="st41" d="M19.4,5.3c0,0.1,0.1,0.2,0.2,0.1c0.1,0,0.1-0.2,0.1-0.3C19.8,5.1,19.9,5,20,5c0.2,0.1,0.3,0.2,0.2,0.4
		c0,0,0,0,0,0.1c0.5,0,0.8-0.3,1.3-0.3c0-0.1,0-0.2-0.1-0.2c-0.3-0.1-0.6-0.2-0.8-0.5c0-0.1-0.2-0.1-0.3-0.1
		c-0.3,0.1-0.4-0.2-0.6-0.3c-0.2,0.1-0.3,0.2-0.3,0.4C19.4,4.8,19.3,5,19.4,5.3z"/>
	<path class="st42" d="M13.9,12.5c0,0-0.1,0.1-0.1,0.1c-0.1,0-0.1,0-0.1,0.1c0,0.2,0,0.4,0.2,0.6c0.2,0.3,0.3,0.4,0.9,0.3
		c0.1-0.2,0-0.5,0.1-0.7C14.9,13,15,13,15.1,13c0.2,0,0.3,0,0.5-0.1c0-0.1,0-0.2-0.1-0.3c-0.3-0.3-0.7-0.6-1.1-0.1
		C14.2,12.6,14.1,12.4,13.9,12.5z"/>
	<path class="st43" d="M2.2,24.7c-0.3,0.1-0.3,0.3-0.4,0.6c0,0.2-0.1,0.2-0.3,0.2c-0.2-0.1-0.3,0.1-0.3,0.3c0,0.2,0.1,0.4,0,0.7
		c0.4,0.3,0.8,0.1,1.2,0c0.1-0.1,0.1-0.2,0.1-0.3c0-0.3-0.1-0.5-0.1-0.7c0-0.1-0.1-0.3-0.1-0.4l0,0C2.2,24.8,2.2,24.8,2.2,24.7
		L2.2,24.7z"/>
	<path class="st44" d="M12.5,34c0,0.2,0,0.3,0.1,0.5c0.7-0.3,1.3-0.7,1.9-1.1c0.2-0.1,0.3-0.2,0.5-0.4c0-0.1,0-0.1-0.1-0.1
		c0,0-0.1,0-0.1,0c-0.2,0.1-0.4,0.3-0.6,0c-0.1-0.1-0.2-0.1-0.2,0c-0.1,0.2-0.3,0.4-0.5,0.6c-0.4,0.2-0.6-0.2-1-0.1
		c-0.1,0-0.1,0.1-0.2,0.1C12.3,33.6,12.5,33.8,12.5,34z"/>
	<path class="st45" d="M2.3,26.4c-0.1,0-0.2,0-0.3,0c-0.3,0-0.5,0.1-0.8,0.1l0,0c-0.3,0.1-0.5,0-0.5-0.3h0c0-0.1,0-0.3-0.2-0.3
		c-0.1,0-0.2,0.1-0.2,0.3c-0.1,0.2-0.1,0.4-0.2,0.6c0.1,0.3,0,0.7,0.2,1c0.1,0.1,0.2,0.1,0.3,0.1c0.1,0,0.1,0,0.2-0.1
		c0.2-0.4,0.4-0.9,1.1-0.8C1.9,26.9,2.4,26.8,2.3,26.4C2.3,26.4,2.3,26.4,2.3,26.4z"/>
	<path class="st46" d="M16.6,16.1c0-0.1,0-0.2,0-0.3c0-0.1,0-0.2-0.1-0.2c-0.3,0.1-0.2-0.1-0.2-0.3c0,0,0-0.1,0-0.1
		c-0.5,0.3-1.1,0.5-1.5,1c-0.1,0.2-0.2,0.4,0,0.6c0.2,0.2,0.4-0.1,0.5-0.1c0.2,0,0.3-0.2,0.5-0.1C16.1,16.5,16.3,16.3,16.6,16.1z"/>
	<path class="st47" d="M20,7.6c0,0,0.1,0.1,0.1,0.1c0.2-0.1,0.4,0.1,0.7,0c0,0,0.1-0.1,0.1-0.1c0.1,0,0.2-0.2,0.3-0.2
		c0.1-0.1,0.1-0.1,0.2-0.2c0,0,0-0.1,0-0.1c0,0,0-0.1,0-0.1s0.1,0,0.1,0c0,0,0.1,0,0.1,0c0,0,0.1-0.1,0.1-0.1c0-0.1,0-0.2,0-0.4
		c0-0.3,0.1-0.4,0.3-0.5C22,6,22,6,22,5.9c0,0-0.1,0-0.1,0c-0.4,0.3-0.9,0.5-1.3,0.9c-0.1,0.1-0.3,0.2-0.4,0.4
		C20.1,7.3,20.1,7.4,20,7.6C20,7.5,20,7.5,20,7.6z"/>
	<path class="st48" d="M30.7,0.9c0,0.3,0,0.6,0,0.9c0.3,0,0.6-0.1,0.7-0.3c0,0,0.1-0.1,0.2-0.1c0.5,0.3,1,0,1.5,0
		c0.2,0,0.2-0.2,0.3-0.3l0,0c0,0-0.1,0-0.1-0.1c-0.4-0.1-0.8,0-1.2-0.2c-0.1,0-0.3,0-0.3,0C31.6,1,31.5,1,31.3,1
		C31.1,1.1,30.9,0.7,30.7,0.9z"/>
	<path class="st49" d="M9.9,24.7c0.1-0.3,0.1-0.7,0.1-1c-0.2-0.4-0.5-0.4-0.9-0.4c-0.3,0.1-0.5,0.4-0.6,0.8c-0.1,0.4,0,0.6,0.4,0.5
		c0.2,0,0.4,0,0.6,0.1c0.1,0.1,0.2,0.1,0.3,0.1C9.8,24.7,9.8,24.7,9.9,24.7z"/>
	<path class="st50" d="M25.2,3.3c-0.1,0.1-0.2,0.2-0.4,0.1c-0.1-0.1-0.3-0.1-0.4-0.1l0,0c0,0.1,0.2,0.2,0.2,0.3
		C24.3,4,24.3,4,24.2,4.6c0,0.2-0.1,0.4-0.1,0.6c0.1,0,0.2-0.1,0.3-0.2c0.1-0.1,0.2-0.1,0.3-0.1c0.1,0,0.1,0,0.2-0.1
		c0-0.1,0-0.1,0.1-0.1c0.1,0,0.1,0,0.2-0.1c0-0.3,0.1-0.5,0.2-0.8C25.4,3.7,25.5,3.4,25.2,3.3z"/>
	<path class="st51" d="M3.9,36.7c0.1-0.2,0.2-0.4,0.3-0.6c0-0.1,0.1-0.2,0.2-0.2c0.3-0.1,0.3-0.4,0.4-0.5c0-0.1,0-0.1,0-0.2
		c-0.2-0.1-0.4-0.3-0.6-0.3c-0.3,0.2-0.6,0.3-0.8,0.5c-0.2,0.3,0.3,0.4,0.2,0.7c0.1,0.2,0.1,0.3,0.2,0.5C3.8,36.7,3.8,36.7,3.9,36.7
		z"/>
	<path class="st52" d="M7,30.5c-0.2,0.3-0.3,0.6-0.5,0.9c-0.1,0.1-0.1,0.3-0.1,0.4c0.3-0.3,0.5-0.6,0.6-1c0.1,0,0.2-0.1,0.2-0.1
		c0.4-0.8,1.2-1.2,1.7-1.9c0-0.1,0-0.1-0.1-0.1c-0.1,0-0.1,0-0.2,0c-0.1,0.2-0.3,0.3-0.5,0.2c-0.4,0.2-0.6,0.5-0.7,0.8
		C7.3,30,7.1,30.3,7,30.5z"/>
	<path class="st53" d="M26.2,5.8c-0.3-0.2-0.6-0.3-0.9-0.2c-0.2,0.1-0.2,0-0.2-0.2c-0.3-0.1-0.6,0-0.9,0.1c-0.2,0-0.2,0-0.2-0.3
		c-0.2,0-0.3,0.1-0.3,0.3c0,0.2-0.1,0.4-0.2,0.6C24.5,5.9,25.4,5.8,26.2,5.8z"/>
	<path class="st54" d="M30.7,0.9C30.9,1,31,1.2,31.3,1c-0.3-0.4-0.6-0.6-1.1-0.4c-0.2,0.1-0.4,0.1-0.7,0.1C29.4,0.8,29.3,1,29.1,1
		c-0.1,0-0.2,0.1-0.3,0.2c-0.3,0.3-0.5,0.6-0.2,1l0,0c0.1-0.1,0.1-0.2,0.2-0.3c0-0.2,0.2-0.3,0.3-0.4c0.4-0.1,0.7-0.3,1-0.5
		C30.3,0.8,30.5,0.8,30.7,0.9z"/>
	<path class="st55" d="M19.3,13.5c0.2-0.1,0.3,0,0.3,0.2c0,0.1,0,0.1,0,0.2c0.1-0.1,0.1-0.2,0.2-0.2c0.1-0.1,0.2-0.3,0.2-0.4
		c0.1,0,0.1-0.1,0.2-0.1c0.1-0.4,0.1-0.7-0.3-0.9c-0.1,0-0.1,0.1-0.2,0.1c-0.4,0.9-0.5,0.9-1.3,0.4c-0.1,0-0.2-0.1-0.3-0.1
		c-0.1,0-0.1,0-0.2,0.1c-0.1,0.3,0.1,0.4,0.3,0.6c0.1,0.1,0.1,0.1,0.2,0.2c0,0,0.1,0.1,0.1,0.1c0.1,0.1,0.1,0.1,0.1,0.2
		c0,0.1,0,0.1,0.1,0.1c0,0,0.1,0,0.1,0l0,0c0.1,0,0.1,0,0.2,0c0-0.1,0.1-0.1,0.1-0.2C19.1,13.6,19.2,13.5,19.3,13.5z"/>
	<path class="st56" d="M7.8,21.5c-0.3,0-0.5-0.1-0.6-0.4c-0.1,0-0.2,0.1-0.2,0.2c0,0,0,0.1,0,0.1c0.1,0.1,0.1,0.2,0,0.4
		c0,0.4,0.1,0.8,0.2,1.2c0.2,0.3,0.4,0.2,0.6,0C8.1,22.4,8.2,21.9,7.8,21.5z"/>
	<path class="st57" d="M10.5,31.6c-0.3,0.3-0.2,0.8-0.5,1.1C9.9,32.8,10,33,10.2,33c0.3,0,0.5-0.1,0.7-0.3c0.1-0.1,0.2-0.1,0.3,0.2
		c0,0,0,0.1,0,0.1l0,0c0.6-0.4-0.1-0.7-0.1-1c-0.1-0.2-0.1-0.3-0.3-0.5C10.6,31.4,10.6,31.5,10.5,31.6z"/>
	<path class="st58" d="M21.8,12.1c0.3,0,0.4-0.2,0.5-0.4c0.1-0.1,0-0.3-0.1-0.3c-0.1-0.1-0.3-0.1-0.3-0.3c-0.1,0-0.1-0.1-0.2,0
		c0,0-0.1,0-0.1,0c0,0,0,0,0-0.1l0,0c0-0.1-0.1-0.1-0.2-0.1h0c-0.1,0-0.2,0-0.3,0.1c-0.1,0.3-0.5,0.3-0.5,0.7c0,0.1,0,0.1,0.1,0.2
		c0.2,0.1,0.3,0,0.5-0.1c0,0,0.1,0,0.1,0c0,0-0.1,0-0.1,0c-0.1,0.1-0.1,0.1-0.1,0.2c0.1,0.1,0.1,0.1,0.2,0.1c0.1,0,0.1,0,0.2,0
		C21.6,12.1,21.7,12.1,21.8,12.1z"/>
	<path class="st59" d="M1.2,31.7L1.2,31.7l0.1-0.1c0.2-0.4,0-0.7-0.1-1.1C1,30.2,1,29.8,1,29.5c-0.1-0.2-0.1-0.4-0.2-0.6
		c-0.1-0.2-0.2-0.3-0.5-0.3c0.1,1,0.3,2.1,0.8,3C1.1,31.7,1.1,31.7,1.2,31.7C1.2,31.7,1.2,31.7,1.2,31.7z"/>
	<path class="st60" d="M0.3,28.6c0.2,0.1,0.3,0.2,0.4,0.4c0.2,0,0.2,0.2,0.3,0.3c0.1,0.1,0.3,0.2,0.5,0.1c0.1-0.2,0-0.4-0.1-0.6
		c0-0.1-0.1-0.2-0.1-0.3c0-0.1,0-0.1-0.1-0.2c0,0-0.1,0,0-0.1c0,0,0,0.1,0.1,0.1c0.1,0,0.1-0.1,0.1-0.2c0-0.2-0.2-0.3-0.3-0.3
		c-0.1,0-0.1,0-0.2,0l0,0c-0.1,0-0.2,0-0.3-0.2c-0.1-0.2-0.2-0.4-0.2-0.6c0-0.1-0.1-0.2-0.2-0.3c0,0.1,0,0.1-0.1,0.2
		c0,0.1,0,0.1,0,0.2c0,0.1,0,0.1,0,0.2c0,0.1,0,0.1,0,0.2l0,0c0,0.1,0,0.1,0,0.2c0,0.2,0.1,0.4,0.1,0.6c0.1,0.1,0.2,0.1,0,0.2
		C0.2,28.5,0.2,28.6,0.3,28.6z"/>
	<path class="st61" d="M9.1,23.3c0.3,0.1,0.6,0.2,0.9,0.4c0.1-0.3,0.2-0.7,0.4-1c0-0.2,0.4-0.5-0.1-0.7c-0.3,0-0.4,0.4-0.7,0.5
		c-0.1,0-0.2,0.1-0.2,0.2c-0.1,0.1-0.2,0.3-0.3,0.4C9.1,23.2,9.1,23.2,9.1,23.3z"/>
	<path class="st62" d="M10.6,19.3c0.3-0.2,0.3-0.2,0.4,0c0.1,0.1,0,0.3,0.2,0.2c0.1-0.5-0.1-1-0.2-1.5c0-0.2-0.2-0.3-0.4-0.3
		c0,0.2,0,0.3,0.1,0.5c0,0.1,0,0.2-0.1,0.3c-0.4,0.1-0.1,0.5-0.2,0.7C10.5,19.3,10.5,19.3,10.6,19.3z"/>
	<path class="st63" d="M19.2,6.5c-0.1-0.1,0-0.3-0.2-0.4c-0.1-0.1-0.1-0.4-0.3-0.3c-0.2,0-0.1,0.2-0.2,0.4c0,0-0.1,0-0.1,0
		c0,0.3-0.1,0.6-0.1,0.9c0,0.2-0.1,0.3,0,0.5c0,0,0,0,0.1,0c0.2,0,0.2-0.5,0.6-0.4C19,6.9,19.1,6.7,19.2,6.5z"/>
	<path class="st64" d="M10.9,26.6c-0.1-0.1-0.2-0.2-0.3-0.4c-0.2,0-0.2,0.2-0.3,0.2c-0.1,0.1-0.2,0.3-0.3,0.4
		c-0.1,0.4-0.5,0.6-0.7,0.9c-0.1,0.2-0.4,0.3-0.2,0.5c0.2,0.3,0.4-0.1,0.6-0.2c0.2-0.1,0.3-0.3,0.5-0.5c0.1-0.2,0.3-0.3,0.5-0.4
		c0.1-0.1,0.2-0.2,0.3-0.4C10.9,26.7,10.9,26.7,10.9,26.6z"/>
	<path class="st65" d="M4.3,34.9c0.1,0.2,0.4,0.2,0.5,0.3C5,35.2,5,35.1,5.1,35c0.2-0.3,0.3-0.6,0.3-0.9c-0.2,0-0.3,0-0.4-0.1
		c-0.3,0.1-0.2,0.4-0.5,0.5c0,0-0.1-0.1-0.1-0.1c0-0.1-0.1-0.2-0.3-0.2c0,0-0.1,0.1-0.1,0.1C3.9,34.6,4,34.8,4.3,34.9z"/>
	<path class="st66" d="M17.7,30.3c0.2-0.4,0.4-0.7,0.6-1.1c-0.1-0.1-0.2-0.1-0.2-0.1c-0.4,0-0.4,0-0.4,0.4c0,0.1,0,0.3,0,0.4
		c-0.2,0-0.3,0.1-0.4,0.3l0,0c0,0.4-0.3,0.3-0.6,0.4l0,0c-0.2,0.2-0.1,0.4-0.1,0.6c0,0.1,0.1,0.2,0.1,0.3
		C17.2,31.1,17.4,30.7,17.7,30.3z"/>
	<path class="st67" d="M18.9,7.2c0,0-0.1,0-0.1,0c0-0.2,0.1-0.3,0.2-0.4c0,0,0-0.1-0.1-0.1c0,0-0.1,0-0.1,0
		c-0.1,0.1-0.2,0.2-0.2,0.4c0,0.2-0.1,0.4-0.2,0.6l0,0c0.1,0.4-0.2,0.8,0.2,1.2c0.1,0.1,0.2,0.1,0.3,0c-0.1-0.1-0.1-0.3-0.1-0.5
		C18.7,7.9,18.8,7.5,18.9,7.2z"/>
	<path class="st68" d="M5.9,27c0.1,0.3,0.3,0.5,0.6,0.6C7,27.7,7,27.7,7.1,27.1c0.1-0.2,0-0.3-0.1-0.5c-0.1,0-0.1-0.1-0.2-0.1
		c-0.3,0-0.6,0.2-0.9,0.3C5.9,26.9,5.9,26.9,5.9,27z"/>
	<path class="st69" d="M4.6,14.9c0.1-0.1,0.3-0.3,0.4-0.2c0.4,0.2,0.7,0,1-0.1c-0.1-0.1-0.2-0.2-0.3-0.2c-0.5-0.3-0.8-0.3-1.2,0.1
		c-0.2,0.2-0.4,0.4-0.4,0.8C4.4,15.3,4.4,15,4.6,14.9z"/>
	<path class="st70" d="M2.3,34c0.1-0.7,0.1-0.8-0.4-1.5c-0.1-0.1-0.1-0.2-0.2-0.3c0-0.2-0.1-0.3-0.3-0.4c-0.2,0.2,0,0.4,0,0.6
		C1.6,33,1.9,33.6,2.3,34z"/>
	<path class="st71" d="M4.4,37.1c-0.1,0.1-0.2,0.2-0.2,0.3c0.1,0.1,0.2,0.3,0.3,0.4C4.5,38,4.6,38,4.8,37.9c0.2-0.1,0.4-0.4,0.6-0.4
		c0.4-0.2,0.2-0.4,0-0.6c-0.3,0.1-0.5,0.4-0.8,0.4c-0.1-0.1,0-0.2,0-0.4C4.4,37,4.4,37,4.4,37.1z"/>
	<path class="st72" d="M10.3,26.4c0.1,0,0.2-0.1,0.3-0.2c0.1-0.2,0.1-0.4,0.2-0.6c0.1-0.1,0.2-0.3,0.3-0.5c0,0.2,0,0.4,0,0.5
		c0,0.2,0.2,0.2,0.3,0.1c0.1-0.4,0.4-0.7,0.3-1.1c-0.2-0.3-0.4-0.4-0.6,0c-0.2,0.3-0.2,0.6-0.5,0.8C10.3,25.7,10.4,26.1,10.3,26.4z"
		/>
	<path class="st73" d="M18,5.9c0.1-0.1,0.2-0.2,0.3-0.2c0.3-0.2,0.3-0.2,0-0.4c-0.3-0.2-0.1-0.3,0-0.5c-0.2-0.1-0.4-0.3-0.6-0.4
		c-0.2,0.2,0,0.4,0,0.5c0,0.2-0.1,0.1-0.2,0.1c0,0.2,0.1,0.3,0.2,0.5c0.1,0.1,0.1,0.1,0.1,0.2C17.8,5.8,17.8,5.9,18,5.9z"/>
	<path class="st74" d="M4.6,14.9c-0.2,0-0.3,0.2-0.4,0.3c-0.1,0.5-0.2,1-0.2,1.5c0,0.3,0,0.7,0.3,0.9c0.1,0,0.3,0.1,0.3-0.1
		c0-0.1,0.2-0.3,0-0.4c-0.4-0.2-0.5-0.5-0.3-0.9c0.1-0.2,0-0.5,0-0.7c0,0,0-0.1,0.1-0.1c0.1-0.1,0.2-0.3,0.1-0.5
		C4.6,15,4.6,15,4.6,14.9z"/>
	<path class="st75" d="M10.2,22c0.1,0.1,0.2,0.2,0.1,0.3c0,0.1,0,0.2,0,0.3c0.1-0.2,0.2-0.4,0.3-0.5c0-0.2,0.1-0.3,0.2-0.5
		c0.3-0.5,0.6-1,0.9-1.4c0.1-0.1,0.2-0.2,0.2-0.4c-0.3,0.2-0.4,0.5-0.6,0.8c-0.3,0.5-0.6,0.9-1.2,1l0,0.1c0,0.1,0,0.1,0,0.2
		C10.2,21.9,10.2,22,10.2,22z"/>
	<path class="st76" d="M1.2,23.2c0.1,0,0.1,0,0.2,0c0.1,0.1,0.3,0.1,0.3-0.1c0-0.1,0.1-0.2,0.2-0.2c0.1-0.2,0-0.3,0-0.5
		c-0.1-0.2-0.1-0.5-0.3-0.5c-0.3,0-0.2,0.3-0.3,0.5C1.2,22.7,1.2,22.9,1.2,23.2z"/>
	<path class="st77" d="M15.4,12.7c0,0.1,0,0.1,0.1,0.2c0,0,0,0.1,0,0.1c0,0.1,0,0.2,0.1,0.2c0,0.1,0,0.1,0,0.2c0,0-0.1,0,0,0.1
		c0,0.1,0.1,0.2,0.1,0.3c0.1,0,0.1,0,0.1,0c0.2-0.3,0.3-0.6,0.5-0.8c0-0.1,0-0.2,0-0.3c0-0.1,0-0.1,0-0.2c0,0,0-0.1,0-0.1
		c-0.1-0.1-0.1-0.2-0.3-0.2C15.5,12.1,15.4,12.3,15.4,12.7z"/>
	<path class="st78" d="M9.6,28c-0.2,0-0.2,0.3-0.5,0.1c0.2-0.2,0.4-0.5,0.6-0.7c0.2-0.2,0.4-0.4,0.3-0.7c-0.4,0.4-0.8,0.8-1.2,1.2
		c-0.1,0.1-0.2,0.3-0.1,0.5c0,0.1,0,0.1-0.1,0.2c0,0,0.1,0.1,0.1,0.1c0.1,0,0.1-0.2,0.3-0.2c0.3-0.1,0.4-0.4,0.6-0.5
		C9.7,28,9.7,28,9.6,28C9.7,28,9.6,28,9.6,28z"/>
	<path class="st79" d="M5.9,27c0,0,0.1-0.1,0.1-0.1c0.1-0.5-0.4-1,0-1.5c0.1-0.2,0.3-0.4,0.4-0.7c0-0.1-0.1-0.1-0.2-0.1
		c-0.4,0.1-0.6,0.4-0.8,0.7c-0.2,0.3-0.1,0.6,0,1C5.5,26.6,5.6,26.8,5.9,27z"/>
	<path class="st80" d="M3.6,30.1c-0.1-0.7-0.5-1.3-0.7-1.9c-0.4-0.1-0.3,0.2-0.3,0.4c0,0.4,0.2,0.7,0.3,1c0.1,0.3,0.2,0.6,0.5,0.7
		c0.1,0,0.1,0,0.2,0C3.6,30.2,3.6,30.2,3.6,30.1z"/>
	<path class="st81" d="M15.8,16.6c0-0.1-0.1-0.2-0.2-0.1c-0.2,0.1-0.5,0.2-0.7,0.3c-0.1-0.2,0-0.3,0-0.5c-0.3-0.1-0.5,0-0.6,0.2
		c0,0.1,0,0.2,0,0.2c0,0.3,0.3,0.3,0.5,0.5C15.1,17,15.4,16.8,15.8,16.6z"/>
	<path class="st82" d="M4.4,37.1c0,0,0.1-0.1,0.1-0.1c0.3-0.6,0.5-1.3,0.7-1.9c0-0.1-0.1-0.1-0.2-0.1c-0.1,0.1-0.1,0.2-0.2,0.3l0,0
		c-0.1,0.3-0.3,0.5-0.4,0.9c-0.1,0.2-0.2,0.5-0.2,0.7C4.2,36.9,4.3,37,4.4,37.1z"/>
	<path class="st83" d="M9.1,26.8c0.1-0.1,0.1-0.3,0.1-0.4c-0.1-0.3-0.1-0.4,0.2-0.6c0.3-0.3,0.5-0.6,0.5-1.1c0,0,0,0-0.1,0
		c-0.3,0-0.4,0.4-0.7,0.3C9,25,9,25,8.9,25c-0.1,0-0.2,0.1-0.3,0.1c-0.1,0.3,0.3,0.5,0.1,0.9C8.7,26.3,8.7,26.6,9.1,26.8z"/>
	<path class="st84" d="M16.8,31.4c0-0.1,0-0.2-0.1-0.3c-0.4,0-0.7,0.1-0.8,0.5c-0.1,0.3-0.4,0.1-0.6,0.3l0,0
		c-0.2,0.3-0.1,0.5,0.2,0.5C16.1,32.2,16.5,31.8,16.8,31.4z"/>
	<path class="st85" d="M2.7,28.6c0.1-0.1,0-0.4,0.2-0.4c-0.1-0.6-0.2-1.1-0.4-1.7c0,0-0.1,0-0.1,0c-0.2,0.2-0.2,0.4-0.1,0.6
		c0,0.1,0,0.2,0,0.3c0,0,0,0.1,0,0.1c0,0,0,0.1,0,0.1c0,0.1,0,0.1,0,0.2C2.2,28.7,2.2,28.7,2.7,28.6z"/>
	<path class="st15" d="M25.2,3.3c0.1,0.2,0.1,0.4-0.1,0.6c-0.2,0.2-0.2,0.5,0,0.7c0.3-0.3,0.3-0.7,0.4-1.1c0.1-0.5,0-0.7-0.5-0.9
		c-0.1-0.1-0.3,0-0.4-0.1c0,0.1,0.1,0.2,0.3,0.2c0.2,0,0.3,0.1,0.3,0.3C25.2,3.2,25.2,3.2,25.2,3.3L25.2,3.3z"/>
	<path class="st86" d="M27.4,4.7c0.1,0,0.1,0,0.2,0c0.1,0.3,0.1,0.7,0.6,0.7c0.2-0.2,0.1-0.4-0.1-0.6c-0.2-0.2-0.5-0.5-0.8-0.6
		c-0.1,0-0.1,0-0.2,0c-0.1,0-0.2,0-0.2,0.1c0,0.1,0.1,0.2,0.1,0.3C26.9,5.1,27.2,4.8,27.4,4.7z"/>
	<path class="st87" d="M28.3,5.4C28.1,5.3,28,5.2,28,5c0-0.2-0.2-0.3-0.3-0.4c-0.1,0.2-0.2,0.4-0.2,0.7c0.1,0.4,0.3,0,0.4,0.1
		c0.1,0.3-0.1,0.5-0.1,0.7c0.2,0,0.2-0.2,0.4-0.3C28.2,5.7,28.2,5.5,28.3,5.4z"/>
	<path class="st88" d="M3.5,36.1c0.1,0,0.1,0,0.1-0.1c-0.1-0.2-0.2-0.3-0.2-0.5c0-0.1,0-0.2,0-0.2C3.1,35,3,34.7,2.8,34.4
		c-0.1-0.2-0.2-0.3-0.4-0.2C2.7,34.9,3,35.5,3.5,36.1z"/>
	<path class="st89" d="M3.6,31.3c0.2,0.2,0.1,0.6,0.4,0.8c0,0.1,0,0.1,0.1,0.1c0,0,0.1,0,0.1,0c-0.1-0.7-0.2-1.3-0.4-1.9l0-0.1
		l-0.1,0l0,0C3.1,30.6,3.4,31,3.6,31.3z"/>
	<path class="st90" d="M10.8,31.4c0,0.2,0,0.3,0.1,0.4c0,0,0.1,0,0.1,0.1c0.2,0.1,0.1,0.6,0.5,0.4c0.3-0.1,0.4-0.5,0.2-0.8
		c-0.1-0.2,0-0.5-0.3-0.6c-0.1,0.1-0.2,0.1-0.3,0.2C11,31.2,11,31.4,10.8,31.4L10.8,31.4z"/>
	<path class="st91" d="M10.5,25.4c0.2,0,0.3-0.2,0.4-0.4c0.1-0.1,0.1-0.2,0.2-0.3c0.1-0.1,0.1-0.3,0.2-0.2c0.1,0,0.1,0.2,0.2,0.1
		c0.2,0,0.3-0.2,0.3-0.4c0-0.1,0-0.1,0-0.2c0,0-0.1-0.1-0.2-0.1c-0.2,0-0.3-0.1-0.5-0.2c0,0-0.1,0-0.1,0c0,0,0,0.1,0,0.1
		c0.1,0.2,0,0.3-0.1,0.4C10.8,24.7,10.7,25.1,10.5,25.4z"/>
	<path class="st92" d="M7,14.4c0.3,0,0.6,0.1,0.8-0.2c0.2-0.2,0.4-0.1,0.6,0c0.1,0.1,0.3,0.1,0.4,0.2c0.1,0,0.2,0,0.1,0
		s0.1-0.1,0-0.1c-0.2-0.1-0.4-0.3-0.6-0.4c-0.2-0.1-0.4-0.1-0.6,0C7.4,14,7.1,14.1,7,14.4z"/>
	<path class="st93" d="M5.6,31.7c0.3,0,0.3-0.3,0.4-0.5c0.2-0.3,0.4-0.6,0.6-1c0.1-0.1,0.1-0.3,0.1-0.4c-0.1,0-0.2,0-0.2,0.1
		C6.1,30.4,5.9,31.1,5.6,31.7z"/>
	<path class="st94" d="M26.9,3.4C27,3.3,27,3.2,26.8,3.2c-0.1,0-0.2,0.1-0.3,0.1c-0.1,0.1-0.2,0.2-0.3,0.1c-0.1-0.1,0-0.2,0.1-0.3
		c0.1-0.1,0.2-0.2,0.1-0.3c0,0-0.1,0-0.1,0C26.2,2.8,26.1,3,26,3.1c-0.1,0.1-0.3,0.2-0.1,0.4c0.2,0.2,0.4,0.3,0.6,0.2
		C26.6,3.6,26.8,3.5,26.9,3.4z"/>
	<path class="st95" d="M11.5,31c0,0.1,0,0.2,0,0.3c0,0.2,0,0.3,0.1,0.4c0,0,0.1,0,0.1,0c0.1,0,0.2,0,0.3-0.1c0,0,0,0,0.1-0.1
		c0-0.1-0.1-0.3,0.2-0.4c0.2,0,0.2-0.2,0-0.4c0-0.1-0.1-0.1-0.2-0.1C11.8,30.7,11.6,30.8,11.5,31z"/>
	<path class="st96" d="M12.9,18.6c0-0.2-0.1-0.4-0.4-0.4c-0.1,0-0.1-0.1-0.2-0.1c-0.1,0.2-0.2,0.3-0.3,0.5c0.4,0.1,0.4,0.1,0.3,0.4
		c-0.1,0.1-0.2,0.2-0.2,0.4c0.2-0.1,0.3-0.3,0.4-0.5c0.1,0,0.2-0.2,0.3-0.2C12.8,18.7,12.8,18.6,12.9,18.6z"/>
	<path class="st97" d="M0.3,26.1c0.2-0.2,0.2-0.2,0.4,0c0.1-0.2-0.1-0.5,0.2-0.7c0,0,0-0.1,0-0.1c-0.2-0.1-0.1-0.4-0.3-0.5
		c-0.1,0.2-0.2,0.3-0.2,0.5C0.3,25.5,0.3,25.8,0.3,26.1z"/>
	<path class="st98" d="M6.5,29.9c0.1,0,0.1,0,0.2-0.1c0.4-0.7,0.8-1.3,1.2-1.9c0.1-0.1,0.1-0.2,0.1-0.3C8,27.5,8,27.5,7.9,27.5
		c-0.2,0.2-0.3,0.6-0.6,0.7c-0.1,0.1-0.1,0.2-0.2,0.4C7,29.1,6.6,29.4,6.5,29.9L6.5,29.9z"/>
	<path class="st99" d="M5.4,37c0,0.2,0.2,0.4,0,0.6c0,0.1,0,0.1,0,0.2c0.1,0,0.1,0,0.1-0.1c0.1,0,0.1-0.1,0.2-0.1
		c0.2-0.2,0.5-0.3,0.6-0.6c-0.2-0.2-0.4-0.2-0.6-0.2C5.6,36.8,5.5,36.9,5.4,37z"/>
	<path class="st100" d="M10.9,23.3c0,0.2,0,0.3,0.1,0.4c0,0.1,0,0.1,0.1,0.1c0,0,0.1,0,0.1,0l0,0c0.3-0.2,0.4,0.2,0.6,0.2l0,0
		c0.1,0,0.3-0.1,0.4-0.2c0-0.1,0.1-0.1,0.1-0.2c0-0.1,0-0.1-0.1-0.2c-0.4,0-0.5-0.5-0.9-0.5C11,23,11,23.2,10.9,23.3z"/>
	<path class="st101" d="M6.9,26.7c0,0.1,0,0.3,0.1,0.4c0.2,0.1,0.4,0.3,0.6,0.2c0.2-0.1,0.3-0.2,0.4-0.4c0.1-0.2,0.1-0.5-0.1-0.7
		c-0.1-0.1-0.1-0.1-0.2-0.1c-0.2,0.1-0.2,0.2-0.3,0.3c0,0.2-0.1,0.3-0.3,0.2C7.1,26.7,7,26.7,6.9,26.7z"/>
	<path class="st87" d="M27.4,4.7c-0.2,0-0.2,0-0.3-0.2c0-0.1-0.1-0.2-0.2-0.2c-0.2,0-0.4,0.1-0.6,0.2c0,0.1-0.1,0.2-0.1,0.3
		c0,0,0.1,0.1,0.1,0.1l0,0c0-0.1,0.1-0.1,0.1-0.2c0.1-0.1,0.2-0.2,0.2-0.1c0.2,0.1,0.1,0.2,0,0.3c0,0,0,0,0,0.1c0,0.1,0,0.2,0.1,0.2
		c0.1,0,0.2,0,0.3-0.1C27.3,4.9,27.4,4.8,27.4,4.7z"/>
	<path class="st11" d="M15.6,32.4c-0.2-0.1-0.3-0.3-0.2-0.5C15,32,14.9,32,15,32.3c0,0.2,0.1,0.4-0.2,0.5c0.1,0,0.1,0.1,0.2,0.1
		C15.3,32.8,15.5,32.7,15.6,32.4z"/>
	<path class="st102" d="M7.8,22.9c-0.2,0.1-0.3,0.1-0.5,0c0,0.2,0,0.4,0.1,0.6c0.1,0,0.2,0.1,0.2,0.2c0.1,0,0.1,0,0.2,0
		c0.2,0,0.3-0.1,0.4-0.3c0-0.1,0-0.1,0-0.2C8.1,23.1,8,23,7.8,22.9z"/>
	<path class="st103" d="M3.9,36.7c-0.1,0-0.1-0.1-0.2-0.1c-0.1,0.6-0.3,1.3-0.4,1.9c0,0,0,0.1,0.1,0.1c0,0,0.1,0,0.1,0
		C3.7,37.9,3.9,37.3,3.9,36.7z"/>
	<path class="st104" d="M7.9,27.5c0,0,0.1,0,0.1,0.1c0.2,0,0.4-0.2,0.7-0.2c0,0,0.1,0,0.1,0.1C8.9,27.4,9,27.2,9,27.1
		c-0.3-0.1-0.1-0.7-0.6-0.6c-0.1,0.1-0.2,0.2-0.3,0.3C8.1,27.1,7.9,27.2,7.9,27.5z"/>
	<path class="st105" d="M8.6,26.5c0,0.1,0.1,0.1,0.1,0.2c0,0.3,0.1,0.4,0.4,0.4c0.1-0.1,0.1-0.2,0.1-0.3c-0.1-0.3-0.4-0.5-0.2-0.9
		c-0.1-0.2-0.2-0.2-0.3-0.1c-0.1,0.1-0.1,0.2-0.1,0.4C8.4,26.3,8.5,26.3,8.6,26.5C8.5,26.4,8.6,26.4,8.6,26.5z"/>
	<path class="st106" d="M14.4,22c0.1-0.1,0.2-0.2,0.4-0.3c0-0.1-0.1-0.2-0.2-0.2c-0.1,0-0.3,0.1-0.4,0c-0.2,0-0.4,0.1-0.5,0.2
		c-0.1,0-0.2,0.2-0.3,0.2c-0.1,0.1-0.2,0.2-0.3,0.4l0.1,0C13.7,22.6,13.9,22,14.4,22z"/>
	<path class="st107" d="M14.7,27.5C14.7,27.5,14.7,27.5,14.7,27.5c-0.4-0.2-0.8-0.4-1-0.8c0-0.1-0.1-0.1-0.3-0.1
		c-0.1,0.3,0.3,0.4,0.3,0.6c0,0.3,0.1,0.3,0.3,0.3C14.3,27.6,14.5,27.5,14.7,27.5z"/>
	<path class="st108" d="M20.5,9.5c0.2,0.2,0.4,0.2,0.7,0.1c0.2-0.1,0.3-0.1,0.5,0c0.1,0.2,0.2,0.3,0.4,0.2c0-0.2-0.1-0.4-0.3-0.4
		C21.3,9.3,20.9,9.3,20.5,9.5z"/>
	<path class="st109" d="M9.2,14.2c-0.1,0.2-0.1,0.3-0.1,0.5c0,0.3,0.1,0.3,0.3,0.1c0,0,0.1,0,0.1,0.1c0.1,0.2,0.2,0,0.2-0.1
		c0.1-0.2,0-0.4-0.2-0.5C9.5,14.3,9.4,14.2,9.2,14.2z"/>
	<path class="st110" d="M4.4,34.4c0.3,0,0.3-0.3,0.5-0.5c0.2-0.4,0.4-0.8,0.4-1.2c0,0-0.1,0-0.1,0C5.1,32.9,5,33,5,33.1
		C4.8,33.6,4.6,34,4.4,34.4z"/>
	<path class="st111" d="M26.3,2.4c0.1,0.1,0.3,0.1,0.4,0.1c0.2,0,0.4-0.2,0.4-0.4c0,0,0-0.1-0.1-0.1c-0.1,0-0.2-0.1-0.3-0.1
		c-0.1,0-0.1,0-0.2,0.1c0,0.1,0,0.2-0.1,0.3c-0.1,0-0.1,0.1-0.2,0.1C26.4,2.3,26.4,2.3,26.3,2.4z"/>
	<path class="st112" d="M4.1,32.2c0,0-0.1,0-0.1-0.1C3.8,32.6,4,33,4,33.4c0,0.1,0,0.3,0,0.4c0.1,0.1,0.2,0.1,0.2-0.1
		C4.3,33.2,4.2,32.7,4.1,32.2z"/>
	<path class="st113" d="M16.4,25.9c-0.1,0-0.3-0.2-0.2,0.1c0.1,0.3,0.2,0.6-0.1,0.8c-0.1,0.1-0.1,0.2,0,0.2c0.2-0.1,0.3-0.3,0.4-0.5
		C16.6,26.3,16.5,26.1,16.4,25.9z"/>
	<path class="st114" d="M14.5,21.6c0.1,0.1,0.2,0.1,0.3,0.2c0.2,0.2,0.3,0.5,0.5,0.7c0-0.1,0-0.1,0-0.2c0-0.1,0-0.1,0-0.2
		c-0.2-0.6-0.3-0.6-0.9-0.6C14.4,21.5,14.4,21.6,14.5,21.6C14.5,21.6,14.5,21.6,14.5,21.6z"/>
	<path class="st31" d="M22.1,9.9c-0.1-0.1-0.3-0.2-0.4-0.2c0,0.1,0.1,0.2,0.1,0.3c0.1,0.1,0.1,0.2,0,0.3c-0.3,0.2-0.2,0.6-0.4,0.8
		c0.1,0,0.1,0,0.2,0.1c0.1-0.2,0.2-0.3,0.3-0.5C22.1,10.3,22.2,10.1,22.1,9.9z"/>
	<path class="st115" d="M19.2,8.3c0.1,0.2,0.2,0.3,0.3,0.2c0.1-0.1,0.2-0.1,0.2-0.2C19.7,8,19.9,7.8,20,7.6l0,0c0-0.1,0-0.1-0.1-0.1
		c0,0-0.1,0-0.1,0C19.6,7.7,19.4,8,19.2,8.3z"/>
	<path class="st116" d="M3.5,38.6c0,0-0.1-0.1-0.1-0.1c-0.2,0.5-0.2,1-0.2,1.5c0.1,0,0.2-0.1,0.2-0.2C3.4,39.4,3.5,39,3.5,38.6z"/>
	<path class="st63" d="M18.4,8.7c-0.1-0.4,0-0.8-0.2-1.2c0,0.1-0.1,0.2-0.1,0.3c0,0.1,0,0.1,0,0.2c0,0,0,0.1,0,0.1
		c0,0.1,0,0.1,0,0.2c0,0.1,0,0.1,0,0.2c0,0.1,0,0.1,0,0.2c0,0,0,0.1,0,0.1c0,0,0,0.1,0,0.1c0,0,0,0,0.1,0c0.1,0,0.1,0,0.2-0.1
		C18.4,8.8,18.4,8.8,18.4,8.7z"/>
	<path class="st117" d="M28.1,5.8c-0.2,0-0.3,0.2-0.4,0.3c-0.2,0.1-0.3,0.1-0.5,0.1c-0.1,0-0.2,0-0.3,0.1c0,0,0.1,0.1,0.1,0.1
		c0.1,0,0.2,0.1,0.3,0.1c0.1,0,0.2,0,0.3,0C28.1,6.4,28.1,6.3,28.1,5.8z"/>
	<path class="st118" d="M15.6,22.5c0,0.1,0,0.2,0.1,0.3c0.3,0.2,0.3,0.4,0.3,0.7c0.2,0.2,0.3,0,0.3-0.2
		C16.2,22.6,16.2,22.6,15.6,22.5z"/>
	<path class="st119" d="M26.7,1.8c0.1,0,0.1,0,0.2-0.1c0-0.3,0-0.7,0.2-0.9c0.1-0.1,0.1-0.2,0.1-0.4C26.6,0.8,26.5,1.3,26.7,1.8z"/>
	<path class="st120" d="M27.4,0.3c0.2,0.4,0.5,0.6,0.9,0.6C28.2,0.4,27.8,0.3,27.4,0.3z"/>
	<path class="st121" d="M12.6,26.2c0-0.1-0.1-0.2-0.1-0.1c-0.4,0.1-0.8,0.3-1.2,0.4c0,0.1,0.1,0.2,0.2,0.2
		C11.9,26.5,12.3,26.5,12.6,26.2z"/>
	<path class="st122" d="M7,30.8c-0.2,0.3-0.4,0.7-0.6,1C6.3,32,6.1,32.2,6,32.4c-0.1,0.1,0,0.2,0.1,0.2c0.2-0.4,0.4-0.8,0.7-1.1
		C6.9,31.2,7,31.1,7,30.8z"/>
	<path class="st123" d="M26.3,4.7c0.1-0.1,0.1-0.2,0.1-0.3c-0.3,0.1-0.6,0.2-0.8,0.4c-0.2,0.1-0.2,0.2-0.2,0.4
		c0.3-0.1,0.5-0.3,0.8-0.4C26.2,4.7,26.2,4.7,26.3,4.7L26.3,4.7z"/>
	<path class="st124" d="M15,15.2c-0.1-0.2-0.2-0.4-0.5-0.3c-0.2,0-0.2,0.2-0.3,0.2c0,0-0.1,0.1-0.1,0.1c0.1,0.1,0.2,0.2,0.4,0.2
		c0,0,0.1,0,0.1,0.1c0.1,0,0.2,0.1,0.4,0C15,15.3,15,15.3,15,15.2z"/>
	<path class="st125" d="M7.1,21.3c0.1-0.1,0.1-0.1,0.2-0.2c-0.1-0.3-0.1-0.6-0.2-0.9C7,20,6.9,20,6.7,20C6.8,20.4,6.9,20.9,7.1,21.3
		z"/>
	<path class="st126" d="M33.1,1.4c-0.1-0.1-0.3-0.2-0.4-0.1c-0.3,0.1-0.7,0.1-1,0.1c0.2,0.2,0.4,0.3,0.7,0.2
		C32.5,1.6,32.8,1.6,33.1,1.4z"/>
	<path class="st127" d="M10.9,23.3c0.2,0,0.3-0.2,0.4-0.3c0.1-0.1,0.1-0.2,0-0.3c-0.2-0.3-0.2-0.2-0.4,0
		C10.8,22.9,10.8,23.1,10.9,23.3z"/>
	<path class="st128" d="M5,34.9C5.1,35,5.1,35,5.2,35c0.3-0.4,0.4-0.9,0.5-1.3c-0.2,0-0.3,0.2-0.4,0.3C5.2,34.3,5.1,34.6,5,34.9z"/>
	<path class="st40" d="M20.8,7.7c0,0-0.1-0.1-0.1-0.1c-0.3-0.3-0.3-0.3-0.6,0l0,0c0.2,0.1,0.3,0.3,0.2,0.6
		C20.6,8.1,20.7,7.9,20.8,7.7z"/>
	<path class="st126" d="M32.1,0.9c0,0.1,0.1,0.2,0.1,0.2c0.3,0,0.6,0,1,0.1c0,0,0.1-0.1,0.1-0.1C32.9,0.7,32.5,0.8,32.1,0.9z"/>
	<path class="st129" d="M33.4,1.1c0.1,0.1,0.1,0.3,0.3,0.3c0.1,0,0.2,0,0.2-0.1c0-0.1,0-0.1-0.1-0.2C33.8,0.9,33.7,0.9,33.4,1.1
		L33.4,1.1z"/>
	<path class="st130" d="M16.4,23.2c-0.1,0.1-0.2,0.2-0.3,0.2c-0.1,0.2-0.2,0.3-0.3,0.5c-0.1,0.1-0.1,0.2,0,0.4c0,0,0-0.1,0.1-0.1
		c0.2-0.1,0.2-0.3,0.3-0.4C16.3,23.7,16.5,23.5,16.4,23.2z"/>
	<path class="st131" d="M5.9,18.8C5.9,18.7,5.9,18.7,5.9,18.8C6,18.6,6,18.4,6,18.3c0-0.1-0.1-0.2-0.2-0.3c-0.1,0.2-0.2,0.3-0.3,0.5
		C5.6,18.6,5.7,18.7,5.9,18.8z"/>
	<path class="st132" d="M7.7,23.7c0,0-0.1-0.1-0.1-0.1c-0.2,0.1-0.2,0.3-0.4,0.5C7.1,24.3,7,24.4,7,24.6c0.1,0.1,0.1,0.1,0.2,0.1
		C7.6,24.4,7.8,24.2,7.7,23.7z"/>
	<path class="st133" d="M13.1,26c0,0-0.1,0.1-0.1,0.1l0,0c0,0.1,0,0.1,0,0.2c0.1,0.3,0.1,0.3,0.4,0.3C13.4,26.3,13.3,26.1,13.1,26z"
		/>
	<path class="st131" d="M5.3,18.5c0-0.1,0-0.2-0.1-0.3c0-0.1,0-0.3-0.1-0.3c-0.2,0-0.2,0.1-0.3,0.3C5,18.3,5.2,18.4,5.3,18.5z"/>
	<path class="st28" d="M16.1,27.1c0-0.1,0-0.1,0-0.2c-0.2,0-0.4,0-0.6,0.1c-0.1,0.1,0,0.2,0,0.2C15.7,27.2,15.9,27.1,16.1,27.1z"/>
	<path class="st47" d="M20.4,8.2c0-0.1,0.1-0.1,0.1-0.2c0.1-0.1,0-0.2-0.1-0.3c-0.1,0-0.1-0.1-0.2-0.1C20.2,7.9,20.1,8.1,20.4,8.2
		L20.4,8.2L20.4,8.2z"/>
	<path class="st134" d="M11.5,26.6c-0.1-0.1-0.1-0.1-0.2-0.2c0,0-0.1,0-0.1,0c-0.2,0-0.2,0.3-0.4,0.3c-0.1,0.1-0.2,0.3-0.2,0.4
		c0,0.1,0,0.1,0.1,0.1c0,0,0.1,0,0.1,0C10.9,27,11.1,26.7,11.5,26.6z"/>
	<path class="st135" d="M0.3,28.4c0.1,0,0.2,0.1,0.3,0.1c0,0,0.1,0,0.1,0c0,0,0-0.1,0-0.1c-0.1-0.2-0.2-0.2-0.4-0.2
		C0.2,28.3,0.2,28.4,0.3,28.4z"/>
	<path class="st136" d="M1.4,32.5c0.1-0.2,0-0.4,0-0.6c-0.1-0.1-0.2-0.1-0.2-0.2c-0.1,0-0.1-0.1-0.2-0.1C1.1,31.9,1.2,32.2,1.4,32.5
		z"/>
	<path class="st137" d="M27.5,4c0-0.1,0.1-0.3,0.1-0.4c0-0.2-0.1-0.2-0.2-0.2c0,0-0.1,0-0.1,0.1l0,0c0,0.1,0.1,0.1,0.1,0.2
		C27.3,3.8,27.4,3.9,27.5,4z"/>
	<path class="st138" d="M14.8,13.1c-0.1,0-0.1,0-0.1,0.1c0,0.2,0,0.4,0,0.6C15.1,13.5,15.1,13.5,14.8,13.1z"/>
	<path class="st139" d="M5.3,32.7c0.2-0.1,0.2-0.3,0.3-0.5c0-0.1,0.1-0.1,0-0.2c0,0-0.1,0.1-0.2,0.1c-0.1,0.2-0.2,0.4-0.3,0.5
		C5.1,32.7,5.2,32.8,5.3,32.7C5.2,32.8,5.3,32.8,5.3,32.7L5.3,32.7z"/>
	<path class="st140" d="M7.2,24.7c-0.1,0-0.1-0.1-0.2-0.1c-0.1,0.1-0.2,0.3-0.4,0.1c-0.1-0.1-0.2-0.2-0.4-0.1c0.1,0,0.1,0.1,0.2,0.1
		c0.2,0.4,0.5,0.5,0.8,0.1C7.2,24.7,7.2,24.7,7.2,24.7z"/>
	<path class="st141" d="M9.6,28c0,0,0.1,0.1,0.1,0.1c0.2-0.1,0.4-0.3,0.4-0.5c0-0.1,0-0.1,0-0.1c0,0-0.1,0-0.1,0
		C9.8,27.6,9.8,27.8,9.6,28z"/>
	<path class="st142" d="M30.6,1.9c-0.3,0.1-0.5,0.2-0.8,0.3c0.2,0.1,0.4,0.1,0.6,0C30.5,2.1,30.6,2,30.6,1.9L30.6,1.9z"/>
	<path class="st36" d="M15.5,13.4c0-0.1,0.1-0.1,0.1-0.2c0-0.1-0.2-0.2-0.2-0.3l0,0c-0.1-0.1-0.3-0.1-0.4,0
		C15.2,13.1,15.4,13.2,15.5,13.4z"/>
	<path class="st143" d="M11.1,22.2c0.4-0.1,0.4-0.4,0.6-0.6c-0.3,0-0.3,0.3-0.5,0.4C11.1,22,11.1,22.1,11.1,22.2z"/>
	<path class="st19" d="M14.2,15c0.1-0.1,0.2-0.1,0.3-0.2c0.1-0.2,0.2-0.4,0.3-0.6C14.5,14.4,14.3,14.8,14.2,15z"/>
	<path class="st144" d="M29.1,1c0.4,0,0.4,0,0.4-0.3C29.3,0.7,29.2,0.8,29.1,1z"/>
	<path class="st145" d="M7.2,24.1c0.2-0.1,0.3-0.3,0.4-0.5c0-0.2-0.1-0.1-0.2-0.1C7.3,23.8,7.3,23.9,7.2,24.1z"/>
	<path class="st146" d="M10.1,27.6c0,0,0.1,0,0.1,0.1c0.2-0.1,0.4-0.2,0.5-0.4c0,0-0.1,0-0.1-0.1C10.3,27.2,10.2,27.4,10.1,27.6z"/>
	<path class="st147" d="M4.3,33.8c-0.1,0-0.1,0-0.2,0.1c0,0.1,0,0.2,0,0.3c0.1,0.1,0.2,0.1,0.3,0.2C4.4,34.1,4.4,34,4.3,33.8z"/>
	<path class="st15" d="M21.3,7c0.1,0,0.1,0.1,0.2,0.1c0.1,0,0.1-0.1,0.2-0.1c0,0,0,0,0-0.1c0-0.1-0.1-0.2-0.2-0.2
		C21.2,6.8,21.3,7,21.3,7L21.3,7z"/>
	<path class="st148" d="M14.5,21.6c0,0-0.1,0-0.1-0.1c-0.1,0-0.2,0-0.2,0C14.3,21.8,14.3,21.8,14.5,21.6z"/>
	<path class="st149" d="M7.1,21.7c0.2-0.1,0.2-0.1,0.1-0.3c0,0-0.1-0.1-0.1-0.1C7.1,21.5,7.1,21.6,7.1,21.7z"/>
	<path class="st12" d="M2.2,24.9c-0.2,0.2-0.2,0.2,0.1,0.4C2.4,25.2,2.3,25.1,2.2,24.9z"/>
	<path class="st150" d="M16,24.8c-0.1,0-0.2,0.1-0.1,0.2c0,0.1,0.1,0.1,0.2,0C16,25,16,24.9,16,24.8z"/>
	<path class="st2" d="M16.1,23.8c-0.2,0-0.3,0.2-0.3,0.4C16,24.2,16.1,24,16.1,23.8z"/>
	<path class="st57" d="M10.8,31.4c0.2,0,0.3-0.2,0.4-0.3C11,31.1,10.9,31.3,10.8,31.4z"/>
	<path class="st151" d="M9.1,28.6c0-0.1-0.1-0.1-0.2,0c0,0.1-0.1,0.1-0.1,0.2c0,0,0.1,0,0.1,0C9,28.8,9,28.7,9.1,28.6z"/>
	<path class="st29" d="M5.3,32.7c0,0-0.1,0-0.1-0.1C5,32.8,4.9,33,5,33.1C5.1,33,5.2,32.9,5.3,32.7z"/>
	<path class="st45" d="M2.5,26.1c-0.1,0.1-0.1,0.2-0.2,0.3l0,0c0,0.1,0.1,0.2,0.2,0.2l0,0C2.6,26.4,2.5,26.2,2.5,26.1z"/>
	<path class="st152" d="M13.4,22c0.1,0,0.2-0.1,0.3-0.2C13.5,21.8,13.4,21.8,13.4,22z"/>
	<path class="st153" d="M10.6,17.3c-0.2,0.1-0.2,0.1-0.1,0.3C10.5,17.5,10.5,17.4,10.6,17.3z"/>
	<path class="st23" d="M30.6,1.9c-0.1,0.1-0.1,0.2-0.2,0.3C30.6,2.2,30.7,2.1,30.6,1.9z"/>
	<path class="st22" d="M27.4,6.5c-0.1-0.1-0.2-0.1-0.3-0.1C27.2,6.5,27.3,6.5,27.4,6.5z"/>
	<path class="st40" d="M19.9,7.5c0,0,0.1,0,0.1,0.1c0.1-0.1,0.1-0.2,0.2-0.3C20.1,7.3,20,7.4,19.9,7.5z"/>
	<path class="st19" d="M12.8,18.7c-0.1,0-0.2,0.1-0.3,0.2c0,0,0.1,0,0.1,0.1C12.7,18.9,12.7,18.8,12.8,18.7z"/>
	<path class="st15" d="M21.2,7.4c-0.1,0-0.2,0.1-0.3,0.2C21.1,7.6,21.2,7.5,21.2,7.4z"/>
	<path class="st154" d="M21.9,6C22,6,22,6,22,6.1c0.1-0.1,0.1-0.2,0.1-0.3c0,0-0.1,0.1-0.1,0.1C21.9,5.9,21.9,5.9,21.9,6z"/>
	<path class="st155" d="M17.3,9.9c0.1,0,0.1,0.1,0.2,0.1c0-0.1-0.1-0.1-0.1-0.2C17.4,9.8,17.3,9.8,17.3,9.9z"/>
	<path class="st40" d="M18,8.7c0-0.1,0-0.1,0-0.2C18,8.6,18,8.7,18,8.7z"/>
	<path class="st155" d="M17.3,9.6c0,0.1,0,0.1,0.1,0.2C17.4,9.7,17.4,9.6,17.3,9.6z"/>
	<path class="st156" d="M3.6,30.2c0,0,0.1,0,0.1,0.1C3.7,30.2,3.7,30.2,3.6,30.2C3.6,30.2,3.6,30.2,3.6,30.2z"/>
	<path class="st67" d="M18.1,8c0-0.1,0-0.1,0-0.2C18.1,7.9,18.1,8,18.1,8z"/>
	<path class="st67" d="M18.1,8.4c0-0.1,0.1-0.1,0-0.2C18.1,8.2,18.1,8.3,18.1,8.4z"/>
	<path class="st40" d="M18.1,8.9C18.1,8.9,18,8.9,18.1,8.9C18,8.9,18,9,18,9C18.1,9,18.1,9,18.1,8.9z"/>
	<path class="st45" d="M0.1,27.6c0-0.1,0-0.1,0-0.2C0,27.5,0,27.5,0.1,27.6z"/>
	<path class="st45" d="M0.1,27c0-0.1,0-0.1,0-0.2C0,26.9,0,27,0.1,27z"/>
	<path class="st45" d="M0,27.4c0-0.1,0-0.1,0-0.2C0,27.2,0,27.3,0,27.4z"/>
	<path class="st33" d="M17.7,5.7c0-0.1,0-0.2-0.1-0.2C17.6,5.6,17.6,5.7,17.7,5.7z"/>
	<path class="st73" d="M17.4,4.8c0-0.1,0-0.1,0-0.2C17.3,4.7,17.3,4.8,17.4,4.8z"/>
	<path class="st73" d="M17.4,5c0-0.1,0-0.1,0-0.2C17.4,4.9,17.4,5,17.4,5z"/>
	<path class="st157" d="M13.7,12.8c0,0,0.1-0.1,0.1-0.1c0,0-0.1-0.1-0.1-0.1C13.7,12.6,13.7,12.7,13.7,12.8z"/>
	<path class="st157" d="M13.7,12.5c0,0,0-0.1,0-0.1C13.7,12.4,13.7,12.5,13.7,12.5z"/>
	<path class="st12" d="M2.2,24.7c0,0.1,0,0.1,0,0.2C2.3,24.8,2.3,24.8,2.2,24.7z"/>
	<path class="st158" d="M11.1,23.8c0,0-0.1-0.1-0.1-0.1C11,23.8,11,23.9,11.1,23.8C11.1,23.9,11.1,23.9,11.1,23.8z"/>
	<path class="st15" d="M24.9,4.7c-0.1,0-0.2,0-0.1,0.1C24.8,4.8,24.8,4.8,24.9,4.7z"/>
	<path class="st15" d="M24.6,4.9c-0.1,0-0.2,0-0.3,0.1C24.4,5,24.5,4.9,24.6,4.9z"/>
	<path class="st15" d="M21.9,6c0-0.1,0-0.1,0-0.2c-0.1,0-0.1,0-0.1,0.1C21.8,6,21.9,6,21.9,6z"/>
	<path class="st71" d="M5.7,37.6c-0.1,0-0.1,0-0.2,0.1C5.6,37.7,5.7,37.6,5.7,37.6z"/>
	<path class="st31" d="M21.6,11c0,0,0,0.1,0,0.1C21.6,11.1,21.6,11.1,21.6,11C21.7,11,21.6,11,21.6,11z"/>
	<path class="st4" d="M26.4,2.2c0.1,0,0.1-0.1,0.2-0.1C26.5,2.1,26.5,2.2,26.4,2.2z"/>
	<path class="st87" d="M27.2,4.1c0.1,0,0.2,0,0.2,0C27.3,4.1,27.2,4.1,27.2,4.1z"/>
	<path class="st4" d="M27.3,3.7c0-0.1,0-0.1-0.1-0.2C27.3,3.5,27.3,3.6,27.3,3.7z"/>
	<path class="st28" d="M13,26.3c0-0.1,0-0.1,0-0.2C13,26.2,13,26.2,13,26.3z"/>
	<path class="st2" d="M15.3,22.1c0,0.1-0.1,0.1,0,0.2C15.4,22.2,15.3,22.1,15.3,22.1z"/>
	<path class="st159" d="M8.6,17.9c0.1,0,0.2-0.1,0.2-0.2c0-0.2,0.1-0.2,0.3-0.2c0.2,0,0.3,0.1,0.3,0.3c0,0.2-0.1,0.3-0.1,0.4
		c0,0,0,0.1,0,0.1c0,0,0.1,0,0.1,0c0.3-0.2,0.6-0.3,1-0.2c0-0.2,0-0.3-0.1-0.4c-0.3-0.2-0.2-0.4-0.1-0.6c-0.4,0.1-0.4,0.4-0.4,0.7
		l0,0c-0.2-0.1-0.1-0.3-0.1-0.5c0.1-0.3-0.1-0.5-0.4-0.4c-0.2,0.1-0.4,0.2-0.7,0.1c-0.1,0-0.1,0-0.1,0.1c0,0.1,0,0.2,0,0.2
		c0,0.1,0,0.1,0,0.2C8.5,17.8,8.5,17.9,8.6,17.9z"/>
	<path class="st160" d="M7.3,16.6c0.1,0.2,0.3,0.4,0.3,0.7c0.1,0.2,0.2,0.1,0.3,0c0.2-0.1,0.3-0.2,0.5-0.2c0.1,0,0.2-0.1,0.2-0.1
		C9,16.7,9,16.4,8.7,16c-0.2,0.1-0.1,0.3-0.1,0.4c-0.1,0.2-0.2,0.2-0.4,0.1c0,0-0.1,0-0.1,0C7.8,16.6,7.6,16.5,7.3,16.6z"/>
	<path class="st160" d="M8.1,16.6c0-0.2-0.2-0.4-0.4-0.5c-0.2,0-0.3-0.1-0.5,0.1c0,0,0,0.1,0,0.1C7.5,16.6,7.8,16.6,8.1,16.6
		L8.1,16.6z"/>
	<path class="st160" d="M7.9,15.8c0.1,0,0.1,0,0.2-0.1c0-0.1,0-0.1,0-0.2c0-0.1-0.1-0.1-0.2-0.1c0,0-0.1,0.1-0.1,0.1
		C7.8,15.6,7.8,15.7,7.9,15.8z"/>
	<path class="st17" d="M4.5,15.1c-0.1,0.1-0.2,0.3-0.1,0.5c0.1,0,0.2,0,0.3-0.1c0.1-0.1,0.1-0.2,0.1-0.3C4.7,15.1,4.6,15.1,4.5,15.1
		z"/>
	<path class="st17" d="M5.2,15.7c0,0,0-0.1-0.1-0.1c-0.1,0-0.2-0.1-0.3,0c0,0.1,0,0.2,0.1,0.2C5,15.8,5.1,15.8,5.2,15.7z"/>
	<path class="st3" d="M8.7,17.1c-0.1,0-0.1,0-0.2,0.1c-0.2,0.2-0.5,0.4,0,0.5c0,0,0-0.1,0.1-0.1c0-0.1,0-0.1,0-0.2
		c0,0,0.1-0.1,0.1-0.1C8.7,17.2,8.7,17.1,8.7,17.1z"/>
	<path class="st160" d="M7,15.8c0,0.2,0,0.4,0.2,0.5c0.1,0,0.1-0.1,0.1-0.1l0,0c0-0.1-0.1-0.2-0.1-0.3C7.1,15.8,7,15.8,7,15.8z"/>
	<path class="st11" d="M15.4,31.9c0.3,0,0.6,0.1,0.7-0.4c0.3-0.1,0.5-0.3,0.7-0.4c0.2-0.2,0-0.4,0-0.6c-0.3-0.3-0.3-0.3,0-0.5
		c0.1-0.1,0.3-0.1,0.4-0.4c-0.2-0.2-0.3-0.4-0.5-0.5C16.2,29.4,16,29.8,16,30c0.1,0.6-0.4,0.4-0.6,0.5c-0.2,0.1-0.3,0.4-0.1,0.4
		c0.1,0,0.2,0,0.3,0c0.1,0,0.2,0,0.2,0.1c0,0.2,0,0.5,0,0.7C15.7,31.8,15.5,31.8,15.4,31.9z"/>
	<path class="st95" d="M11.6,31.6c0,0.2,0.2,0.4,0,0.6c0,0.1-0.1,0.1-0.2,0.1c-0.1,0-0.1-0.1-0.1-0.2c0-0.1,0-0.1,0-0.2
		c0-0.2-0.1-0.2-0.3-0.1c-0.1,0-0.1,0.1-0.2,0.1c0,0.2,0,0.4,0.2,0.5c0.3,0.2,0.2,0.4,0.1,0.6c0.2,0.1,0.4,0.3,0.6,0.4
		c0.3,0.2,0.5,0.4,0.7,0.7c0.1-0.2,0-0.3-0.1-0.4c-0.1-0.4-0.7-0.6-0.5-1.1c0,0,0-0.1,0-0.1c-0.1-0.1,0-0.2,0.1-0.3
		c0.2-0.1,0.5-0.1,0.7-0.3c-0.1-0.2-0.2-0.1-0.3-0.1c-0.2,0-0.2-0.1-0.3-0.2l0,0C11.9,31.5,11.7,31.5,11.6,31.6L11.6,31.6z"/>
	<path class="st95" d="M12.5,33.4c0.1,0,0.3,0.1,0.3,0.1c0.1,0.2,0.2,0.3,0.4,0.2c0.2,0,0.2-0.2,0.3-0.3c-0.3-0.3-0.6-0.5-0.6-0.9
		c0-0.1-0.1-0.2-0.2-0.2c-0.3,0-0.5-0.2-0.8,0l0,0c0,0.2,0,0.3,0.1,0.5c0,0.1,0.1,0.1,0.1,0.2C12.2,33.2,12.4,33.2,12.5,33.4z"/>
	<path class="st161" d="M15.4,30.4c0.2,0.2,0.5,0.2,0.8,0.2c0.2-0.1,0.1-0.3,0-0.4c-0.1-0.2-0.1-0.4,0.2-0.5c0.1,0,0.2-0.1,0.1-0.2
		c0-0.2,0-0.3,0.1-0.4c-0.1,0-0.2-0.1-0.3-0.1c-0.6-0.1-0.6-0.1-0.6,0.5c0,0.2,0,0.3-0.1,0.4c0,0-0.1,0.1-0.1,0.1
		c-0.1,0-0.1,0.1-0.1,0.1C15.4,30.4,15.4,30.4,15.4,30.4z"/>
	<path class="st11" d="M14,30.4c0,0.1,0,0.2,0.1,0.3c0,0,0.1,0,0.1-0.1c0-0.1,0.1-0.2-0.1-0.3C14.1,30.3,14.1,30.4,14,30.4z"/>
	<path class="st11" d="M15.5,30.3c0,0,0.1-0.1,0.1-0.1C15.4,30.2,15.4,30.2,15.5,30.3z"/>
	<path class="st162" d="M13,22.2c-0.2-0.1-0.5-0.1-0.3-0.4c0-0.1,0-0.2-0.1-0.2c-0.1,0-0.3-0.1-0.4-0.1c-0.1,0-0.2,0.1-0.2,0.2
		c0.1,0.4-0.1,0.7-0.3,1.1c0.1,0,0.1,0,0.2,0c0.2,0,0.4-0.2,0.6-0.4C12.5,22.2,12.8,22.5,13,22.2z"/>
	<path class="st163" d="M12.2,23.6c0,0-0.1,0.1-0.1,0.1c0,0.1,0,0,0,0.1c0.3,0.3,0.3,0.9,0.7,1.1c0.5,0.2,0.6-0.4,1-0.6
		c0.1,0,0.1,0,0.2,0c0.1,0,0.2,0,0.2-0.2c0-0.1,0-0.1,0-0.2c-0.3-0.5-0.5-0.1-0.8,0.1c-0.1,0.1-0.2,0.2-0.4,0.1
		c-0.3-0.1-0.5-0.4-0.7-0.6C12.2,23.5,12.1,23.5,12.2,23.6z"/>
	<path class="st152" d="M14.4,22c-0.3-0.1-0.5-0.3-0.7,0.1c-0.2,0.1-0.4,0.1-0.6,0.2c-0.1,0.1-0.2,0.3,0,0.3
		C13.7,22.6,14.1,22.5,14.4,22z"/>
	<path class="st162" d="M12.2,23.6c0,0,0.1-0.1,0.1-0.1c-0.4-0.1-0.5-0.4-0.6-0.8c-0.1-0.1-0.2-0.1-0.3,0c0,0.1-0.1,0.2,0,0.3
		C11.4,23.4,11.7,23.6,12.2,23.6z"/>
	<path class="st164" d="M13.4,24c0.1,0,0.2,0,0.2-0.1c0.2-0.2,0.4-0.1,0.6,0c0,0,0-0.1,0.1-0.1c-0.4-0.4-0.4-0.4-0.8,0.1
		C13.4,23.9,13.4,23.9,13.4,24z"/>
	<path class="st165" d="M8.2,20c-0.1,0.1-0.2,0.1-0.1,0.3c0.1,0.2,0.2,0.4,0.1,0.6c0,0.2,0.2,0.4,0.4,0.5c0.3,0.1,0.5,0,0.6-0.3
		c0.1-0.2,0-0.4,0.2-0.6c0.1,0,0.2,0,0.3-0.1c0-0.1,0-0.1-0.1-0.2c0,0-0.1-0.1-0.1-0.1c-0.2-0.1-0.2-0.5-0.5-0.4
		c-0.2,0-0.4,0.3-0.6,0.5l0,0C8.4,20.1,8.3,20.1,8.2,20z"/>
	<path class="st20" d="M8,17.2c-0.1,0.1-0.2,0.2-0.4,0.2c-0.1,0.4-0.1,0.9-0.2,1.3c0,0.1-0.1,0.1-0.2,0c0,0.1,0,0.2,0,0.2
		c0,0.1,0,0.3,0.1,0.3c0.1,0.1,0.4-0.1,0.4-0.3c0-0.2,0.1-0.4,0.1-0.6C8,18.3,7.9,18.4,8,18.5c0.1,0.1,0.1,0.2,0.2,0.1
		c0,0,0-0.1,0.1-0.2C8.3,18,8.4,17.5,8,17.2z"/>
	<path class="st166" d="M2.7,28.6c0,0-0.1,0-0.1,0c-0.2-0.1-0.3-0.2-0.1-0.3c0.2-0.2,0.2-0.4,0.1-0.6c0-0.1,0-0.1-0.1-0.2l0,0
		c0-0.1,0-0.1,0-0.2c0,0,0-0.1-0.1-0.1c-0.1,0-0.1,0-0.2,0C2.1,27.3,2,27.4,2,27.5c-0.1,0.4-0.5,0.5-0.8,0.7l0,0
		c-0.1,0-0.1,0.1-0.1,0.1l0,0c0,0.1,0,0.3,0.1,0.4c0.1,0.1,0.2,0.1,0.3,0.1c1,0.4-0.1,0.5-0.1,0.8c0,0.6,0.6,1.2,1.2,1.1
		c0.1,0,0.2,0.2,0.3,0.2C3,31,3,31,3,31c0.4-0.2,0.2-0.4,0.1-0.6C3.1,30.1,3,29.9,3,29.6C3,29.2,2.8,28.9,2.7,28.6z"/>
	<path class="st156" d="M2.9,31c-0.2-0.2-0.1-0.4-0.3-0.6c-0.2,0.1-0.1,0.3-0.2,0.5c-0.3-0.1-0.2-0.4-0.3-0.5c0-0.1-0.1-0.2-0.2-0.2
		c-0.1,0-0.2,0.2-0.3,0.1c-0.1-0.1-0.1-0.3-0.1-0.4c0-0.1,0-0.2,0.1-0.3c0-0.1,0-0.1-0.1-0.2c0,0-0.1,0-0.1,0
		c-0.2,0.1-0.3,0-0.5-0.1c-0.2,0.1,0.1,0.3-0.1,0.3c-0.2,0.5,0.1,1,0.3,1.5c0,0.2,0.1,0.4,0.2,0.6c0.1,0.1,0.2,0.1,0.4,0
		c0.2-0.1,0.4-0.2,0.6-0.3c0.1-0.1,0.3,0.2,0.4,0C2.7,31.2,2.8,31,2.9,31z"/>
	<path class="st156" d="M3,29.6c-0.1,0.1-0.2,0.1-0.2,0.2c0.1,0.2,0,0.5,0.2,0.7c0.1,0.2,0.1,0.3,0,0.5c0,0.4,0.1,0.7-0.3,1.1
		c-0.1,0.1-0.1,0.2-0.1,0.4c0,0,0,0.1,0.1,0.1c0,0,0.1,0,0.1,0c0.1,0,0.1-0.1,0.1-0.2c0.1-0.2,0.1-0.1,0.2,0c0.1,0.1,0.3,0,0.2-0.2
		c-0.1-0.4-0.1-0.4,0.1-0.8c0.1-0.2,0-0.3,0-0.4c-0.1-0.2-0.2-0.4,0-0.7C3.2,30.1,3.2,29.8,3,29.6z"/>
	<path class="st167" d="M3.4,35.2c0,0.1,0,0.1,0,0.2c0.3-0.1,0.7-0.2,0.9-0.5c-0.1-0.2-0.2-0.4-0.4-0.6c-0.1,0-0.2,0-0.4,0
		c-0.1,0-0.2,0.1-0.1,0.1C3.7,34.8,3.3,35,3.4,35.2z"/>
	<path class="st164" d="M14.2,24.1c-0.1,0-0.1,0-0.2,0.1c-0.6,0.5-1.3,0.9-2,1.1c-0.2,0.1-0.4,0.2-0.4,0.5c0,0,0.1,0.1,0.1,0.1
		c0.2-0.1,0.4-0.1,0.5-0.2c0.2-0.1,0.5-0.2,0.7-0.3c0.1,0,0.2,0,0.2-0.1c0.1,0,0.1,0,0.2,0c0.2-0.1,0.3,0.3,0.6,0.2
		c0.1,0,0.1,0,0.1-0.1c0-0.2,0-0.3,0.1-0.5c-0.1-0.1,0-0.2,0-0.3C14.2,24.3,14.3,24.2,14.2,24.1z"/>
	<path class="st164" d="M14.5,25c-0.1,0.2-0.3,0.4-0.2,0.6c0.3,0,0.3,0,0.4-0.2C14.7,25.3,14.7,25.1,14.5,25z"/>
	<path class="st168" d="M9.4,20.4c0.2,0.2,0.3,0.3,0.3,0.6c0,0.1,0.1,0.2,0.1,0.3c0.1,0,0.2,0.1,0.2,0c0-0.3,0-0.6-0.2-0.8
		C9.7,20.4,9.5,20.3,9.4,20.4z"/>
	<path class="st11" d="M16.8,30.6c0.5,0.1,0.6,0.1,0.6-0.4C17.2,30.5,16.9,30.4,16.8,30.6z"/>
	<path class="st11" d="M17.3,30.2c0.1-0.1,0.3-0.2,0.4-0.3c0,0,0,0-0.1,0c-0.1-0.1-0.3-0.1-0.4,0C17.2,30,17.3,30.1,17.3,30.2z"/>
	<path class="st11" d="M17.1,28.6C17,28.7,17,28.9,17,29c0,0,0,0.1,0.1,0.1c0,0,0.1-0.1,0.1-0.1C17.2,28.9,17.2,28.7,17.1,28.6
		L17.1,28.6z"/>
	<path class="st161" d="M16.6,28.7c-0.1,0.1-0.1,0.2,0,0.3C16.9,28.9,16.7,28.8,16.6,28.7z"/>
	<path class="st97" d="M0.6,26.1c-0.1,0.1-0.1,0.3-0.1,0.4c0,0.1,0,0.2,0.1,0.2c0.1,0,0.2,0,0.3-0.1c0.1-0.1,0.2-0.2,0.2-0.3
		C1.1,26.2,0.9,26.1,0.6,26.1z"/>
	<path class="st65" d="M4.5,36.1c0.1-0.2,0.2-0.3,0.3-0.5c0.1-0.1,0.1-0.2,0-0.4c-0.3,0.1-0.3,0.4-0.4,0.7C4.4,35.9,4.5,36,4.5,36.1
		z"/>
	<path class="st6" d="M9.8,33.9c0.2-0.3-0.1-0.5-0.2-0.7c0,0-0.1-0.1-0.2,0c-0.1,0-0.2,0.1-0.3,0.1c-0.1,0.1-0.2,0.1-0.1,0.3
		c0,0.1,0.1,0.1,0.2,0.1C9.5,33.5,9.6,33.8,9.8,33.9L9.8,33.9z"/>
	<path class="st30" d="M24.6,3.7c0-0.1-0.1-0.2-0.2-0.3C24.4,3.5,24.5,3.6,24.6,3.7z"/>
	<path class="st73" d="M18.3,4.8c0.1,0,0.3,0,0.3,0.1c0.1,0.1,0.2,0.1,0.3,0c0.3-0.1,0.5-0.3,0.7-0.5c0-0.2,0.2-0.4,0.2-0.6
		c-0.1,0-0.3,0-0.4-0.1c-0.2-0.1-0.2-0.2-0.1-0.4C19.1,3,19.1,3,18.4,3.1c0,0.2,0.1,0.3,0.1,0.5c0,0.1-0.1,0.2-0.2,0.1
		c0,0-0.1-0.1-0.1-0.1c0,0-0.1,0-0.1,0c-0.1,0-0.1,0.1,0,0.2C18.2,4.1,18.5,4.4,18.3,4.8z"/>
	<path class="st169" d="M18.4,3.1c0.2,0.1,0.3,0.2,0.5,0.1c0.1-0.1,0.2,0,0.3,0.2c0.1,0.1,0.3,0.2,0.5,0.1c-0.1-0.1-0.3-0.2,0-0.3
		c0.2-0.1,0.2-0.1,0.1-0.3c-0.1-0.2-0.2-0.3-0.4-0.3c-0.1,0-0.2,0.1-0.3,0.1c-0.1,0.1-0.3,0.1-0.4,0.1c-0.2-0.1-0.1-0.3-0.1-0.4
		c0-0.1-0.1-0.1-0.1-0.2C18.2,2.5,18.1,2.8,18.4,3.1z"/>
	<path class="st170" d="M7.1,18.3C7,18,6.8,17.9,6.5,17.7c-0.2,0-0.3-0.2-0.5-0.1c0.3,0.2,0.6,0.3,0.8,0.6C6.9,18.3,7,18.3,7.1,18.3
		z"/>
	<path class="st169" d="M20.2,3.7c0,0.1-0.1,0.1-0.1,0.2c0,0.2,0,0.3,0.2,0.2C20.5,4,20.6,4,20.8,4c0.1-0.3,0.1-0.3-0.2-0.3
		C20.5,3.7,20.4,3.7,20.2,3.7z"/>
	<path class="st169" d="M19.8,3.6c0.1,0,0.2,0,0.3,0c0-0.1,0.1-0.2,0-0.3c-0.1-0.1-0.2,0-0.3,0.1C19.8,3.5,19.8,3.5,19.8,3.6z"/>
	<path class="st171" d="M21.1,3.9C21.2,3.9,21.2,3.9,21.1,3.9C21.1,3.8,21.1,3.8,21.1,3.9C21.1,3.9,21.1,3.9,21.1,3.9
		C21.1,3.9,21.1,3.9,21.1,3.9z"/>
	<path class="st172" d="M14.2,16.7c0,0,0.1-0.1,0.1-0.1c0.1-0.4,0.6-0.5,0.5-1c-0.1-0.1-0.2-0.2-0.3-0.2l0,0
		c-0.1,0.2-0.1,0.4-0.3,0.4c-0.2,0.1-0.3,0.3-0.1,0.5c0,0,0,0.1,0,0.2C14,16.7,14.1,16.7,14.2,16.7z"/>
	<path class="st56" d="M8,21.3c0.1,0,0.2,0.1,0.3,0.1c0.1,0,0.2,0.1,0.3,0l0,0c0-0.3-0.3-0.3-0.4-0.5l0,0C8.1,21,8,21,8,21
		c-0.1,0-0.2,0-0.2,0.1c0,0.1,0.1,0.1,0.1,0.1C7.9,21.2,8,21.2,8,21.3z"/>
	<path class="st173" d="M6,18.3c-0.1,0.1-0.1,0.2,0,0.4c0.1,0,0.1,0.1,0.2,0.1c0,0,0.1,0,0.1,0c0-0.1-0.1-0.1-0.1-0.2
		c0-0.1-0.1-0.1-0.1-0.2C6.1,18.4,6,18.3,6,18.3z"/>
	<path class="st165" d="M8,21c0.1,0,0.1,0,0.2,0C8.1,20.9,8,21,8,21z"/>
	<path class="st131" d="M6.1,18.4c0,0.1,0,0.1,0.1,0.2C6.1,18.5,6.1,18.5,6.1,18.4z"/>
	<path class="st174" d="M16.1,12.2c0,0.1,0,0.1,0.1,0.2c0.3,0.2,0.6,0.4,1,0.5c0.1,0,0.2,0,0.2,0.2c0,0,0.1,0.1,0.1,0.1
		c0.1,0,0.2,0.1,0.2,0.2c0,0,0,0.1-0.1,0.1c0.3,0.3,0.7,0.3,1,0.4l0,0c0.1,0,0.1-0.1,0.1-0.1l0,0c0-0.1,0.1-0.2,0-0.3
		c0,0-0.1-0.1-0.1-0.1c-0.1,0-0.2,0-0.3-0.2C18.3,13,18,12.9,18,12.6c0-0.1,0-0.1,0-0.2c0-0.2,0-0.4-0.2-0.5
		c-0.2-0.1-0.1-0.3-0.2-0.5c-0.4-0.1-0.6,0.4-1,0.4c-0.2,0.1-0.3,0.1-0.5,0.2C16.1,12.1,16.1,12.1,16.1,12.2z"/>
	<path class="st175" d="M18.6,14c-0.2-0.4-0.6-0.4-1-0.4c-0.1,0.2-0.3,0.2-0.3,0.4c0,0.1,0,0.2,0,0.2c0.4,0,0.2,0.5,0.4,0.6
		c0.1-0.1,0.2,0,0.3,0c0.1,0,0.1,0,0.1-0.1c-0.1-0.1-0.2-0.1-0.2-0.2c-0.1-0.2,0-0.3,0.2-0.4C18.3,14,18.5,14,18.6,14z"/>
	<path class="st175" d="M17.6,13.1c-0.1,0.1-0.1,0.2-0.2,0.3c0.1,0,0.2,0,0.3,0C17.7,13.3,17.7,13.2,17.6,13.1z"/>
	<path class="st87" d="M26.4,4.8c-0.1,0.1-0.1,0.3,0,0.4C26.5,5.3,26.5,5.1,26.4,4.8L26.4,4.8z"/>
	<path class="st87" d="M26.3,4.7c-0.1,0-0.1,0-0.2,0C26.2,4.7,26.2,4.7,26.3,4.7z"/>
	<path class="st176" d="M8.7,27.4c0-0.1-0.1-0.1-0.1-0.2c-0.1-0.1-0.2-0.1-0.3,0c-0.1,0.1-0.2,0.2-0.3,0.4C8,27.7,8,27.8,8,27.9
		c0.2,0.1,0.4,0,0.6-0.2C8.6,27.6,8.7,27.5,8.7,27.4z"/>
	<path class="st177" d="M7.5,29.7c0.4-0.2,0.5-0.5,0.7-0.8c-0.1,0-0.2-0.1-0.2-0.1c-0.2,0.1-0.4,0.3-0.6,0.5
		C7.3,29.5,7.4,29.6,7.5,29.7z"/>
	<path class="st157" d="M16.1,12.2c0,0,0.1-0.1,0.1-0.1c0.3-0.1-0.1-0.4,0.2-0.5c0.1-0.1,0.2-0.2,0.2-0.4c0-0.1-0.1-0.1-0.1-0.1
		c-0.1-0.1-0.4,0.2-0.3-0.2c0.4-0.4,0.1-0.5-0.3-0.5c-0.3,0-0.4,0.2-0.7,0.3l0,0c-0.2,0-0.2,0.3-0.4,0.3c-0.3,0-0.4,0.1-0.6,0.3
		c-0.2,0.3-0.3,0.7-0.3,1.1c0.1,0,0.1,0.1,0.2,0.1c0.1,0.1,0.3,0.2,0.4-0.1c0-0.1,0.2-0.2,0.3-0.2c0.1,0,0.2-0.1,0.3,0.1
		c0.1,0.2,0.3,0.2,0.4,0.3c0.1-0.1,0.2-0.2,0.2-0.4C15.8,12.2,15.9,12.1,16.1,12.2z"/>
	<path class="st178" d="M15.2,10.7c0.1,0,0.2,0.1,0.2,0c0.1-0.2,0.3-0.1,0.5-0.2c0.2-0.1,0.3,0,0.3,0.1c-0.1,0.1-0.2,0.1-0.3,0.1
		c0.1,0.2,0.3,0.4,0.5,0.3c0,0,0.1,0.1,0.1,0.1c0,0.2,0,0.4,0.3,0.2c0.1-0.1,0.1-0.3,0.1-0.4c0-0.2-0.1-0.3-0.2-0.4
		c0,0-0.1-0.1-0.1-0.1c0,0-0.1-0.1-0.1-0.1c0-0.1,0-0.1-0.1-0.2c0-0.2,0-0.4-0.1-0.6l0,0c0,0,0-0.1-0.1-0.1c0,0-0.1,0-0.1,0
		c-0.1,0-0.2,0.1-0.3,0.2c-0.1,0.2-0.2,0.2-0.4,0.3l0,0c-0.1,0-0.2,0-0.3,0c-0.1,0-0.2,0.1-0.1,0.2C15.2,10.4,15.3,10.6,15.2,10.7z"
		/>
	<path class="st155" d="M16.2,9.6c0,0.1,0,0.3-0.1,0.4c-0.1,0.2,0,0.3,0.1,0.4c0.3-0.1,0.2,0.1,0.2,0.3c0.1,0.1,0.2,0.3,0.3,0.4
		c0.2,0,0.3-0.1,0.4-0.2c0.1-0.2,0.1-0.3,0.1-0.5c0-0.2,0-0.3,0.1-0.5C16.9,9.4,16.9,9.4,16.2,9.6z"/>
	<path class="st179" d="M14.8,11.1c0.2,0.2,0.2,0.2,0.3-0.1c0-0.1,0.1-0.2,0.1-0.3C14.9,10.7,14.9,10.9,14.8,11.1z"/>
	<path class="st155" d="M16.1,9.5c0,0,0.1,0.1,0.1,0.1C16.3,9.5,16.2,9.4,16.1,9.5z"/>
	<path class="st180" d="M19,14.8c0,0,0-0.1,0.1-0.1c0,0,0-0.1,0-0.1c0,0-0.1,0-0.1,0c0,0-0.1,0.1-0.1,0.1C19,14.7,19,14.7,19,14.8z"
		/>
	<path class="st8" d="M13.9,25.4c-0.1-0.1-0.1-0.1-0.2-0.2c-0.2-0.2-0.2-0.2-0.4,0c0.1,0.1,0.2,0.2,0.3,0.3
		C13.8,25.7,13.8,25.7,13.9,25.4z"/>
	<path class="st8" d="M13.7,26.3c0.1,0,0.2,0,0.2-0.1c0.1-0.1,0-0.3-0.1-0.3c-0.1,0-0.1,0-0.2,0.1C13.5,26.1,13.6,26.3,13.7,26.3z"
		/>
	<path class="st8" d="M13.1,25.3c-0.1,0-0.1,0-0.2,0.1c0.1,0.1,0.2,0.1,0.3,0.2C13.2,25.4,13.1,25.3,13.1,25.3z"/>
	<path class="st8" d="M13.2,25.5c-0.1,0.1-0.1,0.2,0,0.3C13.2,25.7,13.3,25.6,13.2,25.5z"/>
	<path class="st50" d="M25.2,3.3c0-0.1,0-0.1-0.1-0.2c0,0-0.1,0.1-0.1,0.1C25.1,3.2,25.2,3.3,25.2,3.3z"/>
	<path class="st181" d="M17.2,10.4c-0.1,0.1-0.1,0.3-0.1,0.5c0,0.2,0,0.5-0.3,0.5c-0.2,0.1-0.2-0.1-0.3-0.2
		c-0.1,0.1-0.2,0.3-0.2,0.4c0,0.2,0.1,0.4,0.3,0.4c0.1,0,0.2,0.1,0.3,0c0.2-0.2,0.4-0.4,0.7-0.5c0.2,0.1,0,0.3,0.1,0.4
		c0.1,0.1,0.2,0.1,0.1,0.2c-0.1,0.2,0,0.3,0.1,0.4c0.6-0.4,1.2-0.6,1.8-0.2c0,0,0.1-0.1,0.1-0.1c0.3,0,0.3,0.3,0.3,0.4
		c0,0.2,0.1,0.5,0.4,0.5c0.1-0.1,0.2-0.3,0.4-0.4c0.2-0.1,0.3-0.2,0.5-0.4c0.1-0.1,0.1-0.2,0-0.4c-0.1,0-0.2,0-0.3,0
		c0-0.1-0.1-0.2-0.3-0.2c0,0-0.1-0.1-0.1-0.1c0-0.3,0-0.6-0.4-0.7c-0.7-0.2-1.2-0.7-1.7-1.1c-0.1,0-0.2-0.1-0.3-0.1
		c-0.1,0-0.2,0-0.2,0.1c0,0.1,0,0.3,0,0.4c-0.1,0-0.1,0-0.2,0l0,0c-0.1,0-0.3,0.1-0.4,0.1l0,0c0,0-0.1,0-0.1,0c0,0,0,0,0-0.1
		C17.3,10.4,17.3,10.4,17.2,10.4z"/>
	<path class="st182" d="M20.6,13.1c-0.1-0.2-0.2-0.4-0.2-0.7c0-0.2-0.2-0.4-0.4-0.3c0.1,0.3,0.2,0.6,0.2,0.9c0,0.1,0,0.1,0,0.2l0,0
		c0,0.1,0,0.1,0.1,0.2l0,0c0.2,0.2,0.3,0,0.3-0.2C20.5,13.2,20.6,13.2,20.6,13.1z"/>
	<path class="st181" d="M20.5,13.3c-0.1,0.1-0.2,0.2-0.3,0.2c0,0.1,0,0.1,0.1,0.2c0.1,0,0.1,0,0.2-0.1
		C20.5,13.5,20.5,13.4,20.5,13.3z"/>
	<path class="st58" d="M21.4,12c0,0.1,0,0.2,0,0.4c0.1,0,0.2-0.1,0.3-0.2C21.6,12.1,21.6,12,21.4,12L21.4,12z"/>
	<path class="st181" d="M21.4,12c0.1,0,0.2,0.1,0.3,0.1c0,0,0-0.1,0.1-0.1C21.7,12,21.6,12,21.4,12z"/>
	<path class="st181" d="M20.2,13.5c0-0.1,0-0.1-0.1-0.2C20.2,13.3,20.2,13.4,20.2,13.5z"/>
	<path class="st181" d="M20.1,13.3c0-0.1,0-0.1,0-0.2c0,0-0.1,0.1-0.1,0.1C20.1,13.2,20.1,13.2,20.1,13.3z"/>
	<path class="st183" d="M19.7,3.9c-0.1,0.2-0.2,0.4-0.3,0.5c0,0.1,0.1,0.1,0.2,0.1c0.1-0.2,0.1-0.3,0.2-0.5
		C19.8,4.1,19.7,4,19.7,3.9z"/>
	<path class="st18" d="M21.7,4C21.7,4,21.7,4.1,21.7,4C21.7,4.1,21.7,4.1,21.7,4L21.7,4z"/>
	<path class="st121" d="M10.8,26.7c0.2,0,0.3-0.2,0.4-0.3c0-0.1-0.1-0.1-0.1-0.1c-0.1,0.1-0.1,0.1-0.2,0.2
		C10.8,26.6,10.8,26.7,10.8,26.7z"/>
	<path class="st184" d="M17.3,12.9c-0.1-0.1,0-0.3-0.2-0.3c-0.3,0.1-0.5,0-0.7-0.2c-0.1-0.1-0.2-0.1-0.3,0l0,0c0,0.1,0,0.1,0,0.2
		c0,0.1,0,0.1,0.1,0.2c0.1,0,0.2,0,0.2,0.1c0,0.3,0.3,0.4,0.5,0.6l0,0C17.2,13.4,17.2,13.1,17.3,12.9z"/>
	<path class="st185" d="M18.6,9.9c-0.1,0.2-0.1,0.3,0.1,0.4c0.2,0.1,0.4,0.1,0.4,0.4c0,0.2,0.3,0.2,0.4,0.2c0.1,0,0.2,0,0.3,0.2
		c0,0.1,0.1,0.2,0.2,0.2c0.4-0.1,0.5,0.1,0.6,0.4c0,0,0.1,0.1,0.1,0.1c0.1-0.1,0.1-0.5,0.4-0.4c0.1,0,0.1-0.1,0.1-0.1
		c0-0.1-0.1-0.2-0.1-0.3c0-0.1,0-0.1-0.1-0.1c0,0-0.1,0-0.1,0c-0.1,0.1-0.2,0.1-0.3-0.1c0-0.1,0.1-0.1,0.2-0.1
		c0.1-0.1,0.4,0,0.4-0.2c0-0.2,0.2-0.4,0-0.7c-0.2-0.1-0.3,0.2-0.4,0.2c-0.3,0.2-0.5,0.2-0.8,0c-0.2,0.2-0.3,0.4-0.6,0.1
		C19.2,10,18.9,9.9,18.6,9.9L18.6,9.9z"/>
	<path class="st186" d="M18.6,9.9c0.4,0.1,0.7,0.2,1,0.6c0.1,0.1,0.2,0.1,0.3,0.2c0.1,0.1,0.2,0,0.2-0.2c0-0.1,0-0.3,0-0.4l0,0
		c-0.2-0.2-0.3,0.1-0.4,0.1c-0.1-0.1-0.2-0.1-0.3-0.2C19.1,9.9,18.9,9.7,18.6,9.9z"/>
	<path class="st39" d="M19.7,10.2c0.1,0,0.3-0.1,0.4-0.1c0-0.1,0.1-0.1,0-0.2c-0.1-0.1-0.1,0-0.2,0C19.8,10,19.7,10.1,19.7,10.2z"/>
	<path class="st31" d="M21.1,10.9c0,0,0.1,0,0.1,0.1c0.1,0,0.1,0,0.2-0.1C21.3,10.9,21.2,10.8,21.1,10.9z"/>
	<path class="st175" d="M19.1,13.9c-0.1,0-0.1,0-0.2,0c0.1,0.2-0.1,0.3-0.1,0.5C19,14.2,19,14.2,19.1,13.9z"/>
	<path class="st187" d="M18.3,14.5c0,0,0-0.1,0.1-0.1c0,0,0-0.1,0-0.1c-0.1,0-0.1,0-0.1,0.1C18.3,14.4,18.3,14.4,18.3,14.5
		L18.3,14.5z"/>
	<path class="st188" d="M19.3,13.5c-0.2,0-0.2,0.1-0.2,0.2C19.2,13.6,19.2,13.5,19.3,13.5z"/>
	<path class="st175" d="M18.7,13.8c0,0-0.1,0.1-0.1,0.1c0.1,0,0.1,0,0.2-0.1C18.8,13.9,18.8,13.8,18.7,13.8z"/>
	<path class="st155" d="M17.5,10.5c0.2,0.1,0.3,0.1,0.4-0.1C17.7,10.3,17.6,10.3,17.5,10.5z"/>
	<path class="st155" d="M17.3,10.4c0,0.1,0,0.1,0.1,0.1c0,0,0,0,0.1,0C17.4,10.5,17.4,10.5,17.3,10.4z"/>
	<path class="st155" d="M17.9,10.4c0.1,0,0.1,0,0.2,0C18,10.4,18,10.4,17.9,10.4z"/>
	<path class="st189" d="M12.5,33.4c0.2-0.2,0.2-0.2,0-0.3c-0.2,0-0.3-0.2-0.4-0.3l0,0c0-0.2-0.1-0.3-0.2-0.5
		c-0.1,0.1-0.1,0.2-0.2,0.3c-0.1,0.2-0.1,0.4,0.1,0.5c0.2,0.1,0.4,0.2,0.6,0.4C12.4,33.5,12.5,33.4,12.5,33.4z"/>
	<path class="st190" d="M2.1,27.5c0.1-0.1,0.1-0.2,0.2-0.3c0.1,0,0.1,0,0.2,0c0,0,0,0,0.1,0c0-0.2-0.2-0.5,0-0.7
		c-0.1-0.1-0.2-0.1-0.2-0.2c-0.2,0.3-0.4,0.4-0.8,0.4c-0.1,0-0.2-0.1-0.4,0c-0.1,0.1-0.3,0.2-0.2,0.3c0.1,0.3-0.2,0.4-0.2,0.7
		c0,0,0.1,0.1,0.1,0.1c0.2-0.1,0.6,0.3,0.6-0.3C1.4,27.5,1.9,27.6,2.1,27.5z"/>
	<path class="st190" d="M0.4,27.6c0,0.2,0.1,0.2,0.3,0.2C0.6,27.7,0.5,27.7,0.4,27.6z"/>
	<path class="st15" d="M21.3,7C21.2,7,21.2,7,21.3,7C21.2,7.1,21.2,7.1,21.3,7L21.3,7z"/>
	<path class="st191" d="M7.7,23.7c-0.2,0.3-0.4,0.6-0.5,0.9l0,0c0,0.1,0,0.2,0,0.3c0.1,0.1,0.2,0.2,0.3,0.3c0.2,0.2,0.1,0.6,0.4,0.8
		c0.1,0,0.1,0,0.2,0C8.2,26,8.4,26,8.6,25.9c0.1-0.1,0.2,0,0.3,0c0.2-0.3,0.2-0.3,0-0.6c-0.1-0.1-0.1-0.1-0.1-0.3
		c0.1-0.2,0.3-0.4,0.6-0.3c0.2,0,0.3,0,0.3-0.2c0-0.2-0.3-0.2-0.4-0.3c-0.2-0.2-0.3,0.1-0.5,0.1c-0.1,0-0.2-0.1-0.2-0.2
		c0-0.3,0.1-0.7-0.4-0.8C8,23.5,7.8,23.6,7.7,23.7z"/>
	<path class="st192" d="M9.6,24.5c-0.1,0.1-0.1,0.1-0.2,0.1c-0.5-0.2-0.6-0.1-0.6,0.5c0.1,0,0.1,0,0.2-0.1c0.1-0.1,0.1,0,0.2,0.1
		c0.2,0.2,0.3,0.2,0.5,0c0.1-0.1,0.2-0.3,0.3-0.5C9.7,24.7,9.7,24.6,9.6,24.5z"/>
	<path class="st193" d="M8.1,23.4c0.1,0.1,0.2,0.2,0.3,0.4c0,0.1,0.1,0.3,0.2,0.4c0.2-0.3,0.4-0.6,0.6-0.9c0,0,0.1-0.1,0.1-0.1
		C9.1,23,8.9,23,8.8,23.1c-0.1,0.1-0.3,0.3-0.5,0.2c0,0-0.1,0-0.1,0C8.1,23.3,8.1,23.4,8.1,23.4z"/>
	<path class="st175" d="M18.7,13.5c0,0.1-0.1,0.2,0,0.3C18.8,13.7,18.8,13.6,18.7,13.5z"/>
	<path class="st175" d="M18.4,13.2c0,0.2,0.1,0.2,0.3,0.2C18.5,13.3,18.4,13.3,18.4,13.2z"/>
	<path class="st174" d="M18.3,12.7c-0.1-0.1-0.1-0.1-0.2,0C18.2,12.7,18.2,12.8,18.3,12.7z"/>
	<path class="st194" d="M20.8,11.9c0.1,0.1,0.2,0.1,0.3,0.2c0.1-0.1,0.1-0.2,0.2-0.2l0,0C21.1,11.7,21,11.8,20.8,11.9z"/>
	<path class="st194" d="M21.3,11.8C21.3,11.8,21.3,11.7,21.3,11.8C21.3,11.7,21.3,11.7,21.3,11.8L21.3,11.8z"/>
	<path class="st195" d="M0.9,29.5c0.1,0,0.2,0.1,0.2,0c0.1-0.1,0-0.1-0.1-0.2c0,0,0-0.1-0.1-0.1c0,0,0-0.1,0-0.1c0,0,0,0,0-0.1
		c0-0.1,0-0.2-0.1-0.2c-0.1,0-0.1,0.1-0.2,0.1C0.6,29.2,0.7,29.4,0.9,29.5z"/>
	<path class="st195" d="M2.1,27.5c-0.1-0.2-0.2-0.4-0.5-0.2c-0.1,0.1-0.2,0.1-0.3,0c-0.2-0.1-0.2,0-0.1,0.2c0.1,0.2,0.1,0.2-0.1,0.3
		c-0.1,0-0.2,0-0.3,0C1,27.9,1.1,28,1.1,28.2C1.5,28.4,1.7,28.1,2,28C2.1,27.9,2.1,27.7,2.1,27.5z"/>
	<path class="st196" d="M1.2,28.8c0,0.2,0.1,0.4,0.2,0.5l0,0c0.1,0,0.1,0,0.2,0c0,0,0.1,0,0.1-0.1c0,0,0-0.1,0-0.1c0,0,0-0.1,0-0.1
		c-0.1-0.2-0.3-0.2-0.4-0.3C1.2,28.8,1.2,28.8,1.2,28.8z"/>
	<path class="st195" d="M1.3,28.7c-0.1-0.1-0.1-0.2-0.2-0.3C1,28.5,1,28.7,1.2,28.8l0,0C1.3,28.8,1.3,28.7,1.3,28.7z"/>
	<path class="st195" d="M1.1,28.4c0,0,0.1-0.1,0.1-0.1c-0.1,0-0.1-0.1-0.2,0C1,28.2,1,28.3,1.1,28.4z"/>
	<path class="st197" d="M8.2,23.3c0.2,0.1,0.4,0.1,0.5-0.1c0.1-0.1,0.3-0.1,0.4-0.1c0.1-0.1,0.4-0.1,0.2-0.4c-0.3,0-0.5,0.1-0.7,0.2
		C8.5,23.1,8.4,23.2,8.2,23.3z"/>
	<path class="st198" d="M10.1,21.9c-0.2,0.2-0.5,0.4-0.5,0.8c0.1,0,0.2,0,0.3-0.1c0.1-0.2,0.2-0.4,0.3-0.5c0-0.1,0.1-0.2,0-0.3
		C10.1,21.7,10.1,21.8,10.1,21.9z"/>
	<path class="st199" d="M5.9,25.3c-0.3,0.4-0.3,0.8-0.1,1.2c0.1,0.1,0.1,0.2,0.2,0.3C6.2,27,6.4,27,6.6,26.8
		c0.1-0.1,0.2-0.1,0.2-0.2c0.1,0,0.1,0,0.1-0.1c0-0.1,0-0.1,0.1-0.1c0,0,0.1-0.1,0.1-0.1c0,0,0-0.1,0-0.1c0-0.1,0-0.1-0.1-0.2
		c-0.2-0.3-0.3-0.5-0.5-0.7c-0.1-0.1-0.3-0.1-0.4,0c-0.1,0.1-0.1,0.3,0,0.5C6,25.6,6.1,25.5,6,25.4C6,25.3,5.9,25.3,5.9,25.3z"/>
	<path class="st200" d="M7.1,26.3c0,0.1-0.1,0.1-0.1,0.2l0,0.1c0,0-0.1,0.1-0.1,0.1c0,0,0.1,0.1,0.1,0.1c0.1,0.1,0.2,0.1,0.3,0.2
		c0.2,0,0.3-0.1,0.4-0.3c0.1-0.1,0.2-0.3,0.3-0.4c0.1,0,0.1-0.1,0-0.1c-0.1-0.2-0.1-0.4-0.1-0.6c0-0.1-0.1-0.2-0.2-0.3
		C7.2,25.4,7.3,25.9,7.1,26.3z"/>
	<path class="st9" d="M10.1,21.9c0.1-0.1,0.1-0.2,0.2-0.2c0,0-0.1-0.1-0.1-0.1C10.1,21.7,10,21.8,10.1,21.9z"/>
	<path class="st42" d="M15.5,12.9c0,0.1,0.1,0.2,0.2,0.3C15.7,13.1,15.6,13,15.5,12.9z"/>
	<path class="st174" d="M16.2,12.6c0-0.1,0-0.1,0-0.2C16.2,12.5,16.2,12.6,16.2,12.6z"/>
	<path class="st132" d="M6.2,25.3c0.1-0.1,0.2,0,0.3,0c0.4,0,0.7,0,0.7-0.5c0-0.1,0-0.1-0.1-0.2C6.9,25,6.9,25,6.4,24.7
		c-0.3,0.1-0.4,0.3-0.5,0.6c0,0,0.1,0.1,0.1,0.1C6,25.4,6.1,25.4,6.2,25.3z"/>
	<path class="st201" d="M9.1,25.1c0-0.1,0-0.1,0.1-0.2c0-0.1,0-0.1-0.1-0.1c0,0-0.1,0.1-0.1,0.1c0,0,0,0.1,0,0.1
		C9,25.1,9,25.1,9.1,25.1z"/>
	<path class="st190" d="M2.5,27.4c0-0.1,0-0.1,0-0.2l0,0c-0.1,0-0.1,0.1-0.1,0.1l0,0C2.4,27.4,2.4,27.4,2.5,27.4
		C2.5,27.5,2.5,27.5,2.5,27.4z"/>
	<path class="st195" d="M2.5,27.4c0,0-0.1-0.1-0.1-0.1c0,0.1,0,0.1,0,0.2L2.5,27.4L2.5,27.4z"/>
	<path class="st195" d="M2.5,27.6c0,0.1,0,0.1,0.1,0.2C2.5,27.7,2.5,27.6,2.5,27.6z"/>
	<path class="st158" d="M11.7,24c-0.1-0.1-0.2-0.2-0.3-0.3c-0.2-0.1-0.2-0.1-0.3,0.1c0.1,0.1,0.1,0.1,0.2,0.2
		C11.5,24.2,11.5,24.2,11.7,24z"/>
	<path class="st158" d="M11.8,24.1c0.1-0.1,0.1-0.2,0.2-0.3c-0.1,0-0.2,0.1-0.3,0.2C11.7,24,11.8,24.1,11.8,24.1z"/>
	<path class="st90" d="M11.6,31.6c0.2,0,0.3,0,0.4-0.1C11.8,31.4,11.7,31.4,11.6,31.6z"/>
	<path class="st202" d="M7.6,26.6c-0.1,0.1-0.2,0.2-0.4,0.3c0.1,0.1,0.3,0.2,0.4,0.1C7.8,26.9,7.7,26.7,7.6,26.6z"/>
	<path class="st203" d="M8,25.9c0.2,0.1,0.4,0.2,0.5,0.3c0-0.1,0-0.2,0-0.3C8.4,25.8,8.2,25.8,8,25.9z"/>
	<path class="st19" d="M14.7,15.5c0-0.1,0.1-0.1,0.1-0.2c-0.1,0-0.2-0.1-0.3,0C14.6,15.4,14.7,15.5,14.7,15.5z"/>
	<path class="st204" d="M7.3,16.2c0,0-0.1,0.1-0.1,0.1c0,0.1,0.1,0.2,0.2,0.3c0.3,0.2,0.6,0.3,0.8-0.1C7.9,16.3,7.5,16.4,7.3,16.2z"
		/>
	<path class="st0" d="M9.8,18C9.8,18,9.8,18,9.8,18C9.9,18,9.9,18,9.8,18L9.8,18z"/>
	<path class="st0" d="M8.6,17.4c0,0.1,0,0.1,0,0.2C8.6,17.5,8.6,17.4,8.6,17.4z"/>
	<path class="st3" d="M8.4,20.2c0,0.1,0,0.2,0.1,0.2c0,0,0.1,0,0.1-0.1c0-0.1,0-0.1-0.1-0.1C8.5,20.2,8.5,20.2,8.4,20.2L8.4,20.2z"
		/>
	<path class="st195" d="M1.5,29.4c-0.1,0.1-0.1,0.2,0,0.3c0.1-0.1,0.2-0.2,0.4-0.1c0.2,0,0.3-0.1,0.3-0.3c0-0.2-0.3-0.6-0.5-0.6
		c0,0-0.1,0.1-0.1,0.1c0,0.1,0.2,0.2,0.2,0.3l0,0c0,0.1,0,0.1-0.1,0.1l0,0C1.5,29.3,1.5,29.3,1.5,29.4z"/>
	<path class="st60" d="M1.7,29.1c0-0.1-0.1-0.2-0.2-0.3c-0.1,0-0.2-0.1-0.3-0.1c0,0-0.1,0.1-0.1,0.1C1.3,28.9,1.5,29,1.7,29.1z"/>
	<path class="st195" d="M2.4,27.4L2.4,27.4l0.1-0.1c-0.1,0-0.1,0-0.2,0.1C2.3,27.3,2.4,27.3,2.4,27.4z"/>
	<path class="st60" d="M1.5,29.4c0,0,0.1-0.1,0.1-0.1c-0.1,0-0.1,0-0.2,0.1C1.4,29.3,1.5,29.3,1.5,29.4z"/>
	<path class="st165" d="M8.6,21.4c-0.1-0.1-0.2-0.1-0.3,0C8.4,21.4,8.5,21.4,8.6,21.4z"/>
	<path class="st36" d="M17.3,12.9C17,13,17,13.3,16.9,13.5c0,0,0.1,0,0.1,0c0.1-0.2,0.2-0.3,0.3-0.5C17.4,12.9,17.4,12.9,17.3,12.9z
		"/>
	<path class="st205" d="M17.7,11.9c0.1-0.1,0.1-0.2,0.2-0.3c0.1-0.1,0-0.3-0.1-0.3c-0.2-0.1-0.2,0.1-0.2,0.2c0,0.1-0.1,0.2-0.1,0.3
		C17.5,11.9,17.6,12,17.7,11.9z"/>
	<path class="st77" d="M16.6,12c-0.1-0.1-0.2-0.3-0.3-0.4c-0.1,0-0.1,0-0.1,0.1c0,0.1,0,0.2,0,0.4C16.3,12.2,16.5,12.1,16.6,12z"/>
	<path class="st181" d="M16.4,11.1c-0.2-0.1-0.4-0.2-0.5-0.3c0,0.1-0.1,0.1-0.1,0.2c0,0.3,0.2,0.4,0.4,0.3
		C16.3,11.3,16.3,11.2,16.4,11.1z"/>
	<path class="st206" d="M16.8,11.4c0.1,0.1,0.2,0.2,0.3,0.1c0.1-0.1,0.2-0.2,0.2-0.4c0-0.1-0.1-0.2-0.2-0.3c-0.1,0-0.2,0.1-0.3,0.2
		C16.8,11.1,16.8,11.2,16.8,11.4z"/>
	<path class="st207" d="M16.5,10.6c0.1,0,0.2,0,0.3-0.1c0,0,0.1-0.1,0.1-0.1c-0.1-0.2-0.3-0.3-0.5-0.4c0,0-0.1,0.1-0.1,0.1
		c0,0.1,0,0.2,0,0.2l0,0c0,0.1,0,0.1,0.1,0.2C16.4,10.6,16.5,10.6,16.5,10.6z"/>
	<path class="st157" d="M15.4,10C15.4,10,15.4,10.1,15.4,10C15.5,10.1,15.5,10.1,15.4,10L15.4,10z"/>
	<path class="st155" d="M16.4,10.6c0-0.1,0-0.1-0.1-0.2C16.3,10.4,16.4,10.5,16.4,10.6z"/>
	<path class="st95" d="M12.1,32.8C12.1,32.8,12.1,32.8,12.1,32.8C12,32.8,12.1,32.8,12.1,32.8L12.1,32.8z"/>
	<path class="st208" d="M7.2,24.9C7.1,25,7,25.2,6.8,25.2c-0.1,0-0.2,0.1-0.2,0.2c0.1,0.3,0.3,0.5,0.4,0.8c0.1,0,0.1,0,0.1,0
		c0,0,0,0.1,0,0.1l0,0c0.3-0.1,0.4-0.3,0.5-0.6c0-0.2,0-0.4,0.1-0.5C7.5,25,7.3,25,7.2,24.9z"/>
	<path class="st60" d="M1.6,29.2c0.1,0,0.2,0,0.1-0.1C1.7,29.2,1.6,29.2,1.6,29.2z"/>
	<path class="st209" d="M6.2,25.3c-0.1,0-0.2,0-0.3,0.1c-0.1,0.5-0.1,0.5,0.4,0.7C6.3,25.8,6.3,25.6,6.2,25.3z"/>
	<path class="st210" d="M6.9,26.5L6.9,26.5c0-0.1-0.1-0.2-0.2-0.3c0,0-0.1,0-0.1,0c0,0,0,0.1,0,0.1C6.8,26.4,6.8,26.5,6.9,26.5z"/>
	<path class="st200" d="M7.1,26.2c0-0.1,0.1-0.2,0.1-0.2C7,26,7,26.1,7,26.1C7,26.2,7,26.2,7.1,26.2z"/>
</g>
</svg>
